<svg xmlns="http://www.w3.org/2000/svg" xmlns:xlink="http://www.w3.org/1999/xlink" width="378" zoomAndPan="magnify" viewBox="0 0 282.96 283.499989" height="378" preserveAspectRatio="xMidYMid meet" version="1.0"><defs><clipPath id="e95262b0ea"><path d="M 154 78.390625 L 165 78.390625 L 165 89 L 154 89 Z M 154 78.390625 " clip-rule="nonzero"/></clipPath><clipPath id="95403b4b16"><path d="M 76 80 L 207 80 L 207 204.917969 L 76 204.917969 Z M 76 80 " clip-rule="nonzero"/></clipPath></defs><g clip-path="url(#e95262b0ea)"><path fill="#000000" d="M 163.316406 81.882812 L 161.582031 80.933594 L 160.636719 79.191406 C 160.34375 78.667969 159.796875 78.339844 159.195312 78.339844 C 158.59375 78.339844 158.046875 78.667969 157.757812 79.191406 L 156.808594 80.933594 L 155.074219 81.882812 C 154.550781 82.167969 154.21875 82.71875 154.21875 83.320312 C 154.21875 83.921875 154.546875 84.476562 155.074219 84.761719 L 156.808594 85.710938 L 157.757812 87.453125 C 158.046875 87.976562 158.59375 88.304688 159.195312 88.304688 C 159.796875 88.304688 160.34375 87.976562 160.636719 87.453125 L 161.582031 85.710938 L 163.316406 84.761719 C 163.847656 84.476562 164.171875 83.921875 164.167969 83.320312 C 164.167969 82.71875 163.839844 82.167969 163.316406 81.882812 " fill-opacity="1" fill-rule="nonzero"/></g><path fill="#000000" d="M 187.828125 94.878906 L 184.5625 93.097656 L 182.78125 89.828125 C 182.398438 89.125 181.660156 88.683594 180.855469 88.683594 C 180.054688 88.683594 179.3125 89.125 178.925781 89.828125 L 177.144531 93.097656 L 173.882812 94.878906 C 173.183594 95.265625 172.742188 96.003906 172.742188 96.808594 C 172.742188 97.613281 173.183594 98.355469 173.886719 98.738281 L 177.144531 100.523438 L 178.925781 103.789062 C 179.3125 104.496094 180.054688 104.9375 180.855469 104.9375 C 181.660156 104.9375 182.398438 104.496094 182.78125 103.789062 L 184.5625 100.523438 L 187.828125 98.738281 C 188.53125 98.355469 188.964844 97.613281 188.964844 96.808594 C 188.964844 96.003906 188.53125 95.265625 187.828125 94.878906 " fill-opacity="1" fill-rule="nonzero"/><g clip-path="url(#95403b4b16)"><path fill="#000000" d="M 168.015625 156.566406 C 167.402344 158.660156 166 160.523438 163.945312 161.648438 C 159.839844 163.910156 154.65625 162.398438 152.402344 158.285156 C 150.144531 154.167969 151.652344 148.984375 155.761719 146.722656 C 159.867188 144.460938 165.046875 145.96875 167.304688 150.085938 C 168.433594 152.144531 168.621094 154.46875 168.015625 156.566406 Z M 140.699219 170.515625 C 140.394531 171.574219 139.289062 172.179688 138.234375 171.875 C 137.179688 171.570312 136.570312 170.457031 136.882812 169.40625 L 151.238281 119.996094 C 151.542969 118.945312 152.644531 118.335938 153.703125 118.644531 C 154.757812 118.949219 155.363281 120.054688 155.054688 121.113281 Z M 124.785156 139.378906 C 122.527344 135.265625 124.035156 130.078125 128.140625 127.816406 C 132.253906 125.558594 137.429688 127.066406 139.6875 131.183594 C 140.816406 133.238281 141.003906 135.566406 140.394531 137.65625 C 139.789062 139.75 138.382812 141.613281 136.328125 142.742188 C 132.222656 145.003906 127.039062 143.496094 124.785156 139.378906 Z M 110.886719 187.167969 C 109.671875 187.628906 108.328125 187.59375 107.140625 187.058594 C 105.941406 186.515625 105.03125 185.546875 104.566406 184.328125 L 87.953125 140.566406 C 88.15625 140.828125 127.910156 180.6875 127.910156 180.6875 Z M 86.023438 135.492188 L 81.195312 122.789062 C 80.542969 121.074219 80.890625 119.160156 82.097656 117.796875 L 95.644531 102.378906 L 86.390625 132.386719 C 86.074219 133.410156 85.964844 134.460938 86.023438 135.492188 Z M 203.921875 146.046875 L 143.898438 85.933594 C 141.5625 83.59375 138.128906 82.746094 134.976562 83.714844 L 108.257812 91.980469 C 107.574219 92.1875 106.488281 92.273438 105.632812 92.300781 C 104.914062 92.328125 104.347656 92.929688 104.367188 93.652344 C 104.453125 96.566406 105.105469 103.273438 109.917969 103.710938 C 110.304688 103.75 112.40625 103.433594 113.09375 103.464844 C 115.046875 103.550781 116.976562 104.515625 118.226562 106.355469 C 119.65625 108.457031 119.695312 111.316406 118.324219 113.457031 C 116.003906 117.085938 111.078125 117.464844 108.199219 114.597656 C 107.300781 113.691406 106.71875 112.582031 106.460938 111.414062 C 106.410156 111.179688 106.636719 110.976562 106.871094 111.046875 C 108.496094 111.519531 110.402344 111.839844 112.660156 111.964844 C 112.695312 111.96875 112.730469 111.96875 112.773438 111.96875 C 113.820312 111.96875 114.695312 111.148438 114.757812 110.085938 C 114.8125 108.992188 113.972656 108.046875 112.875 107.992188 C 110.4375 107.851562 108.527344 107.5625 107.066406 106.949219 C 106.324219 106.644531 104.984375 105.65625 104.238281 104.90625 C 101.722656 102.378906 101.230469 98.035156 101.035156 96.589844 C 100.175781 90.144531 99.101562 82.128906 85.375 80.339844 C 84.1875 80.183594 83.097656 81.121094 83.132812 82.382812 C 83.160156 83.386719 84.019531 84.175781 85.015625 84.3125 C 94.1875 85.546875 95.898438 89.507812 96.746094 94.695312 C 96.78125 94.921875 96.714844 95.160156 96.554688 95.335938 C 96.152344 95.789062 79.113281 115.167969 79.113281 115.167969 C 76.921875 117.648438 76.300781 121.117188 77.484375 124.199219 L 100.84375 185.730469 C 101.691406 187.960938 103.347656 189.714844 105.507812 190.683594 C 106.671875 191.21875 107.90625 191.46875 109.136719 191.46875 C 110.214844 191.46875 111.277344 191.28125 112.296875 190.886719 L 130.984375 183.765625 L 148.632812 201.441406 C 152.101562 204.914062 157.734375 204.914062 161.210938 201.441406 L 203.921875 158.648438 C 207.394531 155.171875 207.394531 149.527344 203.921875 146.046875 " fill-opacity="1" fill-rule="nonzero"/></g><path fill="#000000" d="M 130.058594 131.308594 C 128.964844 131.910156 128.214844 132.898438 127.894531 134.015625 C 127.566406 135.128906 127.671875 136.363281 128.269531 137.464844 C 129.46875 139.652344 132.226562 140.457031 134.414062 139.253906 C 136.601562 138.050781 137.40625 135.292969 136.203125 133.097656 C 135.003906 130.910156 132.242188 130.105469 130.058594 131.308594 " fill-opacity="1" fill-rule="nonzero"/><path fill="#000000" d="M 157.671875 150.210938 C 156.582031 150.8125 155.835938 151.804688 155.507812 152.917969 C 155.1875 154.035156 155.285156 155.273438 155.886719 156.367188 C 157.089844 158.554688 159.84375 159.359375 162.027344 158.15625 C 164.21875 156.953125 165.019531 154.195312 163.820312 152.007812 C 162.617188 149.8125 159.859375 149.007812 157.671875 150.210938 " fill-opacity="1" fill-rule="nonzero"/></svg>