<svg xmlns="http://www.w3.org/2000/svg" xmlns:xlink="http://www.w3.org/1999/xlink" width="378" zoomAndPan="magnify" viewBox="0 0 282.96 283.499989" height="378" preserveAspectRatio="xMidYMid meet" version="1.0"><path fill="#000000" d="M 63.171875 35.992188 C 69.476562 30.03125 80.585938 31.347656 92.03125 34.015625 C 99.292969 35.710938 113.824219 39.402344 120.097656 43.335938 C 123.757812 45.628906 127.382812 47.972656 131.066406 50.230469 C 135.640625 53.027344 140.589844 55.972656 145.546875 58.015625 C 146.167969 58.273438 146.796875 58.503906 147.4375 58.707031 L 143.238281 63.355469 C 134.695312 72.824219 135.449219 87.570312 144.914062 96.113281 C 149.738281 100.46875 155.933594 102.410156 161.980469 102.011719 C 159.28125 110.4375 161.53125 120.074219 168.496094 126.359375 C 173.992188 131.324219 181.273438 133.148438 188.085938 131.953125 C 187.589844 138.851562 190.148438 145.90625 195.648438 150.871094 C 202.125 156.714844 211.070312 158.210938 218.808594 155.539062 C 219.542969 160.742188 222.023438 165.71875 226.203125 169.488281 C 235.667969 178.035156 250.414062 177.28125 258.960938 167.8125 L 262.632812 163.746094 C 265.589844 168.722656 268.3125 173.769531 270.652344 178.742188 C 260.105469 199.117188 237.523438 228.121094 210.003906 246.191406 C 203.597656 243.613281 197.894531 239.347656 191.730469 234.335938 C 166.15625 213.527344 137.296875 209.527344 111.539062 204.265625 C 103.269531 202.578125 76.054688 194.878906 52.195312 180.792969 C 35.292969 170.808594 17.472656 126.328125 38.605469 128.75 C 39.636719 127.675781 18.476562 103.757812 36.246094 94.796875 C 38.871094 93.472656 43.257812 94.910156 48.898438 96.777344 C 34.820312 82.0625 36.113281 65.359375 43.890625 59.929688 C 49.425781 56.0625 54.671875 57.890625 60.675781 62.039062 L 67.851562 67.007812 C 60.007812 58.082031 52.53125 46.058594 63.171875 35.992188 Z M 63.171875 35.992188 " fill-opacity="1" fill-rule="evenodd"/><path fill="#000000" d="M 267.050781 124.238281 C 260.550781 118.371094 250.4375 118.890625 244.570312 125.386719 L 229.929688 141.609375 C 224.0625 148.105469 224.582031 158.222656 231.078125 164.085938 C 237.578125 169.953125 247.691406 169.433594 253.554688 162.9375 L 268.199219 146.714844 C 274.066406 140.21875 273.546875 130.101562 267.050781 124.238281 Z M 197.859375 37.460938 C 193.664062 33.671875 187.960938 32.550781 182.867188 33.976562 L 182.867188 39.28125 C 182.867188 51.96875 168.214844 59.550781 157.0625 59.980469 C 156.734375 59.992188 156.40625 60 156.078125 60 L 148.644531 68.234375 C 142.777344 74.730469 143.292969 84.847656 149.792969 90.710938 C 156.289062 96.578125 166.402344 96.058594 172.269531 89.5625 L 199.011719 59.941406 C 204.875 53.441406 204.359375 43.328125 197.859375 37.460938 Z M 231.308594 56.773438 C 237.804688 62.640625 238.320312 72.753906 232.457031 79.253906 L 195.847656 119.804688 C 189.984375 126.304688 179.871094 126.820312 173.371094 120.957031 C 166.875 115.089844 166.355469 104.976562 172.222656 98.476562 L 208.828125 57.921875 C 214.695312 51.425781 224.8125 50.90625 231.308594 56.773438 Z M 250.824219 89.75 C 257.320312 95.613281 257.835938 105.730469 251.972656 112.226562 L 223.003906 144.316406 C 217.136719 150.816406 207.023438 151.332031 200.527344 145.46875 C 194.027344 139.601562 193.511719 129.488281 199.375 122.988281 L 228.34375 90.898438 C 234.210938 84.402344 244.324219 83.882812 250.824219 89.75 Z M 250.824219 89.75 " fill-opacity="1" fill-rule="evenodd"/><path fill="#000000" d="M 153.480469 26.089844 C 161.851562 32.714844 173.257812 39.519531 176.011719 39.28125 C 176.011719 48.578125 159.902344 56.523438 148.160156 51.679688 C 139.523438 48.113281 126.335938 38.910156 119.578125 34.992188 C 114.820312 32.234375 111.953125 33.453125 114.707031 26.390625 C 119.523438 14.058594 139.421875 14.957031 153.480469 26.089844 Z M 153.480469 26.089844 " fill-opacity="1" fill-rule="evenodd"/><path fill="#000000" d="M 144.542969 218.027344 C 122.730469 224.777344 112.742188 228.972656 85.683594 248.792969 C 77.65625 254.671875 6.273438 189.960938 26.949219 159.449219 C 27.894531 161.605469 28.867188 163.574219 29.777344 165.261719 C 34.035156 173.191406 40.628906 182.414062 48.492188 187.058594 C 60.066406 193.890625 72.609375 199.476562 85.246094 204.027344 C 93.109375 206.859375 101.878906 209.722656 110.082031 211.398438 C 119.164062 213.253906 136.03125 216.011719 144.542969 218.027344 Z M 144.542969 218.027344 " fill-opacity="1" fill-rule="evenodd"/></svg>