<svg xmlns="http://www.w3.org/2000/svg" xmlns:xlink="http://www.w3.org/1999/xlink" width="378" zoomAndPan="magnify" viewBox="0 0 282.96 283.499989" height="378" preserveAspectRatio="xMidYMid meet" version="1.0"><defs><clipPath id="7957c0ab6e"><path d="M 164 35.335938 L 184 35.335938 L 184 55 L 164 55 Z M 164 35.335938 " clip-rule="nonzero"/></clipPath></defs><g clip-path="url(#7957c0ab6e)"><path fill="#000000" d="M 182.144531 41.929688 L 178.871094 40.136719 L 177.085938 36.847656 C 176.539062 35.859375 175.5 35.242188 174.367188 35.242188 C 173.234375 35.242188 172.199219 35.859375 171.652344 36.847656 L 169.867188 40.136719 L 166.59375 41.929688 C 165.605469 42.46875 164.980469 43.503906 164.980469 44.640625 C 164.980469 45.777344 165.597656 46.824219 166.59375 47.363281 L 169.867188 49.152344 L 171.652344 52.441406 C 172.199219 53.429688 173.234375 54.046875 174.367188 54.046875 C 175.5 54.046875 176.539062 53.429688 177.085938 52.441406 L 178.871094 49.152344 L 182.144531 47.363281 C 183.140625 46.824219 183.753906 45.777344 183.746094 44.640625 C 183.746094 43.503906 183.128906 42.46875 182.144531 41.929688 " fill-opacity="1" fill-rule="nonzero"/></g><path fill="#000000" d="M 228.375 66.460938 L 222.222656 63.09375 L 218.863281 56.925781 C 218.136719 55.59375 216.742188 54.761719 215.226562 54.761719 C 213.714844 54.761719 212.316406 55.59375 211.585938 56.925781 L 208.222656 63.09375 L 202.070312 66.460938 C 200.75 67.183594 199.921875 68.585938 199.921875 70.101562 C 199.921875 71.621094 200.75 73.019531 202.082031 73.742188 L 208.222656 77.113281 L 211.585938 83.277344 C 212.316406 84.609375 213.714844 85.441406 215.226562 85.441406 C 216.742188 85.441406 218.136719 84.609375 218.863281 83.277344 L 222.222656 77.113281 L 228.375 73.742188 C 229.703125 73.019531 230.523438 71.621094 230.523438 70.101562 C 230.523438 68.585938 229.703125 67.183594 228.375 66.460938 " fill-opacity="1" fill-rule="nonzero"/><path fill="#000000" d="M 191.003906 182.894531 C 189.851562 186.851562 187.203125 190.363281 183.324219 192.488281 C 175.578125 196.757812 165.800781 193.910156 161.554688 186.144531 C 157.292969 178.371094 160.136719 168.582031 167.894531 164.316406 C 175.636719 160.046875 185.40625 162.894531 189.664062 170.667969 C 191.792969 174.554688 192.144531 178.941406 191.003906 182.894531 Z M 139.476562 209.230469 C 138.902344 211.226562 136.820312 212.371094 134.828125 211.792969 C 132.835938 211.214844 131.691406 209.121094 132.277344 207.132812 L 159.355469 113.871094 C 159.933594 111.882812 162.011719 110.738281 164.003906 111.316406 C 165.996094 111.894531 167.140625 113.976562 166.554688 115.976562 Z M 109.460938 150.453125 C 105.203125 142.691406 108.042969 132.902344 115.789062 128.632812 C 123.546875 124.363281 133.3125 127.214844 137.574219 134.984375 C 139.703125 138.863281 140.054688 143.257812 138.902344 147.203125 C 137.757812 151.15625 135.113281 154.671875 131.234375 156.804688 C 123.488281 161.074219 113.710938 158.226562 109.460938 150.453125 Z M 83.242188 240.664062 C 80.949219 241.535156 78.417969 241.464844 76.171875 240.457031 C 73.914062 239.429688 72.195312 237.597656 71.316406 235.296875 L 39.980469 152.695312 C 40.363281 153.195312 115.351562 228.425781 115.351562 228.425781 Z M 36.339844 143.121094 L 27.234375 119.136719 C 26.003906 115.90625 26.660156 112.292969 28.933594 109.71875 L 54.488281 80.617188 L 37.03125 137.257812 C 36.4375 139.1875 36.230469 141.171875 36.339844 143.121094 Z M 258.734375 163.042969 L 145.515625 49.574219 C 141.109375 45.160156 134.632812 43.554688 128.683594 45.382812 L 78.28125 60.988281 C 76.992188 61.378906 74.941406 61.535156 73.328125 61.59375 C 71.972656 61.644531 70.90625 62.78125 70.945312 64.140625 C 71.101562 69.640625 72.332031 82.300781 81.417969 83.132812 C 82.140625 83.199219 86.105469 82.601562 87.40625 82.660156 C 91.085938 82.828125 94.730469 84.648438 97.085938 88.125 C 99.78125 92.089844 99.859375 97.484375 97.269531 101.527344 C 92.894531 108.378906 83.605469 109.09375 78.175781 103.679688 C 76.476562 101.964844 75.382812 99.871094 74.890625 97.667969 C 74.792969 97.230469 75.226562 96.847656 75.664062 96.972656 C 78.730469 97.863281 82.324219 98.472656 86.585938 98.707031 C 86.652344 98.714844 86.722656 98.714844 86.800781 98.714844 C 88.773438 98.714844 90.421875 97.167969 90.539062 95.164062 C 90.648438 93.097656 89.066406 91.316406 86.996094 91.207031 C 82.394531 90.945312 78.789062 90.394531 76.035156 89.242188 C 74.636719 88.664062 72.109375 86.804688 70.703125 85.382812 C 65.953125 80.617188 65.027344 72.414062 64.65625 69.691406 C 63.035156 57.523438 61.011719 42.390625 35.117188 39.011719 C 32.882812 38.71875 30.820312 40.488281 30.886719 42.867188 C 30.9375 44.765625 32.558594 46.253906 34.445312 46.511719 C 51.742188 48.839844 54.964844 56.320312 56.566406 66.109375 C 56.636719 66.539062 56.507812 66.988281 56.207031 67.320312 C 55.445312 68.175781 23.308594 104.757812 23.308594 104.757812 C 19.175781 109.4375 18.003906 115.984375 20.230469 121.800781 L 64.292969 237.949219 C 65.894531 242.160156 69.023438 245.46875 73.09375 247.300781 C 75.292969 248.308594 77.617188 248.777344 79.941406 248.777344 C 81.972656 248.777344 83.976562 248.425781 85.902344 247.679688 L 121.152344 234.242188 L 154.441406 267.601562 C 160.988281 274.160156 171.613281 274.160156 178.167969 267.601562 L 258.734375 186.832031 C 265.289062 180.261719 265.289062 169.609375 258.734375 163.042969 " fill-opacity="1" fill-rule="nonzero"/><path fill="#000000" d="M 119.40625 135.222656 C 117.34375 136.355469 115.925781 138.226562 115.320312 140.332031 C 114.707031 142.4375 114.902344 144.765625 116.035156 146.839844 C 118.292969 150.972656 123.496094 152.488281 127.621094 150.21875 C 131.75 147.945312 133.265625 142.738281 131 138.597656 C 128.734375 134.46875 123.527344 132.949219 119.40625 135.222656 " fill-opacity="1" fill-rule="nonzero"/><path fill="#000000" d="M 171.496094 170.902344 C 169.4375 172.039062 168.03125 173.910156 167.414062 176.011719 C 166.808594 178.117188 166.992188 180.457031 168.128906 182.523438 C 170.394531 186.65625 175.589844 188.171875 179.710938 185.902344 C 183.84375 183.628906 185.359375 178.421875 183.089844 174.289062 C 180.824219 170.148438 175.617188 168.632812 171.496094 170.902344 " fill-opacity="1" fill-rule="nonzero"/></svg>