<svg xmlns="http://www.w3.org/2000/svg" xmlns:xlink="http://www.w3.org/1999/xlink" width="378" zoomAndPan="magnify" viewBox="0 0 282.96 283.499989" height="378" preserveAspectRatio="xMidYMid meet" version="1.0"><defs><clipPath id="fa9ded59fe"><path d="M 173 86.554688 L 188 86.554688 L 188 179 L 173 179 Z M 173 86.554688 " clip-rule="nonzero"/></clipPath><clipPath id="db3c5bf54f"><path d="M 102 92 L 170 92 L 170 196.609375 L 102 196.609375 Z M 102 92 " clip-rule="nonzero"/></clipPath><clipPath id="02793d0b9e"><path d="M 85.117188 106 L 128 106 L 128 159 L 85.117188 159 Z M 85.117188 106 " clip-rule="nonzero"/></clipPath><clipPath id="8decb371cf"><path d="M 191 122 L 198.167969 122 L 198.167969 143 L 191 143 Z M 191 122 " clip-rule="nonzero"/></clipPath></defs><g clip-path="url(#fa9ded59fe)"><path fill="#000000" d="M 182.28125 86.691406 C 180.382812 86.683594 178.792969 87.875 177.144531 88.660156 C 175.929688 89.363281 174.539062 89.800781 173.476562 90.730469 C 173.382812 118.769531 173.480469 146.8125 173.429688 174.851562 C 175.820312 176.171875 178.226562 177.507812 180.742188 178.574219 C 183.960938 179.734375 187.683594 176.945312 187.5625 173.535156 C 187.582031 146.347656 187.582031 119.160156 187.566406 91.96875 C 187.644531 89.148438 185.082031 86.625 182.28125 86.691406 Z M 182.28125 86.691406 " fill-opacity="1" fill-rule="nonzero"/></g><g clip-path="url(#db3c5bf54f)"><path fill="#000000" d="M 147.390625 103.988281 C 146.445312 104.488281 145.375 104.636719 144.320312 104.75 C 139.910156 105.21875 135.503906 105.757812 131.089844 106.246094 C 131.011719 123.917969 131.023438 141.597656 131.085938 159.277344 C 132.242188 159.414062 133.394531 159.558594 134.550781 159.71875 C 134.605469 162.539062 134.578125 165.355469 134.570312 168.179688 C 132.21875 168.191406 129.863281 168.199219 127.511719 168.183594 C 127.535156 166.253906 127.503906 164.324219 127.492188 162.398438 C 119.105469 161.363281 110.714844 160.390625 102.328125 159.410156 C 102.617188 162.246094 103.410156 165.003906 103.960938 167.796875 C 105.519531 175.136719 107.066406 182.480469 108.621094 189.820312 C 109 191.492188 109.117188 193.378906 110.335938 194.710938 C 111.152344 195.6875 112.367188 196.1875 113.558594 196.535156 L 123.363281 196.535156 C 125.632812 195.785156 127.582031 193.757812 127.5 191.242188 C 127.550781 184.742188 127.488281 178.242188 127.523438 171.738281 C 130.589844 171.65625 133.664062 171.863281 136.726562 171.652344 C 137.589844 171.617188 138.109375 170.753906 138.078125 169.953125 C 138.191406 166.675781 138.054688 163.394531 138.128906 160.113281 C 140.449219 160.378906 142.777344 160.605469 145.09375 160.886719 C 146.789062 161.042969 148.230469 162.015625 149.71875 162.753906 C 156.441406 166.195312 163.136719 169.6875 169.890625 173.078125 C 169.921875 146.195312 169.921875 119.3125 169.894531 92.429688 C 162.363281 96.21875 154.894531 100.132812 147.390625 103.988281 Z M 147.390625 103.988281 " fill-opacity="1" fill-rule="nonzero"/></g><g clip-path="url(#02793d0b9e)"><path fill="#000000" d="M 127.460938 106.660156 C 118.320312 107.765625 109.167969 108.839844 100.023438 109.929688 C 97.179688 110.28125 94.152344 110.308594 91.605469 111.796875 C 88.003906 113.695312 85.628906 117.464844 85.117188 121.480469 L 85.117188 144.027344 C 85.71875 149.433594 90.035156 154.226562 95.449219 155.035156 C 106.128906 156.320312 116.820312 157.582031 127.507812 158.804688 C 127.484375 141.421875 127.582031 124.039062 127.460938 106.660156 Z M 127.460938 106.660156 " fill-opacity="1" fill-rule="nonzero"/></g><g clip-path="url(#8decb371cf)"><path fill="#000000" d="M 191.140625 122.800781 C 191.082031 129.429688 191.082031 136.054688 191.148438 142.679688 C 194.953125 141.410156 197.640625 137.816406 198.171875 133.878906 L 198.171875 131.628906 C 197.667969 127.679688 194.953125 124.070312 191.140625 122.800781 Z M 191.140625 122.800781 " fill-opacity="1" fill-rule="nonzero"/></g></svg>