<svg xmlns="http://www.w3.org/2000/svg" xmlns:xlink="http://www.w3.org/1999/xlink" width="378" zoomAndPan="magnify" viewBox="0 0 282.96 283.499989" height="378" preserveAspectRatio="xMidYMid meet" version="1.0"><defs><clipPath id="0014bc124d"><path d="M 203 28.296875 L 233 28.296875 L 233 222 L 203 222 Z M 203 28.296875 " clip-rule="nonzero"/></clipPath><clipPath id="422d469972"><path d="M 53 40 L 196 40 L 196 258.890625 L 53 258.890625 Z M 53 40 " clip-rule="nonzero"/></clipPath><clipPath id="c48c2f73fb"><path d="M 17.671875 70 L 107 70 L 107 180 L 17.671875 180 Z M 17.671875 70 " clip-rule="nonzero"/></clipPath><clipPath id="b86a17c702"><path d="M 240 104 L 255.003906 104 L 255.003906 146 L 240 146 Z M 240 104 " clip-rule="nonzero"/></clipPath></defs><g clip-path="url(#0014bc124d)"><path fill="#000000" d="M 221.652344 28.574219 C 217.664062 28.558594 214.328125 31.054688 210.867188 32.695312 C 208.316406 34.171875 205.398438 35.089844 203.164062 37.039062 C 202.96875 95.789062 203.175781 154.554688 203.0625 213.304688 C 208.089844 216.070312 213.132812 218.871094 218.417969 221.109375 C 225.175781 223.542969 232.992188 217.695312 232.730469 210.550781 C 232.777344 153.582031 232.777344 96.605469 232.742188 39.632812 C 232.90625 33.726562 227.53125 28.433594 221.652344 28.574219 Z M 221.652344 28.574219 " fill-opacity="1" fill-rule="nonzero"/></g><g clip-path="url(#422d469972)"><path fill="#000000" d="M 148.402344 64.816406 C 146.417969 65.863281 144.164062 66.179688 141.957031 66.410156 C 132.695312 67.394531 123.445312 68.527344 114.179688 69.546875 C 114.011719 106.578125 114.042969 143.628906 114.171875 180.667969 C 116.597656 180.953125 119.019531 181.261719 121.449219 181.597656 C 121.558594 187.511719 121.503906 193.414062 121.484375 199.324219 C 116.546875 199.351562 111.601562 199.363281 106.671875 199.335938 C 106.714844 195.289062 106.652344 191.25 106.625 187.214844 C 89.019531 185.039062 71.402344 183 53.800781 180.949219 C 54.402344 186.894531 56.070312 192.667969 57.230469 198.523438 C 60.5 213.902344 63.746094 229.292969 67.011719 244.671875 C 67.808594 248.179688 68.050781 252.132812 70.609375 254.917969 C 72.324219 256.96875 74.871094 258.019531 77.375 258.742188 L 97.960938 258.742188 C 102.722656 257.171875 106.8125 252.921875 106.644531 247.648438 C 106.746094 234.03125 106.617188 220.410156 106.691406 206.785156 C 113.132812 206.609375 119.589844 207.042969 126.011719 206.597656 C 127.828125 206.527344 128.914062 204.722656 128.847656 203.042969 C 129.089844 196.175781 128.800781 189.296875 128.957031 182.421875 C 133.824219 182.976562 138.714844 183.453125 143.578125 184.046875 C 147.136719 184.371094 150.164062 186.414062 153.285156 187.953125 C 167.402344 195.164062 181.460938 202.488281 195.632812 209.589844 C 195.699219 153.261719 195.699219 96.929688 195.644531 40.597656 C 179.832031 48.539062 164.152344 56.742188 148.402344 64.816406 Z M 148.402344 64.816406 " fill-opacity="1" fill-rule="nonzero"/></g><g clip-path="url(#c48c2f73fb)"><path fill="#000000" d="M 106.5625 70.421875 C 87.371094 72.734375 68.164062 74.984375 48.960938 77.269531 C 42.992188 78.003906 36.640625 78.058594 31.292969 81.175781 C 23.722656 85.160156 18.746094 93.058594 17.671875 101.46875 L 17.671875 148.714844 C 18.929688 160.050781 27.992188 170.089844 39.355469 171.78125 C 61.78125 174.472656 84.226562 177.117188 106.664062 179.679688 C 106.605469 143.257812 106.820312 106.832031 106.5625 70.421875 Z M 106.5625 70.421875 " fill-opacity="1" fill-rule="nonzero"/></g><g clip-path="url(#b86a17c702)"><path fill="#000000" d="M 240.25 104.242188 C 240.121094 118.125 240.121094 132.007812 240.261719 145.894531 C 248.253906 143.230469 253.890625 135.703125 255.011719 127.453125 L 255.011719 122.738281 C 253.953125 114.460938 248.25 106.894531 240.25 104.242188 Z M 240.25 104.242188 " fill-opacity="1" fill-rule="nonzero"/></g></svg>