<svg xmlns="http://www.w3.org/2000/svg" xmlns:xlink="http://www.w3.org/1999/xlink" width="378" zoomAndPan="magnify" viewBox="0 0 282.96 283.499989" height="378" preserveAspectRatio="xMidYMid meet" version="1.0"><defs><clipPath id="1a4b1d0857"><path d="M 77.261719 87.746094 L 206.035156 87.746094 L 206.035156 195.558594 L 77.261719 195.558594 Z M 77.261719 87.746094 " clip-rule="nonzero"/></clipPath></defs><g clip-path="url(#1a4b1d0857)"><path fill="#000000" d="M 128.6875 109.109375 C 137.835938 109.109375 145.253906 116.558594 145.253906 125.742188 C 145.253906 134.929688 137.835938 142.378906 128.6875 142.378906 C 119.539062 142.378906 112.125 134.929688 112.125 125.742188 C 112.125 116.558594 119.539062 109.109375 128.6875 109.109375 Z M 198.796875 159.828125 L 198.796875 150.128906 C 198.796875 140.601562 191.035156 132.808594 181.550781 132.808594 C 172.066406 132.808594 164.304688 140.601562 164.304688 150.128906 L 164.304688 159.828125 L 161.457031 159.828125 C 159.050781 159.828125 157.082031 161.804688 157.082031 164.222656 C 157.082031 173.191406 157.082031 182.160156 157.082031 191.128906 C 157.082031 193.542969 159.050781 195.519531 161.457031 195.519531 L 201.644531 195.519531 C 204.050781 195.519531 206.019531 193.542969 206.019531 191.128906 L 206.019531 164.222656 C 206.019531 161.804688 204.050781 159.828125 201.644531 159.828125 Z M 172.335938 159.828125 L 172.335938 150.128906 C 172.335938 145.054688 176.496094 140.875 181.550781 140.875 C 186.605469 140.875 190.765625 145.054688 190.765625 150.128906 L 190.765625 159.828125 Z M 181.550781 187.652344 L 177.0625 187.652344 L 178.503906 176.371094 C 177.359375 175.46875 176.625 174.0625 176.625 172.484375 C 176.625 169.753906 178.832031 167.539062 181.550781 167.539062 C 184.269531 167.539062 186.476562 169.753906 186.476562 172.484375 C 186.476562 174.0625 185.742188 175.46875 184.597656 176.371094 L 186.039062 187.652344 Z M 128.6875 87.757812 C 114.484375 87.757812 101.625 93.539062 92.316406 102.886719 C 83.007812 112.234375 77.25 125.148438 77.25 139.410156 C 77.25 153.675781 83.007812 166.589844 92.316406 175.933594 C 101.625 185.28125 114.484375 191.066406 128.6875 191.066406 C 137.207031 191.066406 145.246094 188.984375 152.320312 185.300781 L 152.320312 179.839844 C 145.390625 183.933594 137.3125 186.28125 128.6875 186.28125 C 115.800781 186.28125 104.128906 181.035156 95.683594 172.554688 C 87.238281 164.074219 82.011719 152.355469 82.011719 139.410156 C 82.011719 126.46875 87.238281 114.75 95.683594 106.265625 C 104.128906 97.785156 115.800781 92.539062 128.6875 92.539062 C 141.578125 92.539062 153.25 97.785156 161.695312 106.265625 C 167.871094 112.46875 172.324219 120.398438 174.269531 129.273438 C 175.75 128.75 177.304688 128.382812 178.910156 128.1875 C 176.753906 118.429688 171.855469 109.707031 165.0625 102.886719 C 155.753906 93.539062 142.890625 87.757812 128.6875 87.757812 Z M 153.753906 159.296875 C 152.847656 160.722656 152.320312 162.410156 152.320312 164.222656 L 152.320312 174.183594 C 145.410156 178.929688 137.214844 181.5 128.6875 181.5 C 117.53125 181.5 106.941406 177.09375 99.050781 169.175781 C 98.410156 168.53125 97.796875 167.871094 97.203125 167.195312 C 103.667969 156.53125 115.347656 149.410156 128.691406 149.410156 C 138.371094 149.410156 147.179688 153.164062 153.753906 159.296875 Z M 153.753906 159.296875 " fill-opacity="1" fill-rule="evenodd"/></g></svg>