<svg xmlns="http://www.w3.org/2000/svg" xmlns:xlink="http://www.w3.org/1999/xlink" width="378" zoomAndPan="magnify" viewBox="0 0 282.96 283.499989" height="378" preserveAspectRatio="xMidYMid meet" version="1.0"><defs><clipPath id="6495a486f9"><path d="M 92.609375 83.601562 L 190.683594 83.601562 L 190.683594 199.644531 L 92.609375 199.644531 Z M 92.609375 83.601562 " clip-rule="nonzero"/></clipPath></defs><g clip-path="url(#6495a486f9)"><path fill="#000000" d="M 140.761719 83.707031 C 143.304688 83.183594 144.890625 85.386719 146.820312 86.667969 C 159.421875 95.042969 173 100.476562 188.035156 102.730469 C 191.449219 104.058594 190.613281 109.835938 190.542969 112.910156 C 190.164062 128.699219 188.464844 152.34375 180.730469 166.160156 C 173.652344 178.808594 157.535156 192.308594 144.601562 198.652344 C 142.410156 199.730469 141.800781 200.007812 139.398438 199.011719 C 128.347656 194.425781 111.914062 180.195312 105.160156 170.285156 C 94.90625 155.234375 93.269531 131.652344 92.742188 113.71875 C 92.679688 111.546875 92.464844 107.625 92.769531 105.636719 C 93.347656 101.890625 99.699219 102.003906 102.695312 101.304688 C 114.171875 98.644531 124.441406 94.378906 134.367188 88.066406 C 135.675781 87.234375 139.789062 83.90625 140.761719 83.703125 Z M 183.007812 109.261719 C 168.195312 106.96875 153.847656 100.777344 141.738281 92.023438 C 129.402344 100.652344 115.230469 106.953125 100.277344 109.261719 C 100.4375 119.40625 101.03125 129.761719 102.460938 139.824219 C 103.046875 143.941406 103.816406 148.464844 104.917969 152.460938 C 109.855469 170.375 126.042969 182.753906 141.371094 191.628906 C 156.832031 183.464844 173.332031 170.210938 178.308594 152.671875 C 181.464844 141.539062 182.691406 126.136719 183.019531 114.527344 C 183.070312 112.777344 182.964844 111.011719 183.003906 109.261719 Z M 183.007812 109.261719 " fill-opacity="1" fill-rule="nonzero"/></g><path fill="#000000" d="M 155.101562 136.195312 C 157.226562 136.46875 158.574219 137.492188 159.085938 139.609375 C 158.59375 146.300781 159.804688 154.070312 159.101562 160.628906 C 158.910156 162.453125 157.644531 164.042969 155.75 164.273438 C 147.929688 165.21875 138.234375 163.5625 130.214844 164.253906 C 127.726562 165.042969 124.515625 163.742188 124.175781 160.902344 C 123.386719 154.335938 124.726562 146.128906 124.242188 139.386719 C 124.699219 137.386719 126.242188 136.464844 128.183594 136.199219 C 128.125 130.105469 127.609375 124.09375 132.503906 119.636719 C 138.648438 114.046875 148.328125 115.113281 152.824219 122.167969 C 155.707031 126.695312 155.023438 131.066406 155.097656 136.199219 Z M 150.507812 136.222656 L 150.507812 128.539062 C 150.507812 124.433594 145.675781 120.625 141.761719 120.578125 C 137.789062 120.527344 132.777344 124.386719 132.777344 128.539062 L 132.777344 136.222656 Z M 144.328125 157.257812 L 143.320312 150.679688 C 145.820312 148.929688 146.15625 144.996094 142.984375 143.910156 C 138.496094 142.375 136.175781 147.980469 139.917969 150.636719 L 138.957031 157.257812 Z M 144.328125 157.257812 " fill-opacity="1" fill-rule="nonzero"/></svg>