<svg xmlns="http://www.w3.org/2000/svg" xmlns:xlink="http://www.w3.org/1999/xlink" width="378" zoomAndPan="magnify" viewBox="0 0 282.96 283.499989" height="378" preserveAspectRatio="xMidYMid meet" version="1.0"><defs><clipPath id="59dd2fba31"><path d="M 9.210938 28.296875 L 267.503906 28.296875 L 267.503906 243.917969 L 9.210938 243.917969 Z M 9.210938 28.296875 " clip-rule="nonzero"/></clipPath></defs><g clip-path="url(#59dd2fba31)"><path fill="#000000" d="M 112.363281 71.019531 C 130.710938 71.019531 145.585938 85.914062 145.585938 104.289062 C 145.585938 122.660156 130.710938 137.554688 112.363281 137.554688 C 94.011719 137.554688 79.136719 122.660156 79.136719 104.289062 C 79.136719 85.914062 94.011719 71.019531 112.363281 71.019531 Z M 252.988281 172.460938 L 252.988281 153.054688 C 252.988281 134.003906 237.421875 118.417969 218.390625 118.417969 C 199.367188 118.417969 183.800781 134.003906 183.800781 153.054688 L 183.800781 172.460938 L 178.089844 172.460938 C 173.261719 172.460938 169.316406 176.410156 169.316406 181.242188 C 169.316406 199.179688 169.316406 217.117188 169.316406 235.054688 C 169.316406 239.886719 173.265625 243.839844 178.089844 243.839844 L 258.699219 243.839844 C 263.527344 243.839844 267.472656 239.886719 267.472656 235.054688 L 267.472656 181.242188 C 267.472656 176.410156 263.527344 172.460938 258.699219 172.460938 Z M 199.910156 172.460938 L 199.910156 153.054688 C 199.910156 142.90625 208.257812 134.546875 218.390625 134.546875 C 228.53125 134.546875 236.878906 142.90625 236.878906 153.054688 L 236.878906 172.460938 Z M 218.394531 228.109375 L 209.390625 228.109375 L 212.285156 205.546875 C 209.988281 203.734375 208.515625 200.925781 208.515625 197.773438 C 208.515625 192.308594 212.9375 187.878906 218.394531 187.878906 C 223.851562 187.878906 228.273438 192.308594 228.273438 197.773438 C 228.273438 200.925781 226.800781 203.734375 224.503906 205.546875 L 227.398438 228.109375 Z M 112.363281 28.316406 C 83.871094 28.316406 58.078125 39.878906 39.40625 58.574219 C 20.734375 77.269531 9.183594 103.097656 9.183594 131.625 C 9.183594 160.148438 20.734375 185.976562 39.40625 204.671875 C 58.078125 223.367188 83.875 234.929688 112.363281 234.929688 C 129.453125 234.929688 145.570312 230.765625 159.765625 223.402344 L 159.765625 212.480469 C 145.859375 220.667969 129.660156 225.367188 112.363281 225.367188 C 86.507812 225.367188 63.101562 214.875 46.160156 197.910156 C 29.21875 180.949219 18.738281 157.511719 18.738281 131.625 C 18.738281 105.734375 29.21875 82.296875 46.160156 65.335938 C 63.101562 48.371094 86.507812 37.878906 112.363281 37.878906 C 138.21875 37.878906 161.625 48.371094 178.566406 65.335938 C 190.953125 77.738281 199.882812 93.601562 203.792969 111.351562 C 206.761719 110.300781 209.875 109.566406 213.09375 109.175781 C 208.773438 89.660156 198.945312 72.214844 185.320312 58.574219 C 166.648438 39.878906 140.851562 28.316406 112.363281 28.316406 Z M 162.636719 171.394531 C 160.820312 174.242188 159.765625 177.625 159.765625 181.242188 L 159.765625 201.164062 C 145.902344 210.660156 129.464844 215.804688 112.363281 215.804688 C 89.980469 215.804688 68.738281 206.992188 52.914062 191.148438 C 51.628906 189.863281 50.394531 188.542969 49.207031 187.191406 C 62.171875 165.867188 85.605469 151.621094 112.367188 151.621094 C 131.785156 151.621094 149.453125 159.125 162.636719 171.394531 Z M 162.636719 171.394531 " fill-opacity="1" fill-rule="evenodd"/></g></svg>