<svg xmlns="http://www.w3.org/2000/svg" xmlns:xlink="http://www.w3.org/1999/xlink" width="378" zoomAndPan="magnify" viewBox="0 0 282.96 283.499989" height="378" preserveAspectRatio="xMidYMid meet" version="1.0"><defs><clipPath id="28b5455393"><path d="M 28.527344 9 L 259.117188 9 L 259.117188 280.753906 L 28.527344 280.753906 Z M 28.527344 9 " clip-rule="nonzero"/></clipPath></defs><g clip-path="url(#28b5455393)"><path fill="#000000" d="M 141.742188 9.238281 C 147.71875 8.015625 151.453125 13.175781 155.984375 16.175781 C 185.617188 35.785156 217.539062 48.507812 252.890625 53.785156 C 260.917969 56.902344 258.953125 70.425781 258.78125 77.628906 C 257.894531 114.605469 253.898438 169.972656 235.714844 202.324219 C 219.070312 231.945312 181.175781 263.558594 150.773438 278.414062 C 145.613281 280.933594 144.1875 281.589844 138.535156 279.253906 C 112.550781 268.515625 73.914062 235.191406 58.035156 211.984375 C 33.925781 176.742188 30.078125 121.523438 28.839844 79.523438 C 28.691406 74.4375 28.1875 65.253906 28.90625 60.59375 C 30.261719 51.824219 45.195312 52.085938 52.242188 50.457031 C 79.222656 44.222656 103.367188 34.230469 126.703125 19.457031 C 129.785156 17.503906 139.453125 9.707031 141.742188 9.238281 Z M 241.0625 69.085938 C 206.242188 63.710938 172.507812 49.21875 144.035156 28.714844 C 115.03125 48.925781 81.710938 63.675781 46.554688 69.085938 C 46.933594 92.84375 48.332031 117.085938 51.691406 140.65625 C 53.066406 150.296875 54.875 160.886719 57.464844 170.246094 C 69.074219 212.195312 107.132812 241.183594 143.175781 261.964844 C 179.523438 242.847656 218.320312 211.808594 230.015625 170.738281 C 237.441406 144.667969 240.324219 108.601562 241.09375 81.417969 C 241.210938 77.316406 240.964844 73.179688 241.0625 69.082031 Z M 241.0625 69.085938 " fill-opacity="1" fill-rule="nonzero"/></g><path fill="#000000" d="M 175.453125 132.160156 C 180.453125 132.792969 183.625 135.191406 184.824219 140.15625 C 183.664062 155.816406 186.507812 174.015625 184.863281 189.371094 C 184.40625 193.640625 181.4375 197.371094 176.980469 197.90625 C 158.597656 200.125 135.796875 196.242188 116.941406 197.863281 C 111.089844 199.703125 103.542969 196.660156 102.746094 190.015625 C 100.890625 174.632812 104.039062 155.414062 102.90625 139.632812 C 103.976562 134.949219 107.605469 132.785156 112.167969 132.164062 C 112.03125 117.890625 110.816406 103.820312 122.328125 93.386719 C 136.773438 80.292969 159.53125 82.792969 170.101562 99.308594 C 176.882812 109.90625 175.277344 120.144531 175.449219 132.164062 Z M 164.652344 132.222656 L 164.652344 114.226562 C 164.652344 104.609375 153.289062 95.691406 144.09375 95.582031 C 134.75 95.46875 122.96875 104.5 122.96875 114.226562 L 122.96875 132.222656 Z M 150.125 181.476562 L 147.753906 166.074219 C 153.632812 161.980469 154.425781 152.765625 146.964844 150.222656 C 136.414062 146.628906 130.960938 159.757812 139.761719 165.972656 L 137.496094 181.472656 L 150.128906 181.472656 Z M 150.125 181.476562 " fill-opacity="1" fill-rule="nonzero"/></svg>