<svg xmlns="http://www.w3.org/2000/svg" xmlns:xlink="http://www.w3.org/1999/xlink" width="378" zoomAndPan="magnify" viewBox="0 0 282.96 283.499989" height="378" preserveAspectRatio="xMidYMid meet" version="1.0"><defs><clipPath id="09615399a4"><path d="M 85.117188 87.765625 L 198.167969 87.765625 L 198.167969 194.828125 L 85.117188 194.828125 Z M 85.117188 87.765625 " clip-rule="nonzero"/></clipPath></defs><g clip-path="url(#09615399a4)"><path fill="#000000" d="M 139.753906 90.984375 L 164.871094 134.390625 C 164.925781 134.484375 164.910156 134.601562 164.832031 134.679688 L 141.804688 157.65625 C 141.71875 157.742188 141.582031 157.75 141.488281 157.675781 L 130.195312 149.082031 C 128.640625 147.898438 126.421875 148.046875 125.039062 149.425781 L 111.828125 162.609375 C 111.78125 162.65625 111.722656 162.679688 111.65625 162.679688 L 98.265625 162.679688 C 93.371094 162.679688 90.328125 157.417969 92.777344 153.1875 L 128.773438 90.984375 C 131.21875 86.753906 137.304688 86.753906 139.753906 90.984375 Z M 177.546875 127.191406 L 142.128906 162.53125 C 142.042969 162.613281 141.910156 162.625 141.8125 162.550781 L 127.960938 152.003906 C 127.863281 151.929688 127.730469 151.941406 127.644531 152.027344 L 85.203125 194.371094 C 84.996094 194.578125 85.277344 194.90625 85.515625 194.734375 L 128.398438 163.175781 C 128.484375 163.113281 128.601562 163.113281 128.6875 163.179688 L 142.566406 173.746094 C 142.660156 173.816406 142.796875 173.808594 142.878906 173.722656 L 183.53125 133.160156 C 183.625 133.070312 183.78125 133.070312 183.875 133.160156 L 190.222656 139.496094 C 190.351562 139.625 190.570312 139.566406 190.621094 139.390625 L 198.175781 112.875 C 198.226562 112.695312 198.0625 112.527344 197.878906 112.582031 L 171.304688 120.117188 C 171.128906 120.167969 171.070312 120.386719 171.199219 120.519531 L 177.546875 126.851562 C 177.640625 126.945312 177.640625 127.097656 177.546875 127.191406 Z M 138.535156 128.695312 C 139.25 123.214844 139.546875 117.777344 139.488281 112.371094 C 139.464844 110.523438 139.25 108.871094 138.261719 107.488281 C 137.152344 105.933594 135.898438 105.390625 134.261719 105.390625 C 132.625 105.390625 131.367188 105.933594 130.257812 107.488281 C 129.273438 108.871094 129.054688 110.523438 129.035156 112.371094 C 128.984375 117.796875 129.285156 123.234375 129.992188 128.695312 C 130.324219 131.242188 132.058594 133.078125 134.136719 133.078125 L 134.390625 133.078125 C 136.46875 133.078125 138.203125 131.242188 138.535156 128.695312 Z M 134.261719 136.121094 C 131.757812 136.121094 129.722656 138.148438 129.722656 140.648438 C 129.722656 143.148438 131.757812 145.175781 134.261719 145.175781 C 136.769531 145.175781 138.800781 143.148438 138.800781 140.648438 C 138.800781 138.148438 136.769531 136.121094 134.261719 136.121094 Z M 173.316406 148.984375 C 173.234375 148.847656 173.050781 148.820312 172.9375 148.933594 L 159.570312 162.269531 C 159.417969 162.421875 159.527344 162.679688 159.742188 162.679688 L 170.257812 162.679688 C 175.152344 162.679688 178.195312 157.417969 175.75 153.1875 Z M 173.316406 148.984375 " fill-opacity="1" fill-rule="evenodd"/></g></svg>