<svg xmlns="http://www.w3.org/2000/svg" xmlns:xlink="http://www.w3.org/1999/xlink" width="378" zoomAndPan="magnify" viewBox="0 0 282.96 283.499989" height="378" preserveAspectRatio="xMidYMid meet" version="1.0"><defs><clipPath id="0709c89ea3"><path d="M 15.296875 14.691406 L 268.351562 14.691406 L 268.351562 255 L 15.296875 255 Z M 15.296875 14.691406 " clip-rule="nonzero"/></clipPath></defs><g clip-path="url(#0709c89ea3)"><path fill="#000000" d="M 137.589844 21.917969 L 193.8125 119.351562 C 193.9375 119.5625 193.902344 119.824219 193.726562 120 L 142.179688 171.578125 C 141.988281 171.769531 141.6875 171.789062 141.472656 171.625 L 116.195312 152.328125 C 112.714844 149.667969 107.75 150 104.652344 153.101562 L 75.078125 182.691406 C 74.976562 182.796875 74.847656 182.847656 74.699219 182.847656 L 44.730469 182.847656 C 33.773438 182.847656 26.960938 171.042969 32.4375 161.546875 L 113.011719 21.917969 C 118.488281 12.425781 132.113281 12.425781 137.59375 21.917969 Z M 222.195312 103.191406 L 142.910156 182.515625 C 142.71875 182.707031 142.417969 182.726562 142.203125 182.5625 L 111.191406 158.890625 C 110.976562 158.722656 110.675781 158.746094 110.484375 158.9375 L 15.484375 253.988281 C 15.019531 254.453125 15.65625 255.191406 16.183594 254.800781 L 112.175781 183.96875 C 112.367188 183.824219 112.625 183.824219 112.820312 183.972656 L 143.886719 207.6875 C 144.101562 207.851562 144.398438 207.832031 144.589844 207.640625 L 235.589844 116.59375 C 235.796875 116.386719 236.140625 116.386719 236.351562 116.59375 L 250.558594 130.8125 C 250.847656 131.101562 251.34375 130.972656 251.457031 130.578125 L 268.367188 71.058594 C 268.480469 70.652344 268.109375 70.28125 267.703125 70.394531 L 208.214844 87.316406 C 207.824219 87.425781 207.691406 87.921875 207.984375 88.214844 L 222.195312 102.429688 C 222.402344 102.640625 222.402344 102.980469 222.195312 103.191406 Z M 134.863281 106.570312 C 136.464844 94.265625 137.128906 82.058594 136.996094 69.929688 C 136.949219 65.78125 136.464844 62.074219 134.257812 58.96875 C 131.773438 55.476562 128.960938 54.257812 125.296875 54.257812 C 121.636719 54.257812 118.824219 55.476562 116.339844 58.96875 C 114.132812 62.074219 113.640625 65.78125 113.601562 69.929688 C 113.484375 82.105469 114.15625 94.316406 115.742188 106.566406 C 116.484375 112.28125 120.367188 116.40625 125.015625 116.40625 L 125.589844 116.40625 C 130.234375 116.40625 134.121094 112.285156 134.863281 106.570312 Z M 125.300781 123.234375 C 119.691406 123.234375 115.140625 127.785156 115.140625 133.398438 C 115.140625 139.011719 119.691406 143.5625 125.300781 143.5625 C 130.910156 143.5625 135.460938 139.011719 135.460938 133.398438 C 135.460938 127.785156 130.910156 123.234375 125.300781 123.234375 Z M 212.714844 152.109375 C 212.539062 151.800781 212.121094 151.746094 211.871094 151.996094 L 181.953125 181.929688 C 181.613281 182.269531 181.855469 182.847656 182.332031 182.847656 L 205.871094 182.847656 C 216.828125 182.847656 223.640625 171.042969 218.164062 161.546875 Z M 212.714844 152.109375 " fill-opacity="1" fill-rule="evenodd"/></g></svg>