<svg xmlns="http://www.w3.org/2000/svg" xmlns:xlink="http://www.w3.org/1999/xlink" width="378" zoomAndPan="magnify" viewBox="0 0 282.96 283.499989" height="378" preserveAspectRatio="xMidYMid meet" version="1.0"><defs><clipPath id="59618e2b86"><path d="M 85.117188 84.890625 L 198.167969 84.890625 L 198.167969 197.941406 L 85.117188 197.941406 Z M 85.117188 84.890625 " clip-rule="nonzero"/></clipPath></defs><g clip-path="url(#59618e2b86)"><path fill="#000000" d="M 141.644531 84.890625 C 110.464844 84.890625 85.117188 110.234375 85.117188 141.414062 C 85.117188 172.59375 110.464844 197.941406 141.644531 197.941406 C 172.824219 197.941406 198.167969 172.59375 198.167969 141.414062 C 198.167969 110.234375 172.824219 84.890625 141.644531 84.890625 Z M 173.40625 146.886719 L 147.113281 146.886719 L 147.113281 173.179688 C 147.113281 176.167969 144.671875 178.648438 141.644531 178.648438 C 138.617188 178.648438 136.175781 176.167969 136.175781 173.179688 L 136.175781 146.886719 L 109.878906 146.886719 C 106.890625 146.886719 104.410156 144.441406 104.410156 141.414062 C 104.410156 138.386719 106.890625 135.945312 109.878906 135.945312 L 136.175781 135.945312 L 136.175781 109.652344 C 136.175781 106.660156 138.617188 104.179688 141.644531 104.179688 C 144.671875 104.179688 147.113281 106.660156 147.113281 109.652344 L 147.113281 135.945312 L 173.40625 135.945312 C 176.398438 135.945312 178.878906 138.386719 178.878906 141.414062 C 178.878906 144.441406 176.398438 146.886719 173.40625 146.886719 Z M 173.40625 146.886719 " fill-opacity="1" fill-rule="nonzero"/></g></svg>