<svg xmlns="http://www.w3.org/2000/svg" xmlns:xlink="http://www.w3.org/1999/xlink" width="378" zoomAndPan="magnify" viewBox="0 0 282.96 283.499989" height="378" preserveAspectRatio="xMidYMid meet" version="1.0"><defs><clipPath id="5d8ba62987"><path d="M 48.136719 35.078125 L 164 35.078125 L 164 218 L 48.136719 218 Z M 48.136719 35.078125 " clip-rule="nonzero"/></clipPath><clipPath id="8d4aad6f85"><path d="M 48.136719 179 L 164 179 L 164 188 L 48.136719 188 Z M 48.136719 179 " clip-rule="nonzero"/></clipPath><clipPath id="2ee2b113e4"><path d="M 127 160 L 260 160 L 260 247.703125 L 127 247.703125 Z M 127 160 " clip-rule="nonzero"/></clipPath></defs><g clip-path="url(#5d8ba62987)"><path fill="#000000" d="M 150.105469 217.527344 L 61.808594 217.527344 C 60.910156 217.527344 60.023438 217.4375 59.144531 217.257812 C 58.261719 217.082031 57.410156 216.820312 56.582031 216.476562 C 55.753906 216.132812 54.964844 215.710938 54.222656 215.214844 C 53.476562 214.714844 52.785156 214.148438 52.152344 213.511719 C 51.515625 212.878906 50.949219 212.1875 50.453125 211.445312 C 49.953125 210.699219 49.53125 209.910156 49.1875 209.082031 C 48.84375 208.253906 48.582031 207.402344 48.40625 206.523438 C 48.226562 205.640625 48.136719 204.753906 48.136719 203.855469 L 48.136719 49.316406 C 48.136719 48.417969 48.222656 47.53125 48.398438 46.648438 C 48.574219 45.769531 48.832031 44.914062 49.175781 44.085938 C 49.519531 43.253906 49.941406 42.46875 50.441406 41.722656 C 50.9375 40.976562 51.503906 40.285156 52.140625 39.648438 C 52.773438 39.015625 53.464844 38.449219 54.210938 37.949219 C 54.957031 37.449219 55.746094 37.03125 56.574219 36.6875 C 57.40625 36.34375 58.261719 36.082031 59.140625 35.90625 C 60.019531 35.734375 60.910156 35.644531 61.808594 35.644531 L 150.105469 35.644531 C 151.003906 35.644531 151.890625 35.734375 152.773438 35.90625 C 153.652344 36.082031 154.507812 36.34375 155.335938 36.6875 C 156.167969 37.03125 156.953125 37.449219 157.699219 37.949219 C 158.445312 38.449219 159.136719 39.015625 159.773438 39.648438 C 160.40625 40.285156 160.972656 40.976562 161.472656 41.722656 C 161.972656 42.46875 162.390625 43.253906 162.734375 44.085938 C 163.078125 44.914062 163.339844 45.769531 163.515625 46.648438 C 163.6875 47.53125 163.777344 48.417969 163.777344 49.316406 L 163.777344 178.289062 C 163.777344 178.789062 163.679688 179.273438 163.488281 179.734375 C 163.296875 180.195312 163.023438 180.605469 162.671875 180.960938 C 162.316406 181.3125 161.90625 181.585938 161.445312 181.777344 C 160.984375 181.96875 160.5 182.066406 160 182.066406 C 159.5 182.066406 159.015625 181.96875 158.554688 181.777344 C 158.09375 181.585938 157.683594 181.3125 157.328125 180.960938 C 156.976562 180.605469 156.703125 180.195312 156.511719 179.734375 C 156.320312 179.273438 156.222656 178.789062 156.222656 178.289062 L 156.222656 49.316406 C 156.222656 48.914062 156.179688 48.519531 156.101562 48.125 C 156.019531 47.734375 155.902344 47.351562 155.746094 46.980469 C 155.59375 46.609375 155.402344 46.257812 155.179688 45.925781 C 154.957031 45.59375 154.703125 45.285156 154.421875 45 C 154.136719 44.71875 153.828125 44.464844 153.496094 44.242188 C 153.164062 44.019531 152.8125 43.828125 152.441406 43.675781 C 152.070312 43.519531 151.6875 43.402344 151.296875 43.324219 C 150.902344 43.242188 150.507812 43.199219 150.105469 43.199219 L 61.808594 43.199219 C 61.40625 43.199219 61.007812 43.242188 60.617188 43.324219 C 60.222656 43.402344 59.84375 43.519531 59.472656 43.675781 C 59.101562 43.828125 58.75 44.019531 58.417969 44.242188 C 58.085938 44.464844 57.777344 44.71875 57.492188 45 C 57.207031 45.285156 56.957031 45.59375 56.730469 45.925781 C 56.507812 46.257812 56.320312 46.609375 56.164062 46.980469 C 56.011719 47.351562 55.894531 47.734375 55.8125 48.125 C 55.734375 48.519531 55.691406 48.914062 55.6875 49.316406 L 55.6875 203.855469 C 55.691406 204.257812 55.734375 204.65625 55.8125 205.046875 C 55.894531 205.441406 56.011719 205.824219 56.164062 206.191406 C 56.320312 206.5625 56.507812 206.914062 56.730469 207.246094 C 56.957031 207.582031 57.207031 207.890625 57.492188 208.171875 C 57.777344 208.457031 58.085938 208.710938 58.417969 208.933594 C 58.75 209.15625 59.101562 209.34375 59.472656 209.5 C 59.84375 209.652344 60.222656 209.769531 60.617188 209.851562 C 61.007812 209.929688 61.40625 209.972656 61.808594 209.976562 L 150.105469 209.976562 C 150.507812 209.972656 150.902344 209.929688 151.296875 209.851562 C 151.6875 209.769531 152.070312 209.652344 152.441406 209.5 C 152.8125 209.34375 153.164062 209.15625 153.496094 208.933594 C 153.828125 208.710938 154.136719 208.457031 154.421875 208.171875 C 154.703125 207.890625 154.957031 207.582031 155.179688 207.246094 C 155.402344 206.914062 155.59375 206.5625 155.746094 206.191406 C 155.902344 205.824219 156.019531 205.441406 156.101562 205.046875 C 156.179688 204.65625 156.222656 204.257812 156.222656 203.855469 L 156.222656 197.550781 C 156.222656 197.050781 156.320312 196.566406 156.511719 196.105469 C 156.703125 195.640625 156.976562 195.234375 157.328125 194.878906 C 157.683594 194.527344 158.09375 194.253906 158.554688 194.0625 C 159.015625 193.871094 159.5 193.773438 160 193.773438 C 160.5 193.773438 160.984375 193.871094 161.445312 194.0625 C 161.90625 194.253906 162.316406 194.527344 162.671875 194.878906 C 163.023438 195.234375 163.296875 195.640625 163.488281 196.105469 C 163.679688 196.566406 163.777344 197.050781 163.777344 197.550781 L 163.777344 203.855469 C 163.773438 204.753906 163.683594 205.640625 163.507812 206.523438 C 163.332031 207.402344 163.070312 208.253906 162.726562 209.082031 C 162.382812 209.910156 161.960938 210.699219 161.460938 211.445312 C 160.960938 212.1875 160.394531 212.878906 159.761719 213.511719 C 159.128906 214.148438 158.4375 214.714844 157.691406 215.214844 C 156.945312 215.710938 156.160156 216.132812 155.332031 216.476562 C 154.503906 216.820312 153.648438 217.082031 152.769531 217.257812 C 151.890625 217.4375 151.003906 217.527344 150.105469 217.527344 Z M 150.105469 217.527344 " fill-opacity="1" fill-rule="nonzero"/></g><g clip-path="url(#8d4aad6f85)"><path fill="#000000" d="M 160.074219 187.429688 L 51.914062 187.429688 C 51.410156 187.429688 50.929688 187.332031 50.46875 187.140625 C 50.003906 186.949219 49.597656 186.675781 49.242188 186.324219 C 48.886719 185.96875 48.613281 185.558594 48.421875 185.097656 C 48.230469 184.632812 48.136719 184.152344 48.136719 183.652344 C 48.136719 183.152344 48.230469 182.667969 48.421875 182.207031 C 48.613281 181.742188 48.886719 181.335938 49.242188 180.980469 C 49.597656 180.628906 50.003906 180.355469 50.46875 180.164062 C 50.929688 179.972656 51.410156 179.875 51.914062 179.875 L 160.074219 179.875 C 160.578125 179.875 161.058594 179.972656 161.519531 180.164062 C 161.984375 180.355469 162.390625 180.628906 162.746094 180.980469 C 163.101562 181.335938 163.375 181.742188 163.566406 182.207031 C 163.757812 182.667969 163.851562 183.152344 163.851562 183.652344 C 163.851562 184.152344 163.757812 184.632812 163.566406 185.097656 C 163.375 185.558594 163.101562 185.96875 162.746094 186.324219 C 162.390625 186.675781 161.984375 186.949219 161.519531 187.140625 C 161.058594 187.332031 160.578125 187.429688 160.074219 187.429688 Z M 160.074219 187.429688 " fill-opacity="1" fill-rule="nonzero"/></g><path fill="#000000" d="M 105.992188 68.691406 C 104.605469 68.691406 103.21875 68.757812 101.835938 68.890625 C 100.457031 69.027344 99.082031 69.230469 97.722656 69.5 C 96.359375 69.769531 95.011719 70.105469 93.683594 70.503906 C 92.355469 70.90625 91.046875 71.375 89.765625 71.902344 C 88.480469 72.433594 87.226562 73.027344 86 73.679688 C 84.773438 74.332031 83.585938 75.042969 82.429688 75.816406 C 81.273438 76.585938 80.160156 77.410156 79.085938 78.289062 C 78.007812 79.171875 76.980469 80.101562 75.996094 81.082031 C 75.015625 82.0625 74.082031 83.089844 73.199219 84.164062 C 72.316406 85.234375 71.492188 86.347656 70.71875 87.503906 C 69.945312 88.65625 69.230469 89.84375 68.574219 91.070312 C 67.917969 92.292969 67.324219 93.546875 66.792969 94.828125 C 66.257812 96.113281 65.789062 97.417969 65.386719 98.746094 C 64.980469 100.074219 64.640625 101.417969 64.371094 102.78125 C 64.097656 104.140625 63.890625 105.515625 63.753906 106.894531 C 63.617188 108.277344 63.546875 109.664062 63.542969 111.050781 C 63.542969 112.441406 63.609375 113.828125 63.742188 115.207031 C 63.878906 116.589844 64.082031 117.964844 64.347656 119.324219 C 64.617188 120.6875 64.953125 122.035156 65.355469 123.363281 C 65.757812 124.691406 66.222656 126 66.753906 127.285156 C 67.28125 128.566406 67.875 129.820312 68.527344 131.046875 C 69.179688 132.273438 69.890625 133.464844 70.660156 134.621094 C 71.433594 135.773438 72.257812 136.890625 73.136719 137.964844 C 74.015625 139.039062 74.945312 140.070312 75.925781 141.050781 C 76.90625 142.035156 77.933594 142.96875 79.007812 143.851562 C 80.078125 144.734375 81.191406 145.5625 82.34375 146.335938 C 83.5 147.109375 84.6875 147.824219 85.910156 148.480469 C 87.136719 149.136719 88.386719 149.730469 89.671875 150.261719 C 90.953125 150.796875 92.257812 151.265625 93.585938 151.671875 C 94.914062 152.074219 96.261719 152.414062 97.621094 152.6875 C 98.984375 152.960938 100.355469 153.164062 101.738281 153.304688 C 103.121094 153.441406 104.503906 153.511719 105.894531 153.515625 C 107.28125 153.515625 108.667969 153.449219 110.050781 153.316406 C 111.433594 153.183594 112.804688 152.980469 114.167969 152.710938 C 115.53125 152.441406 116.875 152.109375 118.207031 151.707031 C 119.535156 151.304688 120.839844 150.839844 122.125 150.3125 C 123.410156 149.78125 124.664062 149.191406 125.890625 148.539062 C 127.117188 147.886719 128.308594 147.175781 129.460938 146.402344 C 130.617188 145.632812 131.734375 144.808594 132.808594 143.929688 C 133.882812 143.050781 134.914062 142.121094 135.898438 141.140625 C 136.878906 140.160156 137.8125 139.132812 138.695312 138.0625 C 139.578125 136.992188 140.40625 135.878906 141.179688 134.722656 C 141.953125 133.570312 142.667969 132.382812 143.328125 131.160156 C 143.984375 129.933594 144.578125 128.683594 145.113281 127.398438 C 145.644531 126.117188 146.113281 124.8125 146.519531 123.484375 C 146.925781 122.15625 147.265625 120.8125 147.539062 119.449219 C 147.8125 118.085938 148.019531 116.714844 148.15625 115.335938 C 148.296875 113.953125 148.367188 112.566406 148.367188 111.179688 C 148.371094 109.789062 148.300781 108.402344 148.167969 107.019531 C 148.03125 105.636719 147.832031 104.265625 147.5625 102.902344 C 147.289062 101.539062 146.957031 100.191406 146.554688 98.859375 C 146.152344 97.53125 145.683594 96.222656 145.15625 94.9375 C 144.625 93.65625 144.03125 92.398438 143.378906 91.171875 C 142.726562 89.949219 142.011719 88.757812 141.242188 87.601562 C 140.472656 86.445312 139.648438 85.328125 138.765625 84.253906 C 137.886719 83.175781 136.957031 82.148438 135.976562 81.164062 C 134.992188 80.179688 133.964844 79.246094 132.894531 78.363281 C 131.820312 77.480469 130.707031 76.652344 129.554688 75.878906 C 128.398438 75.105469 127.210938 74.390625 125.984375 73.734375 C 124.761719 73.078125 123.507812 72.480469 122.222656 71.949219 C 120.941406 71.414062 119.636719 70.945312 118.304688 70.539062 C 116.976562 70.132812 115.632812 69.792969 114.269531 69.519531 C 112.90625 69.246094 111.535156 69.042969 110.152344 68.902344 C 108.769531 68.765625 107.382812 68.695312 105.992188 68.691406 Z M 102.558594 107.402344 L 109.394531 107.402344 C 110 107.402344 110.597656 107.460938 111.191406 107.578125 C 111.785156 107.695312 112.359375 107.871094 112.917969 108.101562 C 113.480469 108.335938 114.007812 108.617188 114.511719 108.953125 C 115.015625 109.289062 115.480469 109.671875 115.910156 110.101562 C 116.335938 110.527344 116.71875 110.992188 117.054688 111.496094 C 117.390625 112 117.675781 112.53125 117.90625 113.089844 C 118.136719 113.648438 118.3125 114.226562 118.429688 114.820312 C 118.550781 115.414062 118.609375 116.011719 118.609375 116.617188 L 118.609375 119.902344 C 118.605469 120.566406 118.550781 121.226562 118.445312 121.878906 C 118.335938 122.535156 118.179688 123.175781 117.96875 123.808594 C 117.761719 124.4375 117.503906 125.046875 117.199219 125.636719 C 116.890625 126.222656 116.542969 126.785156 116.144531 127.320312 C 115.75 127.851562 115.316406 128.351562 114.84375 128.816406 C 114.367188 129.277344 113.859375 129.703125 113.320312 130.085938 C 112.777344 130.46875 112.210938 130.808594 111.613281 131.101562 C 111.019531 131.394531 110.40625 131.640625 109.769531 131.835938 L 109.769531 135.613281 C 109.769531 136.113281 109.675781 136.59375 109.484375 137.058594 C 109.292969 137.519531 109.019531 137.929688 108.664062 138.285156 C 108.308594 138.636719 107.902344 138.910156 107.4375 139.101562 C 106.976562 139.292969 106.496094 139.390625 105.992188 139.390625 C 105.492188 139.390625 105.011719 139.292969 104.550781 139.101562 C 104.085938 138.910156 103.679688 138.636719 103.324219 138.285156 C 102.96875 137.929688 102.695312 137.519531 102.503906 137.058594 C 102.3125 136.59375 102.21875 136.113281 102.21875 135.613281 L 102.21875 132.136719 C 101.617188 132.046875 101.03125 131.90625 100.453125 131.710938 C 99.878906 131.515625 99.328125 131.269531 98.792969 130.976562 C 98.261719 130.683594 97.761719 130.347656 97.289062 129.96875 C 96.816406 129.585938 96.378906 129.164062 95.984375 128.707031 C 95.585938 128.25 95.230469 127.761719 94.917969 127.238281 C 94.605469 126.71875 94.34375 126.171875 94.128906 125.605469 C 93.910156 125.039062 93.746094 124.457031 93.632812 123.859375 C 93.523438 123.265625 93.460938 122.660156 93.457031 122.054688 C 93.457031 121.554688 93.550781 121.074219 93.742188 120.609375 C 93.933594 120.148438 94.207031 119.738281 94.5625 119.382812 C 94.914062 119.03125 95.324219 118.757812 95.785156 118.566406 C 96.25 118.375 96.730469 118.277344 97.230469 118.277344 C 97.734375 118.277344 98.214844 118.375 98.675781 118.566406 C 99.140625 118.757812 99.546875 119.03125 99.902344 119.382812 C 100.257812 119.738281 100.53125 120.148438 100.722656 120.609375 C 100.914062 121.074219 101.007812 121.554688 101.007812 122.054688 C 101.015625 122.421875 101.089844 122.773438 101.234375 123.113281 C 101.375 123.449219 101.578125 123.75 101.839844 124.007812 C 102.101562 124.265625 102.402344 124.464844 102.742188 124.601562 C 103.082031 124.742188 103.4375 124.8125 103.804688 124.8125 L 106.222656 124.8125 C 106.546875 124.808594 106.867188 124.777344 107.1875 124.710938 C 107.507812 124.644531 107.816406 124.546875 108.117188 124.421875 C 108.417969 124.296875 108.703125 124.140625 108.972656 123.957031 C 109.242188 123.777344 109.492188 123.570312 109.722656 123.339844 C 109.949219 123.105469 110.15625 122.855469 110.335938 122.585938 C 110.515625 122.3125 110.667969 122.027344 110.792969 121.726562 C 110.917969 121.425781 111.011719 121.113281 111.074219 120.792969 C 111.136719 120.476562 111.167969 120.152344 111.167969 119.828125 L 111.167969 116.542969 C 111.171875 116.320312 111.132812 116.105469 111.050781 115.898438 C 110.96875 115.691406 110.851562 115.511719 110.691406 115.355469 C 110.535156 115.199219 110.355469 115.078125 110.148438 114.996094 C 109.941406 114.914062 109.726562 114.875 109.507812 114.878906 L 102.558594 114.878906 C 101.957031 114.871094 101.363281 114.800781 100.777344 114.675781 C 100.191406 114.550781 99.621094 114.371094 99.070312 114.136719 C 98.519531 113.898438 97.996094 113.613281 97.5 113.277344 C 97.003906 112.9375 96.546875 112.554688 96.125 112.128906 C 95.703125 111.703125 95.328125 111.238281 94.996094 110.742188 C 94.664062 110.242188 94.386719 109.714844 94.15625 109.160156 C 93.925781 108.605469 93.753906 108.035156 93.636719 107.445312 C 93.519531 106.859375 93.457031 106.265625 93.457031 105.664062 L 93.457031 102.339844 C 93.457031 101.675781 93.515625 101.015625 93.621094 100.359375 C 93.730469 99.703125 93.890625 99.0625 94.101562 98.429688 C 94.308594 97.800781 94.570312 97.191406 94.875 96.601562 C 95.183594 96.011719 95.535156 95.449219 95.933594 94.914062 C 96.328125 94.382812 96.765625 93.882812 97.242188 93.417969 C 97.71875 92.957031 98.226562 92.53125 98.769531 92.148438 C 99.3125 91.765625 99.882812 91.429688 100.480469 91.136719 C 101.078125 90.84375 101.695312 90.601562 102.332031 90.40625 L 102.332031 86.628906 C 102.332031 86.128906 102.425781 85.648438 102.617188 85.183594 C 102.808594 84.722656 103.082031 84.3125 103.4375 83.960938 C 103.792969 83.605469 104.199219 83.332031 104.664062 83.140625 C 105.125 82.949219 105.605469 82.851562 106.109375 82.851562 C 106.609375 82.851562 107.089844 82.949219 107.550781 83.140625 C 108.015625 83.332031 108.421875 83.605469 108.777344 83.960938 C 109.132812 84.3125 109.40625 84.722656 109.597656 85.183594 C 109.789062 85.648438 109.882812 86.128906 109.882812 86.628906 L 109.882812 90.105469 C 110.492188 90.199219 111.089844 90.34375 111.671875 90.542969 C 112.253906 90.742188 112.816406 90.992188 113.355469 91.292969 C 113.894531 91.589844 114.402344 91.933594 114.878906 92.324219 C 115.359375 92.714844 115.796875 93.140625 116.199219 93.609375 C 116.601562 94.074219 116.960938 94.574219 117.273438 95.105469 C 117.585938 95.636719 117.851562 96.191406 118.066406 96.765625 C 118.28125 97.34375 118.445312 97.9375 118.554688 98.542969 C 118.664062 99.148438 118.71875 99.761719 118.722656 100.378906 C 118.722656 100.878906 118.625 101.359375 118.433594 101.824219 C 118.242188 102.285156 117.96875 102.695312 117.617188 103.046875 C 117.261719 103.402344 116.851562 103.675781 116.390625 103.867188 C 115.925781 104.058594 115.445312 104.152344 114.945312 104.152344 C 114.445312 104.152344 113.960938 104.058594 113.5 103.867188 C 113.035156 103.675781 112.628906 103.402344 112.273438 103.046875 C 111.921875 102.695312 111.648438 102.285156 111.457031 101.824219 C 111.265625 101.359375 111.167969 100.878906 111.167969 100.378906 C 111.171875 100 111.105469 99.632812 110.964844 99.28125 C 110.820312 98.929688 110.617188 98.621094 110.351562 98.351562 C 110.085938 98.078125 109.777344 97.871094 109.429688 97.726562 C 109.078125 97.578125 108.714844 97.507812 108.335938 97.507812 L 105.992188 97.507812 C 105.671875 97.507812 105.355469 97.539062 105.039062 97.597656 C 104.726562 97.660156 104.417969 97.75 104.121094 97.871094 C 103.824219 97.992188 103.539062 98.140625 103.269531 98.316406 C 103 98.488281 102.75 98.691406 102.519531 98.914062 C 102.289062 99.136719 102.082031 99.378906 101.902344 99.644531 C 101.71875 99.90625 101.558594 100.1875 101.429688 100.480469 C 101.300781 100.773438 101.199219 101.078125 101.128906 101.390625 C 101.058594 101.703125 101.019531 102.019531 101.007812 102.339844 L 101.007812 105.664062 C 101 105.882812 101.03125 106.09375 101.101562 106.296875 C 101.175781 106.503906 101.285156 106.6875 101.429688 106.847656 C 101.574219 107.011719 101.742188 107.140625 101.9375 107.234375 C 102.132812 107.332031 102.339844 107.386719 102.558594 107.402344 Z M 102.558594 107.402344 " fill-opacity="1" fill-rule="nonzero"/><path fill="#000000" d="M 116.117188 202.6875 L 95.949219 202.6875 C 95.449219 202.6875 94.964844 202.589844 94.503906 202.398438 C 94.039062 202.207031 93.632812 201.933594 93.277344 201.582031 C 92.921875 201.226562 92.652344 200.816406 92.460938 200.355469 C 92.265625 199.890625 92.171875 199.410156 92.171875 198.910156 C 92.171875 198.410156 92.265625 197.925781 92.460938 197.464844 C 92.652344 197 92.921875 196.59375 93.277344 196.238281 C 93.632812 195.886719 94.039062 195.613281 94.503906 195.421875 C 94.964844 195.230469 95.449219 195.132812 95.949219 195.132812 L 116.117188 195.132812 C 116.617188 195.132812 117.097656 195.230469 117.5625 195.421875 C 118.023438 195.613281 118.433594 195.886719 118.785156 196.238281 C 119.140625 196.59375 119.414062 197 119.605469 197.464844 C 119.796875 197.925781 119.890625 198.410156 119.890625 198.910156 C 119.890625 199.410156 119.796875 199.890625 119.605469 200.355469 C 119.414062 200.816406 119.140625 201.226562 118.785156 201.582031 C 118.433594 201.933594 118.023438 202.207031 117.5625 202.398438 C 117.097656 202.589844 116.617188 202.6875 116.117188 202.6875 Z M 116.117188 202.6875 " fill-opacity="1" fill-rule="nonzero"/><path fill="#000000" d="M 160.074219 166.355469 C 159.636719 166.355469 159.207031 166.28125 158.792969 166.132812 C 158.378906 165.984375 158.003906 165.773438 157.664062 165.492188 C 157.324219 165.210938 157.042969 164.882812 156.816406 164.503906 C 156.59375 164.125 156.441406 163.722656 156.355469 163.289062 C 156.273438 162.855469 156.265625 162.425781 156.335938 161.988281 C 156.40625 161.554688 156.542969 161.144531 156.757812 160.757812 C 156.96875 160.375 157.238281 160.035156 157.570312 159.746094 C 157.898438 159.453125 158.269531 159.226562 158.679688 159.066406 L 223.9375 133.007812 C 224.578125 132.746094 225.234375 132.550781 225.910156 132.421875 C 226.589844 132.289062 227.269531 132.230469 227.960938 132.234375 C 228.648438 132.238281 229.332031 132.3125 230.007812 132.453125 C 230.679688 132.59375 231.335938 132.800781 231.96875 133.070312 C 232.601562 133.339844 233.203125 133.671875 233.773438 134.058594 C 234.339844 134.449219 234.867188 134.890625 235.347656 135.386719 C 235.828125 135.878906 236.257812 136.414062 236.628906 136.992188 C 237.003906 137.574219 237.320312 138.183594 237.574219 138.824219 L 240.519531 146.148438 C 240.703125 146.617188 240.792969 147.101562 240.789062 147.601562 C 240.78125 148.101562 240.679688 148.585938 240.480469 149.046875 C 240.28125 149.507812 240.003906 149.910156 239.644531 150.261719 C 239.285156 150.613281 238.871094 150.878906 238.40625 151.066406 C 237.9375 151.25 237.457031 151.339844 236.953125 151.332031 C 236.453125 151.324219 235.96875 151.222656 235.511719 151.023438 C 235.050781 150.824219 234.644531 150.546875 234.292969 150.183594 C 233.945312 149.824219 233.679688 149.410156 233.492188 148.945312 L 230.585938 141.65625 C 230.285156 140.890625 229.757812 140.347656 229 140.03125 C 228.257812 139.738281 227.515625 139.738281 226.769531 140.03125 L 161.433594 166.089844 C 161 166.261719 160.546875 166.351562 160.074219 166.355469 Z M 160.074219 166.355469 " fill-opacity="1" fill-rule="nonzero"/><g clip-path="url(#2ee2b113e4)"><path fill="#000000" d="M 147.425781 247.136719 C 145.976562 247.148438 144.589844 246.859375 143.269531 246.269531 C 141.988281 245.726562 140.863281 244.960938 139.894531 243.964844 C 138.925781 242.96875 138.1875 241.824219 137.679688 240.527344 L 127.445312 215.148438 C 127.257812 214.683594 127.171875 214.199219 127.175781 213.699219 C 127.183594 213.195312 127.285156 212.714844 127.484375 212.253906 C 127.683594 211.792969 127.960938 211.390625 128.320312 211.039062 C 128.679688 210.691406 129.09375 210.421875 129.558594 210.238281 C 130.023438 210.050781 130.507812 209.960938 131.011719 209.96875 C 131.511719 209.976562 131.992188 210.078125 132.453125 210.277344 C 132.914062 210.476562 133.320312 210.753906 133.667969 211.117188 C 134.019531 211.476562 134.285156 211.886719 134.46875 212.355469 L 144.628906 237.734375 C 144.769531 238.09375 144.972656 238.414062 145.238281 238.695312 C 145.507812 238.972656 145.820312 239.1875 146.175781 239.34375 C 146.53125 239.496094 146.902344 239.574219 147.289062 239.574219 C 147.675781 239.578125 148.046875 239.503906 148.40625 239.359375 L 250.222656 198.722656 C 250.582031 198.578125 250.898438 198.371094 251.175781 198.101562 C 251.453125 197.835938 251.664062 197.523438 251.816406 197.167969 C 251.96875 196.816406 252.046875 196.445312 252.054688 196.058594 C 252.058594 195.675781 251.992188 195.300781 251.847656 194.945312 L 240.140625 165.601562 C 239.953125 165.132812 239.867188 164.652344 239.871094 164.148438 C 239.878906 163.648438 239.980469 163.167969 240.179688 162.707031 C 240.378906 162.246094 240.65625 161.839844 241.015625 161.492188 C 241.375 161.140625 241.789062 160.875 242.253906 160.691406 C 242.722656 160.503906 243.203125 160.414062 243.707031 160.421875 C 244.207031 160.429688 244.6875 160.53125 245.148438 160.730469 C 245.609375 160.929688 246.015625 161.207031 246.363281 161.566406 C 246.714844 161.925781 246.980469 162.339844 247.164062 162.804688 L 258.871094 192.148438 C 259.113281 192.785156 259.289062 193.433594 259.40625 194.105469 C 259.519531 194.773438 259.566406 195.445312 259.550781 196.125 C 259.535156 196.804688 259.453125 197.472656 259.308594 198.136719 C 259.160156 198.796875 258.953125 199.441406 258.683594 200.0625 C 258.410156 200.683594 258.082031 201.277344 257.699219 201.835938 C 257.3125 202.390625 256.878906 202.910156 256.390625 203.382812 C 255.90625 203.855469 255.378906 204.28125 254.8125 204.652344 C 254.246094 205.023438 253.648438 205.339844 253.019531 205.59375 L 151.3125 246.382812 C 150.0625 246.875 148.765625 247.128906 147.425781 247.136719 Z M 147.425781 247.136719 " fill-opacity="1" fill-rule="nonzero"/></g><path fill="#000000" d="M 247.164062 162.765625 L 240.519531 146.148438 C 240.332031 145.683594 240.066406 145.269531 239.714844 144.910156 C 239.367188 144.550781 238.960938 144.273438 238.5 144.074219 C 238.042969 143.875 237.558594 143.773438 237.058594 143.765625 C 236.558594 143.761719 236.074219 143.847656 235.609375 144.035156 L 158.679688 174.777344 C 158.328125 174.917969 158.003906 175.105469 157.710938 175.34375 C 157.414062 175.578125 157.160156 175.855469 156.949219 176.167969 C 156.738281 176.480469 156.574219 176.816406 156.464844 177.179688 C 156.355469 177.542969 156.296875 177.910156 156.300781 178.289062 L 156.300781 197.550781 C 156.304688 198.171875 156.453125 198.757812 156.746094 199.304688 C 157.042969 199.851562 157.445312 200.300781 157.960938 200.648438 C 158.597656 201.089844 159.300781 201.316406 160.074219 201.328125 C 160.5625 201.316406 161.027344 201.214844 161.472656 201.023438 L 245.050781 167.828125 C 245.515625 167.644531 245.929688 167.375 246.289062 167.027344 C 246.648438 166.675781 246.925781 166.273438 247.125 165.8125 C 247.324219 165.351562 247.425781 164.871094 247.433594 164.367188 C 247.441406 163.867188 247.351562 163.382812 247.164062 162.917969 Z M 247.164062 162.765625 " fill-opacity="1" fill-rule="nonzero"/><path fill="#000000" d="M 203.882812 148.945312 C 203.324219 148.945312 202.789062 148.828125 202.277344 148.589844 C 201.769531 148.351562 201.335938 148.015625 200.976562 147.585938 C 200.65625 147.199219 200.421875 146.765625 200.273438 146.289062 C 200.121094 145.808594 200.070312 145.320312 200.117188 144.820312 C 200.164062 144.320312 200.304688 143.847656 200.539062 143.40625 C 200.769531 142.960938 201.082031 142.582031 201.46875 142.261719 L 246.335938 104.910156 L 202.976562 52.566406 L 162.492188 86.101562 C 162.105469 86.421875 161.675781 86.65625 161.195312 86.804688 C 160.71875 86.957031 160.226562 87.007812 159.726562 86.960938 C 159.230469 86.914062 158.757812 86.773438 158.3125 86.539062 C 157.871094 86.308594 157.488281 85.996094 157.167969 85.609375 C 156.847656 85.226562 156.613281 84.792969 156.460938 84.3125 C 156.3125 83.835938 156.261719 83.34375 156.308594 82.847656 C 156.355469 82.347656 156.496094 81.875 156.726562 81.429688 C 156.960938 80.988281 157.273438 80.605469 157.660156 80.285156 L 200.902344 44.332031 C 201.285156 44.011719 201.71875 43.777344 202.199219 43.625 C 202.675781 43.476562 203.167969 43.425781 203.664062 43.472656 C 204.164062 43.519531 204.636719 43.660156 205.082031 43.890625 C 205.523438 44.125 205.90625 44.4375 206.226562 44.824219 L 254.566406 102.90625 C 255.238281 103.707031 255.527344 104.625 255.4375 105.664062 C 255.339844 106.710938 254.886719 107.566406 254.078125 108.234375 L 206.300781 148 C 205.609375 148.609375 204.804688 148.925781 203.882812 148.945312 Z M 203.882812 148.945312 " fill-opacity="1" fill-rule="nonzero"/><path fill="#000000" d="M 185.566406 113.332031 L 184.699219 113.332031 C 183.480469 113.222656 182.332031 112.886719 181.253906 112.316406 C 180.171875 111.746094 179.242188 110.988281 178.46875 110.046875 L 176.542969 107.402344 C 176.015625 106.769531 175.554688 106.09375 175.164062 105.371094 C 174.769531 104.648438 174.453125 103.894531 174.207031 103.113281 C 173.960938 102.328125 173.796875 101.527344 173.710938 100.707031 C 173.621094 99.890625 173.617188 99.074219 173.6875 98.253906 C 173.761719 97.4375 173.914062 96.632812 174.148438 95.84375 C 174.378906 95.054688 174.683594 94.296875 175.066406 93.570312 C 175.445312 92.839844 175.894531 92.15625 176.410156 91.515625 C 176.925781 90.875 177.496094 90.292969 178.128906 89.765625 L 179.941406 88.292969 C 180.992188 87.410156 182.171875 86.761719 183.480469 86.347656 C 184.789062 85.9375 186.128906 85.789062 187.492188 85.914062 C 188.875 86.046875 190.179688 86.441406 191.402344 87.09375 C 192.625 87.75 193.679688 88.613281 194.554688 89.6875 C 194.875 90.074219 195.113281 90.507812 195.261719 90.984375 C 195.410156 91.464844 195.460938 91.953125 195.414062 92.453125 C 195.367188 92.953125 195.226562 93.425781 194.996094 93.867188 C 194.761719 94.3125 194.449219 94.695312 194.066406 95.015625 C 193.679688 95.335938 193.246094 95.570312 192.769531 95.71875 C 192.289062 95.867188 191.800781 95.917969 191.300781 95.871094 C 190.800781 95.824219 190.332031 95.6875 189.886719 95.453125 C 189.441406 95.21875 189.0625 94.910156 188.742188 94.523438 C 188.5 94.230469 188.214844 93.996094 187.882812 93.820312 C 187.546875 93.644531 187.191406 93.535156 186.816406 93.5 C 186.441406 93.464844 186.074219 93.503906 185.710938 93.617188 C 185.351562 93.726562 185.027344 93.902344 184.738281 94.144531 L 182.925781 95.65625 C 182.675781 95.867188 182.449219 96.097656 182.246094 96.351562 C 182.042969 96.605469 181.863281 96.875 181.714844 97.164062 C 181.5625 97.453125 181.441406 97.75 181.347656 98.0625 C 181.257812 98.375 181.195312 98.695312 181.167969 99.019531 C 181.136719 99.339844 181.136719 99.664062 181.171875 99.988281 C 181.207031 100.3125 181.269531 100.628906 181.367188 100.941406 C 181.460938 101.25 181.585938 101.550781 181.742188 101.835938 C 181.894531 102.125 182.074219 102.390625 182.28125 102.644531 L 184.398438 105.210938 C 184.691406 105.566406 185.070312 105.753906 185.53125 105.777344 C 185.996094 105.851562 186.398438 105.722656 186.738281 105.398438 L 189.382812 103.246094 C 189.765625 102.925781 190.195312 102.6875 190.671875 102.535156 C 191.152344 102.382812 191.640625 102.328125 192.140625 102.371094 C 192.636719 102.414062 193.109375 102.550781 193.554688 102.78125 C 194 103.011719 194.382812 103.316406 194.707031 103.699219 C 195.027344 104.085938 195.261719 104.519531 195.414062 104.996094 C 195.5625 105.476562 195.613281 105.964844 195.566406 106.464844 C 195.519531 106.964844 195.378906 107.4375 195.148438 107.878906 C 194.914062 108.324219 194.601562 108.707031 194.214844 109.027344 L 191.574219 111.214844 C 190.734375 111.921875 189.796875 112.457031 188.761719 112.820312 C 187.730469 113.183594 186.664062 113.355469 185.566406 113.332031 Z M 185.566406 113.332031 " fill-opacity="1" fill-rule="nonzero"/><path fill="#000000" d="M 196.898438 126.285156 C 195.355469 126.28125 193.886719 125.949219 192.492188 125.289062 C 191.097656 124.625 189.910156 123.699219 188.929688 122.507812 C 188.648438 122.121094 188.445312 121.691406 188.328125 121.226562 C 188.207031 120.761719 188.179688 120.289062 188.242188 119.8125 C 188.300781 119.335938 188.449219 118.886719 188.679688 118.46875 C 188.910156 118.046875 189.214844 117.683594 189.582031 117.378906 C 189.953125 117.070312 190.367188 116.84375 190.824219 116.699219 C 191.28125 116.550781 191.75 116.492188 192.230469 116.523438 C 192.710938 116.554688 193.167969 116.671875 193.601562 116.878906 C 194.035156 117.082031 194.417969 117.359375 194.746094 117.710938 C 195.238281 118.296875 195.871094 118.625 196.632812 118.695312 C 197.382812 118.738281 198.050781 118.523438 198.636719 118.050781 L 200.523438 116.503906 C 200.769531 116.292969 200.996094 116.058594 201.199219 115.800781 C 201.402344 115.546875 201.578125 115.273438 201.726562 114.984375 C 201.875 114.691406 201.996094 114.390625 202.089844 114.078125 C 202.179688 113.765625 202.242188 113.445312 202.269531 113.121094 C 202.300781 112.796875 202.296875 112.472656 202.265625 112.148438 C 202.230469 111.824219 202.167969 111.503906 202.074219 111.191406 C 201.980469 110.878906 201.855469 110.578125 201.703125 110.292969 C 201.550781 110.003906 201.371094 109.734375 201.164062 109.480469 L 199.203125 107.023438 C 198.898438 106.683594 198.519531 106.480469 198.070312 106.417969 C 197.617188 106.390625 197.214844 106.519531 196.859375 106.796875 L 194.214844 108.988281 C 194.03125 109.167969 193.828125 109.328125 193.609375 109.464844 C 193.386719 109.605469 193.15625 109.71875 192.914062 109.808594 C 192.671875 109.902344 192.421875 109.964844 192.164062 110.003906 C 191.910156 110.046875 191.652344 110.058594 191.390625 110.042969 C 191.132812 110.03125 190.878906 109.992188 190.628906 109.925781 C 190.375 109.859375 190.136719 109.765625 189.902344 109.652344 C 189.671875 109.535156 189.453125 109.398438 189.25 109.234375 C 189.046875 109.074219 188.859375 108.894531 188.695312 108.695312 C 188.527344 108.496094 188.382812 108.285156 188.261719 108.054688 C 188.140625 107.824219 188.039062 107.585938 187.96875 107.339844 C 187.894531 107.089844 187.847656 106.835938 187.828125 106.578125 C 187.804688 106.320312 187.8125 106.0625 187.84375 105.804688 C 187.875 105.546875 187.933594 105.292969 188.019531 105.050781 C 188.101562 104.804688 188.210938 104.570312 188.34375 104.347656 C 188.476562 104.121094 188.628906 103.914062 188.804688 103.722656 C 188.980469 103.53125 189.171875 103.359375 189.382812 103.210938 L 192.027344 101.019531 C 192.492188 100.632812 192.988281 100.296875 193.519531 100.007812 C 194.046875 99.71875 194.601562 99.488281 195.179688 99.308594 C 195.753906 99.128906 196.34375 99.007812 196.941406 98.941406 C 197.542969 98.878906 198.144531 98.875 198.746094 98.929688 C 199.347656 98.984375 199.9375 99.09375 200.515625 99.265625 C 201.09375 99.4375 201.652344 99.660156 202.1875 99.941406 C 202.71875 100.21875 203.222656 100.550781 203.695312 100.929688 C 204.164062 101.304688 204.59375 101.726562 204.980469 102.191406 L 207.09375 104.71875 C 207.625 105.359375 208.085938 106.046875 208.476562 106.777344 C 208.871094 107.507812 209.1875 108.273438 209.429688 109.066406 C 209.671875 109.859375 209.835938 110.671875 209.917969 111.496094 C 210 112.324219 210 113.148438 209.921875 113.976562 C 209.839844 114.800781 209.679688 115.613281 209.4375 116.40625 C 209.195312 117.199219 208.882812 117.964844 208.488281 118.695312 C 208.097656 119.429688 207.640625 120.117188 207.113281 120.757812 C 206.585938 121.398438 206 121.980469 205.359375 122.507812 L 203.46875 124.054688 C 202.535156 124.796875 201.503906 125.355469 200.375 125.738281 C 199.25 126.121094 198.089844 126.300781 196.898438 126.285156 Z M 196.898438 126.285156 " fill-opacity="1" fill-rule="nonzero"/><path fill="#000000" d="M 180.320312 96.410156 C 179.757812 96.414062 179.222656 96.292969 178.710938 96.054688 C 178.203125 95.816406 177.769531 95.484375 177.410156 95.050781 L 172.839844 89.574219 C 172.519531 89.179688 172.289062 88.738281 172.144531 88.25 C 172 87.761719 171.953125 87.265625 172.003906 86.757812 C 172.058594 86.25 172.207031 85.773438 172.449219 85.328125 C 172.691406 84.878906 173.011719 84.496094 173.40625 84.175781 C 173.804688 83.855469 174.246094 83.621094 174.734375 83.476562 C 175.222656 83.332031 175.71875 83.285156 176.226562 83.339844 C 176.730469 83.394531 177.207031 83.542969 177.65625 83.785156 C 178.101562 84.027344 178.488281 84.347656 178.808594 84.742188 L 183.339844 90.21875 C 183.816406 90.789062 184.097656 91.445312 184.1875 92.183594 C 184.277344 92.921875 184.160156 93.625 183.832031 94.292969 C 183.507812 94.960938 183.027344 95.488281 182.390625 95.871094 C 181.753906 96.253906 181.0625 96.433594 180.320312 96.410156 Z M 180.320312 96.410156 " fill-opacity="1" fill-rule="nonzero"/><path fill="#000000" d="M 207.398438 128.777344 C 206.835938 128.777344 206.300781 128.660156 205.792969 128.421875 C 205.28125 128.183594 204.847656 127.847656 204.488281 127.417969 L 199.957031 121.980469 C 199.777344 121.792969 199.617188 121.589844 199.480469 121.371094 C 199.339844 121.152344 199.226562 120.921875 199.132812 120.675781 C 199.042969 120.433594 198.976562 120.183594 198.9375 119.929688 C 198.898438 119.671875 198.886719 119.414062 198.898438 119.15625 C 198.914062 118.894531 198.953125 118.640625 199.019531 118.390625 C 199.085938 118.140625 199.175781 117.898438 199.292969 117.664062 C 199.410156 117.433594 199.546875 117.214844 199.707031 117.011719 C 199.871094 116.808594 200.050781 116.625 200.25 116.457031 C 200.449219 116.289062 200.660156 116.148438 200.890625 116.023438 C 201.117188 115.902344 201.359375 115.804688 201.605469 115.730469 C 201.855469 115.65625 202.109375 115.609375 202.367188 115.589844 C 202.625 115.570312 202.882812 115.574219 203.140625 115.605469 C 203.398438 115.640625 203.652344 115.695312 203.894531 115.78125 C 204.140625 115.867188 204.375 115.972656 204.597656 116.105469 C 204.820312 116.238281 205.027344 116.390625 205.21875 116.566406 C 205.410156 116.742188 205.582031 116.933594 205.734375 117.144531 L 210.304688 122.507812 C 210.625 122.894531 210.859375 123.324219 211.011719 123.804688 C 211.160156 124.285156 211.210938 124.773438 211.164062 125.273438 C 211.117188 125.773438 210.976562 126.242188 210.746094 126.6875 C 210.511719 127.132812 210.199219 127.511719 209.8125 127.832031 C 209.125 128.441406 208.316406 128.757812 207.398438 128.777344 Z M 207.398438 128.777344 " fill-opacity="1" fill-rule="nonzero"/><path fill="#000000" d="M 218.652344 69.410156 L 218.347656 69.410156 L 183.867188 66.953125 C 183.363281 66.925781 182.882812 66.800781 182.429688 66.578125 C 181.976562 66.355469 181.582031 66.054688 181.25 65.675781 C 180.914062 65.296875 180.667969 64.867188 180.507812 64.386719 C 180.34375 63.910156 180.28125 63.417969 180.320312 62.914062 C 180.351562 62.414062 180.480469 61.941406 180.703125 61.496094 C 180.921875 61.046875 181.21875 60.660156 181.59375 60.332031 C 181.96875 60 182.394531 59.757812 182.867188 59.59375 C 183.339844 59.433594 183.824219 59.371094 184.320312 59.402344 L 218.839844 61.855469 C 219.339844 61.875 219.820312 61.984375 220.273438 62.195312 C 220.730469 62.402344 221.128906 62.691406 221.46875 63.054688 C 221.8125 63.421875 222.070312 63.839844 222.246094 64.308594 C 222.421875 64.777344 222.5 65.261719 222.480469 65.765625 C 222.464844 66.265625 222.351562 66.742188 222.144531 67.199219 C 221.9375 67.652344 221.648438 68.054688 221.28125 68.394531 C 220.917969 68.738281 220.5 68.996094 220.03125 69.171875 C 219.5625 69.347656 219.078125 69.425781 218.574219 69.410156 Z M 218.652344 69.410156 " fill-opacity="1" fill-rule="nonzero"/><path fill="#000000" d="M 232.511719 125.039062 L 232.058594 125.039062 C 231.558594 124.980469 231.089844 124.832031 230.652344 124.585938 C 230.214844 124.34375 229.839844 124.027344 229.527344 123.632812 C 229.214844 123.238281 228.992188 122.800781 228.851562 122.316406 C 228.714844 121.835938 228.675781 121.34375 228.734375 120.847656 L 232.511719 86.480469 C 232.570312 85.976562 232.71875 85.507812 232.964844 85.066406 C 233.210938 84.625 233.53125 84.25 233.925781 83.9375 C 234.320312 83.621094 234.757812 83.394531 235.246094 83.257812 C 235.730469 83.121094 236.222656 83.078125 236.722656 83.136719 C 237.222656 83.195312 237.695312 83.34375 238.136719 83.589844 C 238.574219 83.835938 238.953125 84.15625 239.265625 84.550781 C 239.578125 84.945312 239.804688 85.382812 239.945312 85.871094 C 240.082031 86.355469 240.121094 86.847656 240.066406 87.347656 L 236.289062 121.675781 C 236.238281 122.140625 236.105469 122.582031 235.890625 122.996094 C 235.675781 123.410156 235.394531 123.773438 235.046875 124.082031 C 234.695312 124.394531 234.304688 124.632812 233.867188 124.796875 C 233.429688 124.960938 232.976562 125.042969 232.511719 125.039062 Z M 232.511719 125.039062 " fill-opacity="1" fill-rule="nonzero"/></svg>