<svg xmlns="http://www.w3.org/2000/svg" xmlns:xlink="http://www.w3.org/1999/xlink" width="378" zoomAndPan="magnify" viewBox="0 0 282.96 283.499989" height="378" preserveAspectRatio="xMidYMid meet" version="1.0"><defs><clipPath id="f705dbbe28"><path d="M 6.445312 6.214844 L 276.714844 6.214844 L 276.714844 276.488281 L 6.445312 276.488281 Z M 6.445312 6.214844 " clip-rule="nonzero"/></clipPath></defs><g clip-path="url(#f705dbbe28)"><path fill="#000000" d="M 141.578125 6.214844 C 67.035156 6.214844 6.445312 66.808594 6.445312 141.351562 C 6.445312 215.894531 67.035156 276.488281 141.578125 276.488281 C 216.121094 276.488281 276.714844 215.894531 276.714844 141.351562 C 276.714844 66.808594 216.121094 6.214844 141.578125 6.214844 Z M 217.519531 154.429688 L 154.65625 154.429688 L 154.65625 217.289062 C 154.65625 224.4375 148.816406 230.367188 141.578125 230.367188 C 134.34375 230.367188 128.503906 224.4375 128.503906 217.289062 L 128.503906 154.429688 L 65.640625 154.429688 C 58.492188 154.429688 52.5625 148.585938 52.5625 141.351562 C 52.5625 134.113281 58.492188 128.273438 65.640625 128.273438 L 128.503906 128.273438 L 128.503906 65.414062 C 128.503906 58.261719 134.34375 52.335938 141.578125 52.335938 C 148.816406 52.335938 154.65625 58.261719 154.65625 65.414062 L 154.65625 128.273438 L 217.519531 128.273438 C 224.667969 128.273438 230.597656 134.113281 230.597656 141.351562 C 230.597656 148.585938 224.667969 154.429688 217.519531 154.429688 Z M 217.519531 154.429688 " fill-opacity="1" fill-rule="nonzero"/></g></svg>