<svg xmlns="http://www.w3.org/2000/svg" xmlns:xlink="http://www.w3.org/1999/xlink" width="378" zoomAndPan="magnify" viewBox="0 0 282.96 283.499989" height="378" preserveAspectRatio="xMidYMid meet" version="1.0"><defs><clipPath id="a379955b9d"><path d="M 57.144531 84.613281 L 226.347656 84.613281 L 226.347656 198 L 57.144531 198 Z M 57.144531 84.613281 " clip-rule="nonzero"/></clipPath></defs><g clip-path="url(#a379955b9d)"><path fill="#000000" d="M 217.820312 137.078125 C 213.136719 140.738281 211.097656 145.347656 210.214844 147.8125 C 208.808594 148.550781 207.332031 149.183594 205.78125 149.644531 C 206.308594 148.796875 206.800781 147.917969 207.261719 147.039062 C 208.949219 143.90625 210.320312 140.667969 211.308594 137.359375 C 212.222656 136.339844 213.03125 135.28125 213.804688 134.15625 C 214.652344 132.890625 215.425781 131.515625 216.058594 130.144531 C 216.796875 129.828125 217.785156 129.335938 218.734375 128.488281 C 220.492188 126.941406 221.269531 125.25 221.621094 124.441406 C 221.867188 123.84375 222.675781 121.90625 222.605469 119.199219 C 222.535156 116.980469 221.9375 115.21875 221.445312 114.199219 C 220.882812 117.121094 219.789062 118.953125 218.839844 120.078125 C 218.066406 121.027344 217.679688 121.167969 216.902344 122.292969 C 216.445312 122.929688 215.25 124.757812 215.179688 127.292969 C 215.144531 128.242188 215.320312 129.085938 215.460938 129.722656 C 214.828125 131.128906 214.054688 132.464844 213.207031 133.734375 C 212.75 134.402344 212.292969 135.035156 211.800781 135.667969 C 212.257812 133.875 212.644531 132.042969 212.890625 130.214844 C 213.734375 124.371094 213.453125 118.632812 212.082031 113.179688 C 210.460938 106.878906 207.402344 101.351562 202.964844 96.742188 C 199.234375 92.90625 194.835938 89.878906 189.871094 87.800781 C 184.945312 85.761719 179.664062 84.703125 174.175781 84.703125 C 161.257812 84.703125 150.136719 90.652344 143.695312 101.035156 C 142.921875 102.269531 142.144531 103.78125 141.441406 105.332031 C 141.265625 104.941406 141.089844 104.589844 140.949219 104.273438 C 135.671875 93.503906 126.34375 86.851562 113.953125 85.023438 C 112.792969 84.84375 106.632812 84.667969 105.4375 84.808594 C 105.191406 84.84375 104.414062 84.953125 103.78125 85.023438 C 98.292969 85.621094 92.800781 87.519531 87.945312 90.441406 C 83.050781 93.363281 78.898438 97.304688 75.90625 101.808594 C 72.351562 107.125 70.203125 113.601562 69.675781 120.464844 C 69.324219 125.355469 69.78125 130.355469 71.050781 135.28125 C 70.730469 134.859375 70.378906 134.402344 70.097656 133.945312 C 69.253906 132.679688 68.480469 131.339844 67.847656 129.933594 C 68.023438 129.300781 68.164062 128.488281 68.128906 127.503906 C 68.058594 124.96875 66.824219 123.140625 66.367188 122.507812 C 65.59375 121.378906 65.207031 121.238281 64.398438 120.289062 C 63.445312 119.164062 62.320312 117.332031 61.757812 114.410156 C 61.300781 115.429688 60.667969 117.191406 60.632812 119.410156 C 60.558594 122.082031 61.371094 124.054688 61.617188 124.652344 C 61.96875 125.460938 62.707031 127.152344 64.503906 128.699219 C 65.453125 129.546875 66.4375 130.039062 67.175781 130.355469 C 67.847656 131.761719 68.585938 133.101562 69.464844 134.367188 C 70.097656 135.316406 70.765625 136.199219 71.507812 137.078125 C 71.929688 138.449219 72.386719 139.824219 72.914062 141.160156 C 74.074219 144.082031 75.484375 146.933594 77.171875 149.75 C 75.765625 149.289062 74.394531 148.726562 73.089844 148.058594 C 72.246094 145.59375 70.167969 141.019531 65.488281 137.359375 C 62.355469 134.894531 59.1875 133.804688 57.144531 133.242188 C 57.746094 134.015625 58.589844 135.175781 59.363281 136.621094 C 59.855469 137.570312 60.136719 138.273438 60.3125 138.695312 C 61.476562 141.476562 63.128906 143.90625 63.691406 144.609375 C 64.257812 145.347656 66.472656 147.917969 72.421875 148.65625 C 74.144531 149.605469 75.976562 150.347656 77.878906 150.839844 C 79.320312 153.09375 80.9375 155.34375 82.804688 157.632812 C 80.375 156.753906 77.808594 156.292969 75.238281 156.328125 C 74.675781 156.328125 74.074219 156.363281 73.511719 156.4375 C 72.984375 155.308594 71.824219 154.570312 70.519531 154.675781 C 68.832031 154.78125 67.53125 156.257812 67.671875 157.984375 C 67.777344 159.671875 69.253906 160.976562 70.980469 160.835938 C 72.667969 160.730469 73.96875 159.25 73.828125 157.527344 C 73.828125 157.492188 73.828125 157.421875 73.828125 157.386719 C 74.324219 157.351562 74.816406 157.316406 75.308594 157.316406 C 78.335938 157.28125 81.398438 157.949219 84.210938 159.25 C 85.9375 161.292969 87.871094 163.335938 89.984375 165.480469 C 91.640625 167.136719 93.152344 168.613281 94.773438 170.09375 C 93.503906 170.128906 92.238281 170.128906 90.96875 170.09375 C 90.300781 169.351562 89.210938 168.367188 87.660156 167.558594 C 84.421875 165.902344 81.328125 166.183594 80.199219 166.289062 C 78.265625 166.5 77.808594 166.890625 76.082031 167.207031 C 74.003906 167.628906 70.980469 167.769531 66.929688 166.464844 C 67.917969 167.769531 69.640625 169.703125 72.386719 171.324219 C 75.695312 173.222656 78.722656 173.578125 79.601562 173.683594 C 80.832031 173.789062 83.507812 174.035156 86.640625 172.835938 C 88.121094 172.273438 89.28125 171.570312 90.160156 170.902344 C 91.003906 170.9375 91.851562 170.972656 92.660156 170.972656 C 93.574219 170.972656 94.488281 170.9375 95.371094 170.902344 C 95.441406 170.902344 95.511719 170.902344 95.617188 170.902344 C 96.320312 171.535156 97.058594 172.203125 97.832031 172.871094 C 97.304688 174.140625 96.847656 175.265625 96.460938 176.285156 C 94.949219 180.015625 93.890625 182.410156 91.570312 184.734375 C 90.019531 186.28125 87.34375 188.359375 82.839844 189.695312 C 90.933594 196.699219 96.8125 197.652344 100.859375 197.015625 C 105.648438 196.242188 111.488281 192.582031 117.472656 195.363281 C 118.175781 195.679688 117.964844 195.679688 118.777344 196.066406 C 120.113281 196.699219 123.984375 198.285156 134.4375 195.820312 C 136.375 195.363281 139.015625 194.660156 142.109375 193.566406 C 142.039062 190.824219 141.96875 188.113281 141.898438 185.367188 C 141.441406 183.078125 140.914062 179.980469 140.351562 176.285156 C 140 174.070312 139.683594 171.605469 139.367188 168.929688 C 139.15625 167.066406 139.15625 167.277344 139.015625 165.761719 C 138.34375 158.933594 137.21875 152.175781 135.070312 145.664062 C 133.945312 142.285156 132.679688 138.976562 130.636719 135.988281 C 130.425781 135.667969 130.214844 135.316406 130.039062 134.964844 C 129.933594 134.789062 129.863281 134.613281 129.757812 134.4375 C 129.160156 133.628906 128.066406 131.9375 127.890625 129.582031 C 127.820312 128.628906 127.925781 127.785156 128.03125 127.117188 C 128.171875 126.730469 128.277344 126.34375 128.277344 125.78125 C 128.453125 126.097656 128.664062 126.414062 128.84375 126.695312 C 129.792969 128.171875 130.777344 129.511719 131.761719 130.707031 C 132.257812 131.304688 132.785156 131.902344 133.277344 132.5 C 134.402344 134.332031 135.953125 135.808594 137.605469 137.148438 C 138.449219 137.851562 139.226562 138.660156 139.894531 139.542969 C 139.929688 139.542969 139.929688 139.578125 139.964844 139.613281 C 140.105469 139.71875 140.105469 139.894531 140.105469 139.929688 C 140.140625 140.140625 140.773438 140.984375 141.722656 141.476562 C 142.535156 141.898438 144.011719 142.320312 145.03125 141.757812 C 146.125 141.160156 146.6875 140.84375 146.722656 140.84375 C 146.898438 140.703125 147.074219 140.597656 147.25 140.808594 C 147.460938 141.054688 147.636719 141.019531 147.847656 140.773438 C 148.128906 140.457031 148.410156 140.457031 148.621094 140.808594 C 148.867188 141.125 149.042969 141.089844 149.328125 140.84375 C 150.769531 139.4375 152.28125 138.167969 153.867188 136.9375 C 154.429688 136.480469 154.957031 135.949219 155.449219 135.28125 C 155.695312 136.585938 155.765625 137.78125 155.695312 139.011719 C 155.660156 139.613281 155.660156 140.210938 155.625 140.808594 C 155.625 141.089844 155.625 141.371094 155.589844 141.652344 C 155.554688 142.355469 155.554688 143.097656 155.519531 143.800781 C 155.519531 143.90625 155.519531 143.976562 155.519531 144.082031 C 155.519531 144.117188 155.519531 144.152344 155.519531 144.1875 C 155.519531 144.292969 155.519531 144.363281 155.519531 144.46875 C 155.519531 144.503906 155.519531 144.539062 155.519531 144.574219 C 155.449219 147.074219 155.484375 149.570312 155.34375 152.105469 C 155.34375 152.808594 155.34375 153.480469 155.34375 154.183594 C 156.011719 154.21875 156.011719 154.21875 156.050781 154.886719 C 156.121094 156.753906 156.226562 158.617188 156.296875 160.484375 C 156.402344 161.152344 156.332031 161.855469 156.332031 162.523438 C 156.332031 162.59375 156.367188 162.664062 156.367188 162.734375 C 156.4375 163.546875 156.507812 164.355469 156.472656 165.199219 C 156.472656 165.234375 156.507812 165.234375 156.507812 165.269531 C 156.507812 165.269531 156.507812 165.269531 156.472656 165.304688 C 156.472656 166.605469 156.929688 167.804688 157.246094 169.070312 C 157.386719 169.316406 157.421875 169.632812 157.421875 169.914062 C 157.421875 169.949219 157.421875 169.984375 157.457031 170.019531 C 157.527344 170.128906 157.527344 170.199219 157.492188 170.304688 C 157.492188 170.339844 157.492188 170.375 157.492188 170.410156 C 157.492188 170.445312 157.492188 170.480469 157.492188 170.515625 C 157.597656 172.097656 157.703125 173.648438 157.632812 175.230469 C 157.632812 175.335938 157.667969 175.441406 157.5625 175.546875 C 157.632812 175.863281 157.632812 176.179688 157.632812 176.460938 C 157.632812 176.566406 157.632812 176.671875 157.632812 176.8125 C 157.632812 177.34375 157.632812 177.90625 157.632812 178.433594 C 157.632812 178.609375 157.632812 178.820312 157.667969 178.996094 C 157.84375 179.207031 157.738281 179.417969 157.738281 179.628906 C 157.703125 180.050781 157.667969 180.441406 157.632812 180.863281 C 157.632812 181.144531 157.667969 181.425781 157.5625 181.707031 C 157.632812 182.199219 157.597656 182.726562 157.5625 183.21875 C 157.5625 183.675781 157.527344 184.171875 157.527344 184.628906 C 157.597656 185.191406 157.316406 185.753906 157.351562 186.316406 C 157.246094 186.703125 157.28125 187.09375 157.035156 187.445312 C 157 187.585938 156.964844 187.691406 156.894531 187.832031 C 157.070312 187.972656 157.28125 188.148438 157.527344 188.324219 C 157.210938 189.097656 156.859375 189.835938 156.191406 190.542969 C 154.429688 192.335938 152.105469 192.019531 151.964844 193.039062 C 151.859375 193.671875 152.671875 194.273438 152.777344 194.34375 C 154.078125 195.292969 155.730469 194.449219 158.617188 194.203125 C 159.039062 194.167969 159.570312 194.132812 160.132812 194.167969 L 160.167969 194.554688 C 160.34375 194.589844 160.554688 194.625 160.730469 194.660156 C 161.222656 194.660156 161.714844 194.660156 162.242188 194.660156 C 163.371094 194.519531 163.371094 194.519531 163.582031 193.425781 C 163.617188 193.179688 163.6875 192.96875 164.003906 193.003906 C 164.074219 193.003906 164.144531 193.003906 164.144531 193.003906 C 164.355469 193.039062 165.410156 193.074219 166.398438 193.109375 C 166.714844 193.179688 167.207031 193.285156 167.664062 193.320312 C 168.121094 193.355469 168.578125 193.285156 168.859375 193.074219 C 168.859375 193.074219 168.894531 193.074219 168.894531 193.074219 C 168.894531 193.074219 168.894531 193.074219 168.894531 193.039062 C 168.929688 193.003906 168.964844 192.96875 169 192.898438 C 169 192.863281 169.035156 192.828125 169.070312 192.757812 C 169.140625 192.546875 169.246094 192.195312 169.246094 191.703125 C 169.457031 190.824219 169.492188 189.941406 169.492188 189.0625 C 169.492188 188.710938 169.28125 188.464844 169.175781 188.148438 C 168.929688 187.410156 169.28125 186.738281 169.28125 186 C 169.28125 185.964844 169.28125 185.929688 169.28125 185.929688 C 169.8125 185.507812 170.339844 185.085938 170.902344 184.664062 C 171.675781 184.066406 172.414062 183.464844 173.121094 182.902344 C 173.648438 183.253906 174.28125 183.570312 174.984375 183.855469 C 177.625 184.875 179.984375 184.628906 181.074219 184.488281 C 181.882812 184.382812 184.558594 183.996094 187.691406 182.164062 C 190.296875 180.617188 192.054688 178.75 193.074219 177.554688 C 189.378906 178.855469 186.703125 178.785156 184.945312 178.433594 C 183.46875 178.152344 183.113281 177.800781 181.425781 177.660156 C 181.074219 177.625 180.511719 177.589844 179.769531 177.625 C 182.9375 175.054688 185.367188 172.976562 187.585938 170.972656 C 187.761719 170.972656 187.9375 171.007812 188.113281 171.007812 C 188.957031 171.042969 189.800781 171.078125 190.683594 171.078125 C 191.5625 171.078125 192.476562 171.042969 193.355469 171.007812 C 194.238281 171.675781 195.398438 172.378906 196.875 172.941406 C 200.007812 174.105469 202.683594 173.894531 203.917969 173.753906 C 204.796875 173.648438 207.824219 173.292969 211.132812 171.394531 C 213.875 169.808594 215.601562 167.839844 216.585938 166.535156 C 212.539062 167.839844 209.511719 167.699219 207.4375 167.3125 C 205.710938 166.960938 205.253906 166.605469 203.316406 166.394531 C 202.191406 166.289062 199.09375 166.007812 195.855469 167.664062 C 194.308594 168.472656 193.214844 169.457031 192.546875 170.199219 C 191.175781 170.234375 189.835938 170.234375 188.5 170.199219 C 190.082031 168.753906 191.5625 167.277344 193.179688 165.65625 C 195.292969 163.546875 197.160156 161.539062 198.847656 159.566406 C 201.769531 158.125 205.007812 157.351562 208.175781 157.386719 C 208.667969 157.386719 209.160156 157.421875 209.652344 157.457031 C 209.652344 157.492188 209.652344 157.5625 209.652344 157.597656 C 209.546875 159.285156 210.816406 160.765625 212.539062 160.90625 C 214.230469 161.011719 215.707031 159.742188 215.847656 158.019531 C 215.953125 156.328125 214.6875 154.851562 212.960938 154.710938 C 211.660156 154.605469 210.496094 155.34375 209.96875 156.472656 C 209.40625 156.398438 208.808594 156.398438 208.246094 156.363281 C 205.570312 156.328125 202.859375 156.859375 200.324219 157.84375 C 202.191406 155.554688 203.8125 153.304688 205.253906 150.980469 C 207.296875 150.453125 209.230469 149.679688 211.027344 148.691406 C 216.972656 147.917969 219.191406 145.347656 219.753906 144.609375 C 220.28125 143.90625 221.9375 141.476562 223.097656 138.695312 C 223.273438 138.273438 223.554688 137.570312 224.046875 136.621094 C 224.824219 135.140625 225.667969 133.980469 226.265625 133.207031 C 224.082031 133.488281 220.953125 134.613281 217.820312 137.078125 Z M 193.390625 158.265625 C 194.34375 156.257812 194.484375 154.5 194.519531 153.761719 C 194.625 152.070312 194.34375 151.648438 194.273438 150.171875 C 194.203125 148.375 194.519531 145.734375 196.347656 142.25 C 194.976562 143.0625 192.898438 144.539062 191 146.898438 C 188.710938 149.714844 187.9375 152.351562 187.726562 153.128906 C 187.445312 154.183594 186.8125 156.507812 187.445312 159.25 C 187.796875 160.835938 188.464844 162.03125 189.0625 162.839844 C 183.925781 167.945312 179.804688 171.464844 169.457031 179.628906 C 169.457031 179.523438 169.457031 179.453125 169.457031 179.347656 C 169.457031 179.277344 169.457031 179.207031 169.457031 179.136719 C 169.421875 178.539062 169.492188 177.941406 169.5625 177.378906 C 169.597656 177.0625 169.597656 176.742188 169.632812 176.425781 C 169.632812 176.390625 169.632812 176.355469 169.632812 176.320312 C 169.632812 176.179688 169.632812 176.074219 169.671875 175.933594 C 169.707031 175.476562 169.707031 174.984375 169.742188 174.527344 C 169.742188 174.421875 169.742188 174.351562 169.742188 174.246094 C 169.742188 173.964844 169.742188 173.683594 169.742188 173.398438 C 169.742188 173.292969 169.742188 173.222656 169.742188 173.117188 C 169.632812 172.519531 169.492188 171.921875 169.386719 171.324219 C 169.316406 171.21875 169.246094 171.078125 169.28125 170.9375 C 169.210938 170.832031 169.175781 170.691406 169.210938 170.550781 C 169.210938 170.480469 169.210938 170.410156 169.210938 170.375 C 169 169.28125 169.035156 168.15625 168.964844 167.03125 C 168.929688 166.183594 168.894531 165.304688 169.035156 164.460938 C 169.035156 164.285156 168.964844 164.074219 169.105469 163.898438 C 169.105469 163.863281 169.105469 163.828125 169.105469 163.792969 C 169.105469 163.6875 169.105469 163.582031 169.105469 163.511719 C 169.105469 163.265625 169.070312 163.015625 169.140625 162.734375 C 169.140625 162.558594 169.175781 162.382812 169.175781 162.171875 C 169.210938 161.503906 169.246094 160.835938 169.351562 160.203125 C 169.351562 160.027344 169.386719 159.8125 169.386719 159.636719 C 169.421875 158.617188 169.492188 157.632812 169.671875 156.648438 C 169.671875 156.542969 169.671875 156.472656 169.671875 156.363281 C 169.671875 156.152344 169.671875 155.976562 169.707031 155.765625 C 169.777344 155.449219 169.597656 154.992188 169.882812 154.816406 C 170.128906 154.640625 170.550781 154.710938 170.867188 154.675781 C 171.253906 154.640625 171.675781 154.605469 172.0625 154.570312 C 172.097656 154.570312 172.167969 154.535156 172.203125 154.535156 C 172.308594 154.535156 172.414062 154.535156 172.519531 154.5 C 172.765625 154.253906 172.554688 153.9375 172.625 153.65625 C 172.554688 151.964844 172.414062 150.277344 172.519531 148.585938 C 172.449219 148.304688 172.449219 148.023438 172.484375 147.742188 C 172.414062 147.003906 172.273438 146.230469 172.308594 145.488281 C 172.308594 145.417969 172.308594 145.347656 172.308594 145.3125 C 172.308594 145.207031 172.273438 145.136719 172.273438 145.03125 C 172.238281 144.714844 172.203125 144.398438 172.167969 144.082031 C 172.167969 144.011719 172.167969 143.941406 172.167969 143.90625 C 172.132812 143.730469 172.097656 143.519531 172.097656 143.34375 C 172.097656 143.273438 172.097656 143.203125 172.0625 143.167969 C 171.816406 141.792969 171.640625 140.421875 171.535156 139.046875 C 171.535156 138.976562 171.535156 138.90625 171.535156 138.871094 C 171.464844 138.625 171.429688 138.378906 171.464844 138.132812 C 171.464844 138.027344 171.464844 137.957031 171.464844 137.851562 C 171.394531 137.464844 171.359375 137.113281 171.394531 136.726562 C 171.253906 135 171.394531 133.277344 171.605469 131.550781 C 172.097656 127.820312 172.976562 124.125 173.367188 120.359375 C 173.332031 120.113281 173.402344 119.867188 173.4375 119.621094 C 173.4375 119.269531 173.4375 118.949219 173.4375 118.597656 C 173.4375 118.527344 173.4375 118.457031 173.402344 118.421875 C 173.402344 118.351562 173.367188 118.246094 173.367188 118.246094 C 173.367188 118.140625 173.046875 116.664062 171.535156 115.464844 C 171.359375 115.324219 171.078125 115.113281 170.691406 114.902344 C 170.269531 114.691406 169.917969 114.410156 169.632812 114.023438 C 169.421875 113.847656 169.28125 113.601562 169.210938 113.355469 C 169.105469 113.179688 169 113.003906 168.929688 112.792969 C 168.71875 112.441406 168.613281 111.945312 168.332031 111.734375 C 167.945312 111.417969 167.910156 111.03125 167.769531 110.679688 C 167.734375 110.609375 168.015625 109.800781 168.085938 109.800781 L 168.121094 109.800781 C 168.15625 109.308594 168.296875 108.886719 168.402344 108.425781 C 168.542969 108.039062 168.648438 107.617188 168.894531 107.265625 C 168.859375 107.230469 168.859375 107.195312 168.894531 107.195312 C 168.859375 107.125 168.894531 107.089844 168.929688 107.054688 C 169.035156 106.703125 169.105469 106.351562 169.210938 106 C 169.210938 105.929688 169.210938 105.859375 169.210938 105.824219 C 169.105469 104.765625 169 103.710938 168.367188 102.832031 C 168.261719 102.726562 168.191406 102.65625 168.085938 102.550781 C 168.015625 102.515625 167.945312 102.445312 167.875 102.410156 C 167.699219 101.914062 167.207031 101.667969 166.820312 101.351562 C 166.714844 101.351562 166.609375 101.28125 166.539062 101.210938 C 166.503906 101.175781 166.46875 101.175781 166.433594 101.140625 C 166.433594 101.140625 165.65625 100.964844 165.445312 100.894531 C 165.269531 100.859375 164.847656 100.753906 164.355469 100.753906 C 163.371094 100.71875 162.59375 101.035156 162.207031 101.210938 C 161.996094 101.28125 161.855469 101.351562 161.75 101.421875 C 161.363281 101.492188 160.835938 101.632812 160.308594 101.878906 C 159.5 102.269531 158.933594 102.761719 158.582031 103.113281 C 158.898438 103.078125 159.25 103.078125 159.285156 103.148438 C 159.285156 103.183594 159.214844 103.21875 159.179688 103.253906 C 158.96875 103.394531 158.792969 103.640625 158.582031 103.816406 C 158.40625 103.992188 158.089844 104.484375 157.597656 105.929688 C 157.632812 105.859375 157.914062 105.4375 158.371094 105.402344 C 158.476562 105.402344 158.582031 105.402344 158.6875 105.4375 C 158.757812 105.929688 158.722656 106.316406 158.652344 106.597656 C 158.582031 106.914062 158.546875 107.160156 158.652344 107.476562 C 158.6875 107.582031 158.757812 107.6875 158.863281 107.792969 C 159.003906 107.933594 159.003906 108.25 158.757812 108.425781 C 158.757812 108.496094 158.757812 108.636719 158.757812 108.816406 C 158.722656 109.167969 158.617188 109.34375 158.476562 109.835938 C 158.371094 110.257812 158.300781 110.433594 158.371094 110.539062 C 158.476562 110.644531 158.898438 110.574219 159.074219 110.539062 C 159.109375 110.539062 159.144531 110.539062 159.179688 110.539062 C 159.285156 110.574219 159.320312 110.75 159.320312 110.75 C 159.355469 110.960938 159.179688 110.996094 159.214844 111.171875 C 159.214844 111.3125 159.320312 111.488281 159.425781 111.523438 C 159.464844 111.523438 159.5 111.523438 159.535156 111.523438 C 159.5 111.59375 159.5 111.734375 159.535156 111.839844 C 159.605469 112.015625 159.746094 112.050781 159.886719 112.195312 C 160.0625 112.441406 159.886719 112.617188 159.957031 112.96875 C 160.027344 113.285156 160.34375 113.671875 160.695312 113.671875 C 161.082031 113.671875 161.46875 113.53125 161.820312 113.390625 C 162.136719 113.285156 162.277344 113.390625 162.417969 113.601562 C 162.949219 114.410156 162.628906 115.183594 161.609375 115.464844 C 161.328125 115.75 161.011719 115.960938 160.660156 116.101562 C 160.414062 116.242188 160.167969 116.382812 159.921875 116.523438 C 159.816406 116.59375 159.675781 116.628906 159.570312 116.699219 C 159.464844 116.769531 159.355469 116.839844 159.25 116.910156 C 158.195312 117.894531 157.808594 119.269531 157.316406 120.535156 C 156.613281 122.402344 156.332031 124.371094 155.871094 126.308594 C 155.730469 126.90625 155.554688 127.46875 155.414062 128.066406 C 155.0625 129.511719 154.21875 130.636719 153.058594 131.515625 C 151.332031 132.820312 149.75 134.332031 148.199219 135.84375 C 148.164062 135.878906 148.164062 135.878906 148.128906 135.914062 C 147.320312 136.585938 146.546875 137.324219 145.84375 138.132812 C 145.699219 138.308594 145.523438 138.34375 145.347656 138.34375 C 144.222656 138.378906 143.132812 138.378906 142.039062 138.554688 C 141.300781 138.660156 140.703125 138.308594 140.175781 137.851562 C 139.191406 136.9375 138.378906 135.878906 137.640625 134.789062 C 136.234375 132.570312 134.472656 130.636719 133.066406 128.453125 C 132.75 127.960938 132.433594 127.46875 132.1875 126.976562 C 131.164062 124.757812 129.863281 122.753906 128.808594 120.570312 C 128.59375 120.113281 128.277344 119.726562 127.925781 119.339844 C 127.433594 118.84375 126.90625 118.597656 126.203125 118.703125 C 125.570312 118.808594 124.96875 118.808594 124.335938 118.667969 C 123.984375 118.597656 123.878906 118.421875 123.984375 118.105469 C 124.089844 117.753906 124.195312 117.402344 124.300781 117.015625 C 124.371094 116.382812 124.863281 116.3125 125.359375 116.277344 C 125.816406 116.242188 126.273438 116.242188 126.660156 115.996094 C 126.871094 115.714844 126.976562 115.429688 126.765625 115.078125 C 126.660156 114.902344 126.730469 114.832031 126.765625 114.761719 C 126.800781 114.691406 126.835938 114.691406 126.871094 114.621094 C 126.871094 114.621094 126.90625 114.515625 126.871094 114.410156 C 126.835938 114.339844 126.835938 114.375 126.800781 114.339844 C 126.765625 114.234375 127.046875 114.199219 127.082031 114.023438 C 127.152344 113.847656 126.941406 113.742188 127.011719 113.601562 C 127.046875 113.566406 127.046875 113.496094 127.328125 113.460938 C 127.609375 113.425781 127.609375 113.214844 127.503906 113.003906 C 127.433594 112.863281 127.398438 112.757812 127.328125 112.617188 C 127.152344 112.265625 126.976562 111.910156 127.082031 111.488281 C 127.222656 110.609375 127.1875 109.730469 126.871094 108.851562 L 126.871094 108.816406 C 126.835938 108.816406 126.835938 108.816406 126.835938 108.78125 C 126.519531 108.109375 126.027344 107.617188 125.464844 107.195312 C 124.617188 106.632812 123.703125 106.316406 122.648438 106.5625 C 122.578125 106.5625 122.507812 106.597656 122.472656 106.597656 C 122.332031 106.667969 122.226562 106.738281 122.085938 106.773438 C 121.90625 107.019531 121.765625 107.054688 121.554688 106.738281 C 121.484375 106.597656 121.308594 106.492188 121.203125 106.386719 C 120.78125 106.140625 120.289062 106.070312 119.796875 106.070312 C 119.269531 106.210938 118.8125 106.421875 118.386719 106.738281 C 118.351562 106.808594 118.28125 106.84375 118.246094 106.914062 C 118.246094 106.914062 118.246094 106.949219 118.210938 106.949219 C 117.929688 107.371094 117.789062 107.898438 117.191406 108.039062 C 117.085938 108.074219 117.015625 108.214844 116.945312 108.285156 C 116.910156 108.355469 116.875 108.425781 116.839844 108.496094 C 116.769531 108.707031 116.699219 108.957031 116.664062 109.167969 C 116.628906 109.90625 116.699219 110.679688 117.050781 111.347656 C 117.332031 111.875 117.71875 112.300781 118.351562 112.40625 C 118.742188 112.476562 118.882812 112.757812 118.953125 113.074219 C 118.988281 113.355469 119.058594 113.636719 119.128906 113.917969 C 119.445312 114.480469 119.832031 114.972656 120.394531 115.289062 C 120.605469 115.394531 120.570312 115.535156 120.535156 115.714844 C 120.429688 116.277344 120.289062 116.804688 120.042969 117.296875 C 120.042969 117.332031 120.042969 117.367188 120.078125 117.402344 C 119.65625 118.246094 119.304688 119.164062 118.601562 119.832031 C 118.421875 120.113281 118.175781 120.324219 117.894531 120.535156 C 117.859375 120.570312 117.859375 120.570312 117.824219 120.605469 C 117.71875 120.746094 117.578125 120.886719 117.472656 121.027344 C 117.402344 121.097656 117.296875 121.167969 117.226562 121.203125 C 116.207031 122.082031 116.242188 123.316406 116.136719 124.511719 C 116.03125 125.566406 115.996094 126.589844 115.890625 127.644531 C 115.820312 128.699219 115.855469 129.757812 115.890625 130.847656 C 115.996094 131.796875 116.101562 132.785156 116.242188 133.734375 C 116.347656 134.402344 116.558594 134.578125 117.261719 134.613281 C 118.351562 134.683594 119.445312 134.753906 120.535156 134.789062 C 120.570312 134.789062 120.605469 134.789062 120.640625 134.789062 C 120.710938 134.789062 120.78125 134.789062 120.816406 134.789062 C 121.132812 134.753906 121.484375 134.71875 121.835938 134.71875 C 121.800781 134.929688 121.660156 135 121.589844 135.070312 C 119.902344 137.007812 118.175781 138.90625 116.558594 140.914062 C 115.890625 141.722656 115.328125 142.566406 114.585938 143.308594 C 114.304688 143.730469 114.058594 144.046875 113.917969 144.292969 C 112.828125 145.839844 112.054688 146.828125 111.878906 147.074219 C 111.699219 147.285156 111.558594 147.460938 111.453125 147.601562 C 110.785156 148.585938 110.257812 149.359375 109.90625 149.925781 C 109.34375 150.769531 108.324219 152.246094 107.722656 153.234375 C 107.6875 153.304688 107.582031 153.445312 107.441406 153.691406 C 107.195312 154.113281 106.914062 154.5 106.667969 154.921875 C 105.859375 156.292969 105.121094 157.703125 104.273438 159.074219 C 104.0625 159.671875 103.710938 160.203125 103.394531 160.765625 C 102.9375 161.609375 102.234375 162.980469 101.386719 164.707031 C 100.753906 166.007812 100.191406 167.207031 99.699219 168.332031 C 97.726562 166.570312 96.003906 164.953125 94.171875 163.15625 C 94.773438 162.347656 95.511719 161.082031 95.898438 159.390625 C 96.53125 156.648438 95.898438 154.324219 95.617188 153.269531 C 95.40625 152.492188 94.59375 149.890625 92.308594 147.074219 C 90.40625 144.75 88.296875 143.273438 86.921875 142.460938 C 88.753906 145.945312 89.105469 148.585938 89 150.382812 C 88.929688 151.894531 88.648438 152.316406 88.753906 153.972656 C 88.789062 154.816406 88.964844 156.859375 90.265625 159.144531 C 85.269531 153.726562 81.644531 148.726562 79.039062 143.519531 C 78.792969 141.582031 78.898438 139.613281 79.320312 137.710938 C 79.496094 137.007812 79.671875 136.304688 79.917969 135.632812 C 79.953125 135.632812 79.988281 135.667969 80.023438 135.667969 C 81.363281 136.058594 82.734375 135.28125 83.121094 133.980469 C 83.507812 132.679688 82.699219 131.304688 81.398438 130.917969 C 80.058594 130.53125 78.6875 131.304688 78.300781 132.609375 C 78.019531 133.59375 78.40625 134.613281 79.179688 135.246094 C 78.898438 135.984375 78.6875 136.761719 78.511719 137.535156 C 78.230469 138.800781 78.089844 140.105469 78.089844 141.441406 C 77.808594 140.808594 77.523438 140.175781 77.277344 139.542969 C 75.167969 134.121094 74.144531 128.488281 74.289062 123.035156 C 74.78125 121.097656 75.484375 119.199219 76.398438 117.402344 C 76.855469 116.488281 77.347656 115.574219 77.914062 114.726562 C 78.476562 114.621094 79.355469 114.375 80.269531 113.847656 C 82.101562 112.757812 82.910156 111.101562 83.191406 110.503906 C 83.683594 109.484375 83.648438 109.132812 84 108.144531 C 84.421875 106.984375 85.304688 105.4375 87.203125 103.816406 C 86.253906 103.921875 84.742188 104.167969 83.085938 105.046875 C 81.117188 106.105469 79.988281 107.511719 79.671875 107.933594 C 79.25 108.496094 78.300781 109.765625 77.914062 111.699219 C 77.773438 112.40625 77.738281 113.039062 77.773438 113.566406 C 76.996094 114.691406 76.328125 115.855469 75.695312 117.050781 C 75.203125 118.035156 74.78125 119.023438 74.394531 120.042969 C 74.957031 114.375 76.75 109.027344 79.707031 104.554688 C 85.023438 96.566406 94.417969 90.933594 104.238281 89.808594 C 104.945312 89.738281 105.71875 89.632812 105.929688 89.597656 C 106.773438 89.527344 112.371094 89.667969 113.179688 89.773438 C 123.949219 91.355469 132.078125 97.128906 136.65625 106.457031 C 137.605469 108.355469 138.730469 111.417969 138.90625 112.160156 C 138.980469 113.601562 140 114.410156 140.984375 114.550781 C 141.40625 114.621094 142.886719 114.65625 143.660156 112.863281 C 143.765625 112.582031 143.90625 112.230469 144.011719 111.804688 C 144.679688 109.414062 146.230469 105.929688 147.636719 103.640625 C 153.199219 94.699219 162.84375 89.5625 174.105469 89.5625 C 183.855469 89.5625 192.898438 93.328125 199.515625 100.15625 C 203.386719 104.167969 206.0625 108.992188 207.472656 114.480469 C 207.824219 115.890625 208.105469 117.332031 208.28125 118.808594 C 208 118.175781 207.71875 117.542969 207.402344 116.910156 C 206.800781 115.714844 206.097656 114.515625 205.324219 113.425781 C 205.324219 112.863281 205.289062 112.230469 205.148438 111.558594 C 204.761719 109.625 203.8125 108.355469 203.386719 107.792969 C 203.070312 107.371094 201.945312 105.964844 199.972656 104.90625 C 198.320312 104.027344 196.804688 103.78125 195.855469 103.675781 C 197.757812 105.292969 198.636719 106.84375 199.058594 108.003906 C 199.410156 108.957031 199.375 109.308594 199.867188 110.363281 C 200.148438 110.960938 200.960938 112.582031 202.824219 113.707031 C 203.742188 114.269531 204.621094 114.480469 205.183594 114.585938 C 205.746094 115.464844 206.238281 116.347656 206.695312 117.261719 C 207.402344 118.667969 208 120.148438 208.457031 121.660156 C 208.808594 127.960938 207.613281 134.542969 205.042969 140.703125 C 205.007812 139.613281 204.867188 138.484375 204.621094 137.429688 C 204.445312 136.65625 204.199219 135.878906 203.917969 135.140625 C 204.691406 134.542969 205.078125 133.488281 204.796875 132.5 C 204.410156 131.199219 203.035156 130.425781 201.699219 130.8125 C 200.363281 131.199219 199.585938 132.570312 199.972656 133.875 C 200.363281 135.175781 201.734375 135.949219 203.070312 135.5625 C 203.105469 135.5625 203.140625 135.527344 203.175781 135.527344 C 203.421875 136.199219 203.632812 136.902344 203.8125 137.605469 C 204.199219 139.257812 204.304688 140.984375 204.164062 142.707031 C 203.8125 143.449219 203.421875 144.222656 203.035156 144.960938 C 200.609375 149.464844 197.582031 153.691406 193.390625 158.265625 Z M 118.671875 126.625 C 119.410156 128.734375 120.816406 130.460938 121.695312 132.464844 C 121.765625 132.609375 121.941406 132.75 121.800781 132.890625 C 121.730469 132.960938 121.554688 132.925781 121.414062 132.890625 C 120.5 132.785156 119.621094 132.609375 118.707031 132.679688 C 118.421875 132.679688 118.457031 132.535156 118.421875 132.359375 C 118.386719 131.726562 118.421875 131.128906 118.492188 130.496094 C 118.707031 129.195312 118.707031 127.925781 118.671875 126.625 Z M 118.671875 126.625 " fill-opacity="1" fill-rule="nonzero"/></g></svg>