<svg xmlns="http://www.w3.org/2000/svg" xmlns:xlink="http://www.w3.org/1999/xlink" width="378" zoomAndPan="magnify" viewBox="0 0 282.96 283.499989" height="378" preserveAspectRatio="xMidYMid meet" version="1.0"><defs><clipPath id="bcf59945b4"><path d="M 71.65625 170 L 83 170 L 83 178 L 71.65625 178 Z M 71.65625 170 " clip-rule="nonzero"/></clipPath><clipPath id="94fe314fb3"><path d="M 200 170 L 211.660156 170 L 211.660156 178 L 200 178 Z M 200 170 " clip-rule="nonzero"/></clipPath><clipPath id="64591e9f71"><path d="M 131 189 L 152 189 L 152 206.824219 L 131 206.824219 Z M 131 189 " clip-rule="nonzero"/></clipPath></defs><path fill="#030302" d="M 147.777344 78.507812 C 149.808594 77.441406 151.894531 76.296875 154.21875 76.050781 C 156.386719 75.792969 158.699219 76.621094 160.050781 78.375 C 160.636719 78.21875 161.246094 78 161.855469 78.167969 C 163.691406 78.589844 165.203125 79.855469 166.386719 81.269531 C 168.332031 83.53125 169.488281 86.433594 169.660156 89.40625 C 169.980469 92.570312 169.164062 95.683594 168.804688 98.804688 C 168.496094 100.828125 168.566406 102.941406 167.757812 104.863281 C 167.9375 105.675781 168.375 106.398438 168.652344 107.179688 C 168.851562 107.761719 169.109375 108.320312 169.398438 108.859375 C 168.890625 110.074219 167.757812 110.832031 166.839844 111.714844 C 164.660156 113.542969 162.367188 115.234375 160.066406 116.90625 C 159.027344 117.613281 158.097656 118.515625 156.953125 119.050781 C 156.402344 118.78125 155.972656 118.320312 155.527344 117.90625 C 154.796875 117.117188 153.933594 116.339844 153.726562 115.230469 C 151.988281 115.980469 150.222656 116.757812 148.328125 117.003906 C 147.679688 117.085938 146.894531 117.003906 146.503906 116.410156 C 145.902344 115.625 146.050781 114.589844 145.890625 113.675781 C 145.699219 113.148438 145.164062 112.871094 144.683594 112.648438 C 144.167969 112.414062 144.15625 111.78125 144.105469 111.300781 C 143.765625 111.078125 143.382812 110.867188 143.210938 110.480469 C 143.015625 109.996094 142.992188 109.46875 142.882812 108.96875 C 142.132812 108.894531 141.253906 109.117188 140.621094 108.597656 C 140.066406 107.984375 140.351562 107.097656 140.472656 106.378906 C 140.785156 104.992188 141.066406 103.585938 140.964844 102.15625 C 141.078125 101.664062 140.621094 101.382812 140.355469 101.042969 C 139.617188 100.238281 139.195312 99.210938 138.921875 98.164062 C 138.425781 96.632812 138.195312 95.039062 137.925781 93.457031 C 136.921875 92.835938 135.886719 92.132812 135.378906 91.027344 C 135.007812 90.285156 134.738281 89.382812 135.046875 88.574219 C 135.257812 88.140625 135.738281 87.953125 136.128906 87.71875 C 135.886719 87.339844 135.742188 86.910156 135.742188 86.457031 C 136.472656 86.472656 137.230469 86.464844 137.894531 86.113281 C 137.777344 85.441406 137.582031 84.726562 137.847656 84.0625 C 138.089844 83.375 138.789062 83.019531 139.417969 82.765625 C 142.328125 81.601562 145.050781 80.039062 147.777344 78.507812 Z M 147.777344 78.507812 " fill-opacity="1" fill-rule="nonzero"/><path fill="#030302" d="M 199.699219 146.78125 C 199.378906 144.496094 199.128906 142.207031 199.015625 139.90625 C 198.855469 137.085938 198.660156 134.246094 197.902344 131.511719 C 197.480469 129.878906 196.984375 128.242188 196.089844 126.800781 C 195.324219 125.558594 194.089844 124.714844 192.875 123.957031 C 190.21875 122.371094 187.378906 121.132812 184.613281 119.765625 C 182.3125 118.652344 180.027344 117.511719 177.6875 116.496094 C 177.285156 116.363281 177.292969 115.847656 176.992188 115.605469 C 175.796875 114.460938 174.546875 113.355469 173.554688 112.023438 C 173.183594 111.550781 172.835938 111.042969 172.34375 110.691406 C 171.804688 110.339844 171.136719 110.269531 170.503906 110.226562 C 170.867188 111.039062 171.410156 111.746094 171.863281 112.507812 C 170.800781 114.472656 169.554688 116.328125 168.4375 118.257812 C 166.824219 120.910156 165.226562 123.570312 163.722656 126.285156 C 162.320312 128.746094 160.949219 131.226562 159.757812 133.792969 C 156.742188 140.242188 154.1875 146.902344 152.09375 153.707031 C 151.089844 157.070312 150.023438 160.414062 149.152344 163.816406 C 148.585938 165.753906 148.21875 167.753906 147.542969 169.65625 C 147.019531 167.480469 146.832031 165.238281 146.554688 163.023438 C 146.199219 159.433594 146.066406 155.824219 146.175781 152.21875 C 146.371094 148.214844 146.753906 144.21875 147.453125 140.269531 C 148.140625 136.382812 148.910156 132.5 150.050781 128.71875 C 150.449219 127.441406 150.796875 126.148438 151.347656 124.929688 C 151.460938 125.097656 151.574219 125.269531 151.707031 125.429688 C 153.105469 125.210938 154.035156 124.089844 155.054688 123.230469 C 155.8125 123.414062 156.601562 123.496094 157.375 123.367188 C 158.148438 124.441406 159.066406 125.476562 160.289062 126.046875 C 160.640625 126.21875 161.027344 126.285156 161.417969 126.261719 C 161.824219 125.128906 161.730469 123.894531 161.828125 122.710938 C 161.828125 121.421875 162.355469 120.179688 162.277344 118.886719 C 162.253906 118.375 161.730469 118.058594 161.253906 118.140625 C 159.921875 118.296875 158.707031 118.996094 157.710938 119.871094 C 157.339844 119.695312 156.957031 119.460938 156.527344 119.558594 C 156.089844 119.5625 155.667969 119.851562 155.25 119.785156 C 154.246094 118.980469 153.230469 118.125 151.980469 117.746094 C 151.597656 117.605469 151.152344 117.890625 151.101562 118.285156 C 150.9375 119.085938 151.039062 119.90625 150.984375 120.714844 C 148.453125 122.191406 145.847656 123.546875 143.332031 125.058594 C 142.402344 125.59375 141.484375 126.15625 140.648438 126.828125 C 139.972656 127.351562 139.707031 128.195312 139.429688 128.964844 C 138.8125 130.8125 138.5 132.738281 138.25 134.664062 C 137.835938 138.207031 137.496094 141.757812 137.214844 145.3125 C 138.484375 146.707031 139.601562 148.242188 140.644531 149.816406 C 141.960938 151.835938 142.429688 154.378906 141.855469 156.726562 C 141.378906 158.667969 140.152344 160.289062 139.179688 162 C 138.140625 163.664062 137.527344 165.550781 137.125 167.453125 C 136.644531 169.550781 136.296875 171.683594 136.152344 173.832031 C 133.855469 172.839844 131.453125 172.128906 129.0625 171.402344 C 128.800781 171.363281 128.871094 171.03125 128.835938 170.847656 C 128.558594 163.375 128.242188 155.902344 128.285156 148.425781 C 129.101562 147.929688 129.824219 147.304688 130.578125 146.726562 C 132.078125 145.578125 133.71875 144.3125 135.703125 144.300781 C 132.117188 140.8125 128.699219 137.082031 126.09375 132.796875 C 125.445312 131.257812 125.410156 129.492188 125.773438 127.875 C 126.070312 126.476562 126.386719 125.085938 126.679688 123.6875 C 126.859375 122.914062 127.101562 122.105469 127.675781 121.527344 C 128.015625 121.171875 128.488281 120.847656 129.007812 120.941406 C 130.703125 121.121094 132.417969 121.335938 134.125 121.164062 C 134.875 121.078125 135.746094 120.746094 135.964844 119.941406 C 136.265625 119.203125 135.808594 118.488281 135.675781 117.773438 C 135.769531 117.203125 136.285156 116.867188 136.570312 116.40625 C 136.726562 116.0625 136.480469 115.71875 136.398438 115.394531 C 136.714844 115.101562 137.113281 114.851562 137.253906 114.421875 C 137.15625 113.863281 136.835938 113.382812 136.640625 112.859375 C 137.285156 112.433594 138.042969 112.125 138.515625 111.484375 C 138.765625 111.167969 138.8125 110.667969 138.519531 110.363281 C 137.683594 109.394531 136.679688 108.558594 136.046875 107.429688 C 135.925781 107.195312 135.761719 106.933594 135.871094 106.660156 C 136.121094 105.742188 136.214844 104.777344 136.089844 103.832031 C 136.042969 103.449219 135.878906 103.046875 136.074219 102.679688 C 136.667969 101.191406 136.984375 99.488281 136.433594 97.9375 C 136.089844 96.957031 135.550781 95.984375 134.679688 95.375 C 134.214844 95.035156 133.621094 95.03125 133.070312 94.960938 C 132.8125 93.867188 131.625 93.507812 130.703125 93.15625 C 127.085938 91.917969 123.292969 90.921875 119.4375 91.148438 C 116.835938 91.339844 114.136719 92 112.101562 93.714844 C 109.699219 95.730469 108.304688 98.703125 107.6875 101.726562 C 106.816406 101.792969 106.011719 102.207031 105.332031 102.734375 C 103.972656 103.851562 103.082031 105.511719 102.847656 107.25 C 102.765625 108.53125 103.171875 109.808594 103.851562 110.890625 C 104.125 111.308594 104.046875 111.835938 104.167969 112.304688 C 104.332031 113.332031 104.875 114.25 105.546875 115.027344 C 105.175781 115.550781 104.855469 116.152344 104.871094 116.808594 C 104.847656 118.496094 105.6875 120.085938 106.855469 121.265625 C 107.558594 122.007812 108.558594 122.609375 108.769531 123.6875 C 108.984375 124.859375 108.097656 125.863281 108.085938 127.011719 C 108.105469 127.671875 108.652344 128.109375 109.234375 128.304688 C 108.9375 127.960938 108.433594 127.691406 108.460938 127.175781 C 108.535156 126.347656 109.148438 125.714844 109.410156 124.949219 C 109.828125 123.933594 109.714844 122.683594 108.988281 121.832031 C 108.113281 120.804688 106.957031 119.992188 106.332031 118.769531 C 105.980469 117.980469 105.726562 117.015625 106.179688 116.214844 C 106.785156 116.894531 107.40625 117.59375 108.242188 117.988281 C 109.554688 118.601562 111.113281 118.828125 112.496094 118.320312 C 113.519531 117.972656 114.210938 117.003906 114.492188 115.996094 C 115.007812 116.507812 115.464844 117.070312 115.953125 117.605469 C 116.09375 117.769531 116.277344 117.929688 116.277344 118.167969 C 116.484375 120.136719 116.417969 122.160156 115.839844 124.066406 C 115.023438 126.929688 113.199219 129.328125 111.664062 131.832031 C 110.300781 134.039062 109.296875 136.472656 108.796875 139.023438 C 107.925781 143.347656 108.265625 147.816406 109.101562 152.121094 C 109.730469 155.085938 110.484375 158.03125 111.496094 160.890625 C 113.414062 159.570312 115.214844 158.089844 116.996094 156.59375 C 117.28125 159.476562 117.5 162.367188 117.863281 165.246094 C 118.320312 169.082031 118.871094 172.941406 120.199219 176.585938 C 120.628906 177.953125 121.335938 179.339844 122.625 180.074219 C 124.515625 181.152344 126.71875 181.394531 128.785156 181.960938 C 128.777344 179.851562 129.449219 177.636719 131.035156 176.171875 C 132.238281 175.039062 133.945312 174.558594 135.574219 174.65625 C 137.882812 174.710938 139.980469 175.949219 141.605469 177.511719 C 142.839844 176.285156 144.351562 175.289062 146.070312 174.902344 C 147.84375 174.515625 149.792969 174.640625 151.394531 175.550781 C 152.660156 176.269531 153.476562 177.558594 153.964844 178.890625 C 154.640625 180.800781 154.433594 182.914062 153.773438 184.800781 C 155.273438 185.132812 156.8125 185.648438 157.910156 186.777344 C 158.332031 185.050781 158.890625 183.335938 159.808594 181.800781 C 161.074219 179.675781 162.882812 177.742188 165.257812 176.882812 C 166.234375 176.574219 167.320312 176.371094 168.328125 176.667969 C 169.082031 176.894531 169.445312 177.644531 169.660156 178.339844 C 170.464844 177.46875 171.296875 176.601562 172.296875 175.953125 C 173.449219 175.214844 174.855469 174.664062 176.238281 174.953125 C 176.953125 175.101562 177.449219 175.664062 177.863281 176.21875 C 179.132812 174.585938 180.507812 172.792969 182.585938 172.175781 C 183.691406 171.816406 184.949219 172.210938 185.652344 173.132812 C 186.542969 171.265625 187.832031 169.425781 189.761719 168.53125 C 190.707031 168.085938 191.835938 168.164062 192.679688 168.789062 C 193.1875 166.933594 194.152344 165.144531 195.648438 163.894531 C 196.652344 163.039062 198.238281 162.746094 199.386719 163.488281 C 200.035156 163.882812 200.390625 164.574219 200.765625 165.207031 C 200.84375 164.476562 200.859375 163.742188 200.859375 163.007812 C 200.957031 157.578125 200.464844 152.152344 199.699219 146.78125 Z M 135.957031 102.171875 C 135.757812 100.804688 135.371094 99.472656 134.953125 98.15625 C 136.023438 99.179688 136.261719 100.777344 135.957031 102.171875 Z M 161.929688 136.691406 C 161.777344 135.484375 162.824219 134.515625 163.785156 133.96875 C 162.851562 134.011719 161.945312 133.511719 161.351562 132.816406 C 161.125 132.492188 160.84375 131.925781 161.25 131.628906 C 162.125 130.886719 163.394531 131.011719 164.429688 131.300781 C 164.015625 130.542969 163.898438 129.644531 164.054688 128.800781 C 164.128906 128.503906 164.246094 128.195312 164.507812 128.019531 C 164.914062 127.914062 165.34375 128.082031 165.648438 128.347656 C 166.269531 128.875 166.722656 129.578125 167.035156 130.324219 C 167.628906 129.4375 168.457031 128.582031 169.554688 128.390625 C 169.914062 128.324219 170.210938 128.660156 170.261719 128.988281 C 170.398438 129.953125 170.046875 130.90625 169.578125 131.730469 C 170.683594 131.578125 172.003906 131.664062 172.808594 132.535156 C 173.105469 132.800781 172.917969 133.246094 172.675781 133.480469 C 171.96875 134.214844 170.929688 134.625 169.914062 134.554688 C 170.621094 135.164062 171.269531 135.957031 171.425781 136.898438 C 171.527344 137.371094 171.175781 137.902344 170.667969 137.871094 C 169.648438 137.8125 168.683594 137.304688 167.984375 136.574219 C 167.960938 137.511719 167.683594 138.460938 167.0625 139.175781 C 166.769531 139.515625 166.210938 139.621094 165.890625 139.257812 C 165.152344 138.484375 165.066406 137.304688 165.242188 136.300781 C 164.542969 136.8125 163.707031 137.148438 162.847656 137.246094 C 162.460938 137.304688 161.933594 137.164062 161.929688 136.691406 Z M 166.246094 145.03125 C 165.273438 145.101562 164.304688 145.148438 163.332031 145.152344 C 164.375 144.027344 165.398438 142.875 166.539062 141.847656 C 167.53125 140.914062 168.652344 139.996094 170.023438 139.714844 C 170.808594 139.53125 171.578125 140.15625 171.769531 140.894531 C 171.925781 141.492188 172.050781 142.101562 172.273438 142.679688 C 172.625 142.429688 172.976562 142.171875 173.371094 141.988281 C 173.78125 142.738281 174.066406 143.546875 174.355469 144.351562 C 171.660156 144.65625 168.949219 144.8125 166.246094 145.03125 Z M 166.246094 145.03125 " fill-opacity="1" fill-rule="nonzero"/><path fill="#030302" d="M 102.375 102.171875 C 103.65625 101.035156 105.273438 100.144531 107.023438 100.128906 C 106.367188 100.417969 105.683594 100.644531 105.078125 101.027344 C 103.761719 101.800781 102.734375 102.949219 101.753906 104.089844 C 99.8125 106.5 98.277344 109.203125 96.855469 111.941406 C 94.484375 116.507812 92.558594 121.285156 90.761719 126.101562 C 89.46875 129.570312 88.363281 133.109375 87.277344 136.648438 C 84.539062 145.867188 82.753906 155.355469 81.675781 164.90625 C 81.570312 165.621094 81.59375 166.359375 81.402344 167.0625 C 81.304688 165.667969 81.417969 164.269531 81.484375 162.878906 C 81.871094 155.292969 82.988281 147.75 84.789062 140.375 C 86.808594 131.992188 89.496094 123.746094 93.199219 115.949219 C 94.34375 113.585938 95.625 111.292969 96.984375 109.046875 C 98.519531 106.574219 100.171875 104.113281 102.375 102.171875 Z M 102.375 102.171875 " fill-opacity="1" fill-rule="nonzero"/><path fill="#030302" d="M 102.023438 112.207031 C 102.242188 112.753906 102.3125 113.339844 102.4375 113.910156 C 102.875 115.941406 103.410156 117.953125 104.011719 119.941406 C 104.609375 122.164062 105.398438 124.367188 105.523438 126.683594 C 105.652344 129.957031 104.4375 133.085938 103.117188 136.019531 C 101.785156 138.847656 100.519531 141.757812 100.015625 144.863281 C 99.34375 148.425781 99.566406 152.09375 100.25 155.632812 C 101.417969 161.496094 103.96875 167.023438 107.269531 171.988281 C 107.46875 172.296875 107.679688 172.601562 107.828125 172.945312 C 107.375 172.625 107.054688 172.167969 106.707031 171.746094 C 103.054688 167.257812 100.457031 161.957031 98.929688 156.394531 C 97.980469 152.660156 97.664062 148.742188 98.195312 144.921875 C 98.644531 141.59375 99.675781 138.363281 101.15625 135.355469 C 102.234375 133.011719 103.46875 130.691406 103.941406 128.132812 C 104.289062 126.234375 103.988281 124.296875 103.578125 122.429688 C 102.863281 119.0625 102.042969 115.671875 102.023438 112.207031 Z M 102.023438 112.207031 " fill-opacity="1" fill-rule="nonzero"/><path fill="#030302" d="M 98.96875 119.917969 C 99.28125 119.035156 99.5 118.121094 99.917969 117.28125 C 98.527344 123.578125 96.957031 129.835938 95.5625 136.132812 C 93.734375 143.828125 92.117188 151.59375 91.269531 159.464844 C 90.929688 162.46875 90.835938 165.496094 90.835938 168.515625 C 90.589844 168.289062 90.582031 167.9375 90.515625 167.640625 C 90.035156 164.746094 90.085938 161.800781 90.160156 158.878906 C 90.539062 150.976562 92.019531 143.152344 94.144531 135.539062 C 95.625 130.292969 97.300781 125.105469 98.96875 119.917969 Z M 98.96875 119.917969 " fill-opacity="1" fill-rule="nonzero"/><path fill="#030302" d="M 154.285156 130.386719 C 154.699219 130.179688 155.308594 130.503906 155.28125 130.992188 C 155.320312 131.53125 154.585938 131.867188 154.179688 131.539062 C 153.773438 131.28125 153.824219 130.566406 154.285156 130.386719 Z M 154.285156 130.386719 " fill-opacity="1" fill-rule="nonzero"/><path fill="#030302" d="M 166.589844 132.339844 C 167.144531 132.214844 167.8125 132.503906 167.953125 133.089844 C 168.289062 134 167.109375 134.921875 166.296875 134.394531 C 165.46875 133.945312 165.640625 132.523438 166.589844 132.339844 Z M 166.589844 132.339844 " fill-opacity="1" fill-rule="nonzero"/><path fill="#030302" d="M 151.609375 141.605469 C 152.214844 141.3125 152.882812 142.199219 152.394531 142.679688 C 152.085938 143.097656 151.324219 142.925781 151.222656 142.421875 C 151.121094 142.09375 151.296875 141.738281 151.609375 141.605469 Z M 151.609375 141.605469 " fill-opacity="1" fill-rule="nonzero"/><path fill="#030302" d="M 149.347656 154.128906 C 149.820312 153.828125 150.550781 154.3125 150.414062 154.859375 C 150.3125 155.40625 149.527344 155.546875 149.1875 155.140625 C 148.867188 154.863281 148.980469 154.304688 149.347656 154.128906 Z M 149.347656 154.128906 " fill-opacity="1" fill-rule="nonzero"/><path fill="#030302" d="M 85.347656 165.21875 C 86.242188 165.730469 86.832031 166.628906 87.347656 167.496094 C 88.664062 169.746094 88.894531 172.554688 88.105469 175.027344 C 87.8125 175.933594 87.402344 176.832031 86.734375 177.53125 C 84.679688 175.839844 83.667969 173.113281 83.71875 170.496094 C 83.667969 168.628906 84.148438 166.6875 85.347656 165.21875 Z M 85.347656 165.21875 " fill-opacity="1" fill-rule="nonzero"/><path fill="#030302" d="M 197.675781 165.441406 C 198.011719 165.347656 198.164062 165.746094 198.347656 165.949219 C 199.671875 167.964844 199.769531 170.546875 199.316406 172.851562 C 198.964844 174.683594 197.941406 176.355469 196.5 177.53125 C 195.480469 176.371094 194.980469 174.855469 194.746094 173.351562 C 194.40625 170.8125 195.113281 168.117188 196.800781 166.167969 C 197.058594 165.890625 197.339844 165.625 197.675781 165.441406 Z M 197.675781 165.441406 " fill-opacity="1" fill-rule="nonzero"/><path fill="#030302" d="M 92.25 170.71875 C 92.40625 170.429688 92.714844 170.789062 92.890625 170.882812 C 96.238281 173.664062 97.179688 178.808594 95.207031 182.652344 C 93.097656 181.394531 91.773438 179.078125 91.332031 176.707031 C 90.972656 174.695312 91.160156 172.488281 92.25 170.71875 Z M 92.25 170.71875 " fill-opacity="1" fill-rule="nonzero"/><path fill="#030302" d="M 188.503906 173.019531 C 189.109375 172.085938 189.761719 171.109375 190.773438 170.578125 C 191.617188 171.503906 191.953125 172.78125 192.097656 173.996094 C 192.332031 176.53125 191.507812 179.125 189.875 181.074219 C 189.359375 181.671875 188.769531 182.222656 188.054688 182.582031 C 186.5 179.609375 186.710938 175.839844 188.503906 173.019531 Z M 188.503906 173.019531 " fill-opacity="1" fill-rule="nonzero"/><g clip-path="url(#bcf59945b4)"><path fill="#030302" d="M 71.722656 171.191406 C 76.113281 170.199219 80.949219 172.992188 82.453125 177.1875 C 80.453125 177.816406 78.21875 177.476562 76.371094 176.527344 C 74.207031 175.464844 72.390625 173.535156 71.722656 171.191406 Z M 71.722656 171.191406 " fill-opacity="1" fill-rule="nonzero"/></g><g clip-path="url(#94fe314fb3)"><path fill="#030302" d="M 204.589844 172.507812 C 206.617188 171.175781 209.222656 170.570312 211.585938 171.257812 C 210.335938 174.90625 206.609375 177.582031 202.730469 177.492188 C 202.109375 177.492188 201.488281 177.378906 200.90625 177.167969 C 201.40625 175.179688 202.914062 173.605469 204.589844 172.507812 Z M 204.589844 172.507812 " fill-opacity="1" fill-rule="nonzero"/></g><path fill="#030302" d="M 99.6875 174.640625 C 99.847656 174.234375 100.304688 174.589844 100.554688 174.707031 C 102.828125 176.144531 104.183594 178.734375 104.601562 181.339844 C 104.789062 182.945312 104.660156 184.640625 103.980469 186.132812 C 101.753906 184.949219 100.15625 182.75 99.515625 180.335938 C 98.984375 178.484375 98.972656 176.441406 99.6875 174.640625 Z M 99.6875 174.640625 " fill-opacity="1" fill-rule="nonzero"/><path fill="#030302" d="M 180.6875 176.527344 C 181.390625 175.613281 182.265625 174.742188 183.40625 174.421875 C 184.390625 176.238281 184.28125 178.441406 183.746094 180.375 C 183.03125 182.722656 181.550781 184.988281 179.3125 186.125 C 178.023438 182.980469 178.597656 179.191406 180.6875 176.527344 Z M 180.6875 176.527344 " fill-opacity="1" fill-rule="nonzero"/><path fill="#030302" d="M 83.566406 176.855469 C 84.113281 177.191406 84.5625 177.660156 85.0625 178.058594 C 87.609375 180.132812 90.421875 181.867188 93.375 183.300781 C 99.402344 186.359375 105.976562 188.195312 112.605469 189.390625 C 115.933594 190.011719 119.300781 190.355469 122.667969 190.65625 C 122.617188 190.984375 122.566406 191.3125 122.515625 191.644531 C 118.957031 191.484375 115.425781 190.957031 111.925781 190.304688 C 105.355469 189.03125 98.878906 187.027344 92.960938 183.867188 C 89.550781 181.949219 86.238281 179.734375 83.566406 176.855469 Z M 83.566406 176.855469 " fill-opacity="1" fill-rule="nonzero"/><path fill="#030302" d="M 192.894531 181.695312 C 195.328125 180.335938 197.527344 178.609375 199.679688 176.851562 C 197.019531 179.730469 193.761719 182.023438 190.332031 183.902344 C 183.519531 187.457031 176.039062 189.578125 168.472656 190.804688 C 165.886719 191.183594 163.285156 191.527344 160.667969 191.644531 C 160.613281 191.316406 160.5625 190.984375 160.523438 190.65625 C 163.207031 190.378906 165.90625 190.183594 168.570312 189.722656 C 173.238281 189.003906 177.847656 187.910156 182.339844 186.453125 C 185.984375 185.171875 189.550781 183.636719 192.894531 181.695312 Z M 192.894531 181.695312 " fill-opacity="1" fill-rule="nonzero"/><path fill="#030302" d="M 107.746094 177.046875 C 109.925781 177.816406 111.601562 179.617188 112.589844 181.660156 C 113.597656 183.714844 113.726562 186.105469 113.269531 188.324219 C 111.367188 187.574219 109.816406 186.085938 108.726562 184.382812 C 107.371094 182.234375 106.898438 179.46875 107.746094 177.046875 Z M 107.746094 177.046875 " fill-opacity="1" fill-rule="nonzero"/><path fill="#030302" d="M 133.382812 177.410156 C 134.339844 176.894531 135.484375 176.9375 136.503906 177.222656 C 138.644531 177.855469 140.363281 179.546875 141.332031 181.515625 C 141.503906 181.796875 141.308594 182.117188 141.265625 182.40625 C 140.921875 183.613281 140.867188 184.867188 140.800781 186.113281 C 140.785156 187.082031 140.917969 188.046875 140.875 189.015625 C 140.441406 188.179688 140.167969 187.265625 139.675781 186.457031 C 138.8125 184.96875 137.792969 183.429688 136.210938 182.625 C 136.375 184.71875 137.515625 186.566406 138.644531 188.28125 C 138.960938 188.746094 139.324219 189.183594 139.554688 189.703125 C 138.710938 189.332031 137.972656 188.761719 137.152344 188.34375 C 135.839844 187.667969 134.523438 186.925781 133.054688 186.664062 C 131.789062 184.730469 131.097656 182.324219 131.570312 180.019531 C 131.785156 178.953125 132.40625 177.9375 133.382812 177.410156 Z M 133.382812 177.410156 " fill-opacity="1" fill-rule="nonzero"/><path fill="#030302" d="M 147.007812 177.167969 C 148.125 176.914062 149.421875 176.953125 150.351562 177.710938 C 151.375 178.472656 151.746094 179.789062 151.847656 181.003906 C 151.976562 182.972656 151.324219 184.9375 150.257812 186.574219 C 149.9375 186.804688 149.480469 186.753906 149.117188 186.910156 C 147.226562 187.597656 145.554688 188.738281 143.796875 189.695312 C 144.65625 188.03125 145.859375 186.554688 146.523438 184.789062 C 146.78125 184.09375 147.027344 183.363281 146.980469 182.613281 C 146.003906 183.105469 145.253906 183.925781 144.644531 184.816406 C 143.691406 186.097656 143.058594 187.570312 142.40625 189.015625 C 142.460938 186.703125 142.710938 184.308594 141.957031 182.066406 C 141.769531 181.714844 142.050781 181.402344 142.207031 181.105469 C 143.230469 179.257812 144.921875 177.695312 147.007812 177.167969 Z M 147.007812 177.167969 " fill-opacity="1" fill-rule="nonzero"/><path fill="#030302" d="M 170.539062 181.980469 C 171.40625 179.742188 173.230469 177.855469 175.511719 177.0625 C 176.152344 178.757812 176.074219 180.65625 175.511719 182.359375 C 174.605469 185 172.542969 187.203125 169.996094 188.335938 C 169.515625 186.226562 169.699219 183.972656 170.539062 181.980469 Z M 170.539062 181.980469 " fill-opacity="1" fill-rule="nonzero"/><path fill="#030302" d="M 116.214844 178.660156 C 118.511719 179.398438 120.347656 181.183594 121.484375 183.269531 C 122.546875 185.113281 122.976562 187.308594 122.699219 189.417969 C 120.15625 188.742188 118.109375 186.792969 116.90625 184.507812 C 115.96875 182.734375 115.652344 180.597656 116.214844 178.660156 Z M 116.214844 178.660156 " fill-opacity="1" fill-rule="nonzero"/><path fill="#030302" d="M 162.179688 182.566406 C 163.332031 180.847656 164.96875 179.328125 167.007812 178.777344 C 167.785156 180.976562 167.15625 183.4375 165.925781 185.347656 C 164.683594 187.265625 162.824219 188.914062 160.558594 189.449219 C 160.109375 187.058594 160.878906 184.578125 162.179688 182.566406 Z M 162.179688 182.566406 " fill-opacity="1" fill-rule="nonzero"/><path fill="#030302" d="M 199.777344 180.804688 C 202.742188 180.476562 205.929688 181.535156 207.84375 183.875 C 205.871094 185.390625 203.210938 185.71875 200.8125 185.28125 C 198.734375 184.863281 196.699219 183.902344 195.277344 182.300781 C 196.636719 181.464844 198.207031 181.019531 199.777344 180.804688 Z M 199.777344 180.804688 " fill-opacity="1" fill-rule="nonzero"/><path fill="#030302" d="M 75.402344 183.886719 C 77.160156 181.753906 80.003906 180.648438 82.742188 180.761719 C 84.566406 180.855469 86.410156 181.316406 87.976562 182.28125 C 86.160156 184.253906 83.492188 185.355469 80.832031 185.46875 C 78.917969 185.539062 76.949219 185.039062 75.402344 183.886719 Z M 75.402344 183.886719 " fill-opacity="1" fill-rule="nonzero"/><path fill="#030302" d="M 88.15625 186.871094 C 90.578125 185.722656 93.484375 185.828125 95.921875 186.859375 C 94.445312 189.175781 91.902344 190.738281 89.21875 191.230469 C 87.480469 191.484375 85.609375 191.488281 83.996094 190.707031 C 84.859375 188.980469 86.445312 187.707031 88.15625 186.871094 Z M 88.15625 186.871094 " fill-opacity="1" fill-rule="nonzero"/><path fill="#030302" d="M 187.285156 186.859375 C 188.792969 186.117188 190.542969 185.941406 192.203125 186.070312 C 195.105469 186.386719 197.90625 188.089844 199.289062 190.683594 C 197.570312 191.511719 195.574219 191.527344 193.734375 191.152344 C 191.132812 190.621094 188.78125 189.042969 187.285156 186.859375 Z M 187.285156 186.859375 " fill-opacity="1" fill-rule="nonzero"/><path fill="#030302" d="M 127.585938 188.179688 C 129.160156 187.289062 130.988281 186.90625 132.789062 186.933594 C 133.703125 188.21875 135.058594 189.109375 136.417969 189.863281 C 137.207031 190.300781 138.070312 190.585938 138.839844 191.058594 C 136.730469 190.863281 134.570312 190.65625 132.484375 191.148438 C 131.878906 191.289062 131.289062 191.511719 130.761719 191.835938 C 131.59375 192.445312 132.652344 192.578125 133.652344 192.683594 C 135.164062 192.804688 136.695312 192.722656 138.179688 192.402344 C 138.433594 192.347656 138.695312 192.335938 138.957031 192.332031 C 138.457031 192.738281 137.828125 192.917969 137.269531 193.21875 C 135.578125 194.097656 133.902344 195.136719 132.75 196.691406 C 132.433594 196.832031 132.058594 196.734375 131.722656 196.746094 C 129.722656 196.589844 127.660156 195.933594 126.230469 194.46875 C 125.226562 193.460938 124.777344 191.878906 125.3125 190.53125 C 125.714844 189.476562 126.636719 188.734375 127.585938 188.179688 Z M 127.585938 188.179688 " fill-opacity="1" fill-rule="nonzero"/><path fill="#030302" d="M 150.484375 186.980469 L 150.585938 186.917969 C 152.613281 186.890625 154.675781 187.441406 156.335938 188.625 C 157.230469 189.289062 158.042969 190.226562 158.160156 191.375 C 158.300781 192.667969 157.625 193.917969 156.683594 194.761719 C 155.097656 196.152344 152.949219 196.734375 150.878906 196.816406 C 150.636719 196.859375 150.511719 196.625 150.382812 196.472656 C 149.222656 194.984375 147.5625 193.988281 145.890625 193.164062 C 145.390625 192.902344 144.847656 192.699219 144.425781 192.316406 C 145.308594 192.375 146.160156 192.667969 147.050781 192.714844 C 148.910156 192.828125 150.875 192.738281 152.558594 191.855469 C 150.089844 190.546875 147.179688 190.785156 144.496094 191.050781 C 145.113281 190.59375 145.863281 190.378906 146.539062 190.027344 C 148.03125 189.285156 149.496094 188.347656 150.484375 186.980469 Z M 150.484375 186.980469 " fill-opacity="1" fill-rule="nonzero"/><g clip-path="url(#64591e9f71)"><path fill="#030302" d="M 140.390625 189.484375 C 141.804688 188.59375 143.921875 189.570312 144.171875 191.222656 C 144.367188 192.054688 143.917969 192.84375 143.386719 193.445312 C 143.121094 193.75 142.679688 193.820312 142.398438 194.101562 C 142.40625 194.402344 142.570312 194.667969 142.675781 194.949219 C 143.425781 196.78125 144.273438 198.625 145.65625 200.078125 C 146.042969 200.492188 146.527344 200.804688 147.027344 201.066406 C 146.929688 198.199219 144.957031 195.9375 143.601562 193.558594 C 145.152344 194.507812 146.632812 195.597656 148.328125 196.292969 C 148.960938 196.605469 149.667969 196.734375 150.316406 197.003906 C 151.339844 198.46875 151.828125 200.261719 151.867188 202.03125 C 151.824219 203.335938 151.492188 204.730469 150.550781 205.6875 C 149.515625 206.707031 147.890625 206.710938 146.585938 206.289062 C 144.667969 205.59375 143.097656 204.113281 142.085938 202.367188 C 141.988281 202.167969 141.789062 201.953125 141.910156 201.722656 C 142.652344 199.394531 142.5625 196.902344 142.347656 194.496094 C 142.320312 194.4375 142.261719 194.320312 142.234375 194.261719 C 141.875 193.976562 141.378906 194.171875 140.957031 194.125 C 140.828125 196.582031 140.703125 199.089844 141.351562 201.496094 C 141.394531 201.695312 141.507812 201.917969 141.378906 202.113281 C 140.488281 203.75 139.121094 205.148438 137.453125 205.996094 C 136.203125 206.628906 134.640625 206.824219 133.367188 206.152344 C 132.222656 205.519531 131.683594 204.207031 131.5 202.980469 C 131.328125 201.253906 131.652344 199.484375 132.414062 197.929688 C 132.652344 197.503906 132.875 196.984375 133.402344 196.871094 C 135.652344 196.132812 137.726562 194.933594 139.632812 193.546875 C 138.972656 194.851562 138.039062 196.003906 137.371094 197.308594 C 136.777344 198.476562 136.265625 199.734375 136.222656 201.058594 C 137.777344 200.410156 138.683594 198.882812 139.441406 197.46875 C 140.015625 196.367188 140.472656 195.210938 140.953125 194.070312 C 140.046875 193.675781 139.09375 192.925781 139.089844 191.851562 C 138.960938 190.890625 139.527344 189.910156 140.390625 189.484375 Z M 140.390625 189.484375 " fill-opacity="1" fill-rule="nonzero"/></g><path fill="#030302" d="M 95.347656 192.632812 C 97.511719 190.15625 101.050781 189.003906 104.269531 189.675781 C 103.546875 192.132812 101.527344 194.019531 99.277344 195.128906 C 97.527344 195.933594 95.507812 196.476562 93.605469 195.925781 C 93.796875 194.671875 94.527344 193.570312 95.347656 192.632812 Z M 95.347656 192.632812 " fill-opacity="1" fill-rule="nonzero"/><path fill="#030302" d="M 178.949219 189.699219 C 181.535156 189.117188 184.339844 189.789062 186.4375 191.386719 C 187.941406 192.523438 189.21875 194.050781 189.742188 195.882812 C 188.1875 196.453125 186.484375 196.082031 184.960938 195.578125 C 182.246094 194.613281 179.792969 192.515625 178.949219 189.699219 Z M 178.949219 189.699219 " fill-opacity="1" fill-rule="nonzero"/><path fill="#030302" d="M 106.363281 193.914062 C 108.308594 192.375 110.855469 191.6875 113.316406 191.859375 C 112.847656 194.117188 111.300781 195.996094 109.507812 197.367188 C 107.734375 198.714844 105.515625 199.527344 103.273438 199.449219 C 103.386719 197.261719 104.644531 195.230469 106.363281 193.914062 Z M 106.363281 193.914062 " fill-opacity="1" fill-rule="nonzero"/><path fill="#030302" d="M 169.9375 191.820312 C 172.324219 191.699219 174.796875 192.304688 176.726562 193.753906 C 178.550781 195.070312 179.886719 197.167969 179.972656 199.449219 C 177.238281 199.507812 174.53125 198.351562 172.613281 196.421875 C 171.347656 195.160156 170.285156 193.589844 169.9375 191.820312 Z M 169.9375 191.820312 " fill-opacity="1" fill-rule="nonzero"/><path fill="#030302" d="M 115.125 196.132812 C 116.8125 194.300781 119.273438 193.027344 121.800781 193.160156 C 121.601562 195.710938 120.1875 198.09375 118.179688 199.652344 C 116.707031 200.832031 114.910156 201.683594 113.003906 201.796875 C 112.828125 199.714844 113.8125 197.695312 115.125 196.132812 Z M 115.125 196.132812 " fill-opacity="1" fill-rule="nonzero"/><path fill="#030302" d="M 161.410156 193.128906 C 165.523438 192.972656 169.324219 196.1875 170.164062 200.152344 C 170.285156 200.6875 170.296875 201.242188 170.277344 201.792969 C 167.722656 201.605469 165.347656 200.242188 163.675781 198.34375 C 162.4375 196.882812 161.492188 195.070312 161.410156 193.128906 Z M 161.410156 193.128906 " fill-opacity="1" fill-rule="nonzero"/></svg>