<svg xmlns="http://www.w3.org/2000/svg" xmlns:xlink="http://www.w3.org/1999/xlink" width="378" zoomAndPan="magnify" viewBox="0 0 282.96 283.499989" height="378" preserveAspectRatio="xMidYMid meet" version="1.0"><defs><clipPath id="7c8e944523"><path d="M 0.230469 36.71875 L 282.691406 36.71875 L 282.691406 245 L 0.230469 245 Z M 0.230469 36.71875 " clip-rule="nonzero"/></clipPath></defs><g clip-path="url(#7c8e944523)"><path fill="#000000" d="M 281.921875 133.375 C 273.296875 140.117188 269.539062 148.613281 267.917969 153.152344 C 265.324219 154.511719 262.601562 155.679688 259.746094 156.523438 C 260.71875 154.96875 261.628906 153.347656 262.46875 151.726562 C 265.582031 145.953125 268.113281 139.988281 269.925781 133.894531 C 271.613281 132.015625 273.105469 130.070312 274.53125 127.992188 C 276.085938 125.660156 277.511719 123.132812 278.679688 120.601562 C 280.042969 120.019531 281.859375 119.109375 283.609375 117.554688 C 286.851562 114.703125 288.277344 111.589844 288.925781 110.097656 C 289.378906 108.996094 290.871094 105.429688 290.742188 100.4375 C 290.609375 96.351562 289.507812 93.109375 288.601562 91.230469 C 287.5625 96.613281 285.554688 99.984375 283.804688 102.058594 C 282.375 103.808594 281.664062 104.066406 280.238281 106.144531 C 279.394531 107.308594 277.1875 110.683594 277.058594 115.351562 C 276.996094 117.101562 277.320312 118.65625 277.578125 119.824219 C 276.410156 122.417969 274.984375 124.882812 273.429688 127.214844 C 272.585938 128.449219 271.742188 129.613281 270.835938 130.78125 C 271.679688 127.476562 272.390625 124.105469 272.84375 120.730469 C 274.402344 109.96875 273.882812 99.398438 271.355469 89.347656 C 268.371094 77.742188 262.730469 67.5625 254.558594 59.070312 C 247.6875 52 239.582031 46.425781 230.441406 42.601562 C 221.363281 38.839844 211.636719 36.894531 201.519531 36.894531 C 177.726562 36.894531 157.234375 47.851562 145.371094 66.980469 C 143.941406 69.25 142.515625 72.035156 141.21875 74.890625 C 140.894531 74.175781 140.570312 73.527344 140.3125 72.945312 C 130.585938 53.105469 113.402344 40.847656 90.578125 37.476562 C 88.441406 37.152344 77.09375 36.828125 74.886719 37.089844 C 74.433594 37.152344 73.007812 37.347656 71.839844 37.476562 C 61.726562 38.578125 51.609375 42.082031 42.664062 47.460938 C 33.648438 52.84375 26 60.105469 20.488281 68.40625 C 13.9375 78.195312 9.984375 90.128906 9.011719 102.769531 C 8.363281 111.785156 9.207031 120.992188 11.539062 130.070312 C 10.957031 129.289062 10.308594 128.449219 9.789062 127.605469 C 8.234375 125.269531 6.804688 122.808594 5.640625 120.214844 C 5.964844 119.046875 6.222656 117.554688 6.15625 115.738281 C 6.027344 111.070312 3.757812 107.699219 2.917969 106.53125 C 1.488281 104.457031 0.777344 104.199219 -0.714844 102.445312 C -2.464844 100.371094 -4.539062 97 -5.578125 91.617188 C -6.421875 93.5 -7.589844 96.742188 -7.652344 100.824219 C -7.78125 105.753906 -6.292969 109.386719 -5.835938 110.488281 C -5.1875 111.976562 -3.828125 115.089844 -0.519531 117.945312 C 1.230469 119.5 3.046875 120.40625 4.40625 120.992188 C 5.640625 123.585938 7 126.046875 8.621094 128.382812 C 9.789062 130.132812 11.019531 131.753906 12.382812 133.375 C 13.160156 135.90625 14.003906 138.433594 14.976562 140.898438 C 17.117188 146.277344 19.710938 151.53125 22.820312 156.71875 C 20.226562 155.875 17.699219 154.835938 15.300781 153.605469 C 13.746094 149.066406 9.917969 140.636719 1.296875 133.894531 C -4.476562 129.355469 -10.3125 127.34375 -14.070312 126.308594 C -12.96875 127.734375 -11.414062 129.875 -9.988281 132.53125 C -9.078125 134.285156 -8.558594 135.582031 -8.234375 136.359375 C -6.097656 141.480469 -3.050781 145.953125 -2.011719 147.25 C -0.972656 148.613281 3.109375 153.347656 14.070312 154.707031 C 17.246094 156.457031 20.617188 157.820312 24.117188 158.726562 C 26.777344 162.878906 29.761719 167.027344 33.195312 171.242188 C 28.722656 169.621094 23.988281 168.777344 19.253906 168.84375 C 18.21875 168.84375 17.117188 168.90625 16.078125 169.039062 C 15.105469 166.960938 12.964844 165.601562 10.566406 165.796875 C 7.453125 165.988281 5.054688 168.714844 5.316406 171.890625 C 5.507812 175.003906 8.234375 177.402344 11.410156 177.144531 C 14.523438 176.949219 16.921875 174.226562 16.664062 171.046875 C 16.664062 170.984375 16.664062 170.851562 16.664062 170.789062 C 17.570312 170.722656 18.476562 170.660156 19.386719 170.660156 C 24.960938 170.59375 30.601562 171.824219 35.789062 174.226562 C 38.96875 177.984375 42.535156 181.746094 46.421875 185.703125 C 49.472656 188.75 52.257812 191.472656 55.242188 194.195312 C 52.90625 194.261719 50.574219 194.261719 48.238281 194.195312 C 47.007812 192.832031 44.996094 191.019531 42.144531 189.527344 C 36.179688 186.480469 30.472656 187 28.398438 187.191406 C 24.832031 187.582031 23.988281 188.296875 20.8125 188.878906 C 16.988281 189.65625 11.410156 189.917969 3.953125 187.515625 C 5.769531 189.917969 8.945312 193.480469 14.003906 196.464844 C 20.097656 199.964844 25.675781 200.613281 27.296875 200.808594 C 29.566406 201.003906 34.492188 201.457031 40.265625 199.253906 C 42.988281 198.214844 45.128906 196.917969 46.746094 195.6875 C 48.304688 195.75 49.859375 195.816406 51.351562 195.816406 C 53.039062 195.816406 54.722656 195.75 56.34375 195.6875 C 56.472656 195.6875 56.605469 195.6875 56.796875 195.6875 C 58.09375 196.855469 59.457031 198.085938 60.882812 199.316406 C 59.910156 201.652344 59.066406 203.726562 58.355469 205.605469 C 55.566406 212.480469 53.621094 216.890625 49.339844 221.167969 C 46.488281 224.023438 41.5625 227.847656 33.261719 230.3125 C 48.175781 243.214844 59.003906 244.964844 66.460938 243.796875 C 75.277344 242.371094 86.039062 235.628906 97.0625 240.75 C 98.359375 241.335938 97.972656 241.335938 99.460938 242.046875 C 101.925781 243.214844 109.058594 246.132812 128.316406 241.59375 C 131.882812 240.75 136.746094 239.453125 142.453125 237.445312 C 142.320312 232.386719 142.191406 227.394531 142.0625 222.335938 C 141.21875 218.121094 140.246094 212.414062 139.210938 205.605469 C 138.5625 201.523438 137.976562 196.984375 137.394531 192.054688 C 137.003906 188.621094 137.003906 189.007812 136.746094 186.21875 C 135.515625 173.640625 133.4375 161.191406 129.484375 149.195312 C 127.410156 142.972656 125.074219 136.878906 121.3125 131.367188 C 120.925781 130.78125 120.535156 130.132812 120.210938 129.484375 C 120.015625 129.160156 119.886719 128.835938 119.691406 128.511719 C 118.589844 127.019531 116.582031 123.910156 116.257812 119.566406 C 116.125 117.8125 116.320312 116.257812 116.515625 115.027344 C 116.773438 114.3125 116.96875 113.597656 116.96875 112.5625 C 117.292969 113.144531 117.683594 113.730469 118.007812 114.246094 C 119.757812 116.972656 121.574219 119.433594 123.390625 121.640625 C 124.296875 122.742188 125.269531 123.84375 126.175781 124.945312 C 128.25 128.316406 131.105469 131.042969 134.152344 133.503906 C 135.707031 134.800781 137.136719 136.292969 138.367188 137.914062 C 138.433594 137.914062 138.433594 137.980469 138.496094 138.042969 C 138.753906 138.238281 138.753906 138.5625 138.753906 138.628906 C 138.820312 139.015625 139.988281 140.574219 141.738281 141.480469 C 143.230469 142.257812 145.953125 143.035156 147.832031 142 C 149.84375 140.898438 150.882812 140.3125 150.945312 140.3125 C 151.269531 140.054688 151.59375 139.859375 151.917969 140.25 C 152.308594 140.703125 152.632812 140.636719 153.019531 140.183594 C 153.539062 139.601562 154.058594 139.601562 154.445312 140.25 C 154.902344 140.832031 155.226562 140.765625 155.742188 140.3125 C 158.402344 137.71875 161.191406 135.386719 164.109375 133.117188 C 165.144531 132.273438 166.117188 131.300781 167.027344 130.070312 C 167.480469 132.46875 167.609375 134.671875 167.480469 136.941406 C 167.414062 138.042969 167.414062 139.144531 167.351562 140.25 C 167.351562 140.765625 167.351562 141.285156 167.285156 141.804688 C 167.21875 143.101562 167.21875 144.464844 167.15625 145.761719 C 167.15625 145.953125 167.15625 146.085938 167.15625 146.277344 C 167.15625 146.34375 167.15625 146.410156 167.15625 146.472656 C 167.15625 146.667969 167.15625 146.796875 167.15625 146.992188 C 167.15625 147.058594 167.15625 147.121094 167.15625 147.1875 C 167.027344 151.789062 167.089844 156.394531 166.832031 161.0625 C 166.832031 162.359375 166.832031 163.589844 166.832031 164.886719 C 168.0625 164.953125 168.0625 164.953125 168.128906 166.183594 C 168.257812 169.621094 168.453125 173.058594 168.582031 176.496094 C 168.777344 177.726562 168.648438 179.023438 168.648438 180.253906 C 168.648438 180.382812 168.710938 180.515625 168.710938 180.644531 C 168.839844 182.136719 168.972656 183.625 168.90625 185.183594 C 168.90625 185.246094 168.972656 185.246094 168.972656 185.3125 C 168.972656 185.3125 168.972656 185.3125 168.90625 185.378906 C 168.90625 187.777344 169.75 189.980469 170.332031 192.316406 C 170.59375 192.769531 170.65625 193.351562 170.65625 193.871094 C 170.65625 193.9375 170.65625 194 170.722656 194.066406 C 170.851562 194.261719 170.851562 194.390625 170.785156 194.585938 C 170.785156 194.648438 170.785156 194.714844 170.785156 194.777344 C 170.785156 194.84375 170.785156 194.910156 170.785156 194.972656 C 170.980469 197.890625 171.175781 200.746094 171.046875 203.664062 C 171.046875 203.855469 171.109375 204.050781 170.917969 204.246094 C 171.046875 204.828125 171.046875 205.414062 171.046875 205.929688 C 171.046875 206.125 171.046875 206.320312 171.046875 206.578125 C 171.046875 207.550781 171.046875 208.589844 171.046875 209.5625 C 171.046875 209.886719 171.046875 210.277344 171.109375 210.601562 C 171.433594 210.988281 171.242188 211.378906 171.242188 211.765625 C 171.175781 212.546875 171.109375 213.257812 171.046875 214.035156 C 171.046875 214.554688 171.109375 215.074219 170.917969 215.59375 C 171.046875 216.5 170.980469 217.472656 170.917969 218.378906 C 170.917969 219.222656 170.851562 220.132812 170.851562 220.972656 C 170.980469 222.011719 170.460938 223.050781 170.527344 224.085938 C 170.332031 224.800781 170.398438 225.511719 169.945312 226.160156 C 169.878906 226.421875 169.8125 226.617188 169.683594 226.875 C 170.007812 227.132812 170.398438 227.457031 170.851562 227.78125 C 170.269531 229.210938 169.621094 230.570312 168.386719 231.867188 C 165.144531 235.175781 160.867188 234.589844 160.605469 236.472656 C 160.414062 237.636719 161.902344 238.742188 162.097656 238.871094 C 164.496094 240.621094 167.542969 239.066406 172.863281 238.609375 C 173.640625 238.546875 174.613281 238.480469 175.648438 238.546875 L 175.714844 239.257812 C 176.039062 239.324219 176.429688 239.390625 176.753906 239.453125 C 177.660156 239.453125 178.566406 239.453125 179.539062 239.453125 C 181.613281 239.195312 181.613281 239.195312 182.003906 237.183594 C 182.070312 236.730469 182.199219 236.339844 182.78125 236.40625 C 182.910156 236.40625 183.042969 236.40625 183.042969 236.40625 C 183.429688 236.472656 185.375 236.535156 187.191406 236.601562 C 187.773438 236.730469 188.683594 236.925781 189.527344 236.988281 C 190.367188 237.054688 191.210938 236.925781 191.730469 236.535156 C 191.730469 236.535156 191.792969 236.535156 191.792969 236.535156 C 191.792969 236.535156 191.792969 236.535156 191.792969 236.472656 C 191.859375 236.40625 191.925781 236.339844 191.988281 236.210938 C 191.988281 236.148438 192.054688 236.082031 192.117188 235.953125 C 192.25 235.5625 192.441406 234.914062 192.441406 234.007812 C 192.832031 232.386719 192.898438 230.765625 192.898438 229.144531 C 192.898438 228.496094 192.507812 228.042969 192.3125 227.457031 C 191.859375 226.097656 192.507812 224.863281 192.507812 223.503906 C 192.507812 223.4375 192.507812 223.375 192.507812 223.375 C 193.480469 222.59375 194.453125 221.816406 195.492188 221.039062 C 196.917969 219.9375 198.277344 218.835938 199.574219 217.796875 C 200.546875 218.445312 201.714844 219.027344 203.011719 219.546875 C 207.875 221.429688 212.21875 220.972656 214.230469 220.714844 C 215.722656 220.519531 220.648438 219.808594 226.417969 216.4375 C 231.21875 213.582031 234.460938 210.144531 236.339844 207.941406 C 229.53125 210.339844 224.605469 210.210938 221.363281 209.5625 C 218.636719 209.042969 217.988281 208.394531 214.878906 208.136719 C 214.230469 208.070312 213.191406 208.007812 211.832031 208.070312 C 217.667969 203.339844 222.140625 199.511719 226.226562 195.816406 C 226.550781 195.816406 226.875 195.882812 227.199219 195.882812 C 228.753906 195.945312 230.308594 196.011719 231.929688 196.011719 C 233.550781 196.011719 235.238281 195.945312 236.859375 195.882812 C 238.480469 197.113281 240.621094 198.410156 243.34375 199.449219 C 249.113281 201.585938 254.042969 201.199219 256.3125 200.9375 C 257.929688 200.746094 263.507812 200.097656 269.601562 196.59375 C 274.660156 193.675781 277.835938 190.046875 279.652344 187.648438 C 272.195312 190.046875 266.621094 189.785156 262.792969 189.074219 C 259.617188 188.425781 258.773438 187.777344 255.207031 187.386719 C 253.132812 187.191406 247.425781 186.675781 241.460938 189.722656 C 238.609375 191.210938 236.597656 193.027344 235.367188 194.390625 C 232.839844 194.453125 230.375 194.453125 227.910156 194.390625 C 230.828125 191.730469 233.550781 189.007812 236.535156 186.027344 C 240.425781 182.136719 243.863281 178.4375 246.972656 174.808594 C 252.355469 172.148438 258.320312 170.722656 264.15625 170.789062 C 265.0625 170.789062 265.972656 170.851562 266.878906 170.917969 C 266.878906 170.984375 266.878906 171.113281 266.878906 171.175781 C 266.683594 174.289062 269.019531 177.011719 272.195312 177.273438 C 275.308594 177.464844 278.03125 175.132812 278.292969 171.957031 C 278.484375 168.84375 276.152344 166.121094 272.972656 165.859375 C 270.574219 165.664062 268.4375 167.027344 267.464844 169.101562 C 266.425781 168.972656 265.324219 168.972656 264.285156 168.90625 C 259.359375 168.84375 254.367188 169.816406 249.695312 171.632812 C 253.132812 167.417969 256.117188 163.265625 258.773438 158.988281 C 262.535156 158.015625 266.101562 156.589844 269.410156 154.773438 C 280.367188 153.347656 284.453125 148.613281 285.488281 147.25 C 286.460938 145.953125 289.507812 141.480469 291.648438 136.359375 C 291.972656 135.582031 292.492188 134.285156 293.398438 132.53125 C 294.824219 129.808594 296.382812 127.667969 297.484375 126.242188 C 293.464844 126.761719 287.691406 128.835938 281.921875 133.375 Z M 236.921875 172.410156 C 238.675781 168.714844 238.933594 165.472656 239 164.109375 C 239.191406 160.996094 238.675781 160.21875 238.542969 157.496094 C 238.414062 154.1875 239 149.328125 242.371094 142.90625 C 239.839844 144.398438 236.015625 147.121094 232.515625 151.464844 C 228.300781 156.652344 226.875 161.515625 226.484375 162.941406 C 225.964844 164.886719 224.796875 169.167969 225.964844 174.226562 C 226.613281 177.144531 227.847656 179.347656 228.949219 180.839844 C 219.480469 190.242188 211.894531 196.722656 192.832031 211.765625 C 192.832031 211.574219 192.832031 211.441406 192.832031 211.25 C 192.832031 211.117188 192.832031 210.988281 192.832031 210.859375 C 192.765625 209.757812 192.898438 208.65625 193.027344 207.617188 C 193.089844 207.035156 193.089844 206.449219 193.15625 205.867188 C 193.15625 205.800781 193.15625 205.738281 193.15625 205.671875 C 193.15625 205.414062 193.15625 205.21875 193.222656 204.957031 C 193.285156 204.117188 193.285156 203.207031 193.351562 202.367188 C 193.351562 202.171875 193.351562 202.042969 193.351562 201.847656 C 193.351562 201.328125 193.351562 200.808594 193.351562 200.289062 C 193.351562 200.097656 193.351562 199.964844 193.351562 199.773438 C 193.15625 198.667969 192.898438 197.566406 192.703125 196.464844 C 192.574219 196.269531 192.441406 196.011719 192.507812 195.75 C 192.378906 195.558594 192.3125 195.296875 192.378906 195.039062 C 192.378906 194.910156 192.378906 194.777344 192.378906 194.714844 C 191.988281 192.703125 192.054688 190.628906 191.925781 188.554688 C 191.859375 187 191.792969 185.378906 192.054688 183.820312 C 192.054688 183.496094 191.925781 183.109375 192.183594 182.785156 C 192.183594 182.71875 192.183594 182.652344 192.183594 182.589844 C 192.183594 182.394531 192.183594 182.199219 192.183594 182.070312 C 192.183594 181.617188 192.117188 181.164062 192.25 180.644531 C 192.25 180.320312 192.3125 179.996094 192.3125 179.605469 C 192.378906 178.375 192.445312 177.140625 192.636719 175.976562 C 192.636719 175.652344 192.703125 175.261719 192.703125 174.9375 C 192.765625 173.058594 192.898438 171.242188 193.222656 169.425781 C 193.222656 169.230469 193.222656 169.101562 193.222656 168.90625 C 193.222656 168.519531 193.222656 168.195312 193.285156 167.804688 C 193.414062 167.222656 193.089844 166.378906 193.609375 166.054688 C 194.0625 165.730469 194.84375 165.859375 195.425781 165.796875 C 196.140625 165.730469 196.917969 165.664062 197.628906 165.601562 C 197.695312 165.601562 197.824219 165.535156 197.890625 165.535156 C 198.085938 165.535156 198.277344 165.535156 198.472656 165.472656 C 198.925781 165.015625 198.539062 164.433594 198.667969 163.914062 C 198.539062 160.804688 198.277344 157.691406 198.472656 154.578125 C 198.34375 154.058594 198.34375 153.539062 198.410156 153.023438 C 198.277344 151.660156 198.019531 150.234375 198.085938 148.871094 C 198.085938 148.742188 198.085938 148.613281 198.085938 148.546875 C 198.085938 148.355469 198.019531 148.222656 198.019531 148.03125 C 197.953125 147.445312 197.890625 146.863281 197.824219 146.277344 C 197.824219 146.148438 197.824219 146.019531 197.824219 145.953125 C 197.761719 145.628906 197.695312 145.242188 197.695312 144.917969 C 197.695312 144.789062 197.695312 144.65625 197.628906 144.59375 C 197.175781 142.0625 196.851562 139.535156 196.65625 137.007812 C 196.65625 136.878906 196.65625 136.746094 196.65625 136.683594 C 196.527344 136.230469 196.464844 135.773438 196.527344 135.320312 C 196.527344 135.125 196.527344 134.996094 196.527344 134.800781 C 196.398438 134.089844 196.332031 133.441406 196.398438 132.726562 C 196.140625 129.550781 196.398438 126.371094 196.789062 123.195312 C 197.695312 116.324219 199.316406 109.515625 200.03125 102.578125 C 199.964844 102.121094 200.09375 101.667969 200.160156 101.214844 C 200.160156 100.566406 200.160156 99.984375 200.160156 99.335938 C 200.160156 99.203125 200.160156 99.074219 200.09375 99.011719 C 200.09375 98.878906 200.03125 98.6875 200.03125 98.6875 C 200.03125 98.492188 199.445312 95.769531 196.65625 93.5625 C 196.332031 93.304688 195.816406 92.914062 195.101562 92.527344 C 194.324219 92.136719 193.675781 91.617188 193.15625 90.90625 C 192.765625 90.582031 192.507812 90.128906 192.378906 89.671875 C 192.183594 89.347656 191.988281 89.023438 191.859375 88.636719 C 191.46875 87.988281 191.277344 87.078125 190.757812 86.691406 C 190.042969 86.105469 189.980469 85.394531 189.71875 84.746094 C 189.65625 84.617188 190.175781 83.125 190.304688 83.125 L 190.367188 83.125 C 190.433594 82.21875 190.691406 81.4375 190.886719 80.597656 C 191.144531 79.882812 191.339844 79.105469 191.792969 78.457031 C 191.730469 78.390625 191.730469 78.328125 191.792969 78.328125 C 191.730469 78.195312 191.792969 78.132812 191.859375 78.066406 C 192.054688 77.417969 192.183594 76.769531 192.378906 76.121094 C 192.378906 75.992188 192.378906 75.863281 192.378906 75.796875 C 192.183594 73.851562 191.988281 71.90625 190.824219 70.285156 C 190.628906 70.09375 190.5 69.960938 190.304688 69.769531 C 190.175781 69.703125 190.042969 69.574219 189.914062 69.507812 C 189.589844 68.601562 188.683594 68.148438 187.96875 67.5625 C 187.773438 67.5625 187.582031 67.433594 187.449219 67.304688 C 187.386719 67.238281 187.320312 67.238281 187.257812 67.175781 C 187.257812 67.175781 185.828125 66.851562 185.441406 66.71875 C 185.117188 66.65625 184.339844 66.460938 183.429688 66.460938 C 181.613281 66.394531 180.1875 66.980469 179.476562 67.304688 C 179.085938 67.433594 178.828125 67.5625 178.632812 67.691406 C 177.917969 67.824219 176.945312 68.082031 175.972656 68.535156 C 174.484375 69.25 173.445312 70.15625 172.796875 70.804688 C 173.378906 70.738281 174.027344 70.738281 174.09375 70.871094 C 174.09375 70.933594 173.964844 71 173.898438 71.0625 C 173.511719 71.324219 173.1875 71.777344 172.796875 72.101562 C 172.472656 72.425781 171.890625 73.332031 170.980469 75.992188 C 171.046875 75.863281 171.566406 75.085938 172.40625 75.019531 C 172.601562 75.019531 172.796875 75.019531 172.992188 75.085938 C 173.121094 75.992188 173.054688 76.707031 172.925781 77.222656 C 172.796875 77.808594 172.730469 78.261719 172.925781 78.84375 C 172.992188 79.039062 173.121094 79.234375 173.316406 79.429688 C 173.574219 79.6875 173.574219 80.273438 173.121094 80.597656 C 173.121094 80.726562 173.121094 80.984375 173.121094 81.308594 C 173.054688 81.957031 172.863281 82.28125 172.601562 83.191406 C 172.40625 83.96875 172.277344 84.292969 172.40625 84.484375 C 172.601562 84.679688 173.378906 84.550781 173.703125 84.484375 C 173.769531 84.484375 173.835938 84.484375 173.898438 84.484375 C 174.09375 84.550781 174.160156 84.875 174.160156 84.875 C 174.222656 85.265625 173.898438 85.328125 173.964844 85.652344 C 173.964844 85.914062 174.160156 86.238281 174.351562 86.300781 C 174.417969 86.300781 174.484375 86.300781 174.546875 86.300781 C 174.484375 86.429688 174.484375 86.691406 174.546875 86.886719 C 174.675781 87.210938 174.9375 87.273438 175.195312 87.535156 C 175.519531 87.988281 175.195312 88.3125 175.324219 88.960938 C 175.457031 89.542969 176.039062 90.257812 176.6875 90.257812 C 177.402344 90.257812 178.113281 89.996094 178.761719 89.738281 C 179.34375 89.542969 179.605469 89.738281 179.863281 90.128906 C 180.835938 91.617188 180.253906 93.046875 178.375 93.5625 C 177.855469 94.082031 177.269531 94.472656 176.621094 94.730469 C 176.167969 94.992188 175.714844 95.25 175.261719 95.507812 C 175.066406 95.640625 174.808594 95.703125 174.613281 95.832031 C 174.417969 95.964844 174.222656 96.09375 174.027344 96.222656 C 172.082031 98.039062 171.371094 100.566406 170.460938 102.902344 C 169.164062 106.335938 168.648438 109.96875 167.804688 113.535156 C 167.542969 114.636719 167.21875 115.675781 166.960938 116.777344 C 166.3125 119.433594 164.757812 121.511719 162.617188 123.132812 C 159.441406 125.53125 156.523438 128.316406 153.667969 131.105469 C 153.605469 131.171875 153.605469 131.171875 153.539062 131.234375 C 152.046875 132.46875 150.621094 133.828125 149.324219 135.320312 C 149.066406 135.644531 148.742188 135.710938 148.417969 135.710938 C 146.34375 135.773438 144.332031 135.773438 142.320312 136.097656 C 140.960938 136.292969 139.859375 135.644531 138.886719 134.800781 C 137.070312 133.117188 135.578125 131.171875 134.21875 129.160156 C 131.625 125.074219 128.382812 121.511719 125.789062 117.488281 C 125.203125 116.582031 124.621094 115.675781 124.167969 114.765625 C 122.285156 110.679688 119.886719 106.984375 117.941406 102.964844 C 117.554688 102.121094 116.96875 101.410156 116.320312 100.695312 C 115.414062 99.789062 114.441406 99.335938 113.144531 99.527344 C 111.976562 99.722656 110.875 99.722656 109.707031 99.464844 C 109.058594 99.335938 108.863281 99.011719 109.058594 98.425781 C 109.253906 97.777344 109.449219 97.128906 109.644531 96.417969 C 109.773438 95.25 110.679688 95.121094 111.589844 95.054688 C 112.429688 94.992188 113.273438 94.992188 113.988281 94.535156 C 114.375 94.019531 114.570312 93.5 114.179688 92.851562 C 113.988281 92.527344 114.117188 92.398438 114.179688 92.265625 C 114.246094 92.136719 114.3125 92.136719 114.375 92.007812 C 114.375 92.007812 114.441406 91.8125 114.375 91.617188 C 114.3125 91.488281 114.3125 91.554688 114.246094 91.488281 C 114.179688 91.292969 114.699219 91.230469 114.765625 90.90625 C 114.894531 90.582031 114.503906 90.386719 114.636719 90.128906 C 114.699219 90.0625 114.699219 89.933594 115.21875 89.867188 C 115.738281 89.804688 115.738281 89.414062 115.542969 89.023438 C 115.414062 88.765625 115.347656 88.570312 115.21875 88.3125 C 114.894531 87.664062 114.570312 87.015625 114.765625 86.238281 C 115.023438 84.617188 114.960938 82.996094 114.375 81.375 L 114.375 81.308594 C 114.3125 81.308594 114.3125 81.308594 114.3125 81.246094 C 113.726562 80.011719 112.820312 79.105469 111.78125 78.328125 C 110.226562 77.289062 108.539062 76.707031 106.59375 77.160156 C 106.464844 77.160156 106.335938 77.222656 106.269531 77.222656 C 106.011719 77.355469 105.816406 77.484375 105.558594 77.546875 C 105.234375 78.003906 104.972656 78.066406 104.585938 77.484375 C 104.457031 77.222656 104.132812 77.03125 103.9375 76.835938 C 103.160156 76.382812 102.25 76.25 101.34375 76.25 C 100.371094 76.511719 99.527344 76.898438 98.75 77.484375 C 98.683594 77.613281 98.554688 77.679688 98.492188 77.808594 C 98.492188 77.808594 98.492188 77.871094 98.425781 77.871094 C 97.90625 78.652344 97.648438 79.625 96.546875 79.882812 C 96.351562 79.949219 96.222656 80.207031 96.089844 80.335938 C 96.027344 80.464844 95.960938 80.597656 95.898438 80.726562 C 95.765625 81.113281 95.636719 81.570312 95.574219 81.957031 C 95.507812 83.320312 95.636719 84.746094 96.285156 85.976562 C 96.804688 86.949219 97.519531 87.726562 98.683594 87.921875 C 99.398438 88.050781 99.65625 88.570312 99.785156 89.15625 C 99.851562 89.671875 99.980469 90.191406 100.109375 90.710938 C 100.695312 91.75 101.40625 92.65625 102.445312 93.238281 C 102.835938 93.433594 102.769531 93.695312 102.703125 94.019531 C 102.511719 95.054688 102.25 96.027344 101.796875 96.9375 C 101.796875 97 101.796875 97.066406 101.863281 97.128906 C 101.082031 98.6875 100.433594 100.371094 99.140625 101.605469 C 98.816406 102.121094 98.359375 102.511719 97.84375 102.902344 C 97.777344 102.964844 97.777344 102.964844 97.710938 103.03125 C 97.519531 103.289062 97.257812 103.550781 97.0625 103.808594 C 96.933594 103.9375 96.738281 104.066406 96.609375 104.132812 C 94.730469 105.753906 94.792969 108.023438 94.601562 110.226562 C 94.40625 112.171875 94.339844 114.054688 94.144531 116 C 94.015625 117.945312 94.082031 119.890625 94.144531 121.898438 C 94.339844 123.648438 94.535156 125.464844 94.792969 127.214844 C 94.988281 128.449219 95.378906 128.773438 96.675781 128.835938 C 98.683594 128.964844 100.695312 129.097656 102.703125 129.160156 C 102.769531 129.160156 102.835938 129.160156 102.898438 129.160156 C 103.027344 129.160156 103.160156 129.160156 103.222656 129.160156 C 103.808594 129.097656 104.457031 129.03125 105.105469 129.03125 C 105.039062 129.421875 104.78125 129.550781 104.648438 129.679688 C 101.539062 133.246094 98.359375 136.746094 95.378906 140.441406 C 94.144531 141.933594 93.109375 143.492188 91.746094 144.851562 C 91.226562 145.628906 90.773438 146.214844 90.515625 146.667969 C 88.503906 149.519531 87.078125 151.335938 86.753906 151.789062 C 86.429688 152.179688 86.171875 152.503906 85.976562 152.761719 C 84.746094 154.578125 83.773438 156.003906 83.125 157.042969 C 82.085938 158.597656 80.207031 161.320312 79.101562 163.136719 C 79.039062 163.265625 78.84375 163.527344 78.585938 163.980469 C 78.128906 164.757812 77.613281 165.472656 77.15625 166.25 C 75.667969 168.777344 74.304688 171.371094 72.75 173.902344 C 72.359375 175.003906 71.710938 175.976562 71.128906 177.011719 C 70.285156 178.570312 68.988281 181.097656 67.433594 184.273438 C 66.265625 186.675781 65.226562 188.878906 64.320312 190.953125 C 60.6875 187.710938 57.511719 184.730469 54.140625 181.421875 C 55.242188 179.929688 56.605469 177.597656 57.316406 174.484375 C 58.484375 169.425781 57.316406 165.148438 56.796875 163.203125 C 56.410156 161.777344 54.917969 156.976562 50.703125 151.789062 C 47.203125 147.511719 43.3125 144.789062 40.78125 143.296875 C 44.15625 149.714844 44.804688 154.578125 44.609375 157.886719 C 44.480469 160.671875 43.960938 161.453125 44.15625 164.5 C 44.21875 166.054688 44.542969 169.816406 46.941406 174.03125 C 37.734375 164.046875 31.058594 154.835938 26.257812 145.242188 C 25.804688 141.675781 26 138.042969 26.777344 134.542969 C 27.101562 133.246094 27.425781 131.949219 27.878906 130.71875 C 27.945312 130.71875 28.007812 130.78125 28.074219 130.78125 C 30.539062 131.496094 33.066406 130.070312 33.78125 127.667969 C 34.492188 125.269531 33 122.742188 30.601562 122.027344 C 28.140625 121.316406 25.609375 122.742188 24.898438 125.140625 C 24.378906 126.957031 25.089844 128.835938 26.519531 130.003906 C 26 131.367188 25.609375 132.792969 25.285156 134.21875 C 24.765625 136.554688 24.507812 138.953125 24.507812 141.414062 C 23.988281 140.25 23.46875 139.082031 23.015625 137.914062 C 19.125 127.929688 17.246094 117.554688 17.503906 107.503906 C 18.414062 103.9375 19.710938 100.4375 21.394531 97.128906 C 22.238281 95.445312 23.144531 93.757812 24.183594 92.203125 C 25.222656 92.007812 26.84375 91.554688 28.527344 90.582031 C 31.898438 88.570312 33.390625 85.523438 33.910156 84.421875 C 34.816406 82.542969 34.753906 81.894531 35.402344 80.078125 C 36.179688 77.9375 37.800781 75.085938 41.300781 72.101562 C 39.550781 72.296875 36.761719 72.75 33.714844 74.371094 C 30.085938 76.316406 28.007812 78.910156 27.425781 79.6875 C 26.648438 80.726562 24.898438 83.058594 24.183594 86.625 C 23.925781 87.921875 23.859375 89.089844 23.925781 90.0625 C 22.496094 92.136719 21.265625 94.277344 20.097656 96.480469 C 19.191406 98.296875 18.414062 100.113281 17.699219 101.992188 C 18.738281 91.554688 22.042969 81.699219 27.492188 73.464844 C 37.28125 58.746094 54.59375 48.371094 72.683594 46.296875 C 73.980469 46.164062 75.40625 45.972656 75.796875 45.90625 C 77.351562 45.777344 87.660156 46.035156 89.152344 46.230469 C 108.996094 49.148438 123.972656 59.78125 132.402344 76.964844 C 134.152344 80.464844 136.226562 86.105469 136.550781 87.46875 C 136.679688 90.128906 138.5625 91.617188 140.375 91.878906 C 141.15625 92.007812 143.878906 92.074219 145.304688 88.765625 C 145.5 88.246094 145.757812 87.597656 145.953125 86.820312 C 147.183594 82.410156 150.039062 75.992188 152.632812 71.777344 C 162.875 55.308594 180.640625 45.839844 201.390625 45.839844 C 219.351562 45.839844 236.015625 52.78125 248.207031 65.359375 C 255.339844 72.75 260.265625 81.632812 262.859375 91.75 C 263.507812 94.34375 264.027344 97 264.351562 99.722656 C 263.832031 98.554688 263.3125 97.390625 262.730469 96.222656 C 261.628906 94.019531 260.332031 91.8125 258.90625 89.804688 C 258.90625 88.765625 258.839844 87.597656 258.582031 86.367188 C 257.867188 82.800781 256.117188 80.464844 255.339844 79.429688 C 254.753906 78.652344 252.679688 76.058594 249.046875 74.113281 C 246 72.492188 243.214844 72.035156 241.460938 71.84375 C 244.964844 74.824219 246.585938 77.679688 247.363281 79.816406 C 248.011719 81.570312 247.945312 82.21875 248.855469 84.164062 C 249.371094 85.265625 250.863281 88.246094 254.300781 90.320312 C 255.988281 91.359375 257.609375 91.75 258.644531 91.941406 C 259.683594 93.5625 260.589844 95.183594 261.433594 96.871094 C 262.730469 99.464844 263.832031 102.1875 264.675781 104.976562 C 265.324219 116.582031 263.117188 128.707031 258.386719 140.054688 C 258.320312 138.042969 258.0625 135.96875 257.609375 134.023438 C 257.285156 132.597656 256.828125 131.171875 256.3125 129.808594 C 257.738281 128.707031 258.449219 126.761719 257.933594 124.945312 C 257.21875 122.546875 254.691406 121.121094 252.226562 121.835938 C 249.761719 122.546875 248.335938 125.074219 249.046875 127.476562 C 249.761719 129.875 252.289062 131.300781 254.753906 130.585938 C 254.820312 130.585938 254.882812 130.523438 254.949219 130.523438 C 255.402344 131.753906 255.792969 133.050781 256.117188 134.347656 C 256.828125 137.394531 257.023438 140.574219 256.765625 143.75 C 256.117188 145.113281 255.402344 146.539062 254.691406 147.898438 C 250.214844 156.199219 244.640625 163.980469 236.921875 172.410156 Z M 99.269531 114.117188 C 100.628906 118.007812 103.222656 121.1875 104.84375 124.882812 C 104.972656 125.140625 105.296875 125.398438 105.039062 125.660156 C 104.910156 125.789062 104.585938 125.722656 104.324219 125.660156 C 102.640625 125.464844 101.019531 125.140625 99.332031 125.269531 C 98.8125 125.269531 98.878906 125.011719 98.8125 124.6875 C 98.75 123.519531 98.8125 122.417969 98.945312 121.25 C 99.332031 118.851562 99.332031 116.515625 99.269531 114.117188 Z M 99.269531 114.117188 " fill-opacity="1" fill-rule="nonzero"/></g></svg>