<svg xmlns="http://www.w3.org/2000/svg" xmlns:xlink="http://www.w3.org/1999/xlink" width="378" zoomAndPan="magnify" viewBox="0 0 282.96 283.499989" height="378" preserveAspectRatio="xMidYMid meet" version="1.0"><defs><clipPath id="13654a0b07"><path d="M 162 188 L 188 188 L 188 213.28125 L 162 213.28125 Z M 162 188 " clip-rule="nonzero"/></clipPath><clipPath id="983550939b"><path d="M 139 180 L 172 180 L 172 213.28125 L 139 213.28125 Z M 139 180 " clip-rule="nonzero"/></clipPath><clipPath id="bd4d2287b2"><path d="M 160 176 L 188.441406 176 L 188.441406 196 L 160 196 Z M 160 176 " clip-rule="nonzero"/></clipPath><clipPath id="0c3c97dc4a"><path d="M 136 69.535156 L 147 69.535156 L 147 80 L 136 80 Z M 136 69.535156 " clip-rule="nonzero"/></clipPath><clipPath id="78a5271702"><path d="M 95 188 L 121 188 L 121 213.28125 L 95 213.28125 Z M 95 188 " clip-rule="nonzero"/></clipPath><clipPath id="8f07110dd7"><path d="M 111 180 L 144 180 L 144 213.28125 L 111 213.28125 Z M 111 180 " clip-rule="nonzero"/></clipPath><clipPath id="5675c411f8"><path d="M 94.855469 176 L 124 176 L 124 196 L 94.855469 196 Z M 94.855469 176 " clip-rule="nonzero"/></clipPath><clipPath id="36e9fd60f7"><path d="M 136 69.535156 L 147 69.535156 L 147 80 L 136 80 Z M 136 69.535156 " clip-rule="nonzero"/></clipPath></defs><path fill="#000000" d="M 182.144531 180.804688 C 181.375 180.804688 180.632812 180.3125 180.386719 179.539062 C 179.953125 178.242188 179.492188 177.132812 179.027344 176.265625 C 176.804688 172.253906 170.109375 170.214844 164.210938 168.425781 C 157.605469 166.417969 151.371094 164.503906 150.507812 159.71875 C 150.199219 157.925781 150.074219 156.011719 150.199219 154.039062 C 150.261719 153.019531 151.125 152.214844 152.144531 152.277344 C 153.164062 152.339844 153.933594 153.203125 153.902344 154.222656 C 153.8125 155.890625 153.902344 157.527344 154.179688 159.070312 C 154.644531 161.632812 160.078125 163.300781 165.292969 164.875 C 171.867188 166.882812 179.304688 169.164062 182.269531 174.476562 C 182.855469 175.527344 183.410156 176.851562 183.90625 178.367188 C 184.214844 179.324219 183.6875 180.375 182.730469 180.710938 C 182.546875 180.773438 182.332031 180.804688 182.144531 180.804688 Z M 182.144531 180.804688 " fill-opacity="1" fill-rule="nonzero"/><g clip-path="url(#13654a0b07)"><path fill="#000000" d="M 186.097656 213.128906 L 164.488281 213.128906 C 163.472656 213.128906 162.636719 212.296875 162.636719 211.277344 C 162.636719 210.257812 163.472656 209.425781 164.488281 209.425781 L 184.183594 209.425781 C 184.058594 205.9375 183.71875 198.15625 182.699219 190.714844 C 182.578125 189.695312 183.289062 188.769531 184.273438 188.617188 C 185.292969 188.492188 186.21875 189.203125 186.375 190.191406 C 187.761719 200.347656 187.917969 211.125 187.917969 211.214844 C 187.917969 211.710938 187.730469 212.203125 187.390625 212.542969 C 187.054688 212.945312 186.589844 213.128906 186.097656 213.128906 Z M 186.097656 213.128906 " fill-opacity="1" fill-rule="nonzero"/></g><g clip-path="url(#983550939b)"><path fill="#000000" d="M 164.488281 213.128906 L 141.648438 213.128906 C 140.632812 213.128906 139.796875 212.296875 139.796875 211.277344 C 139.796875 210.257812 140.632812 209.425781 141.648438 209.425781 L 163.535156 209.425781 C 166.898438 204.578125 168.441406 198.960938 167.609375 194.203125 C 167.300781 192.382812 166.652344 190.746094 165.695312 189.328125 C 164.335938 187.320312 162.515625 186.085938 161.25 185.40625 C 160.199219 184.851562 159.367188 184.570312 159.058594 184.480469 C 153.75 182.875 147.484375 185.003906 143.039062 189.914062 C 142.359375 190.683594 141.1875 190.714844 140.414062 190.035156 C 139.644531 189.359375 139.613281 188.183594 140.292969 187.414062 C 145.785156 181.359375 153.378906 178.859375 160.136719 180.898438 C 160.664062 181.050781 161.710938 181.421875 163.007812 182.101562 C 165.386719 183.367188 167.359375 185.128906 168.78125 187.226562 C 170.046875 189.078125 170.878906 191.210938 171.28125 193.527344 C 172.328125 199.578125 170.417969 206.429688 165.972656 212.359375 C 165.632812 212.851562 165.078125 213.128906 164.488281 213.128906 Z M 164.488281 213.128906 " fill-opacity="1" fill-rule="nonzero"/></g><g clip-path="url(#bd4d2287b2)"><path fill="#000000" d="M 169.460938 195.75 C 168.8125 195.75 168.195312 195.410156 167.855469 194.820312 C 167.328125 193.925781 167.636719 192.816406 168.535156 192.289062 C 168.75 192.167969 174.121094 189.078125 180.941406 189.078125 C 182.332031 189.078125 183.316406 188.957031 183.9375 188.738281 C 184.367188 188.585938 184.738281 188.429688 184.738281 187.105469 C 184.738281 185.558594 184.152344 183.121094 183.472656 180.710938 C 183.070312 180.742188 182.699219 180.773438 182.300781 180.804688 C 170.878906 181.761719 162.976562 185.4375 162.914062 185.46875 C 161.988281 185.898438 160.878906 185.5 160.445312 184.570312 C 160.015625 183.644531 160.414062 182.535156 161.34375 182.101562 C 161.679688 181.949219 169.921875 178.121094 181.992188 177.101562 C 182.917969 177.007812 183.84375 176.976562 184.769531 176.914062 C 185.632812 176.882812 186.40625 177.441406 186.621094 178.242188 C 188.441406 184.480469 190.140625 190.375 185.199219 192.199219 C 184.152344 192.597656 182.824219 192.753906 180.941406 192.753906 C 175.140625 192.753906 170.445312 195.441406 170.386719 195.46875 C 170.078125 195.65625 169.769531 195.75 169.460938 195.75 Z M 169.460938 195.75 " fill-opacity="1" fill-rule="nonzero"/></g><path fill="#000000" d="M 181.558594 179.136719 C 181.003906 179.136719 180.480469 178.890625 180.109375 178.429688 C 179.460938 177.625 179.613281 176.484375 180.386719 175.835938 C 180.910156 175.402344 185.324219 171.605469 181.714844 166.851562 C 181.28125 166.261719 180.847656 165.738281 180.480469 165.246094 C 176.527344 160.152344 174.550781 157.589844 177.484375 151.9375 C 179.707031 147.648438 180.230469 144.003906 176.34375 138.136719 C 172.546875 132.425781 170.847656 126.28125 170.910156 118.808594 C 170.972656 113.777344 166.679688 102.507812 159.519531 99.113281 C 158.59375 98.679688 158.195312 97.570312 158.625 96.640625 C 159.058594 95.714844 160.167969 95.316406 161.09375 95.746094 C 169.460938 99.699219 174.675781 112.078125 174.582031 118.839844 C 174.519531 125.539062 176.035156 131.035156 179.398438 136.097656 C 183.566406 142.367188 183.964844 147.460938 180.757812 153.636719 C 178.90625 157.1875 179.523438 157.957031 183.378906 162.960938 C 183.78125 163.453125 184.183594 164.011719 184.644531 164.597656 C 189.367188 170.769531 185.449219 176.542969 182.699219 178.738281 C 182.363281 179.015625 181.960938 179.136719 181.558594 179.136719 Z M 181.558594 179.136719 " fill-opacity="1" fill-rule="nonzero"/><path fill="#000000" d="M 151.988281 91.980469 C 148.53125 91.980469 145.910156 88.027344 143.378906 84.167969 C 142.296875 82.53125 141.277344 80.988281 140.320312 79.96875 C 139.644531 79.230469 139.675781 78.054688 140.414062 77.347656 C 141.15625 76.636719 142.328125 76.699219 143.039062 77.4375 C 144.179688 78.671875 145.292969 80.339844 146.464844 82.101562 C 148.101562 84.539062 150.539062 88.246094 151.988281 88.246094 C 152.019531 88.246094 152.019531 88.246094 152.050781 88.246094 C 154.089844 88.121094 157.945312 85.375 160.664062 82.871094 C 161.402344 82.191406 162.578125 82.222656 163.285156 82.996094 C 163.964844 83.738281 163.933594 84.910156 163.164062 85.621094 C 161.621094 87.039062 156.25 91.671875 152.296875 91.949219 C 152.175781 91.980469 152.082031 91.980469 151.988281 91.980469 Z M 151.988281 91.980469 " fill-opacity="1" fill-rule="nonzero"/><path fill="#000000" d="M 158.316406 103.621094 C 158.039062 103.621094 157.761719 103.558594 157.515625 103.433594 C 157.453125 103.402344 150.816406 100.285156 141.648438 100.285156 C 140.632812 100.285156 139.796875 99.453125 139.796875 98.433594 C 139.796875 97.414062 140.632812 96.582031 141.648438 96.582031 C 148.5625 96.582031 154.089844 98.15625 156.957031 99.203125 L 160.136719 83.890625 C 160.355469 82.902344 161.34375 82.253906 162.328125 82.472656 C 163.316406 82.6875 163.964844 83.675781 163.75 84.664062 L 160.105469 102.136719 C 159.984375 102.695312 159.613281 103.15625 159.121094 103.433594 C 158.871094 103.558594 158.59375 103.621094 158.316406 103.621094 Z M 158.316406 103.621094 " fill-opacity="1" fill-rule="nonzero"/><g clip-path="url(#0c3c97dc4a)"><path fill="#000000" d="M 141.648438 79.878906 C 138.839844 79.878906 136.554688 77.59375 136.554688 74.785156 C 136.554688 71.972656 138.839844 69.6875 141.648438 69.6875 C 144.457031 69.6875 146.742188 71.972656 146.742188 74.785156 C 146.742188 77.59375 144.457031 79.878906 141.648438 79.878906 Z M 141.648438 73.394531 C 140.878906 73.394531 140.261719 74.011719 140.261719 74.785156 C 140.261719 75.554688 140.878906 76.171875 141.648438 76.171875 C 142.421875 76.171875 143.039062 75.554688 143.039062 74.785156 C 143.039062 74.011719 142.421875 73.394531 141.648438 73.394531 Z M 141.648438 73.394531 " fill-opacity="1" fill-rule="nonzero"/></g><path fill="#000000" d="M 163.132812 86.390625 C 160.324219 86.390625 158.039062 84.109375 158.039062 81.296875 C 158.039062 78.488281 160.324219 76.203125 163.132812 76.203125 C 165.941406 76.203125 168.226562 78.488281 168.226562 81.296875 C 168.226562 84.109375 165.941406 86.390625 163.132812 86.390625 Z M 163.132812 79.878906 C 162.359375 79.878906 161.742188 80.496094 161.742188 81.265625 C 161.742188 82.039062 162.359375 82.65625 163.132812 82.65625 C 163.902344 82.65625 164.519531 82.039062 164.519531 81.265625 C 164.519531 80.496094 163.902344 79.878906 163.132812 79.878906 Z M 163.132812 79.878906 " fill-opacity="1" fill-rule="nonzero"/><path fill="#000000" d="M 163.039062 140.082031 C 162.175781 140.082031 161.402344 139.496094 161.21875 138.601562 C 161.003906 137.613281 161.652344 136.625 162.636719 136.410156 C 164.890625 135.945312 166.589844 134 166.652344 131.839844 C 166.710938 129.925781 165.601562 128.132812 163.75 127.269531 C 162.824219 126.835938 162.421875 125.726562 162.886719 124.800781 C 163.316406 123.875 164.429688 123.472656 165.355469 123.933594 C 168.535156 125.449219 170.476562 128.597656 170.355469 131.992188 C 170.199219 135.914062 167.328125 139.25 163.378906 140.050781 C 163.285156 140.050781 163.164062 140.082031 163.039062 140.082031 Z M 163.039062 140.082031 " fill-opacity="1" fill-rule="nonzero"/><path fill="#000000" d="M 101.152344 180.804688 C 100.96875 180.804688 100.753906 180.773438 100.566406 180.710938 C 99.609375 180.402344 99.054688 179.355469 99.394531 178.367188 C 99.886719 176.851562 100.445312 175.527344 101.03125 174.476562 C 103.992188 169.164062 111.433594 166.882812 118.007812 164.875 C 123.253906 163.269531 128.6875 161.632812 129.148438 159.070312 C 129.425781 157.558594 129.519531 155.921875 129.425781 154.253906 C 129.363281 153.234375 130.167969 152.371094 131.1875 152.308594 C 132.203125 152.246094 133.070312 153.050781 133.128906 154.066406 C 133.222656 156.042969 133.128906 157.925781 132.820312 159.75 C 131.957031 164.535156 125.722656 166.449219 119.117188 168.457031 C 113.222656 170.246094 106.523438 172.285156 104.300781 176.296875 C 103.839844 177.164062 103.375 178.242188 102.945312 179.570312 C 102.667969 180.3125 101.925781 180.804688 101.152344 180.804688 Z M 101.152344 180.804688 " fill-opacity="1" fill-rule="nonzero"/><g clip-path="url(#78a5271702)"><path fill="#000000" d="M 118.808594 213.128906 L 97.203125 213.128906 C 96.707031 213.128906 96.246094 212.945312 95.875 212.574219 C 95.503906 212.203125 95.320312 211.742188 95.351562 211.246094 C 95.351562 211.15625 95.503906 200.378906 96.894531 190.222656 C 97.019531 189.203125 97.972656 188.492188 98.992188 188.648438 C 100.011719 188.769531 100.722656 189.726562 100.566406 190.746094 C 99.546875 198.1875 99.210938 205.96875 99.085938 209.457031 L 118.808594 209.457031 C 119.828125 209.457031 120.660156 210.289062 120.660156 211.308594 C 120.660156 212.328125 119.828125 213.128906 118.808594 213.128906 Z M 118.808594 213.128906 " fill-opacity="1" fill-rule="nonzero"/></g><g clip-path="url(#8f07110dd7)"><path fill="#000000" d="M 141.648438 213.128906 L 118.808594 213.128906 C 118.222656 213.128906 117.667969 212.851562 117.328125 212.390625 C 112.914062 206.492188 110.96875 199.636719 112.019531 193.554688 C 112.417969 191.210938 113.253906 189.078125 114.519531 187.257812 C 115.9375 185.160156 117.945312 183.398438 120.289062 182.132812 C 121.585938 181.421875 122.667969 181.082031 123.191406 180.929688 C 129.953125 178.890625 137.542969 181.359375 143.039062 187.441406 C 143.71875 188.214844 143.65625 189.386719 142.914062 190.066406 C 142.175781 190.746094 140.96875 190.683594 140.292969 189.945312 C 135.847656 185.035156 129.550781 182.90625 124.273438 184.511719 C 123.964844 184.601562 123.128906 184.878906 122.050781 185.4375 C 120.785156 186.117188 118.964844 187.351562 117.605469 189.359375 C 116.648438 190.777344 116 192.414062 115.691406 194.234375 C 114.859375 198.992188 116.402344 204.609375 119.765625 209.457031 L 141.648438 209.457031 C 142.667969 209.457031 143.5 210.289062 143.5 211.308594 C 143.5 212.328125 142.667969 213.128906 141.648438 213.128906 Z M 141.648438 213.128906 " fill-opacity="1" fill-rule="nonzero"/></g><g clip-path="url(#5675c411f8)"><path fill="#000000" d="M 113.839844 195.75 C 113.53125 195.75 113.191406 195.65625 112.914062 195.5 C 112.882812 195.46875 108.160156 192.785156 102.355469 192.785156 C 100.445312 192.785156 99.148438 192.597656 98.097656 192.230469 C 93.160156 190.40625 94.886719 184.511719 96.679688 178.273438 C 96.925781 177.441406 97.695312 176.914062 98.53125 176.945312 C 99.425781 176.976562 100.382812 177.039062 101.308594 177.132812 C 113.375 178.148438 121.617188 181.980469 121.957031 182.132812 C 122.882812 182.566406 123.285156 183.675781 122.851562 184.601562 C 122.421875 185.527344 121.308594 185.929688 120.382812 185.5 C 120.257812 185.4375 112.328125 181.792969 101 180.835938 C 100.597656 180.804688 100.226562 180.773438 99.828125 180.742188 C 99.148438 183.152344 98.5625 185.621094 98.5625 187.132812 C 98.5625 188.460938 98.929688 188.617188 99.363281 188.769531 C 99.980469 188.988281 100.9375 189.109375 102.355469 189.109375 C 109.179688 189.109375 114.550781 192.199219 114.765625 192.320312 C 115.660156 192.847656 115.9375 193.957031 115.445312 194.851562 C 115.105469 195.410156 114.488281 195.75 113.839844 195.75 Z M 113.839844 195.75 " fill-opacity="1" fill-rule="nonzero"/></g><path fill="#000000" d="M 101.738281 179.136719 C 101.339844 179.136719 100.9375 179.015625 100.597656 178.738281 C 97.851562 176.542969 93.929688 170.800781 98.652344 164.597656 C 99.085938 164.011719 99.519531 163.484375 99.917969 162.960938 C 103.808594 157.957031 104.394531 157.1875 102.542969 153.636719 C 99.332031 147.460938 99.734375 142.367188 103.902344 136.097656 C 107.265625 131.035156 108.777344 125.570312 108.714844 118.839844 C 108.652344 112.078125 113.871094 99.699219 122.203125 95.746094 C 123.128906 95.316406 124.242188 95.714844 124.671875 96.640625 C 125.105469 97.570312 124.703125 98.679688 123.777344 99.113281 C 116.617188 102.507812 112.328125 113.808594 112.390625 118.808594 C 112.480469 126.3125 110.753906 132.457031 106.957031 138.136719 C 103.066406 144.003906 103.59375 147.648438 105.8125 151.9375 C 108.746094 157.589844 106.769531 160.152344 102.820312 165.246094 C 102.417969 165.738281 102.019531 166.261719 101.585938 166.851562 C 97.972656 171.605469 102.386719 175.402344 102.914062 175.835938 C 103.714844 176.484375 103.839844 177.65625 103.191406 178.429688 C 102.820312 178.890625 102.296875 179.136719 101.738281 179.136719 Z M 101.738281 179.136719 " fill-opacity="1" fill-rule="nonzero"/><path fill="#000000" d="M 131.339844 91.980469 C 131.246094 91.980469 131.125 91.980469 131.03125 91.980469 C 127.082031 91.703125 121.710938 87.070312 120.136719 85.652344 C 119.394531 84.972656 119.332031 83.796875 120.011719 83.027344 C 120.691406 82.285156 121.863281 82.222656 122.636719 82.902344 C 125.351562 85.402344 129.210938 88.121094 131.246094 88.277344 C 132.699219 88.367188 135.199219 84.632812 136.835938 82.132812 C 138.007812 80.371094 139.117188 78.703125 140.261719 77.46875 C 140.941406 76.730469 142.113281 76.667969 142.882812 77.375 C 143.625 78.054688 143.6875 79.230469 142.976562 80 C 142.019531 81.019531 141 82.5625 139.921875 84.199219 C 137.390625 88.027344 134.765625 91.980469 131.339844 91.980469 Z M 131.339844 91.980469 " fill-opacity="1" fill-rule="nonzero"/><path fill="#000000" d="M 124.980469 103.621094 C 124.703125 103.621094 124.425781 103.558594 124.148438 103.433594 C 123.625 103.1875 123.285156 102.722656 123.160156 102.136719 L 119.519531 84.664062 C 119.300781 83.675781 119.949219 82.6875 120.9375 82.472656 C 121.925781 82.253906 122.914062 82.902344 123.128906 83.890625 L 126.308594 99.203125 C 129.179688 98.15625 134.703125 96.582031 141.617188 96.582031 C 142.636719 96.582031 143.46875 97.414062 143.46875 98.433594 C 143.46875 99.453125 142.636719 100.285156 141.617188 100.285156 C 132.453125 100.285156 125.816406 103.402344 125.753906 103.433594 C 125.539062 103.558594 125.257812 103.621094 124.980469 103.621094 Z M 124.980469 103.621094 " fill-opacity="1" fill-rule="nonzero"/><g clip-path="url(#36e9fd60f7)"><path fill="#000000" d="M 141.648438 79.878906 C 138.839844 79.878906 136.554688 77.59375 136.554688 74.785156 C 136.554688 71.972656 138.839844 69.6875 141.648438 69.6875 C 144.457031 69.6875 146.742188 71.972656 146.742188 74.785156 C 146.742188 77.59375 144.457031 79.878906 141.648438 79.878906 Z M 141.648438 73.394531 C 140.878906 73.394531 140.261719 74.011719 140.261719 74.785156 C 140.261719 75.554688 140.878906 76.171875 141.648438 76.171875 C 142.421875 76.171875 143.039062 75.554688 143.039062 74.785156 C 143.039062 74.011719 142.421875 73.394531 141.648438 73.394531 Z M 141.648438 73.394531 " fill-opacity="1" fill-rule="nonzero"/></g><path fill="#000000" d="M 120.167969 86.390625 C 117.359375 86.390625 115.074219 84.109375 115.074219 81.296875 C 115.074219 78.488281 117.359375 76.203125 120.167969 76.203125 C 122.976562 76.203125 125.257812 78.488281 125.257812 81.296875 C 125.257812 84.109375 122.976562 86.390625 120.167969 86.390625 Z M 120.167969 79.878906 C 119.394531 79.878906 118.777344 80.496094 118.777344 81.265625 C 118.777344 82.039062 119.394531 82.65625 120.167969 82.65625 C 120.9375 82.65625 121.554688 82.039062 121.554688 81.265625 C 121.554688 80.496094 120.9375 79.878906 120.167969 79.878906 Z M 120.167969 79.878906 " fill-opacity="1" fill-rule="nonzero"/><path fill="#000000" d="M 141.648438 157.679688 C 135.601562 157.679688 130.105469 155.242188 125.785156 150.640625 C 119.550781 144.003906 116.246094 133.257812 116.957031 121.898438 C 117.019531 120.941406 117.820312 120.167969 118.777344 120.167969 C 118.964844 120.167969 138.222656 119.675781 146.308594 106.367188 C 146.710938 105.71875 147.453125 105.378906 148.222656 105.503906 C 148.964844 105.625 149.582031 106.214844 149.707031 106.953125 C 151.589844 116.214844 164.890625 120.199219 165.015625 120.230469 C 165.753906 120.445312 166.28125 121.125 166.34375 121.898438 C 167.050781 133.226562 163.75 143.972656 157.515625 150.640625 C 153.191406 155.242188 147.699219 157.679688 141.648438 157.679688 Z M 120.566406 123.78125 C 120.289062 133.507812 123.191406 142.492188 128.46875 148.109375 C 132.082031 151.9375 136.617188 153.976562 141.648438 153.976562 C 146.679688 153.976562 151.21875 151.9375 154.828125 148.109375 C 160.167969 142.429688 163.070312 133.257812 162.699219 123.378906 C 159.429688 122.207031 150.847656 118.53125 147.296875 111.339844 C 139.085938 121.371094 125.414062 123.378906 120.566406 123.78125 Z M 120.566406 123.78125 " fill-opacity="1" fill-rule="nonzero"/><path fill="#000000" d="M 120.257812 140.082031 C 120.136719 140.082031 120.011719 140.082031 119.890625 140.050781 C 115.9375 139.21875 113.066406 135.914062 112.914062 131.992188 C 112.789062 128.597656 114.734375 125.417969 117.914062 123.933594 C 118.839844 123.503906 119.949219 123.902344 120.382812 124.800781 C 120.816406 125.726562 120.414062 126.835938 119.519531 127.269531 C 117.699219 128.132812 116.554688 129.925781 116.617188 131.839844 C 116.710938 134.03125 118.375 135.945312 120.628906 136.410156 C 121.617188 136.625 122.265625 137.613281 122.050781 138.601562 C 121.894531 139.464844 121.125 140.082031 120.257812 140.082031 Z M 120.257812 140.082031 " fill-opacity="1" fill-rule="nonzero"/></svg>