<svg xmlns="http://www.w3.org/2000/svg" xmlns:xlink="http://www.w3.org/1999/xlink" width="378" zoomAndPan="magnify" viewBox="0 0 282.96 283.499989" height="378" preserveAspectRatio="xMidYMid meet" version="1.0"><defs><clipPath id="012c57ad69"><path d="M 3.039062 199 L 25 199 L 25 213 L 3.039062 213 Z M 3.039062 199 " clip-rule="nonzero"/></clipPath><clipPath id="b334a6c4a9"><path d="M 261 199 L 282.691406 199 L 282.691406 213 L 261 213 Z M 261 199 " clip-rule="nonzero"/></clipPath><clipPath id="812a3a50be"><path d="M 122 236 L 164 236 L 164 271.769531 L 122 271.769531 Z M 122 236 " clip-rule="nonzero"/></clipPath></defs><path fill="#030302" d="M 155.277344 14.402344 C 159.347656 12.265625 163.519531 9.96875 168.164062 9.46875 C 172.503906 8.957031 177.125 10.621094 179.828125 14.132812 C 181.003906 13.824219 182.21875 13.378906 183.441406 13.714844 C 187.113281 14.570312 190.136719 17.101562 192.5 19.941406 C 196.394531 24.476562 198.703125 30.296875 199.050781 36.261719 C 199.691406 42.605469 198.054688 48.847656 197.335938 55.109375 C 196.71875 59.171875 196.863281 63.410156 195.246094 67.265625 C 195.605469 68.894531 196.480469 70.34375 197.03125 71.914062 C 197.433594 73.074219 197.945312 74.195312 198.527344 75.28125 C 197.507812 77.714844 195.246094 79.234375 193.40625 81.007812 C 189.046875 84.671875 184.464844 88.0625 179.863281 91.417969 C 177.785156 92.839844 175.921875 94.648438 173.636719 95.71875 C 172.53125 95.179688 171.671875 94.253906 170.785156 93.425781 C 169.324219 91.839844 167.597656 90.28125 167.179688 88.058594 C 163.699219 89.5625 160.171875 91.117188 156.382812 91.613281 C 155.085938 91.78125 153.519531 91.613281 152.738281 90.421875 C 151.535156 88.847656 151.832031 86.769531 151.507812 84.941406 C 151.125 83.878906 150.058594 83.320312 149.097656 82.875 C 148.066406 82.40625 148.042969 81.140625 147.933594 80.175781 C 147.253906 79.730469 146.492188 79.304688 146.152344 78.527344 C 145.757812 77.558594 145.714844 76.5 145.492188 75.492188 C 143.992188 75.351562 142.234375 75.796875 140.96875 74.753906 C 139.859375 73.523438 140.429688 71.746094 140.671875 70.300781 C 141.300781 67.519531 141.863281 64.699219 141.65625 61.832031 C 141.882812 60.84375 140.96875 60.28125 140.441406 59.601562 C 138.964844 57.984375 138.117188 55.925781 137.574219 53.828125 C 136.582031 50.753906 136.117188 47.554688 135.578125 44.382812 C 133.574219 43.140625 131.503906 41.726562 130.480469 39.515625 C 129.746094 38.023438 129.203125 36.21875 129.824219 34.589844 C 130.242188 33.71875 131.203125 33.34375 131.988281 32.878906 C 131.5 32.113281 131.210938 31.253906 131.210938 30.34375 C 132.675781 30.375 134.1875 30.359375 135.519531 29.65625 C 135.285156 28.308594 134.890625 26.871094 135.425781 25.542969 C 135.902344 24.167969 137.300781 23.445312 138.566406 22.9375 C 144.382812 20.605469 149.832031 17.476562 155.277344 14.402344 Z M 155.277344 14.402344 " fill-opacity="1" fill-rule="nonzero"/><path fill="#030302" d="M 259.125 151.335938 C 258.484375 146.757812 257.988281 142.164062 257.761719 137.546875 C 257.445312 131.894531 257.046875 126.195312 255.535156 120.707031 C 254.691406 117.441406 253.699219 114.152344 251.90625 111.265625 C 250.382812 108.769531 247.910156 107.078125 245.480469 105.558594 C 240.167969 102.378906 234.488281 99.898438 228.957031 97.148438 C 224.355469 94.921875 219.785156 92.636719 215.101562 90.59375 C 214.296875 90.332031 214.316406 89.296875 213.710938 88.804688 C 211.320312 86.511719 208.820312 84.292969 206.835938 81.621094 C 206.097656 80.675781 205.402344 79.65625 204.421875 78.953125 C 203.335938 78.246094 202 78.105469 200.742188 78.019531 C 201.464844 79.648438 202.554688 81.066406 203.453125 82.597656 C 201.332031 86.535156 198.839844 90.257812 196.601562 94.128906 C 193.378906 99.449219 190.179688 104.785156 187.171875 110.234375 C 184.371094 115.160156 181.625 120.136719 179.246094 125.285156 C 173.214844 138.222656 168.105469 151.582031 163.914062 165.226562 C 161.90625 171.972656 159.777344 178.683594 158.03125 185.503906 C 156.902344 189.394531 156.167969 193.398438 154.808594 197.21875 C 153.765625 192.851562 153.390625 188.359375 152.839844 183.914062 C 152.125 176.714844 151.859375 169.472656 152.078125 162.242188 C 152.46875 154.214844 153.234375 146.199219 154.632812 138.28125 C 156.011719 130.484375 157.546875 122.695312 159.832031 115.109375 C 160.625 112.550781 161.324219 109.953125 162.421875 107.507812 C 162.652344 107.847656 162.875 108.195312 163.140625 108.511719 C 165.933594 108.074219 167.800781 105.828125 169.839844 104.105469 C 171.355469 104.46875 172.929688 104.636719 174.480469 104.375 C 176.027344 106.53125 177.859375 108.609375 180.304688 109.753906 C 181.007812 110.09375 181.785156 110.230469 182.566406 110.183594 C 183.375 107.914062 183.1875 105.4375 183.382812 103.0625 C 183.382812 100.472656 184.441406 97.988281 184.285156 95.390625 C 184.234375 94.363281 183.1875 93.730469 182.234375 93.894531 C 179.570312 94.207031 177.144531 95.609375 175.152344 97.359375 C 174.40625 97.015625 173.644531 96.539062 172.785156 96.742188 C 171.910156 96.742188 171.0625 97.328125 170.226562 97.191406 C 168.222656 95.582031 166.191406 93.863281 163.6875 93.097656 C 162.917969 92.816406 162.035156 93.390625 161.929688 94.183594 C 161.605469 95.789062 161.808594 97.429688 161.699219 99.054688 C 156.632812 102.015625 151.425781 104.734375 146.394531 107.769531 C 144.535156 108.84375 142.695312 109.96875 141.019531 111.316406 C 139.671875 112.371094 139.136719 114.058594 138.585938 115.605469 C 137.355469 119.308594 136.726562 123.175781 136.226562 127.035156 C 135.402344 134.140625 134.71875 141.261719 134.15625 148.394531 C 136.695312 151.191406 138.933594 154.269531 141.015625 157.421875 C 143.648438 161.472656 144.589844 166.578125 143.441406 171.28125 C 142.488281 175.179688 140.03125 178.433594 138.085938 181.867188 C 136.007812 185.199219 134.777344 188.980469 133.972656 192.800781 C 133.015625 197.011719 132.320312 201.289062 132.035156 205.597656 C 127.441406 203.605469 122.636719 202.179688 117.855469 200.722656 C 117.328125 200.640625 117.464844 199.976562 117.398438 199.605469 C 116.847656 184.621094 116.210938 169.628906 116.292969 154.632812 C 117.929688 153.644531 119.375 152.390625 120.882812 151.226562 C 123.882812 148.921875 127.167969 146.386719 131.132812 146.359375 C 123.960938 139.367188 117.125 131.886719 111.914062 123.285156 C 110.613281 120.199219 110.546875 116.664062 111.273438 113.421875 C 111.863281 110.617188 112.503906 107.820312 113.082031 105.015625 C 113.445312 103.464844 113.925781 101.847656 115.078125 100.6875 C 115.761719 99.972656 116.707031 99.320312 117.742188 99.515625 C 121.136719 99.867188 124.5625 100.304688 127.972656 99.960938 C 129.472656 99.789062 131.21875 99.117188 131.652344 97.507812 C 132.261719 96.023438 131.339844 94.585938 131.078125 93.152344 C 131.269531 92.015625 132.296875 91.339844 132.871094 90.414062 C 133.183594 89.726562 132.6875 89.039062 132.523438 88.382812 C 133.152344 87.800781 133.953125 87.292969 134.234375 86.433594 C 134.042969 85.316406 133.398438 84.347656 133.007812 83.296875 C 134.300781 82.449219 135.816406 81.832031 136.757812 80.546875 C 137.253906 79.910156 137.355469 78.902344 136.761719 78.289062 C 135.097656 76.351562 133.085938 74.671875 131.824219 72.414062 C 131.578125 71.941406 131.25 71.417969 131.464844 70.871094 C 131.96875 69.027344 132.15625 67.09375 131.90625 65.191406 C 131.8125 64.429688 131.484375 63.625 131.875 62.886719 C 133.066406 59.902344 133.695312 56.480469 132.59375 53.371094 C 131.90625 51.40625 130.828125 49.453125 129.089844 48.234375 C 128.15625 47.554688 126.964844 47.539062 125.867188 47.402344 C 125.355469 45.207031 122.980469 44.488281 121.132812 43.78125 C 113.902344 41.300781 106.316406 39.296875 98.605469 39.757812 C 93.394531 40.136719 88 41.460938 83.929688 44.90625 C 79.125 48.945312 76.339844 54.90625 75.101562 60.972656 C 73.355469 61.105469 71.753906 61.933594 70.390625 62.992188 C 67.667969 65.230469 65.890625 68.566406 65.421875 72.050781 C 65.253906 74.621094 66.066406 77.183594 67.425781 79.351562 C 67.972656 80.191406 67.816406 81.246094 68.058594 82.183594 C 68.390625 84.246094 69.476562 86.085938 70.816406 87.652344 C 70.078125 88.703125 69.4375 89.902344 69.464844 91.222656 C 69.417969 94.601562 71.101562 97.796875 73.4375 100.160156 C 74.839844 101.652344 76.839844 102.859375 77.261719 105.019531 C 77.695312 107.371094 75.921875 109.382812 75.894531 111.6875 C 75.933594 113.007812 77.035156 113.890625 78.191406 114.285156 C 77.601562 113.59375 76.59375 113.046875 76.652344 112.011719 C 76.796875 110.355469 78.019531 109.082031 78.550781 107.550781 C 79.382812 105.511719 79.152344 103.007812 77.699219 101.300781 C 75.953125 99.238281 73.636719 97.609375 72.386719 95.152344 C 71.6875 93.574219 71.175781 91.636719 72.085938 90.03125 C 73.292969 91.394531 74.539062 92.796875 76.214844 93.589844 C 78.832031 94.816406 81.953125 95.273438 84.71875 94.253906 C 86.765625 93.558594 88.144531 91.617188 88.710938 89.59375 C 89.742188 90.617188 90.65625 91.746094 91.632812 92.816406 C 91.914062 93.148438 92.277344 93.472656 92.277344 93.949219 C 92.695312 97.902344 92.558594 101.957031 91.40625 105.78125 C 89.769531 111.523438 86.121094 116.335938 83.050781 121.355469 C 80.332031 125.785156 78.320312 130.664062 77.320312 135.773438 C 75.578125 144.453125 76.257812 153.417969 77.925781 162.050781 C 79.1875 167.992188 80.695312 173.902344 82.714844 179.636719 C 86.550781 176.988281 90.15625 174.019531 93.714844 171.015625 C 94.289062 176.800781 94.726562 182.601562 95.449219 188.371094 C 96.363281 196.0625 97.472656 203.8125 100.125 211.121094 C 100.984375 213.859375 102.402344 216.640625 104.976562 218.113281 C 108.757812 220.273438 113.164062 220.761719 117.300781 221.902344 C 117.285156 217.664062 118.625 213.226562 121.800781 210.289062 C 124.203125 208.011719 127.617188 207.050781 130.875 207.25 C 135.488281 207.359375 139.691406 209.84375 142.9375 212.976562 C 145.410156 210.515625 148.433594 208.519531 151.863281 207.738281 C 155.414062 206.96875 159.316406 207.21875 162.515625 209.042969 C 165.046875 210.480469 166.679688 213.066406 167.65625 215.742188 C 169.003906 219.570312 168.59375 223.8125 167.273438 227.597656 C 170.277344 228.261719 173.355469 229.292969 175.550781 231.5625 C 176.394531 228.09375 177.507812 224.65625 179.34375 221.574219 C 181.875 217.3125 185.496094 213.441406 190.242188 211.710938 C 192.199219 211.09375 194.371094 210.6875 196.386719 211.28125 C 197.890625 211.734375 198.617188 213.242188 199.050781 214.632812 C 200.660156 212.886719 202.324219 211.148438 204.320312 209.847656 C 206.625 208.363281 209.4375 207.265625 212.207031 207.839844 C 213.632812 208.140625 214.625 209.269531 215.453125 210.382812 C 217.996094 207.105469 220.742188 203.507812 224.902344 202.273438 C 227.113281 201.550781 229.628906 202.34375 231.03125 204.195312 C 232.8125 200.449219 235.394531 196.761719 239.257812 194.964844 C 241.144531 194.070312 243.398438 194.226562 245.085938 195.484375 C 246.105469 191.753906 248.035156 188.171875 251.023438 185.660156 C 253.039062 183.945312 256.207031 183.363281 258.503906 184.84375 C 259.800781 185.640625 260.511719 187.023438 261.257812 188.292969 C 261.417969 186.828125 261.445312 185.355469 261.453125 183.886719 C 261.640625 172.992188 260.660156 162.113281 259.125 151.335938 Z M 131.644531 61.867188 C 131.242188 59.121094 130.472656 56.449219 129.628906 53.8125 C 131.773438 55.863281 132.253906 59.066406 131.644531 61.867188 Z M 183.585938 131.105469 C 183.285156 128.679688 185.375 126.738281 187.296875 125.640625 C 185.429688 125.726562 183.617188 124.722656 182.429688 123.332031 C 181.976562 122.675781 181.417969 121.539062 182.226562 120.949219 C 183.980469 119.460938 186.519531 119.707031 188.585938 120.289062 C 187.761719 118.765625 187.523438 116.96875 187.835938 115.273438 C 187.988281 114.683594 188.21875 114.058594 188.746094 113.707031 C 189.554688 113.496094 190.414062 113.835938 191.027344 114.363281 C 192.269531 115.425781 193.171875 116.832031 193.800781 118.328125 C 194.988281 116.546875 196.644531 114.832031 198.835938 114.453125 C 199.554688 114.316406 200.152344 114.992188 200.253906 115.652344 C 200.523438 117.582031 199.820312 119.496094 198.882812 121.148438 C 201.097656 120.847656 203.734375 121.019531 205.347656 122.761719 C 205.941406 123.296875 205.566406 124.191406 205.082031 124.660156 C 203.671875 126.132812 201.589844 126.957031 199.554688 126.8125 C 200.96875 128.035156 202.269531 129.625 202.578125 131.519531 C 202.78125 132.460938 202.085938 133.527344 201.0625 133.464844 C 199.023438 133.351562 197.097656 132.328125 195.699219 130.867188 C 195.652344 132.742188 195.097656 134.648438 193.855469 136.085938 C 193.265625 136.761719 192.152344 136.976562 191.511719 136.25 C 190.035156 134.699219 189.863281 132.332031 190.210938 130.316406 C 188.8125 131.339844 187.144531 132.015625 185.421875 132.214844 C 184.652344 132.328125 183.59375 132.046875 183.585938 131.105469 Z M 192.222656 147.828125 C 190.277344 147.964844 188.335938 148.066406 186.390625 148.070312 C 188.480469 145.8125 190.523438 143.507812 192.808594 141.441406 C 194.796875 139.574219 197.035156 137.726562 199.777344 137.167969 C 201.347656 136.800781 202.886719 138.054688 203.269531 139.53125 C 203.582031 140.730469 203.828125 141.953125 204.28125 143.113281 C 204.980469 142.609375 205.679688 142.089844 206.46875 141.726562 C 207.289062 143.226562 207.863281 144.851562 208.441406 146.460938 C 203.050781 147.078125 197.628906 147.386719 192.222656 147.828125 Z M 192.222656 147.828125 " fill-opacity="1" fill-rule="nonzero"/><path fill="#030302" d="M 64.472656 61.863281 C 67.035156 59.585938 70.269531 57.796875 73.769531 57.769531 C 72.464844 58.347656 71.09375 58.800781 69.878906 59.570312 C 67.25 61.117188 65.195312 63.421875 63.234375 65.710938 C 59.347656 70.546875 56.28125 75.96875 53.4375 81.457031 C 48.691406 90.613281 44.839844 100.203125 41.25 109.859375 C 38.664062 116.820312 36.453125 123.914062 34.28125 131.015625 C 28.804688 149.507812 25.234375 168.535156 23.078125 187.691406 C 22.867188 189.125 22.910156 190.609375 22.53125 192.015625 C 22.328125 189.222656 22.554688 186.417969 22.695312 183.625 C 23.460938 168.410156 25.695312 153.285156 29.300781 138.484375 C 33.339844 121.675781 38.71875 105.136719 46.125 89.496094 C 48.410156 84.753906 50.976562 80.15625 53.691406 75.648438 C 56.769531 70.691406 60.070312 65.757812 64.472656 61.863281 Z M 64.472656 61.863281 " fill-opacity="1" fill-rule="nonzero"/><path fill="#030302" d="M 63.773438 81.996094 C 64.214844 83.085938 64.355469 84.265625 64.601562 85.410156 C 65.476562 89.484375 66.542969 93.519531 67.746094 97.507812 C 68.945312 101.960938 70.519531 106.382812 70.769531 111.03125 C 71.035156 117.59375 68.597656 123.867188 65.957031 129.75 C 63.296875 135.429688 60.761719 141.261719 59.757812 147.496094 C 58.414062 154.640625 58.855469 161.992188 60.222656 169.09375 C 62.558594 180.851562 67.667969 191.9375 74.261719 201.894531 C 74.660156 202.511719 75.082031 203.128906 75.378906 203.8125 C 74.476562 203.171875 73.832031 202.253906 73.140625 201.40625 C 65.835938 192.410156 60.640625 181.777344 57.585938 170.617188 C 55.683594 163.128906 55.054688 155.273438 56.113281 147.605469 C 57.011719 140.9375 59.078125 134.453125 62.039062 128.417969 C 64.199219 123.722656 66.664062 119.066406 67.609375 113.933594 C 68.304688 110.125 67.703125 106.238281 66.878906 102.5 C 65.449219 95.742188 63.808594 88.941406 63.773438 81.996094 Z M 63.773438 81.996094 " fill-opacity="1" fill-rule="nonzero"/><path fill="#030302" d="M 57.660156 97.453125 C 58.289062 95.691406 58.722656 93.851562 59.558594 92.171875 C 56.78125 104.800781 53.636719 117.347656 50.847656 129.976562 C 47.191406 145.414062 43.957031 160.988281 42.261719 176.777344 C 41.582031 182.804688 41.398438 188.871094 41.398438 194.929688 C 40.90625 194.476562 40.890625 193.773438 40.757812 193.175781 C 39.796875 187.371094 39.894531 181.460938 40.046875 175.601562 C 40.800781 159.75 43.761719 144.058594 48.015625 128.785156 C 50.972656 118.265625 54.324219 107.859375 57.660156 97.453125 Z M 57.660156 97.453125 " fill-opacity="1" fill-rule="nonzero"/><path fill="#030302" d="M 168.300781 118.457031 C 169.125 118.042969 170.34375 118.6875 170.289062 119.671875 C 170.367188 120.75 168.902344 121.425781 168.089844 120.765625 C 167.277344 120.246094 167.378906 118.8125 168.300781 118.457031 Z M 168.300781 118.457031 " fill-opacity="1" fill-rule="nonzero"/><path fill="#030302" d="M 192.90625 122.371094 C 194.015625 122.117188 195.351562 122.703125 195.632812 123.878906 C 196.308594 125.699219 193.949219 127.554688 192.324219 126.492188 C 190.667969 125.59375 191.011719 122.738281 192.90625 122.371094 Z M 192.90625 122.371094 " fill-opacity="1" fill-rule="nonzero"/><path fill="#030302" d="M 162.949219 140.957031 C 164.15625 140.371094 165.496094 142.148438 164.515625 143.113281 C 163.898438 143.953125 162.375 143.605469 162.175781 142.597656 C 161.972656 141.9375 162.320312 141.21875 162.949219 140.957031 Z M 162.949219 140.957031 " fill-opacity="1" fill-rule="nonzero"/><path fill="#030302" d="M 158.425781 166.078125 C 159.367188 165.476562 160.832031 166.445312 160.554688 167.542969 C 160.351562 168.636719 158.78125 168.917969 158.101562 168.105469 C 157.464844 167.550781 157.6875 166.429688 158.425781 166.078125 Z M 158.425781 166.078125 " fill-opacity="1" fill-rule="nonzero"/><path fill="#030302" d="M 30.417969 188.320312 C 32.210938 189.347656 33.390625 191.144531 34.421875 192.882812 C 37.054688 197.402344 37.515625 203.03125 35.929688 207.988281 C 35.351562 209.8125 34.53125 211.613281 33.191406 213.015625 C 29.082031 209.617188 27.054688 204.15625 27.160156 198.90625 C 27.054688 195.15625 28.019531 191.265625 30.417969 188.320312 Z M 30.417969 188.320312 " fill-opacity="1" fill-rule="nonzero"/><path fill="#030302" d="M 255.078125 188.765625 C 255.753906 188.574219 256.0625 189.371094 256.429688 189.785156 C 259.078125 193.828125 259.269531 199 258.359375 203.625 C 257.664062 207.296875 255.613281 210.652344 252.730469 213.015625 C 250.6875 210.683594 249.6875 207.648438 249.226562 204.632812 C 248.539062 199.542969 249.960938 194.128906 253.332031 190.222656 C 253.851562 189.667969 254.410156 189.128906 255.078125 188.765625 Z M 255.078125 188.765625 " fill-opacity="1" fill-rule="nonzero"/><path fill="#030302" d="M 44.222656 199.347656 C 44.539062 198.773438 45.152344 199.492188 45.503906 199.683594 C 52.203125 205.257812 54.085938 215.578125 50.140625 223.285156 C 45.917969 220.765625 43.273438 216.121094 42.390625 211.363281 C 41.667969 207.324219 42.042969 202.894531 44.222656 199.347656 Z M 44.222656 199.347656 " fill-opacity="1" fill-rule="nonzero"/><path fill="#030302" d="M 236.734375 203.964844 C 237.949219 202.09375 239.257812 200.136719 241.28125 199.066406 C 242.964844 200.925781 243.632812 203.488281 243.925781 205.925781 C 244.398438 211.007812 242.746094 216.210938 239.484375 220.121094 C 238.445312 221.316406 237.269531 222.421875 235.839844 223.140625 C 232.734375 217.179688 233.152344 209.625 236.734375 203.964844 Z M 236.734375 203.964844 " fill-opacity="1" fill-rule="nonzero"/><g clip-path="url(#012c57ad69)"><path fill="#030302" d="M 3.171875 200.300781 C 11.953125 198.304688 21.625 203.910156 24.632812 212.328125 C 20.628906 213.582031 16.160156 212.90625 12.46875 211 C 8.136719 208.867188 4.507812 205 3.171875 200.300781 Z M 3.171875 200.300781 " fill-opacity="1" fill-rule="nonzero"/></g><g clip-path="url(#b334a6c4a9)"><path fill="#030302" d="M 268.914062 202.9375 C 272.964844 200.265625 278.179688 199.050781 282.902344 200.433594 C 280.40625 207.75 272.949219 213.117188 265.191406 212.933594 C 263.949219 212.9375 262.710938 212.707031 261.542969 212.28125 C 262.546875 208.296875 265.558594 205.140625 268.914062 202.9375 Z M 268.914062 202.9375 " fill-opacity="1" fill-rule="nonzero"/></g><path fill="#030302" d="M 59.105469 207.210938 C 59.421875 206.398438 60.335938 207.117188 60.832031 207.351562 C 65.382812 210.230469 68.089844 215.429688 68.925781 220.652344 C 69.300781 223.875 69.046875 227.277344 67.6875 230.261719 C 63.230469 227.894531 60.039062 223.480469 58.757812 218.636719 C 57.695312 214.925781 57.671875 210.824219 59.105469 207.210938 Z M 59.105469 207.210938 " fill-opacity="1" fill-rule="nonzero"/><path fill="#030302" d="M 221.105469 211 C 222.511719 209.167969 224.261719 207.421875 226.542969 206.777344 C 228.507812 210.417969 228.292969 214.839844 227.226562 218.71875 C 225.796875 223.429688 222.832031 227.972656 218.355469 230.25 C 215.777344 223.945312 216.925781 216.347656 221.105469 211 Z M 221.105469 211 " fill-opacity="1" fill-rule="nonzero"/><path fill="#030302" d="M 26.855469 211.660156 C 27.949219 212.332031 28.851562 213.269531 29.847656 214.070312 C 34.941406 218.230469 40.570312 221.710938 46.476562 224.585938 C 58.53125 230.722656 71.675781 234.402344 84.9375 236.800781 C 91.59375 238.042969 98.328125 238.734375 105.066406 239.339844 C 104.960938 239.996094 104.855469 240.660156 104.757812 241.324219 C 97.640625 241 90.574219 239.941406 83.578125 238.632812 C 70.433594 236.082031 57.484375 232.058594 45.644531 225.722656 C 38.824219 221.875 32.203125 217.433594 26.855469 211.660156 Z M 26.855469 211.660156 " fill-opacity="1" fill-rule="nonzero"/><path fill="#030302" d="M 245.519531 221.367188 C 250.382812 218.636719 254.785156 215.175781 259.085938 211.648438 C 253.765625 217.421875 247.257812 222.023438 240.390625 225.792969 C 226.769531 232.925781 211.808594 237.171875 196.675781 239.640625 C 191.5 240.398438 186.296875 241.082031 181.066406 241.324219 C 180.957031 240.664062 180.855469 240 180.773438 239.339844 C 186.144531 238.785156 191.542969 238.394531 196.871094 237.46875 C 206.207031 236.023438 215.421875 233.832031 224.40625 230.910156 C 231.699219 228.339844 238.835938 225.261719 245.519531 221.367188 Z M 245.519531 221.367188 " fill-opacity="1" fill-rule="nonzero"/><path fill="#030302" d="M 75.21875 212.039062 C 79.574219 213.582031 82.929688 217.199219 84.910156 221.292969 C 86.921875 225.417969 87.179688 230.210938 86.265625 234.660156 C 82.460938 233.15625 79.359375 230.171875 77.175781 226.757812 C 74.46875 222.449219 73.527344 216.902344 75.21875 212.039062 Z M 75.21875 212.039062 " fill-opacity="1" fill-rule="nonzero"/><path fill="#030302" d="M 126.496094 212.769531 C 128.40625 211.738281 130.699219 211.820312 132.738281 212.390625 C 137.019531 213.664062 140.453125 217.054688 142.390625 221.007812 C 142.734375 221.570312 142.347656 222.207031 142.257812 222.789062 C 141.570312 225.207031 141.464844 227.730469 141.332031 230.226562 C 141.292969 232.167969 141.5625 234.101562 141.476562 236.050781 C 140.609375 234.367188 140.0625 232.539062 139.078125 230.914062 C 137.351562 227.925781 135.308594 224.839844 132.152344 223.226562 C 132.480469 227.433594 134.761719 231.132812 137.019531 234.574219 C 137.648438 235.507812 138.375 236.386719 138.839844 237.429688 C 137.148438 236.679688 135.675781 235.539062 134.03125 234.699219 C 131.410156 233.34375 128.777344 231.855469 125.839844 231.332031 C 123.300781 227.453125 121.917969 222.625 122.863281 218.007812 C 123.296875 215.867188 124.542969 213.828125 126.496094 212.769531 Z M 126.496094 212.769531 " fill-opacity="1" fill-rule="nonzero"/><path fill="#030302" d="M 153.742188 212.285156 C 155.980469 211.773438 158.570312 211.859375 160.429688 213.375 C 162.480469 214.898438 163.21875 217.542969 163.417969 219.980469 C 163.683594 223.929688 162.375 227.871094 160.242188 231.15625 C 159.605469 231.617188 158.691406 231.511719 157.964844 231.824219 C 154.183594 233.207031 150.832031 235.488281 147.324219 237.410156 C 149.042969 234.078125 151.445312 231.109375 152.777344 227.574219 C 153.289062 226.175781 153.785156 224.714844 153.691406 223.207031 C 151.738281 224.191406 150.238281 225.839844 149.015625 227.628906 C 147.109375 230.199219 145.84375 233.152344 144.539062 236.050781 C 144.652344 231.40625 145.148438 226.605469 143.644531 222.105469 C 143.265625 221.402344 143.828125 220.773438 144.136719 220.179688 C 146.191406 216.476562 149.570312 213.347656 153.742188 212.285156 Z M 153.742188 212.285156 " fill-opacity="1" fill-rule="nonzero"/><path fill="#030302" d="M 200.808594 221.933594 C 202.539062 217.449219 206.1875 213.667969 210.753906 212.074219 C 212.03125 215.472656 211.878906 219.28125 210.753906 222.699219 C 208.941406 227.996094 204.816406 232.414062 199.71875 234.679688 C 198.757812 230.453125 199.132812 225.929688 200.808594 221.933594 Z M 200.808594 221.933594 " fill-opacity="1" fill-rule="nonzero"/><path fill="#030302" d="M 92.152344 215.277344 C 96.746094 216.753906 100.417969 220.335938 102.699219 224.523438 C 104.820312 228.222656 105.679688 232.628906 105.125 236.855469 C 100.039062 235.503906 95.941406 231.59375 93.539062 227.003906 C 91.664062 223.449219 91.03125 219.160156 92.152344 215.277344 Z M 92.152344 215.277344 " fill-opacity="1" fill-rule="nonzero"/><path fill="#030302" d="M 184.085938 223.117188 C 186.394531 219.667969 189.664062 216.617188 193.746094 215.507812 C 195.300781 219.929688 194.039062 224.859375 191.578125 228.695312 C 189.097656 232.535156 185.375 235.847656 180.84375 236.921875 C 179.945312 232.121094 181.484375 227.148438 184.085938 223.117188 Z M 184.085938 223.117188 " fill-opacity="1" fill-rule="nonzero"/><path fill="#030302" d="M 259.289062 219.578125 C 265.210938 218.917969 271.59375 221.046875 275.417969 225.734375 C 271.472656 228.773438 266.148438 229.433594 261.355469 228.558594 C 257.199219 227.722656 253.132812 225.792969 250.285156 222.582031 C 253 220.902344 256.144531 220.015625 259.289062 219.578125 Z M 259.289062 219.578125 " fill-opacity="1" fill-rule="nonzero"/><path fill="#030302" d="M 10.523438 225.765625 C 14.042969 221.488281 19.730469 219.269531 25.207031 219.488281 C 28.859375 219.683594 32.546875 220.605469 35.675781 222.542969 C 32.046875 226.5 26.710938 228.703125 21.390625 228.929688 C 17.5625 229.074219 13.625 228.074219 10.523438 225.765625 Z M 10.523438 225.765625 " fill-opacity="1" fill-rule="nonzero"/><path fill="#030302" d="M 36.039062 231.75 C 40.882812 229.445312 46.691406 229.652344 51.570312 231.722656 C 48.617188 236.367188 43.53125 239.503906 38.164062 240.492188 C 34.6875 241 30.945312 241.007812 27.71875 239.441406 C 29.445312 235.976562 32.617188 233.425781 36.039062 231.75 Z M 36.039062 231.75 " fill-opacity="1" fill-rule="nonzero"/><path fill="#030302" d="M 234.296875 231.722656 C 237.316406 230.230469 240.816406 229.886719 244.140625 230.140625 C 249.9375 230.777344 255.542969 234.191406 258.3125 239.394531 C 254.871094 241.050781 250.875 241.085938 247.195312 240.332031 C 241.996094 239.269531 237.292969 236.101562 234.296875 231.722656 Z M 234.296875 231.722656 " fill-opacity="1" fill-rule="nonzero"/><path fill="#030302" d="M 114.898438 234.375 C 118.046875 232.589844 121.707031 231.820312 125.300781 231.875 C 127.132812 234.449219 129.839844 236.238281 132.566406 237.746094 C 134.140625 238.625 135.867188 239.195312 137.40625 240.144531 C 133.183594 239.753906 128.871094 239.339844 124.695312 240.328125 C 123.484375 240.605469 122.308594 241.050781 121.25 241.703125 C 122.914062 242.925781 125.03125 243.195312 127.027344 243.40625 C 130.054688 243.644531 133.121094 243.484375 136.089844 242.84375 C 136.597656 242.730469 137.121094 242.710938 137.640625 242.703125 C 136.640625 243.511719 135.386719 243.875 134.269531 244.480469 C 130.886719 246.242188 127.53125 248.328125 125.226562 251.445312 C 124.597656 251.730469 123.84375 251.527344 123.171875 251.554688 C 119.167969 251.242188 115.046875 249.921875 112.1875 246.984375 C 110.179688 244.964844 109.285156 241.789062 110.355469 239.089844 C 111.15625 236.972656 113 235.484375 114.898438 234.375 Z M 114.898438 234.375 " fill-opacity="1" fill-rule="nonzero"/><path fill="#030302" d="M 160.695312 231.964844 L 160.898438 231.839844 C 164.953125 231.785156 169.078125 232.890625 172.398438 235.261719 C 174.1875 236.59375 175.8125 238.480469 176.046875 240.785156 C 176.332031 243.375 174.976562 245.882812 173.09375 247.574219 C 169.925781 250.363281 165.625 251.53125 161.484375 251.691406 C 160.996094 251.785156 160.75 251.308594 160.492188 251.003906 C 158.171875 248.019531 154.851562 246.023438 151.507812 244.367188 C 150.507812 243.847656 149.417969 243.4375 148.578125 242.664062 C 150.347656 242.785156 152.050781 243.378906 153.828125 243.46875 C 157.542969 243.695312 161.480469 243.515625 164.84375 241.742188 C 159.90625 239.117188 154.085938 239.597656 148.71875 240.132812 C 149.957031 239.210938 151.457031 238.785156 152.808594 238.082031 C 155.789062 236.585938 158.71875 234.707031 160.695312 231.964844 Z M 160.695312 231.964844 " fill-opacity="1" fill-rule="nonzero"/><g clip-path="url(#812a3a50be)"><path fill="#030302" d="M 140.507812 236.988281 C 143.339844 235.203125 147.574219 237.164062 148.070312 240.476562 C 148.457031 242.144531 147.566406 243.726562 146.503906 244.933594 C 145.96875 245.546875 145.085938 245.683594 144.523438 246.25 C 144.539062 246.855469 144.867188 247.386719 145.078125 247.945312 C 146.574219 251.621094 148.277344 255.324219 151.042969 258.234375 C 151.816406 259.0625 152.78125 259.695312 153.78125 260.222656 C 153.585938 254.46875 149.640625 249.933594 146.925781 245.160156 C 150.03125 247.0625 152.992188 249.246094 156.386719 250.644531 C 157.648438 251.273438 159.058594 251.53125 160.359375 252.074219 C 162.410156 255.011719 163.386719 258.601562 163.464844 262.15625 C 163.375 264.773438 162.710938 267.570312 160.828125 269.488281 C 158.761719 271.53125 155.503906 271.539062 152.898438 270.691406 C 149.0625 269.296875 145.925781 266.332031 143.898438 262.828125 C 143.707031 262.429688 143.308594 261.996094 143.550781 261.535156 C 145.035156 256.863281 144.847656 251.867188 144.425781 247.042969 C 144.367188 246.925781 144.253906 246.691406 144.199219 246.574219 C 143.476562 245.996094 142.488281 246.386719 141.644531 246.292969 C 141.386719 251.222656 141.132812 256.257812 142.429688 261.078125 C 142.515625 261.476562 142.742188 261.921875 142.488281 262.320312 C 140.707031 265.601562 137.964844 268.402344 134.632812 270.105469 C 132.136719 271.378906 129.007812 271.765625 126.460938 270.417969 C 124.175781 269.152344 123.097656 266.519531 122.722656 264.054688 C 122.382812 260.59375 123.035156 257.042969 124.554688 253.921875 C 125.027344 253.078125 125.476562 252.027344 126.527344 251.804688 C 131.035156 250.328125 135.179688 247.921875 138.996094 245.136719 C 137.671875 247.753906 135.808594 250.066406 134.472656 252.683594 C 133.28125 255.023438 132.257812 257.542969 132.171875 260.203125 C 135.277344 258.90625 137.089844 255.835938 138.613281 253 C 139.761719 250.792969 140.675781 248.476562 141.636719 246.1875 C 139.820312 245.398438 137.917969 243.890625 137.90625 241.734375 C 137.648438 239.804688 138.78125 237.839844 140.507812 236.988281 Z M 140.507812 236.988281 " fill-opacity="1" fill-rule="nonzero"/></g><path fill="#030302" d="M 50.421875 243.304688 C 54.75 238.335938 61.828125 236.027344 68.261719 237.371094 C 66.816406 242.304688 62.777344 246.085938 58.277344 248.3125 C 54.78125 249.921875 50.738281 251.011719 46.933594 249.90625 C 47.320312 247.390625 48.777344 245.1875 50.421875 243.304688 Z M 50.421875 243.304688 " fill-opacity="1" fill-rule="nonzero"/><path fill="#030302" d="M 217.628906 237.421875 C 222.796875 236.253906 228.410156 237.601562 232.609375 240.804688 C 235.613281 243.082031 238.167969 246.148438 239.21875 249.824219 C 236.105469 250.96875 232.699219 250.21875 229.652344 249.214844 C 224.226562 247.277344 219.316406 243.070312 217.628906 237.421875 Z M 217.628906 237.421875 " fill-opacity="1" fill-rule="nonzero"/><path fill="#030302" d="M 72.449219 245.871094 C 76.34375 242.785156 81.4375 241.40625 86.363281 241.753906 C 85.417969 246.277344 82.332031 250.046875 78.742188 252.800781 C 75.191406 255.5 70.753906 257.128906 66.273438 256.976562 C 66.496094 252.589844 69.015625 248.511719 72.449219 245.871094 Z M 72.449219 245.871094 " fill-opacity="1" fill-rule="nonzero"/><path fill="#030302" d="M 199.605469 241.675781 C 204.382812 241.429688 209.324219 242.644531 213.1875 245.550781 C 216.832031 248.1875 219.5 252.402344 219.675781 256.976562 C 214.207031 257.097656 208.792969 254.769531 204.957031 250.902344 C 202.429688 248.375 200.300781 245.222656 199.605469 241.675781 Z M 199.605469 241.675781 " fill-opacity="1" fill-rule="nonzero"/><path fill="#030302" d="M 89.976562 250.320312 C 93.347656 246.652344 98.273438 244.09375 103.328125 244.359375 C 102.925781 249.476562 100.101562 254.253906 96.085938 257.382812 C 93.136719 259.75 89.546875 261.457031 85.734375 261.683594 C 85.386719 257.503906 87.355469 253.457031 89.976562 250.320312 Z M 89.976562 250.320312 " fill-opacity="1" fill-rule="nonzero"/><path fill="#030302" d="M 182.550781 244.300781 C 190.78125 243.984375 198.375 250.433594 200.054688 258.382812 C 200.296875 259.460938 200.324219 260.570312 200.285156 261.675781 C 195.175781 261.304688 190.425781 258.5625 187.078125 254.753906 C 184.605469 251.824219 182.710938 248.191406 182.550781 244.300781 Z M 182.550781 244.300781 " fill-opacity="1" fill-rule="nonzero"/></svg>