<svg xmlns="http://www.w3.org/2000/svg" xmlns:xlink="http://www.w3.org/1999/xlink" width="378" zoomAndPan="magnify" viewBox="0 0 282.96 283.499989" height="378" preserveAspectRatio="xMidYMid meet" version="1.0"><defs><clipPath id="60a044751b"><path d="M 70 14.339844 L 213 14.339844 L 213 42 L 70 42 Z M 70 14.339844 " clip-rule="nonzero"/></clipPath><clipPath id="859fec428f"><path d="M 58.273438 37 L 225.230469 37 L 225.230469 268.890625 L 58.273438 268.890625 Z M 58.273438 37 " clip-rule="nonzero"/></clipPath></defs><g clip-path="url(#60a044751b)"><path fill="#000000" d="M 118.292969 14.742188 C 99.097656 15.941406 84.363281 18.34375 78.664062 21.195312 C 76.226562 22.433594 76.226562 22.46875 74.390625 26.183594 C 73.375 28.246094 72.175781 30.835938 71.691406 31.921875 L 70.789062 33.910156 L 72.738281 34.8125 C 78.851562 37.585938 94.296875 40.023438 114.84375 41.449219 C 124.40625 42.089844 160.546875 42.125 169.207031 41.449219 C 190.054688 39.875 202.652344 37.886719 210.375 35 C 211.574219 34.546875 212.511719 33.949219 212.511719 33.683594 C 212.511719 32.972656 208.089844 23.332031 207.375 22.582031 C 207.074219 22.246094 205.875 21.496094 204.640625 20.96875 C 199.390625 18.605469 188.441406 16.65625 172.769531 15.265625 C 164.820312 14.554688 127.179688 14.21875 118.292969 14.742188 Z M 118.292969 14.742188 " fill-opacity="1" fill-rule="nonzero"/></g><g clip-path="url(#859fec428f)"><path fill="#000000" d="M 62.203125 38.113281 C 60.816406 39.800781 60.253906 44.527344 61.003906 47.941406 C 61.152344 48.691406 60.964844 50.003906 60.402344 51.726562 C 58.90625 56.53125 58.304688 62.269531 58.566406 68.757812 C 58.679688 71.945312 58.941406 75.285156 59.128906 76.148438 C 59.355469 77.273438 59.316406 77.949219 58.980469 78.398438 C 58.078125 79.710938 58.042969 81.136719 58.828125 85.152344 C 59.804688 90.214844 60.292969 90.890625 63.214844 90.890625 L 65.242188 90.890625 L 65.015625 93.214844 C 62.242188 120.410156 65.578125 157.171875 73.675781 189.359375 C 78.589844 208.902344 84.175781 225.21875 92.683594 244.835938 L 95.910156 252.265625 L 95.910156 255.941406 C 95.910156 260.140625 96.511719 261.492188 99.097656 262.957031 C 108.359375 268.246094 141.949219 270.421875 166.769531 267.34375 C 176.855469 266.105469 183.566406 264.191406 185.96875 261.90625 C 187.355469 260.59375 187.390625 260.480469 187.429688 257.777344 C 187.46875 256.242188 187.46875 254.515625 187.429688 253.914062 C 187.390625 253.316406 188.628906 250.015625 190.355469 246.039062 C 204.039062 214.867188 213.523438 180.730469 217.386719 149.03125 C 219.523438 131.253906 219.972656 111.933594 218.660156 94.339844 L 218.398438 90.890625 L 220.273438 90.890625 C 223.046875 90.890625 223.683594 90.214844 224.546875 86.351562 C 225.371094 82.675781 225.449219 79.300781 224.773438 78.363281 C 224.398438 77.835938 224.398438 77.011719 224.808594 73.898438 C 225.746094 66.734375 224.921875 56.90625 222.824219 51.128906 C 222.335938 49.703125 222.296875 49.027344 222.636719 46.703125 C 223.160156 43.4375 222.824219 40.511719 221.8125 38.824219 C 221.398438 38.1875 220.984375 37.625 220.910156 37.625 C 220.835938 37.625 220.160156 38.300781 219.410156 39.125 C 215.398438 43.550781 201.902344 46.964844 180.269531 49.027344 C 159.046875 51.054688 128.980469 51.242188 107.90625 49.441406 C 90.136719 47.902344 76.039062 45.390625 69.253906 42.539062 C 66.402344 41.335938 63.816406 39.460938 63.480469 38.375 C 63.214844 37.511719 62.804688 37.4375 62.203125 38.113281 Z M 69.027344 54.277344 C 71.691406 55.140625 72.289062 55.480469 72.101562 55.96875 C 71.539062 57.355469 68.953125 68.195312 68.128906 72.398438 L 67.265625 77.011719 L 65.503906 77.011719 C 63.816406 77.011719 63.742188 76.972656 63.515625 75.773438 C 63.402344 75.136719 63.179688 71.871094 63.066406 68.535156 C 62.878906 63.730469 62.953125 61.707031 63.480469 58.628906 C 64.226562 54.128906 64.601562 52.890625 65.277344 53.078125 C 65.503906 53.152344 67.226562 53.679688 69.027344 54.277344 Z M 219.671875 56.453125 C 220.386719 59.417969 220.535156 60.957031 220.535156 66.695312 C 220.574219 70.410156 220.421875 74.234375 220.273438 75.210938 L 219.972656 77.011719 L 216.375 77.011719 L 215.699219 73.523438 C 214.910156 69.285156 212.8125 60.769531 211.835938 57.617188 L 211.085938 55.253906 L 212.664062 54.878906 C 213.488281 54.652344 215.0625 54.167969 216.074219 53.792969 C 217.125 53.417969 218.136719 53.078125 218.398438 53.042969 C 218.625 53.003906 219.1875 54.464844 219.671875 56.453125 Z M 145.402344 66.582031 C 145.402344 71.382812 144.875 78.625 144.238281 83.464844 L 143.789062 86.765625 L 141.949219 86.765625 C 140.828125 86.765625 140.078125 86.578125 139.964844 86.277344 C 139.589844 85.261719 138.652344 74.609375 138.425781 68.644531 L 138.164062 62.382812 L 145.402344 62.382812 Z M 205.015625 143.03125 C 203.328125 173.527344 195.867188 204.210938 183.082031 233.285156 C 180.457031 239.285156 179.59375 240.484375 177.570312 240.898438 C 174.046875 241.648438 170.519531 238.910156 170.519531 235.460938 C 170.519531 234.746094 171.90625 231.410156 174.046875 227.019531 C 189.191406 195.621094 199.089844 164.601562 204.078125 132.714844 C 204.601562 129.414062 205.050781 126.527344 205.089844 126.339844 C 205.390625 124.914062 205.351562 137.066406 205.015625 143.03125 Z M 205.015625 143.03125 " fill-opacity="1" fill-rule="nonzero"/></g></svg>