<svg xmlns="http://www.w3.org/2000/svg" xmlns:xlink="http://www.w3.org/1999/xlink" width="378" zoomAndPan="magnify" viewBox="0 0 282.96 283.499989" height="378" preserveAspectRatio="xMidYMid meet" version="1.0"><defs><clipPath id="7df024878b"><path d="M 67.378906 16 L 219 16 L 219 267.316406 L 67.378906 267.316406 Z M 67.378906 16 " clip-rule="nonzero"/></clipPath></defs><g clip-path="url(#7df024878b)"><path fill="#000000" d="M 148.042969 20.457031 C 146.628906 17.15625 143.328125 15.738281 140.027344 16.210938 L 133.894531 17.628906 C 133.441406 17.691406 133 17.789062 132.5625 17.933594 C 132.128906 18.074219 131.710938 18.253906 131.308594 18.46875 C 130.90625 18.683594 130.527344 18.9375 130.167969 19.222656 C 129.808594 19.503906 129.480469 19.820312 129.179688 20.164062 C 128.878906 20.507812 128.609375 20.878906 128.375 21.269531 C 128.140625 21.664062 127.945312 22.074219 127.78125 22.5 C 127.621094 22.929688 127.5 23.367188 127.417969 23.816406 C 127.335938 24.265625 127.292969 24.722656 127.292969 25.179688 L 127.292969 192.703125 C 124.1875 190.992188 120.917969 189.695312 117.484375 188.816406 C 114.050781 187.9375 110.558594 187.503906 107.015625 187.511719 C 85.320312 187.511719 67.398438 205.445312 67.398438 227.152344 C 67.398438 249.332031 85.320312 267.265625 107.015625 267.265625 C 108.328125 267.265625 109.636719 267.203125 110.945312 267.074219 C 112.25 266.945312 113.550781 266.753906 114.835938 266.5 C 116.125 266.246094 117.398438 265.925781 118.65625 265.546875 C 119.910156 265.164062 121.148438 264.722656 122.359375 264.21875 C 123.574219 263.71875 124.757812 263.15625 125.917969 262.539062 C 127.074219 261.917969 128.199219 261.246094 129.292969 260.515625 C 130.386719 259.785156 131.4375 259.003906 132.453125 258.171875 C 133.46875 257.335938 134.441406 256.457031 135.371094 255.527344 C 136.296875 254.597656 137.179688 253.625 138.011719 252.609375 C 138.84375 251.59375 139.625 250.539062 140.355469 249.445312 C 141.085938 248.351562 141.757812 247.226562 142.378906 246.066406 C 142.996094 244.910156 143.554688 243.722656 144.058594 242.507812 C 144.558594 241.292969 145 240.058594 145.382812 238.800781 C 145.761719 237.542969 146.082031 236.269531 146.335938 234.980469 C 146.589844 233.691406 146.78125 232.394531 146.910156 231.085938 C 147.039062 229.777344 147.101562 228.46875 147.101562 227.152344 L 147.101562 77.089844 C 165.019531 87 231.519531 103.515625 176.8125 171.46875 C 173.511719 175.246094 184.355469 183.269531 187.660156 179.960938 C 265 103.042969 174.925781 67.179688 148.042969 20.457031 Z M 107.015625 209.328125 C 97.359375 209.328125 89.203125 217.492188 89.203125 227.152344 C 89.203125 227.667969 89.101562 228.164062 88.90625 228.640625 C 88.710938 229.117188 88.429688 229.535156 88.066406 229.898438 C 87.699219 230.261719 87.28125 230.542969 86.804688 230.742188 C 86.332031 230.9375 85.835938 231.035156 85.320312 231.035156 C 84.804688 231.035156 84.3125 230.9375 83.835938 230.742188 C 83.359375 230.542969 82.941406 230.261719 82.578125 229.898438 C 82.210938 229.535156 81.933594 229.117188 81.734375 228.640625 C 81.539062 228.164062 81.441406 227.667969 81.441406 227.152344 C 81.441406 213.28125 93.152344 201.5625 107.015625 201.5625 C 107.53125 201.5625 108.023438 201.660156 108.5 201.855469 C 108.976562 202.054688 109.394531 202.335938 109.757812 202.699219 C 110.121094 203.0625 110.402344 203.484375 110.601562 203.960938 C 110.796875 204.433594 110.894531 204.929688 110.894531 205.445312 C 110.894531 205.960938 110.796875 206.457031 110.601562 206.929688 C 110.402344 207.40625 110.121094 207.828125 109.757812 208.191406 C 109.394531 208.554688 108.976562 208.835938 108.5 209.035156 C 108.023438 209.230469 107.53125 209.328125 107.015625 209.328125 Z M 107.015625 209.328125 " fill-opacity="1" fill-rule="nonzero"/></g></svg>