<svg xmlns="http://www.w3.org/2000/svg" xmlns:xlink="http://www.w3.org/1999/xlink" width="378" zoomAndPan="magnify" viewBox="0 0 282.96 283.499989" height="378" preserveAspectRatio="xMidYMid meet" version="1.0"><defs><clipPath id="e468bfb1ee"><path d="M 90 56.59375 L 186 56.59375 L 186 220 L 90 220 Z M 90 56.59375 " clip-rule="nonzero"/></clipPath></defs><g clip-path="url(#e468bfb1ee)"><path fill="#010101" d="M 135.078125 203.238281 C 144.578125 180.457031 142.152344 115.382812 143.921875 84.941406 C 153.746094 97.96875 187.148438 139.144531 169.335938 162.648438 C 166.253906 166.707031 163.964844 168.082031 161.210938 170.960938 C 164.878906 173.648438 171.757812 164.613281 173.917969 161.992188 C 176.605469 158.785156 180.207031 151.910156 182.238281 146.804688 C 196.777344 110.144531 161.34375 91.617188 147.394531 71.386719 C 137.503906 57.050781 143.789062 56.59375 137.632812 56.855469 C 136.457031 59.40625 135.800781 67.65625 135.734375 70.40625 L 136.652344 113.484375 L 136.257812 158.457031 L 134.949219 176.789062 C 124.664062 175.742188 109.734375 177.707031 101.347656 183.992188 C 90.609375 192.109375 86.808594 205.332031 92.964844 213.449219 C 102.789062 226.542969 129.773438 216.003906 135.078125 203.238281 Z M 135.078125 203.238281 " fill-opacity="1" fill-rule="evenodd"/></g></svg>