<svg xmlns="http://www.w3.org/2000/svg" xmlns:xlink="http://www.w3.org/1999/xlink" width="378" zoomAndPan="magnify" viewBox="0 0 282.96 283.499989" height="378" preserveAspectRatio="xMidYMid meet" version="1.0"><defs><clipPath id="2cb31c812a"><path d="M 68.722656 181 L 113 181 L 113 208.617188 L 68.722656 208.617188 Z M 68.722656 181 " clip-rule="nonzero"/></clipPath><clipPath id="47dbcbd99c"><path d="M 120 181 L 164 181 L 164 208.617188 L 120 208.617188 Z M 120 181 " clip-rule="nonzero"/></clipPath><clipPath id="4b3822266a"><path d="M 171 181 L 214.714844 181 L 214.714844 208.617188 L 171 208.617188 Z M 171 181 " clip-rule="nonzero"/></clipPath><clipPath id="51df4b5f28"><path d="M 138 74.605469 L 145 74.605469 L 145 90 L 138 90 Z M 138 74.605469 " clip-rule="nonzero"/></clipPath></defs><path fill="#000000" d="M 104.898438 160.203125 L 92.71875 160.203125 C 86.050781 160.203125 80.632812 165.585938 80.632812 172.3125 L 80.632812 174.496094 C 81.464844 174.402344 82.300781 174.355469 83.179688 174.355469 L 97.722656 174.355469 C 105.546875 174.355469 112.355469 178.53125 116.109375 184.839844 C 116.339844 184.332031 116.664062 183.867188 116.988281 183.449219 L 116.988281 172.3125 C 116.988281 165.585938 111.570312 160.203125 104.898438 160.203125 Z M 104.898438 160.203125 " fill-opacity="1" fill-rule="nonzero"/><path fill="#000000" d="M 135.605469 160.203125 C 128.9375 160.203125 123.515625 165.585938 123.515625 172.3125 L 123.515625 177.417969 C 126.714844 175.46875 130.464844 174.355469 134.445312 174.355469 L 148.988281 174.355469 C 152.972656 174.355469 156.722656 175.46875 159.917969 177.417969 L 159.917969 172.3125 C 159.917969 165.585938 154.5 160.203125 147.785156 160.203125 Z M 135.605469 160.203125 " fill-opacity="1" fill-rule="nonzero"/><path fill="#000000" d="M 200.257812 174.355469 C 201.136719 174.355469 201.96875 174.402344 202.804688 174.496094 L 202.804688 172.3125 C 202.804688 165.585938 197.386719 160.203125 190.714844 160.203125 L 178.535156 160.203125 C 171.867188 160.203125 166.449219 165.585938 166.449219 172.3125 L 166.449219 183.449219 C 166.773438 183.867188 167.097656 184.332031 167.375 184.839844 C 171.078125 178.53125 177.886719 174.355469 185.667969 174.355469 Z M 200.257812 174.355469 " fill-opacity="1" fill-rule="nonzero"/><g clip-path="url(#2cb31c812a)"><path fill="#000000" d="M 97.742188 181.332031 L 83.203125 181.332031 C 75.230469 181.332031 68.769531 187.804688 68.769531 195.789062 L 68.769531 205.355469 C 68.769531 207.113281 70.191406 208.539062 71.945312 208.539062 L 109 208.539062 C 110.753906 208.539062 112.179688 207.113281 112.179688 205.355469 L 112.179688 195.789062 C 112.179688 187.804688 105.714844 181.332031 97.742188 181.332031 Z M 97.742188 181.332031 " fill-opacity="1" fill-rule="nonzero"/></g><g clip-path="url(#47dbcbd99c)"><path fill="#000000" d="M 148.988281 181.332031 L 134.445312 181.332031 C 126.472656 181.332031 120.015625 187.804688 120.015625 195.789062 L 120.015625 205.355469 C 120.015625 207.113281 121.433594 208.539062 123.191406 208.539062 L 160.246094 208.539062 C 162 208.539062 163.421875 207.113281 163.421875 205.355469 L 163.421875 195.789062 C 163.421875 187.804688 156.960938 181.332031 148.988281 181.332031 Z M 148.988281 181.332031 " fill-opacity="1" fill-rule="nonzero"/></g><g clip-path="url(#4b3822266a)"><path fill="#000000" d="M 200.234375 181.332031 L 185.691406 181.332031 C 177.71875 181.332031 171.257812 187.804688 171.257812 195.789062 L 171.257812 205.355469 C 171.257812 207.113281 172.679688 208.539062 174.433594 208.539062 L 211.492188 208.539062 C 213.246094 208.539062 214.667969 207.113281 214.667969 205.355469 L 214.667969 195.789062 C 214.667969 187.804688 208.207031 181.332031 200.234375 181.332031 Z M 200.234375 181.332031 " fill-opacity="1" fill-rule="nonzero"/></g><path fill="#000000" d="M 158.449219 143.574219 L 155.625 129.953125 C 155.519531 129.429688 155.730469 129.011719 156.042969 128.695312 L 166.292969 119.265625 C 167.964844 117.695312 167.128906 114.761719 164.722656 114.554688 L 150.921875 112.980469 C 150.398438 112.875 149.980469 112.667969 149.875 112.144531 L 144.125 99.464844 C 143.183594 97.371094 140.148438 97.371094 139.207031 99.464844 L 133.457031 112.144531 C 133.246094 112.5625 132.828125 112.875 132.304688 112.980469 L 118.503906 114.554688 C 116.203125 114.761719 115.261719 117.695312 116.933594 119.265625 L 127.183594 128.695312 C 127.496094 129.011719 127.707031 129.535156 127.601562 129.953125 L 124.777344 143.574219 C 124.359375 145.878906 126.765625 147.660156 128.75 146.507812 L 140.777344 139.695312 C 141.195312 139.488281 141.71875 139.488281 142.136719 139.695312 L 154.160156 146.507812 C 156.460938 147.660156 158.972656 145.878906 158.449219 143.574219 Z M 158.449219 143.574219 " fill-opacity="1" fill-rule="nonzero"/><path fill="#000000" d="M 107.628906 140.429688 L 99.890625 144.828125 C 98.425781 145.667969 97.902344 147.660156 98.738281 149.125 C 99.367188 150.171875 100.414062 150.695312 101.457031 150.695312 C 101.980469 150.695312 102.503906 150.59375 103.027344 150.277344 L 110.765625 145.773438 C 112.230469 144.933594 112.75 142.945312 111.914062 141.476562 C 110.972656 140.011719 109.09375 139.488281 107.628906 140.429688 Z M 107.628906 140.429688 " fill-opacity="1" fill-rule="nonzero"/><path fill="#000000" d="M 107.210938 124.296875 C 107.210938 122.515625 105.851562 121.152344 104.074219 121.152344 L 95.183594 121.152344 C 93.40625 121.152344 92.046875 122.515625 92.046875 124.296875 C 92.046875 126.078125 93.40625 127.4375 95.183594 127.4375 L 104.074219 127.4375 C 105.851562 127.4375 107.210938 126.078125 107.210938 124.296875 Z M 107.210938 124.296875 " fill-opacity="1" fill-rule="nonzero"/><path fill="#000000" d="M 110.765625 102.714844 L 103.027344 98.210938 C 101.5625 97.371094 99.574219 97.894531 98.738281 99.363281 C 97.796875 100.933594 98.320312 102.820312 99.890625 103.761719 L 107.628906 108.265625 C 108.152344 108.582031 108.671875 108.6875 109.195312 108.6875 C 110.242188 108.6875 111.289062 108.164062 111.914062 107.113281 C 112.75 105.542969 112.230469 103.550781 110.765625 102.714844 Z M 110.765625 102.714844 " fill-opacity="1" fill-rule="nonzero"/><path fill="#000000" d="M 120.175781 93.285156 C 120.804688 94.332031 121.847656 94.855469 122.894531 94.855469 C 123.417969 94.855469 123.941406 94.753906 124.464844 94.4375 C 125.929688 93.601562 126.449219 91.609375 125.613281 90.144531 L 121.222656 82.390625 C 120.386719 80.921875 118.398438 80.398438 116.933594 81.238281 C 115.46875 82.074219 114.949219 84.066406 115.785156 85.53125 Z M 120.175781 93.285156 " fill-opacity="1" fill-rule="nonzero"/><g clip-path="url(#51df4b5f28)"><path fill="#000000" d="M 141.71875 89.722656 C 143.496094 89.722656 144.855469 88.363281 144.855469 86.582031 L 144.855469 77.675781 C 144.855469 75.894531 143.496094 74.53125 141.71875 74.53125 C 139.941406 74.53125 138.582031 75.894531 138.582031 77.675781 L 138.582031 86.582031 C 138.582031 88.363281 139.941406 89.722656 141.71875 89.722656 Z M 141.71875 89.722656 " fill-opacity="1" fill-rule="nonzero"/></g><path fill="#000000" d="M 158.972656 94.4375 C 159.496094 94.753906 160.019531 94.855469 160.539062 94.855469 C 161.585938 94.855469 162.738281 94.332031 163.257812 93.285156 L 167.757812 85.53125 C 168.59375 84.066406 168.070312 82.074219 166.605469 81.238281 C 165.039062 80.292969 163.15625 80.820312 162.214844 82.390625 L 157.71875 90.144531 C 156.878906 91.609375 157.402344 93.496094 158.972656 94.4375 Z M 158.972656 94.4375 " fill-opacity="1" fill-rule="nonzero"/><path fill="#000000" d="M 174.238281 108.582031 C 174.761719 108.582031 175.285156 108.476562 175.808594 108.164062 L 183.546875 103.65625 C 185.011719 102.820312 185.53125 100.828125 184.695312 99.363281 C 183.859375 97.894531 181.875 97.371094 180.410156 98.210938 L 172.671875 102.714844 C 171.207031 103.550781 170.683594 105.542969 171.519531 107.011719 C 172.148438 108.058594 173.195312 108.582031 174.238281 108.582031 Z M 174.238281 108.582031 " fill-opacity="1" fill-rule="nonzero"/><path fill="#000000" d="M 188.253906 121.152344 L 179.363281 121.152344 C 177.585938 121.152344 176.226562 122.515625 176.226562 124.296875 C 176.226562 126.078125 177.585938 127.4375 179.363281 127.4375 L 188.253906 127.4375 C 190.03125 127.4375 191.390625 126.078125 191.390625 124.296875 C 191.390625 122.515625 190.03125 121.152344 188.253906 121.152344 Z M 188.253906 121.152344 " fill-opacity="1" fill-rule="nonzero"/><path fill="#000000" d="M 183.546875 144.828125 L 175.808594 140.324219 C 174.34375 139.488281 172.355469 140.011719 171.519531 141.476562 C 170.683594 142.945312 171.207031 144.933594 172.671875 145.773438 L 180.410156 150.277344 C 180.933594 150.59375 181.453125 150.695312 181.976562 150.695312 C 183.023438 150.695312 184.070312 150.171875 184.695312 149.125 C 185.636719 147.660156 185.113281 145.773438 183.546875 144.828125 Z M 183.546875 144.828125 " fill-opacity="1" fill-rule="nonzero"/></svg>