<svg xmlns="http://www.w3.org/2000/svg" xmlns:xlink="http://www.w3.org/1999/xlink" width="378" zoomAndPan="magnify" viewBox="0 0 282.96 283.499989" height="378" preserveAspectRatio="xMidYMid meet" version="1.0"><defs><clipPath id="bd2d7a23f7"><path d="M 175 204 L 226.609375 204 L 226.609375 239 L 175 239 Z M 175 204 " clip-rule="nonzero"/></clipPath><clipPath id="570c2488f0"><path d="M 56.660156 204 L 108 204 L 108 239 L 56.660156 239 Z M 56.660156 204 " clip-rule="nonzero"/></clipPath></defs><path fill="#000000" d="M 215.175781 211.238281 C 213.773438 211.238281 212.425781 210.339844 211.980469 208.9375 C 211.195312 206.578125 210.351562 204.558594 209.511719 202.988281 C 205.476562 195.691406 193.3125 191.988281 182.609375 188.734375 C 170.613281 185.085938 159.289062 181.605469 157.71875 172.90625 C 157.160156 169.652344 156.9375 166.171875 157.160156 162.578125 C 157.273438 160.726562 158.839844 159.269531 160.691406 159.382812 C 162.539062 159.492188 163.941406 161.066406 163.886719 162.917969 C 163.71875 165.949219 163.886719 168.921875 164.390625 171.726562 C 165.230469 176.386719 175.097656 179.417969 184.570312 182.277344 C 196.507812 185.925781 210.015625 190.078125 215.398438 199.734375 C 216.464844 201.640625 217.472656 204.054688 218.367188 206.804688 C 218.929688 208.542969 217.976562 210.453125 216.238281 211.070312 C 215.902344 211.183594 215.511719 211.238281 215.175781 211.238281 Z M 215.175781 211.238281 " fill-opacity="1" fill-rule="nonzero"/><path fill="#000000" d="M 222.347656 270 L 183.113281 270 C 181.261719 270 179.75 268.484375 179.75 266.632812 C 179.75 264.777344 181.261719 263.261719 183.113281 263.261719 L 218.875 263.261719 C 218.648438 256.921875 218.03125 242.777344 216.183594 229.253906 C 215.957031 227.402344 217.246094 225.71875 219.042969 225.4375 C 220.890625 225.210938 222.574219 226.503906 222.851562 228.300781 C 225.375 246.761719 225.65625 266.351562 225.65625 266.519531 C 225.65625 267.417969 225.320312 268.316406 224.703125 268.933594 C 224.085938 269.660156 223.246094 270 222.347656 270 Z M 222.347656 270 " fill-opacity="1" fill-rule="nonzero"/><path fill="#000000" d="M 183.113281 270 L 141.632812 270 C 139.785156 270 138.269531 268.484375 138.269531 266.632812 C 138.269531 264.777344 139.785156 263.261719 141.632812 263.261719 L 181.375 263.261719 C 187.484375 254.453125 190.285156 244.238281 188.773438 235.59375 C 188.210938 232.285156 187.035156 229.308594 185.296875 226.726562 C 182.832031 223.078125 179.523438 220.835938 177.226562 219.601562 C 175.320312 218.589844 173.808594 218.085938 173.246094 217.917969 C 163.605469 215 152.226562 218.871094 144.15625 227.792969 C 142.921875 229.199219 140.792969 229.253906 139.390625 228.019531 C 137.988281 226.785156 137.933594 224.652344 139.167969 223.25 C 149.144531 212.25 162.933594 207.703125 175.207031 211.40625 C 176.160156 211.6875 178.066406 212.359375 180.421875 213.59375 C 184.738281 215.894531 188.324219 219.09375 190.902344 222.910156 C 193.203125 226.277344 194.714844 230.152344 195.445312 234.359375 C 197.347656 245.359375 193.875 257.820312 185.800781 268.59375 C 185.1875 269.492188 184.175781 270 183.113281 270 Z M 183.113281 270 " fill-opacity="1" fill-rule="nonzero"/><g clip-path="url(#bd2d7a23f7)"><path fill="#000000" d="M 192.136719 238.402344 C 190.960938 238.402344 189.839844 237.785156 189.222656 236.71875 C 188.269531 235.089844 188.828125 233.070312 190.453125 232.117188 C 190.847656 231.890625 200.601562 226.277344 212.988281 226.277344 C 215.511719 226.277344 217.304688 226.054688 218.425781 225.660156 C 219.210938 225.382812 219.882812 225.101562 219.882812 222.6875 C 219.882812 219.882812 218.816406 215.449219 217.585938 211.070312 C 216.855469 211.125 216.183594 211.183594 215.453125 211.238281 C 194.714844 212.976562 180.367188 219.65625 180.253906 219.710938 C 178.570312 220.5 176.554688 219.769531 175.769531 218.085938 C 174.984375 216.402344 175.714844 214.382812 177.394531 213.59375 C 178.011719 213.316406 192.976562 206.355469 214.894531 204.503906 C 216.574219 204.335938 218.257812 204.277344 219.9375 204.167969 C 221.507812 204.109375 222.910156 205.121094 223.300781 206.578125 C 226.609375 217.917969 229.691406 228.636719 220.722656 231.949219 C 218.816406 232.675781 216.40625 232.957031 212.988281 232.957031 C 202.449219 232.957031 193.929688 237.839844 193.816406 237.894531 C 193.257812 238.234375 192.695312 238.402344 192.136719 238.402344 Z M 192.136719 238.402344 " fill-opacity="1" fill-rule="nonzero"/></g><path fill="#000000" d="M 214.109375 208.207031 C 213.101562 208.207031 212.148438 207.757812 211.472656 206.917969 C 210.296875 205.457031 210.578125 203.382812 211.980469 202.203125 C 212.933594 201.417969 220.949219 194.511719 214.390625 185.871094 C 213.605469 184.804688 212.820312 183.851562 212.148438 182.953125 C 204.972656 173.691406 201.386719 169.035156 206.710938 158.761719 C 210.746094 150.960938 211.699219 144.339844 204.636719 133.675781 C 197.742188 123.292969 194.660156 112.125 194.769531 98.542969 C 194.882812 89.394531 187.089844 68.910156 174.085938 62.738281 C 172.40625 61.953125 171.675781 59.933594 172.460938 58.25 C 173.246094 56.566406 175.265625 55.835938 176.945312 56.621094 C 192.136719 63.804688 201.609375 86.308594 201.441406 98.601562 C 201.328125 110.777344 204.074219 120.769531 210.183594 129.972656 C 217.753906 141.367188 218.480469 150.625 212.652344 161.851562 C 209.289062 168.304688 210.410156 169.707031 217.414062 178.800781 C 218.144531 179.699219 218.875 180.707031 219.714844 181.773438 C 228.289062 193 221.171875 203.492188 216.183594 207.476562 C 215.566406 207.984375 214.835938 208.207031 214.109375 208.207031 Z M 214.109375 208.207031 " fill-opacity="1" fill-rule="nonzero"/><path fill="#000000" d="M 160.410156 49.773438 C 154.132812 49.773438 149.367188 42.589844 144.773438 35.574219 C 142.8125 32.601562 140.960938 29.792969 139.222656 27.941406 C 137.988281 26.59375 138.046875 24.460938 139.390625 23.171875 C 140.738281 21.882812 142.867188 21.992188 144.15625 23.339844 C 146.230469 25.585938 148.246094 28.617188 150.378906 31.816406 C 153.347656 36.25 157.777344 42.984375 160.410156 42.984375 C 160.46875 42.984375 160.46875 42.984375 160.523438 42.984375 C 164.222656 42.757812 171.230469 37.761719 176.160156 33.21875 C 177.507812 31.984375 179.636719 32.039062 180.925781 33.441406 C 182.160156 34.789062 182.101562 36.921875 180.703125 38.210938 C 177.898438 40.792969 168.144531 49.210938 160.972656 49.71875 C 160.746094 49.773438 160.578125 49.773438 160.410156 49.773438 Z M 160.410156 49.773438 " fill-opacity="1" fill-rule="nonzero"/><path fill="#000000" d="M 171.902344 70.933594 C 171.398438 70.933594 170.894531 70.820312 170.445312 70.59375 C 170.332031 70.539062 158.28125 64.871094 141.632812 64.871094 C 139.785156 64.871094 138.269531 63.355469 138.269531 61.503906 C 138.269531 59.652344 139.785156 58.136719 141.632812 58.136719 C 154.1875 58.136719 164.222656 61 169.433594 62.90625 L 175.207031 35.070312 C 175.601562 33.273438 177.394531 32.09375 179.1875 32.488281 C 180.980469 32.882812 182.160156 34.675781 181.765625 36.472656 L 175.152344 68.238281 C 174.929688 69.25 174.253906 70.089844 173.359375 70.59375 C 172.910156 70.820312 172.40625 70.933594 171.902344 70.933594 Z M 171.902344 70.933594 " fill-opacity="1" fill-rule="nonzero"/><path fill="#000000" d="M 141.632812 27.773438 C 136.53125 27.773438 132.386719 23.621094 132.386719 18.511719 C 132.386719 13.40625 136.53125 9.253906 141.632812 9.253906 C 146.734375 9.253906 150.882812 13.40625 150.882812 18.511719 C 150.882812 23.621094 146.734375 27.773438 141.632812 27.773438 Z M 141.632812 15.988281 C 140.230469 15.988281 139.109375 17.109375 139.109375 18.511719 C 139.109375 19.917969 140.230469 21.039062 141.632812 21.039062 C 143.035156 21.039062 144.15625 19.917969 144.15625 18.511719 C 144.15625 17.109375 143.035156 15.988281 141.632812 15.988281 Z M 141.632812 15.988281 " fill-opacity="1" fill-rule="nonzero"/><path fill="#000000" d="M 180.644531 39.617188 C 175.546875 39.617188 171.398438 35.460938 171.398438 30.355469 C 171.398438 25.25 175.546875 21.09375 180.644531 21.09375 C 185.746094 21.09375 189.894531 25.25 189.894531 30.355469 C 189.894531 35.460938 185.746094 39.617188 180.644531 39.617188 Z M 180.644531 27.773438 C 179.246094 27.773438 178.125 28.894531 178.125 30.300781 C 178.125 31.703125 179.246094 32.824219 180.644531 32.824219 C 182.046875 32.824219 183.167969 31.703125 183.167969 30.300781 C 183.167969 28.894531 182.046875 27.773438 180.644531 27.773438 Z M 180.644531 27.773438 " fill-opacity="1" fill-rule="nonzero"/><path fill="#000000" d="M 180.476562 137.210938 C 178.90625 137.210938 177.507812 136.144531 177.171875 134.519531 C 176.777344 132.722656 177.957031 130.925781 179.75 130.535156 C 183.839844 129.691406 186.921875 126.15625 187.035156 122.226562 C 187.148438 118.75 185.128906 115.492188 181.765625 113.921875 C 180.085938 113.136719 179.355469 111.117188 180.199219 109.433594 C 180.980469 107.75 183 107.019531 184.679688 107.859375 C 190.453125 110.609375 193.984375 116.335938 193.761719 122.507812 C 193.480469 129.636719 188.269531 135.699219 181.09375 137.15625 C 180.925781 137.15625 180.703125 137.210938 180.476562 137.210938 Z M 180.476562 137.210938 " fill-opacity="1" fill-rule="nonzero"/><path fill="#000000" d="M 68.09375 211.238281 C 67.757812 211.238281 67.363281 211.183594 67.027344 211.070312 C 65.289062 210.507812 64.28125 208.601562 64.898438 206.804688 C 65.792969 204.054688 66.804688 201.640625 67.867188 199.734375 C 73.25 190.078125 86.757812 185.925781 98.699219 182.277344 C 108.226562 179.359375 118.089844 176.386719 118.933594 171.726562 C 119.4375 168.976562 119.605469 166.003906 119.4375 162.972656 C 119.324219 161.121094 120.78125 159.550781 122.632812 159.4375 C 124.480469 159.324219 126.050781 160.785156 126.164062 162.636719 C 126.332031 166.226562 126.164062 169.652344 125.601562 172.960938 C 124.03125 181.660156 112.710938 185.140625 100.714844 188.789062 C 90.007812 192.042969 77.847656 195.75 73.808594 203.042969 C 72.96875 204.617188 72.128906 206.578125 71.34375 208.992188 C 70.839844 210.339844 69.496094 211.238281 68.09375 211.238281 Z M 68.09375 211.238281 " fill-opacity="1" fill-rule="nonzero"/><path fill="#000000" d="M 100.15625 270 L 60.917969 270 C 60.019531 270 59.179688 269.660156 58.507812 268.988281 C 57.835938 268.316406 57.5 267.472656 57.554688 266.574219 C 57.554688 266.40625 57.835938 246.820312 60.359375 228.355469 C 60.582031 226.503906 62.320312 225.210938 64.167969 225.492188 C 66.019531 225.71875 67.308594 227.457031 67.027344 229.308594 C 65.179688 242.835938 64.5625 256.976562 64.335938 263.320312 L 100.15625 263.320312 C 102.003906 263.320312 103.519531 264.835938 103.519531 266.6875 C 103.519531 268.539062 102.003906 270 100.15625 270 Z M 100.15625 270 " fill-opacity="1" fill-rule="nonzero"/><path fill="#000000" d="M 141.632812 270 L 100.15625 270 C 99.089844 270 98.082031 269.492188 97.464844 268.652344 C 89.449219 257.933594 85.917969 245.472656 87.824219 234.417969 C 88.550781 230.152344 90.066406 226.277344 92.363281 222.96875 C 94.941406 219.152344 98.585938 215.953125 102.84375 213.652344 C 105.199219 212.359375 107.160156 211.742188 108.113281 211.460938 C 120.390625 207.757812 134.179688 212.25 144.15625 223.304688 C 145.390625 224.707031 145.277344 226.839844 143.929688 228.074219 C 142.585938 229.308594 140.398438 229.199219 139.167969 227.851562 C 131.09375 218.925781 119.660156 215.054688 110.074219 217.972656 C 109.515625 218.140625 108.003906 218.644531 106.039062 219.65625 C 103.742188 220.890625 100.433594 223.136719 97.96875 226.785156 C 96.230469 229.367188 95.054688 232.339844 94.492188 235.652344 C 92.980469 244.292969 95.78125 254.507812 101.890625 263.320312 L 141.632812 263.320312 C 143.484375 263.320312 144.996094 264.835938 144.996094 266.6875 C 144.996094 268.539062 143.484375 270 141.632812 270 Z M 141.632812 270 " fill-opacity="1" fill-rule="nonzero"/><g clip-path="url(#570c2488f0)"><path fill="#000000" d="M 91.128906 238.402344 C 90.570312 238.402344 89.953125 238.234375 89.449219 237.953125 C 89.394531 237.894531 80.816406 233.011719 70.277344 233.011719 C 66.804688 233.011719 64.449219 232.675781 62.542969 232.003906 C 53.574219 228.691406 56.714844 217.972656 59.964844 206.636719 C 60.414062 205.121094 61.816406 204.167969 63.328125 204.222656 C 64.953125 204.277344 66.691406 204.390625 68.375 204.558594 C 90.289062 206.410156 105.253906 213.371094 105.871094 213.652344 C 107.554688 214.4375 108.28125 216.457031 107.496094 218.140625 C 106.714844 219.824219 104.695312 220.554688 103.011719 219.769531 C 102.789062 219.65625 88.382812 213.035156 67.8125 211.292969 C 67.085938 211.238281 66.410156 211.183594 65.683594 211.125 C 64.449219 215.503906 63.382812 219.992188 63.382812 222.742188 C 63.382812 225.15625 64.058594 225.4375 64.84375 225.71875 C 65.964844 226.109375 67.699219 226.335938 70.277344 226.335938 C 82.667969 226.335938 92.417969 231.949219 92.8125 232.171875 C 94.4375 233.125 94.941406 235.144531 94.046875 236.773438 C 93.429688 237.785156 92.308594 238.402344 91.128906 238.402344 Z M 91.128906 238.402344 " fill-opacity="1" fill-rule="nonzero"/></g><path fill="#000000" d="M 69.15625 208.207031 C 68.429688 208.207031 67.699219 207.984375 67.085938 207.476562 C 62.09375 203.492188 54.976562 193.054688 63.554688 181.773438 C 64.335938 180.707031 65.121094 179.753906 65.851562 178.800781 C 72.914062 169.707031 73.976562 168.304688 70.617188 161.851562 C 64.785156 150.625 65.515625 141.367188 73.082031 129.972656 C 79.191406 120.769531 81.9375 110.835938 81.824219 98.601562 C 81.714844 86.308594 91.1875 63.804688 106.320312 56.621094 C 108.003906 55.835938 110.019531 56.566406 110.804688 58.25 C 111.589844 59.933594 110.859375 61.953125 109.179688 62.738281 C 96.175781 68.910156 88.382812 89.453125 88.496094 98.542969 C 88.664062 112.183594 85.523438 123.351562 78.628906 133.675781 C 71.566406 144.339844 72.519531 150.960938 76.558594 158.761719 C 81.882812 169.035156 78.292969 173.691406 71.121094 182.953125 C 70.390625 183.851562 69.664062 184.804688 68.878906 185.871094 C 62.320312 194.515625 70.335938 201.417969 71.289062 202.203125 C 72.746094 203.382812 72.96875 205.515625 71.792969 206.917969 C 71.121094 207.757812 70.167969 208.207031 69.15625 208.207031 Z M 69.15625 208.207031 " fill-opacity="1" fill-rule="nonzero"/><path fill="#000000" d="M 122.910156 49.773438 C 122.742188 49.773438 122.519531 49.773438 122.351562 49.773438 C 115.175781 49.269531 105.421875 40.851562 102.566406 38.269531 C 101.21875 37.035156 101.109375 34.902344 102.339844 33.5 C 103.574219 32.152344 105.703125 32.039062 107.105469 33.273438 C 112.039062 37.820312 119.042969 42.757812 122.742188 43.039062 C 125.378906 43.207031 129.917969 36.417969 132.890625 31.871094 C 135.019531 28.671875 137.039062 25.640625 139.109375 23.394531 C 140.34375 22.050781 142.472656 21.9375 143.875 23.226562 C 145.222656 24.460938 145.332031 26.59375 144.042969 28 C 142.304688 29.851562 140.457031 32.65625 138.496094 35.632812 C 133.898438 42.589844 129.132812 49.773438 122.910156 49.773438 Z M 122.910156 49.773438 " fill-opacity="1" fill-rule="nonzero"/><path fill="#000000" d="M 111.367188 70.933594 C 110.859375 70.933594 110.355469 70.820312 109.851562 70.59375 C 108.898438 70.144531 108.28125 69.304688 108.058594 68.238281 L 101.445312 36.472656 C 101.050781 34.675781 102.230469 32.882812 104.023438 32.488281 C 105.816406 32.09375 107.609375 33.273438 108.003906 35.070312 L 113.777344 62.90625 C 118.988281 61 129.023438 58.136719 141.578125 58.136719 C 143.425781 58.136719 144.941406 59.652344 144.941406 61.503906 C 144.941406 63.355469 143.425781 64.871094 141.578125 64.871094 C 124.929688 64.871094 112.878906 70.539062 112.765625 70.59375 C 112.375 70.820312 111.871094 70.933594 111.367188 70.933594 Z M 111.367188 70.933594 " fill-opacity="1" fill-rule="nonzero"/><path fill="#000000" d="M 141.632812 27.773438 C 136.53125 27.773438 132.386719 23.621094 132.386719 18.511719 C 132.386719 13.40625 136.53125 9.253906 141.632812 9.253906 C 146.734375 9.253906 150.882812 13.40625 150.882812 18.511719 C 150.882812 23.621094 146.734375 27.773438 141.632812 27.773438 Z M 141.632812 15.988281 C 140.230469 15.988281 139.109375 17.109375 139.109375 18.511719 C 139.109375 19.917969 140.230469 21.039062 141.632812 21.039062 C 143.035156 21.039062 144.15625 19.917969 144.15625 18.511719 C 144.15625 17.109375 143.035156 15.988281 141.632812 15.988281 Z M 141.632812 15.988281 " fill-opacity="1" fill-rule="nonzero"/><path fill="#000000" d="M 102.621094 39.617188 C 97.519531 39.617188 93.371094 35.460938 93.371094 30.355469 C 93.371094 25.25 97.519531 21.09375 102.621094 21.09375 C 107.722656 21.09375 111.871094 25.25 111.871094 30.355469 C 111.871094 35.460938 107.722656 39.617188 102.621094 39.617188 Z M 102.621094 27.773438 C 101.21875 27.773438 100.097656 28.894531 100.097656 30.300781 C 100.097656 31.703125 101.21875 32.824219 102.621094 32.824219 C 104.023438 32.824219 105.144531 31.703125 105.144531 30.300781 C 105.144531 28.894531 104.023438 27.773438 102.621094 27.773438 Z M 102.621094 27.773438 " fill-opacity="1" fill-rule="nonzero"/><path fill="#000000" d="M 141.632812 169.203125 C 130.648438 169.203125 120.671875 164.769531 112.824219 156.40625 C 101.5 144.339844 95.503906 124.808594 96.792969 104.15625 C 96.902344 102.417969 98.359375 101.011719 100.097656 101.011719 C 100.433594 101.011719 135.410156 100.117188 150.097656 75.925781 C 150.824219 74.75 152.171875 74.132812 153.574219 74.355469 C 154.917969 74.578125 156.039062 75.644531 156.261719 76.992188 C 159.683594 93.828125 183.839844 101.070312 184.066406 101.125 C 185.410156 101.519531 186.363281 102.753906 186.476562 104.15625 C 187.765625 124.753906 181.765625 144.285156 170.445312 156.40625 C 162.597656 164.769531 152.621094 169.203125 141.632812 169.203125 Z M 103.351562 107.578125 C 102.84375 125.257812 108.113281 141.589844 117.699219 151.804688 C 124.257812 158.761719 132.496094 162.46875 141.632812 162.46875 C 150.769531 162.46875 159.007812 158.761719 165.566406 151.804688 C 175.265625 141.476562 180.535156 124.808594 179.859375 106.851562 C 173.917969 104.71875 158.335938 98.039062 151.890625 84.960938 C 136.980469 103.203125 112.148438 106.851562 103.351562 107.578125 Z M 103.351562 107.578125 " fill-opacity="1" fill-rule="nonzero"/><path fill="#000000" d="M 102.789062 137.210938 C 102.566406 137.210938 102.339844 137.210938 102.117188 137.15625 C 94.941406 135.640625 89.730469 129.636719 89.449219 122.507812 C 89.226562 116.335938 92.757812 110.554688 98.53125 107.859375 C 100.210938 107.074219 102.230469 107.804688 103.011719 109.433594 C 103.796875 111.117188 103.070312 113.136719 101.445312 113.921875 C 98.136719 115.492188 96.0625 118.75 96.175781 122.226562 C 96.34375 126.210938 99.371094 129.691406 103.460938 130.535156 C 105.253906 130.925781 106.433594 132.722656 106.039062 134.519531 C 105.761719 136.089844 104.359375 137.210938 102.789062 137.210938 Z M 102.789062 137.210938 " fill-opacity="1" fill-rule="nonzero"/></svg>