<svg xmlns="http://www.w3.org/2000/svg" xmlns:xlink="http://www.w3.org/1999/xlink" width="378" zoomAndPan="magnify" viewBox="0 0 282.96 283.499989" height="378" preserveAspectRatio="xMidYMid meet" version="1.0"><defs><clipPath id="d31b9af56b"><path d="M 87.769531 72.488281 L 195.578125 72.488281 L 195.578125 207 L 87.769531 207 Z M 87.769531 72.488281 " clip-rule="nonzero"/></clipPath></defs><g clip-path="url(#d31b9af56b)"><path fill="#000000" d="M 195.035156 95.875 L 180.765625 73.515625 C 180.554688 73.199219 180.285156 72.949219 179.953125 72.769531 C 179.621094 72.585938 179.265625 72.492188 178.886719 72.488281 L 104.464844 72.488281 C 104.085938 72.492188 103.730469 72.585938 103.398438 72.769531 C 103.0625 72.949219 102.792969 73.199219 102.585938 73.515625 L 88.316406 95.875 C 88.089844 96.226562 87.976562 96.613281 87.96875 97.03125 C 87.960938 97.449219 88.0625 97.839844 88.269531 98.199219 L 115.097656 144.191406 C 114.261719 145.054688 113.472656 145.957031 112.730469 146.894531 C 111.984375 147.835938 111.289062 148.808594 110.636719 149.816406 C 109.988281 150.824219 109.390625 151.863281 108.839844 152.929688 C 108.292969 153.996094 107.796875 155.085938 107.355469 156.199219 C 106.910156 157.3125 106.523438 158.449219 106.195312 159.597656 C 105.863281 160.75 105.585938 161.917969 105.371094 163.097656 C 105.152344 164.273438 104.992188 165.460938 104.890625 166.65625 C 104.789062 167.851562 104.742188 169.046875 104.757812 170.246094 C 104.773438 171.445312 104.847656 172.640625 104.976562 173.832031 C 105.109375 175.023438 105.296875 176.207031 105.542969 177.378906 C 105.792969 178.550781 106.09375 179.710938 106.453125 180.855469 C 106.8125 181.996094 107.230469 183.121094 107.699219 184.222656 C 108.167969 185.328125 108.691406 186.40625 109.265625 187.457031 C 109.839844 188.511719 110.464844 189.53125 111.136719 190.523438 C 111.8125 191.515625 112.535156 192.472656 113.300781 193.394531 C 114.070312 194.316406 114.878906 195.195312 115.734375 196.039062 C 116.585938 196.882812 117.480469 197.679688 118.410156 198.4375 C 119.34375 199.191406 120.308594 199.898438 121.308594 200.5625 C 122.3125 201.222656 123.339844 201.835938 124.402344 202.394531 C 125.460938 202.957031 126.546875 203.464844 127.65625 203.917969 C 128.769531 204.375 129.898438 204.777344 131.046875 205.121094 C 132.195312 205.464844 133.359375 205.753906 134.535156 205.988281 C 135.714844 206.21875 136.898438 206.394531 138.09375 206.511719 C 139.289062 206.625 140.484375 206.683594 141.6875 206.683594 C 142.886719 206.683594 144.082031 206.625 145.277344 206.511719 C 146.472656 206.394531 147.65625 206.21875 148.835938 205.988281 C 150.011719 205.753906 151.175781 205.464844 152.324219 205.121094 C 153.472656 204.777344 154.605469 204.375 155.714844 203.917969 C 156.824219 203.464844 157.910156 202.957031 158.96875 202.394531 C 160.03125 201.835938 161.0625 201.222656 162.0625 200.5625 C 163.0625 199.898438 164.027344 199.191406 164.960938 198.4375 C 165.890625 197.679688 166.785156 196.882812 167.640625 196.039062 C 168.492188 195.195312 169.304688 194.316406 170.070312 193.394531 C 170.839844 192.472656 171.558594 191.515625 172.234375 190.523438 C 172.910156 189.53125 173.53125 188.511719 174.109375 187.457031 C 174.683594 186.40625 175.203125 185.328125 175.671875 184.222656 C 176.144531 183.121094 176.558594 181.996094 176.917969 180.855469 C 177.277344 179.710938 177.582031 178.550781 177.828125 177.378906 C 178.074219 176.207031 178.261719 175.023438 178.394531 173.832031 C 178.527344 172.640625 178.597656 171.445312 178.613281 170.246094 C 178.628906 169.046875 178.585938 167.851562 178.484375 166.65625 C 178.378906 165.460938 178.21875 164.273438 178.003906 163.097656 C 177.785156 161.917969 177.511719 160.75 177.179688 159.597656 C 176.847656 158.449219 176.460938 157.3125 176.019531 156.199219 C 175.574219 155.085938 175.082031 153.996094 174.53125 152.929688 C 173.984375 151.863281 173.382812 150.824219 172.734375 149.816406 C 172.085938 148.808594 171.386719 147.835938 170.640625 146.894531 C 169.898438 145.957031 169.109375 145.054688 168.277344 144.191406 L 195.078125 98.199219 C 195.289062 97.839844 195.390625 97.449219 195.382812 97.03125 C 195.375 96.613281 195.257812 96.226562 195.035156 95.875 Z M 162.265625 99.316406 L 143.074219 132.921875 C 142.132812 132.855469 141.195312 132.855469 140.253906 132.921875 L 121.082031 99.316406 Z M 99.777344 86.238281 L 104.363281 79.0625 L 135.417969 133.4375 C 133.035156 133.835938 130.714844 134.46875 128.457031 135.335938 Z M 141.675781 192.976562 C 140.914062 192.976562 140.152344 192.941406 139.394531 192.867188 C 138.636719 192.792969 137.886719 192.679688 137.136719 192.53125 C 136.390625 192.382812 135.652344 192.199219 134.925781 191.976562 C 134.195312 191.757812 133.480469 191.5 132.777344 191.210938 C 132.070312 190.917969 131.382812 190.59375 130.710938 190.234375 C 130.039062 189.875 129.386719 189.484375 128.753906 189.0625 C 128.121094 188.640625 127.511719 188.1875 126.921875 187.703125 C 126.332031 187.222656 125.769531 186.710938 125.230469 186.171875 C 124.691406 185.636719 124.183594 185.074219 123.699219 184.484375 C 123.214844 183.894531 122.761719 183.285156 122.339844 182.652344 C 121.914062 182.019531 121.523438 181.367188 121.164062 180.699219 C 120.808594 180.027344 120.480469 179.339844 120.191406 178.636719 C 119.898438 177.933594 119.640625 177.21875 119.421875 176.492188 C 119.199219 175.761719 119.015625 175.027344 118.867188 174.28125 C 118.71875 173.53125 118.605469 172.78125 118.53125 172.023438 C 118.457031 171.265625 118.421875 170.507812 118.421875 169.746094 C 118.421875 168.988281 118.457031 168.226562 118.53125 167.46875 C 118.605469 166.714844 118.71875 165.960938 118.867188 165.214844 C 119.015625 164.46875 119.199219 163.730469 119.421875 163.003906 C 119.640625 162.277344 119.898438 161.558594 120.191406 160.855469 C 120.480469 160.15625 120.808594 159.46875 121.164062 158.796875 C 121.523438 158.125 121.914062 157.472656 122.339844 156.839844 C 122.761719 156.207031 123.214844 155.597656 123.699219 155.011719 C 124.183594 154.421875 124.691406 153.859375 125.230469 153.320312 C 125.769531 152.78125 126.332031 152.273438 126.921875 151.789062 C 127.511719 151.308594 128.121094 150.855469 128.753906 150.433594 C 129.386719 150.007812 130.039062 149.617188 130.710938 149.257812 C 131.382812 148.902344 132.070312 148.574219 132.777344 148.285156 C 133.480469 147.992188 134.195312 147.738281 134.925781 147.515625 C 135.652344 147.296875 136.390625 147.113281 137.136719 146.964844 C 137.886719 146.816406 138.636719 146.703125 139.394531 146.628906 C 140.152344 146.554688 140.914062 146.515625 141.675781 146.515625 C 142.4375 146.515625 143.195312 146.554688 143.953125 146.628906 C 144.710938 146.703125 145.464844 146.816406 146.210938 146.964844 C 146.957031 147.113281 147.695312 147.296875 148.425781 147.515625 C 149.152344 147.738281 149.871094 147.992188 150.574219 148.285156 C 151.277344 148.574219 151.964844 148.902344 152.636719 149.257812 C 153.308594 149.617188 153.960938 150.007812 154.59375 150.433594 C 155.226562 150.855469 155.839844 151.308594 156.425781 151.789062 C 157.015625 152.273438 157.578125 152.78125 158.117188 153.320312 C 158.65625 153.859375 159.167969 154.421875 159.652344 155.011719 C 160.132812 155.597656 160.585938 156.207031 161.011719 156.839844 C 161.433594 157.472656 161.824219 158.125 162.183594 158.796875 C 162.542969 159.46875 162.867188 160.15625 163.160156 160.855469 C 163.449219 161.558594 163.707031 162.277344 163.929688 163.003906 C 164.148438 163.730469 164.335938 164.46875 164.484375 165.214844 C 164.632812 165.960938 164.742188 166.714844 164.816406 167.46875 C 164.890625 168.226562 164.929688 168.988281 164.929688 169.746094 C 164.929688 170.507812 164.890625 171.265625 164.816406 172.023438 C 164.742188 172.78125 164.628906 173.53125 164.480469 174.277344 C 164.332031 175.023438 164.144531 175.761719 163.921875 176.488281 C 163.703125 177.214844 163.445312 177.929688 163.152344 178.632812 C 162.863281 179.335938 162.535156 180.023438 162.175781 180.695312 C 161.816406 181.363281 161.425781 182.015625 161.003906 182.648438 C 160.582031 183.28125 160.128906 183.890625 159.644531 184.480469 C 159.160156 185.066406 158.652344 185.628906 158.113281 186.167969 C 157.574219 186.703125 157.011719 187.214844 156.421875 187.699219 C 155.832031 188.179688 155.222656 188.632812 154.589844 189.054688 C 153.957031 189.480469 153.304688 189.871094 152.632812 190.226562 C 151.960938 190.585938 151.273438 190.914062 150.570312 191.203125 C 149.867188 191.496094 149.152344 191.75 148.421875 191.972656 C 147.695312 192.195312 146.957031 192.378906 146.210938 192.527344 C 145.464844 192.675781 144.710938 192.789062 143.953125 192.863281 C 143.195312 192.9375 142.4375 192.976562 141.675781 192.976562 Z M 154.902344 135.335938 C 152.644531 134.46875 150.328125 133.835938 147.941406 133.4375 L 178.996094 79.0625 L 183.585938 86.238281 Z M 154.902344 135.335938 " fill-opacity="1" fill-rule="nonzero"/></g><path fill="#000000" d="M 153.558594 173.378906 C 153.464844 173.488281 153.421875 173.617188 153.425781 173.761719 L 154.074219 179.125 C 154.191406 180.019531 154.070312 180.878906 153.714844 181.703125 C 153.355469 182.53125 152.8125 183.207031 152.082031 183.734375 C 151.335938 184.269531 150.507812 184.589844 149.59375 184.6875 C 148.679688 184.785156 147.800781 184.648438 146.957031 184.28125 L 141.953125 182.023438 C 141.777344 181.925781 141.597656 181.925781 141.417969 182.023438 L 136.394531 184.28125 C 135.550781 184.65625 134.671875 184.796875 133.757812 184.699219 C 132.84375 184.605469 132.011719 184.285156 131.265625 183.742188 C 130.535156 183.21875 129.992188 182.539062 129.636719 181.714844 C 129.277344 180.890625 129.160156 180.03125 129.273438 179.136719 L 129.925781 173.773438 C 129.929688 173.621094 129.878906 173.496094 129.769531 173.390625 L 126.03125 169.410156 C 125.398438 168.761719 124.984375 167.992188 124.785156 167.109375 C 124.582031 166.226562 124.625 165.351562 124.910156 164.492188 C 125.195312 163.625 125.679688 162.890625 126.363281 162.285156 C 127.050781 161.679688 127.839844 161.289062 128.738281 161.117188 L 134.175781 160.042969 C 134.351562 160.011719 134.476562 159.921875 134.558594 159.765625 L 137.265625 155.046875 C 137.378906 154.855469 137.5 154.671875 137.636719 154.496094 C 137.773438 154.320312 137.921875 154.15625 138.078125 154 C 138.234375 153.84375 138.402344 153.699219 138.578125 153.5625 C 138.757812 153.429688 138.941406 153.308594 139.132812 153.195312 C 139.324219 153.085938 139.523438 152.988281 139.730469 152.90625 C 139.933594 152.820312 140.144531 152.75 140.359375 152.691406 C 140.574219 152.636719 140.792969 152.59375 141.011719 152.5625 C 141.230469 152.535156 141.453125 152.519531 141.675781 152.519531 C 141.898438 152.519531 142.117188 152.535156 142.339844 152.5625 C 142.558594 152.59375 142.773438 152.636719 142.988281 152.691406 C 143.203125 152.75 143.414062 152.820312 143.621094 152.90625 C 143.824219 152.988281 144.023438 153.085938 144.214844 153.195312 C 144.410156 153.308594 144.59375 153.429688 144.769531 153.5625 C 144.945312 153.699219 145.113281 153.84375 145.269531 154 C 145.429688 154.15625 145.574219 154.320312 145.710938 154.496094 C 145.847656 154.671875 145.972656 154.855469 146.085938 155.046875 L 148.792969 159.765625 C 148.871094 159.921875 149 160.011719 149.171875 160.042969 L 154.613281 161.117188 C 155.507812 161.289062 156.300781 161.679688 156.984375 162.285156 C 157.671875 162.890625 158.15625 163.625 158.4375 164.492188 C 158.726562 165.351562 158.765625 166.226562 158.566406 167.109375 C 158.367188 167.992188 157.949219 168.761719 157.320312 169.410156 Z M 153.558594 173.378906 " fill-opacity="1" fill-rule="nonzero"/></svg>