<svg xmlns="http://www.w3.org/2000/svg" xmlns:xlink="http://www.w3.org/1999/xlink" width="378" zoomAndPan="magnify" viewBox="0 0 282.96 283.499989" height="378" preserveAspectRatio="xMidYMid meet" version="1.0"><defs><clipPath id="5f637c6442"><path d="M 0.230469 218 L 84 218 L 84 271.769531 L 0.230469 271.769531 Z M 0.230469 218 " clip-rule="nonzero"/></clipPath><clipPath id="218632422a"><path d="M 99 218 L 185 218 L 185 271.769531 L 99 271.769531 Z M 99 218 " clip-rule="nonzero"/></clipPath><clipPath id="898414ba9a"><path d="M 199 218 L 282.691406 218 L 282.691406 271.769531 L 199 271.769531 Z M 199 218 " clip-rule="nonzero"/></clipPath><clipPath id="193e490177"><path d="M 135 8.980469 L 148 8.980469 L 148 39 L 135 39 Z M 135 8.980469 " clip-rule="nonzero"/></clipPath></defs><path fill="#000000" d="M 69.484375 176.832031 L 45.5625 176.832031 C 32.464844 176.832031 21.824219 187.386719 21.824219 200.578125 L 21.824219 204.851562 C 23.460938 204.671875 25.097656 204.578125 26.824219 204.578125 L 55.386719 204.578125 C 70.757812 204.578125 84.128906 212.769531 91.496094 225.140625 C 91.953125 224.140625 92.589844 223.230469 93.226562 222.414062 L 93.226562 200.578125 C 93.226562 187.386719 82.582031 176.832031 69.484375 176.832031 Z M 69.484375 176.832031 " fill-opacity="1" fill-rule="nonzero"/><path fill="#000000" d="M 129.792969 176.832031 C 116.691406 176.832031 106.050781 187.386719 106.050781 200.578125 L 106.050781 210.585938 C 112.328125 206.765625 119.695312 204.578125 127.515625 204.578125 L 156.078125 204.578125 C 163.902344 204.578125 171.269531 206.765625 177.546875 210.585938 L 177.546875 200.578125 C 177.546875 187.386719 166.902344 176.832031 153.714844 176.832031 Z M 129.792969 176.832031 " fill-opacity="1" fill-rule="nonzero"/><path fill="#000000" d="M 256.769531 204.578125 C 258.5 204.578125 260.136719 204.671875 261.773438 204.851562 L 261.773438 200.578125 C 261.773438 187.386719 251.128906 176.832031 238.03125 176.832031 L 214.109375 176.832031 C 201.011719 176.832031 190.371094 187.386719 190.371094 200.578125 L 190.371094 222.414062 C 191.007812 223.230469 191.644531 224.140625 192.1875 225.140625 C 199.464844 212.769531 212.835938 204.578125 228.117188 204.578125 Z M 256.769531 204.578125 " fill-opacity="1" fill-rule="nonzero"/><g clip-path="url(#5f637c6442)"><path fill="#000000" d="M 55.429688 218.257812 L 26.867188 218.257812 C 11.210938 218.257812 -1.480469 230.953125 -1.480469 246.609375 L -1.480469 265.367188 C -1.480469 268.816406 1.316406 271.609375 4.761719 271.609375 L 77.539062 271.609375 C 80.984375 271.609375 83.777344 268.816406 83.777344 265.367188 L 83.777344 246.613281 C 83.777344 230.953125 71.085938 218.257812 55.429688 218.257812 Z M 55.429688 218.257812 " fill-opacity="1" fill-rule="nonzero"/></g><g clip-path="url(#218632422a)"><path fill="#000000" d="M 156.078125 218.257812 L 127.515625 218.257812 C 111.859375 218.257812 99.167969 230.953125 99.167969 246.609375 L 99.167969 265.367188 C 99.167969 268.816406 101.960938 271.609375 105.40625 271.609375 L 178.1875 271.609375 C 181.632812 271.609375 184.425781 268.816406 184.425781 265.367188 L 184.425781 246.613281 C 184.425781 230.953125 171.734375 218.257812 156.078125 218.257812 Z M 156.078125 218.257812 " fill-opacity="1" fill-rule="nonzero"/></g><g clip-path="url(#898414ba9a)"><path fill="#000000" d="M 256.726562 218.257812 L 228.164062 218.257812 C 212.507812 218.257812 199.816406 230.953125 199.816406 246.609375 L 199.816406 265.367188 C 199.816406 268.816406 202.609375 271.609375 206.054688 271.609375 L 278.835938 271.609375 C 282.28125 271.609375 285.074219 268.816406 285.074219 265.367188 L 285.074219 246.613281 C 285.074219 230.953125 272.382812 218.257812 256.726562 218.257812 Z M 256.726562 218.257812 " fill-opacity="1" fill-rule="nonzero"/></g><path fill="#000000" d="M 174.660156 144.21875 L 169.113281 117.511719 C 168.90625 116.484375 169.320312 115.664062 169.933594 115.046875 L 190.0625 96.558594 C 193.347656 93.476562 191.707031 87.726562 186.980469 87.3125 L 159.871094 84.230469 C 158.84375 84.027344 158.023438 83.617188 157.816406 82.589844 L 146.519531 57.730469 C 144.671875 53.621094 138.714844 53.621094 136.867188 57.730469 L 125.570312 82.589844 C 125.160156 83.410156 124.339844 84.027344 123.3125 84.230469 L 96.203125 87.3125 C 91.683594 87.726562 89.835938 93.476562 93.121094 96.558594 L 113.25 115.046875 C 113.867188 115.664062 114.277344 116.691406 114.070312 117.511719 L 108.523438 144.21875 C 107.703125 148.738281 112.425781 152.230469 116.328125 149.96875 L 139.949219 136.617188 C 140.769531 136.207031 141.796875 136.207031 142.617188 136.617188 L 166.238281 149.96875 C 170.757812 152.230469 175.6875 148.738281 174.660156 144.21875 Z M 174.660156 144.21875 " fill-opacity="1" fill-rule="nonzero"/><path fill="#000000" d="M 74.84375 138.054688 L 59.644531 146.683594 C 56.769531 148.328125 55.742188 152.230469 57.382812 155.105469 C 58.617188 157.160156 60.671875 158.1875 62.726562 158.1875 C 63.75 158.1875 64.777344 157.984375 65.804688 157.367188 L 81.003906 148.53125 C 83.878906 146.890625 84.90625 142.984375 83.261719 140.109375 C 81.414062 137.234375 77.71875 136.207031 74.84375 138.054688 Z M 74.84375 138.054688 " fill-opacity="1" fill-rule="nonzero"/><path fill="#000000" d="M 74.019531 106.417969 C 74.019531 102.925781 71.351562 100.257812 67.859375 100.257812 L 50.402344 100.257812 C 46.910156 100.257812 44.238281 102.925781 44.238281 106.417969 C 44.238281 109.910156 46.910156 112.582031 50.402344 112.582031 L 67.859375 112.582031 C 71.351562 112.582031 74.019531 109.910156 74.019531 106.417969 Z M 74.019531 106.417969 " fill-opacity="1" fill-rule="nonzero"/><path fill="#000000" d="M 81.003906 64.101562 L 65.804688 55.265625 C 62.929688 53.625 59.027344 54.648438 57.386719 57.527344 C 55.535156 60.609375 56.5625 64.304688 59.644531 66.15625 L 74.84375 74.988281 C 75.871094 75.605469 76.894531 75.808594 77.921875 75.808594 C 79.976562 75.808594 82.03125 74.78125 83.261719 72.726562 C 84.90625 69.648438 83.878906 65.742188 81.003906 64.101562 Z M 81.003906 64.101562 " fill-opacity="1" fill-rule="nonzero"/><path fill="#000000" d="M 99.488281 45.609375 C 100.722656 47.664062 102.773438 48.691406 104.828125 48.691406 C 105.855469 48.691406 106.882812 48.488281 107.910156 47.871094 C 110.785156 46.226562 111.8125 42.324219 110.167969 39.449219 L 101.542969 24.246094 C 99.898438 21.371094 95.996094 20.34375 93.121094 21.988281 C 90.246094 23.628906 89.21875 27.535156 90.863281 30.410156 Z M 99.488281 45.609375 " fill-opacity="1" fill-rule="nonzero"/><g clip-path="url(#193e490177)"><path fill="#000000" d="M 141.796875 38.625 C 145.289062 38.625 147.960938 35.957031 147.960938 32.464844 L 147.960938 15 C 147.960938 11.507812 145.289062 8.839844 141.796875 8.839844 C 138.304688 8.839844 135.636719 11.507812 135.636719 15 L 135.636719 32.464844 C 135.636719 35.957031 138.304688 38.625 141.796875 38.625 Z M 141.796875 38.625 " fill-opacity="1" fill-rule="nonzero"/></g><path fill="#000000" d="M 175.6875 47.871094 C 176.710938 48.488281 177.738281 48.691406 178.765625 48.691406 C 180.820312 48.691406 183.078125 47.664062 184.105469 45.609375 L 192.9375 30.410156 C 194.582031 27.53125 193.554688 23.628906 190.679688 21.988281 C 187.597656 20.136719 183.902344 21.164062 182.054688 24.246094 L 173.222656 39.449219 C 171.578125 42.324219 172.605469 46.023438 175.6875 47.871094 Z M 175.6875 47.871094 " fill-opacity="1" fill-rule="nonzero"/><path fill="#000000" d="M 205.671875 75.605469 C 206.699219 75.605469 207.726562 75.398438 208.753906 74.78125 L 223.949219 65.949219 C 226.828125 64.304688 227.851562 60.402344 226.210938 57.527344 C 224.566406 54.648438 220.664062 53.621094 217.789062 55.265625 L 202.589844 64.101562 C 199.714844 65.742188 198.6875 69.648438 200.332031 72.523438 C 201.5625 74.578125 203.617188 75.605469 205.671875 75.605469 Z M 205.671875 75.605469 " fill-opacity="1" fill-rule="nonzero"/><path fill="#000000" d="M 233.191406 100.257812 L 215.734375 100.257812 C 212.246094 100.257812 209.574219 102.925781 209.574219 106.417969 C 209.574219 109.910156 212.246094 112.582031 215.734375 112.582031 L 233.191406 112.582031 C 236.683594 112.582031 239.355469 109.910156 239.355469 106.417969 C 239.355469 102.925781 236.683594 100.257812 233.191406 100.257812 Z M 233.191406 100.257812 " fill-opacity="1" fill-rule="nonzero"/><path fill="#000000" d="M 223.949219 146.683594 L 208.753906 137.851562 C 205.878906 136.207031 201.976562 137.234375 200.332031 140.109375 C 198.6875 142.984375 199.714844 146.890625 202.589844 148.53125 L 217.789062 157.367188 C 218.816406 157.984375 219.84375 158.1875 220.871094 158.1875 C 222.925781 158.1875 224.976562 157.160156 226.210938 155.105469 C 228.058594 152.230469 227.03125 148.53125 223.949219 146.683594 Z M 223.949219 146.683594 " fill-opacity="1" fill-rule="nonzero"/></svg>