<svg xmlns="http://www.w3.org/2000/svg" xmlns:xlink="http://www.w3.org/1999/xlink" width="378" zoomAndPan="magnify" viewBox="0 0 282.96 283.499989" height="378" preserveAspectRatio="xMidYMid meet" version="1.0"><defs><clipPath id="5926502412"><path d="M 33.554688 8.980469 L 249.921875 8.980469 L 249.921875 279 L 33.554688 279 Z M 33.554688 8.980469 " clip-rule="nonzero"/></clipPath></defs><g clip-path="url(#5926502412)"><path fill="#000000" d="M 248.820312 56.007812 L 220.1875 11.050781 C 219.769531 10.414062 219.226562 9.910156 218.558594 9.546875 C 217.890625 9.179688 217.175781 8.992188 216.414062 8.980469 L 67.0625 8.980469 C 66.300781 8.992188 65.585938 9.179688 64.921875 9.546875 C 64.253906 9.910156 63.710938 10.414062 63.289062 11.050781 L 34.65625 56.007812 C 34.203125 56.71875 33.972656 57.496094 33.957031 58.335938 C 33.9375 59.175781 34.144531 59.960938 34.566406 60.6875 L 88.398438 153.167969 C 87.5625 154.035156 86.75 154.921875 85.957031 155.832031 C 85.167969 156.738281 84.398438 157.664062 83.648438 158.609375 C 82.902344 159.550781 82.179688 160.515625 81.480469 161.492188 C 80.78125 162.472656 80.101562 163.46875 79.453125 164.484375 C 78.800781 165.496094 78.171875 166.523438 77.570312 167.566406 C 76.96875 168.609375 76.394531 169.667969 75.84375 170.738281 C 75.292969 171.808594 74.769531 172.894531 74.273438 173.992188 C 73.777344 175.089844 73.304688 176.195312 72.863281 177.316406 C 72.417969 178.4375 72.003906 179.566406 71.613281 180.707031 C 71.226562 181.847656 70.863281 182.996094 70.53125 184.152344 C 70.199219 185.3125 69.894531 186.476562 69.621094 187.648438 C 69.34375 188.820312 69.097656 190 68.878906 191.183594 C 68.660156 192.367188 68.472656 193.558594 68.308594 194.75 C 68.148438 195.945312 68.019531 197.140625 67.914062 198.34375 C 67.8125 199.542969 67.742188 200.746094 67.695312 201.949219 C 67.652344 203.152344 67.636719 204.355469 67.652344 205.5625 C 67.667969 206.765625 67.710938 207.96875 67.785156 209.171875 C 67.859375 210.375 67.960938 211.574219 68.09375 212.769531 C 68.222656 213.96875 68.386719 215.160156 68.574219 216.351562 C 68.765625 217.539062 68.984375 218.726562 69.230469 219.902344 C 69.476562 221.082031 69.753906 222.253906 70.058594 223.421875 C 70.363281 224.585938 70.695312 225.742188 71.054688 226.890625 C 71.417969 228.042969 71.804688 229.179688 72.222656 230.3125 C 72.636719 231.441406 73.082031 232.5625 73.554688 233.667969 C 74.023438 234.777344 74.519531 235.875 75.046875 236.960938 C 75.570312 238.042969 76.121094 239.113281 76.695312 240.171875 C 77.273438 241.230469 77.875 242.273438 78.5 243.300781 C 79.128906 244.328125 79.777344 245.339844 80.457031 246.335938 C 81.132812 247.332031 81.832031 248.3125 82.554688 249.277344 C 83.28125 250.238281 84.027344 251.183594 84.796875 252.109375 C 85.566406 253.035156 86.359375 253.941406 87.171875 254.828125 C 87.984375 255.714844 88.820312 256.582031 89.675781 257.429688 C 90.535156 258.273438 91.410156 259.101562 92.304688 259.902344 C 93.203125 260.707031 94.117188 261.488281 95.050781 262.25 C 95.984375 263.007812 96.9375 263.742188 97.910156 264.457031 C 98.878906 265.167969 99.867188 265.855469 100.871094 266.523438 C 101.875 267.1875 102.890625 267.828125 103.925781 268.441406 C 104.960938 269.054688 106.011719 269.644531 107.074219 270.210938 C 108.136719 270.773438 109.214844 271.3125 110.304688 271.820312 C 111.394531 272.332031 112.496094 272.816406 113.609375 273.273438 C 114.722656 273.734375 115.847656 274.164062 116.980469 274.566406 C 118.113281 274.96875 119.257812 275.34375 120.410156 275.691406 C 121.5625 276.039062 122.722656 276.355469 123.890625 276.648438 C 125.058594 276.9375 126.234375 277.199219 127.414062 277.433594 C 128.59375 277.664062 129.78125 277.871094 130.96875 278.042969 C 132.160156 278.21875 133.355469 278.367188 134.554688 278.484375 C 135.75 278.601562 136.949219 278.6875 138.152344 278.746094 C 139.355469 278.804688 140.558594 278.835938 141.761719 278.835938 C 142.964844 278.835938 144.167969 278.804688 145.371094 278.746094 C 146.570312 278.6875 147.769531 278.601562 148.96875 278.484375 C 150.167969 278.367188 151.359375 278.21875 152.550781 278.042969 C 153.742188 277.871094 154.925781 277.664062 156.109375 277.433594 C 157.289062 277.199219 158.464844 276.9375 159.632812 276.648438 C 160.800781 276.355469 161.960938 276.039062 163.113281 275.691406 C 164.265625 275.34375 165.40625 274.96875 166.542969 274.566406 C 167.675781 274.164062 168.800781 273.734375 169.914062 273.273438 C 171.027344 272.816406 172.128906 272.332031 173.21875 271.820312 C 174.308594 271.3125 175.382812 270.773438 176.445312 270.210938 C 177.511719 269.644531 178.558594 269.054688 179.59375 268.441406 C 180.628906 267.828125 181.648438 267.1875 182.652344 266.523438 C 183.65625 265.855469 184.644531 265.167969 185.613281 264.457031 C 186.582031 263.742188 187.535156 263.007812 188.46875 262.25 C 189.402344 261.488281 190.320312 260.707031 191.214844 259.902344 C 192.113281 259.101562 192.988281 258.273438 193.84375 257.429688 C 194.699219 256.582031 195.535156 255.714844 196.351562 254.828125 C 197.164062 253.941406 197.957031 253.035156 198.726562 252.109375 C 199.496094 251.183594 200.242188 250.238281 200.964844 249.277344 C 201.691406 248.3125 202.390625 247.332031 203.066406 246.335938 C 203.742188 245.339844 204.394531 244.328125 205.019531 243.300781 C 205.648438 242.273438 206.25 241.230469 206.828125 240.171875 C 207.402344 239.113281 207.953125 238.042969 208.476562 236.960938 C 209 235.875 209.5 234.777344 209.96875 233.667969 C 210.441406 232.5625 210.882812 231.441406 211.300781 230.3125 C 211.714844 229.179688 212.105469 228.042969 212.464844 226.890625 C 212.824219 225.742188 213.160156 224.585938 213.464844 223.421875 C 213.769531 222.253906 214.042969 221.082031 214.292969 219.902344 C 214.539062 218.726562 214.757812 217.539062 214.945312 216.351562 C 215.136719 215.160156 215.296875 213.96875 215.429688 212.769531 C 215.5625 211.574219 215.664062 210.375 215.738281 209.171875 C 215.808594 207.96875 215.855469 206.765625 215.867188 205.5625 C 215.882812 204.355469 215.871094 203.152344 215.824219 201.949219 C 215.78125 200.746094 215.707031 199.542969 215.605469 198.34375 C 215.503906 197.140625 215.371094 195.945312 215.210938 194.75 C 215.050781 193.558594 214.863281 192.367188 214.644531 191.183594 C 214.425781 190 214.175781 188.820312 213.902344 187.648438 C 213.625 186.476562 213.320312 185.3125 212.988281 184.152344 C 212.65625 182.996094 212.296875 181.847656 211.90625 180.707031 C 211.519531 179.566406 211.101562 178.4375 210.660156 177.316406 C 210.214844 176.195312 209.746094 175.089844 209.25 173.992188 C 208.75 172.894531 208.226562 171.808594 207.675781 170.738281 C 207.128906 169.667969 206.550781 168.609375 205.949219 167.566406 C 205.347656 166.523438 204.722656 165.496094 204.070312 164.484375 C 203.417969 163.46875 202.742188 162.472656 202.042969 161.492188 C 201.34375 160.515625 200.617188 159.550781 199.871094 158.609375 C 199.125 157.664062 198.355469 156.738281 197.5625 155.832031 C 196.769531 154.921875 195.957031 154.035156 195.121094 153.167969 L 248.910156 60.6875 C 249.335938 59.960938 249.539062 59.175781 249.523438 58.335938 C 249.503906 57.496094 249.273438 56.71875 248.820312 56.007812 Z M 183.0625 62.933594 L 144.546875 130.507812 C 142.660156 130.375 140.773438 130.375 138.886719 130.507812 L 100.414062 62.933594 Z M 57.652344 36.632812 L 66.859375 22.199219 L 129.183594 131.542969 C 124.398438 132.347656 119.742188 133.621094 115.214844 135.363281 Z M 141.738281 251.273438 C 140.210938 251.273438 138.683594 251.195312 137.164062 251.046875 C 135.644531 250.898438 134.132812 250.671875 132.632812 250.375 C 131.132812 250.074219 129.652344 249.703125 128.191406 249.261719 C 126.726562 248.816406 125.292969 248.300781 123.878906 247.714844 C 122.46875 247.128906 121.085938 246.476562 119.738281 245.757812 C 118.390625 245.035156 117.082031 244.25 115.808594 243.398438 C 114.539062 242.550781 113.3125 241.640625 112.132812 240.667969 C 110.949219 239.699219 109.820312 238.671875 108.738281 237.589844 C 107.65625 236.507812 106.632812 235.375 105.664062 234.191406 C 104.691406 233.011719 103.785156 231.785156 102.933594 230.511719 C 102.085938 229.238281 101.300781 227.929688 100.578125 226.578125 C 99.859375 225.230469 99.207031 223.847656 98.621094 222.433594 C 98.035156 221.023438 97.523438 219.582031 97.078125 218.117188 C 96.636719 216.65625 96.265625 215.171875 95.964844 213.671875 C 95.667969 212.171875 95.445312 210.660156 95.292969 209.136719 C 95.144531 207.613281 95.070312 206.089844 95.070312 204.558594 C 95.070312 203.027344 95.144531 201.503906 95.292969 199.980469 C 95.445312 198.457031 95.667969 196.945312 95.964844 195.445312 C 96.265625 193.945312 96.636719 192.460938 97.078125 191 C 97.523438 189.535156 98.035156 188.09375 98.621094 186.683594 C 99.207031 185.269531 99.859375 183.886719 100.578125 182.539062 C 101.300781 181.1875 102.085938 179.878906 102.933594 178.605469 C 103.785156 177.332031 104.691406 176.105469 105.664062 174.921875 C 106.632812 173.742188 107.65625 172.609375 108.738281 171.527344 C 109.820312 170.445312 110.949219 169.417969 112.132812 168.449219 C 113.3125 167.476562 114.539062 166.566406 115.808594 165.71875 C 117.082031 164.867188 118.390625 164.082031 119.738281 163.359375 C 121.085938 162.640625 122.46875 161.984375 123.878906 161.402344 C 125.292969 160.816406 126.726562 160.300781 128.191406 159.855469 C 129.652344 159.410156 131.132812 159.039062 132.632812 158.742188 C 134.132812 158.445312 135.644531 158.21875 137.164062 158.070312 C 138.683594 157.917969 140.210938 157.84375 141.738281 157.84375 C 143.265625 157.84375 144.792969 157.917969 146.3125 158.070312 C 147.832031 158.21875 149.34375 158.445312 150.84375 158.742188 C 152.34375 159.039062 153.824219 159.410156 155.285156 159.855469 C 156.75 160.300781 158.1875 160.816406 159.597656 161.402344 C 161.011719 161.984375 162.390625 162.640625 163.738281 163.359375 C 165.085938 164.082031 166.394531 164.867188 167.667969 165.71875 C 168.9375 166.566406 170.164062 167.476562 171.34375 168.449219 C 172.527344 169.417969 173.65625 170.445312 174.738281 171.527344 C 175.820312 172.609375 176.84375 173.742188 177.8125 174.921875 C 178.785156 176.105469 179.691406 177.332031 180.542969 178.605469 C 181.390625 179.878906 182.175781 181.1875 182.898438 182.539062 C 183.617188 183.886719 184.269531 185.269531 184.855469 186.683594 C 185.441406 188.09375 185.953125 189.535156 186.398438 191 C 186.839844 192.460938 187.210938 193.945312 187.511719 195.445312 C 187.808594 196.945312 188.03125 198.457031 188.183594 199.980469 C 188.332031 201.503906 188.40625 203.027344 188.40625 204.558594 C 188.40625 206.089844 188.328125 207.613281 188.179688 209.136719 C 188.027344 210.65625 187.800781 212.167969 187.503906 213.667969 C 187.203125 215.167969 186.832031 216.648438 186.386719 218.113281 C 185.945312 219.578125 185.429688 221.015625 184.84375 222.429688 C 184.257812 223.839844 183.605469 225.222656 182.882812 226.570312 C 182.164062 227.917969 181.378906 229.230469 180.527344 230.5 C 179.679688 231.773438 178.769531 233 177.800781 234.179688 C 176.832031 235.363281 175.804688 236.496094 174.726562 237.578125 C 173.644531 238.660156 172.515625 239.683594 171.332031 240.65625 C 170.152344 241.625 168.925781 242.535156 167.65625 243.386719 C 166.386719 244.234375 165.078125 245.023438 163.730469 245.742188 C 162.382812 246.464844 161.003906 247.117188 159.589844 247.703125 C 158.179688 248.289062 156.742188 248.804688 155.28125 249.25 C 153.820312 249.695312 152.339844 250.066406 150.839844 250.367188 C 149.339844 250.667969 147.832031 250.890625 146.3125 251.042969 C 144.789062 251.195312 143.265625 251.269531 141.738281 251.273438 Z M 168.285156 135.363281 C 163.757812 133.621094 159.101562 132.347656 154.316406 131.542969 L 216.636719 22.199219 L 225.847656 36.632812 Z M 168.285156 135.363281 " fill-opacity="1" fill-rule="nonzero"/></g><path fill="#000000" d="M 165.589844 211.863281 C 165.402344 212.085938 165.3125 212.339844 165.320312 212.628906 L 166.621094 223.417969 C 166.738281 224.300781 166.734375 225.179688 166.609375 226.058594 C 166.488281 226.9375 166.25 227.785156 165.898438 228.601562 C 165.546875 229.417969 165.09375 230.171875 164.539062 230.863281 C 163.980469 231.554688 163.34375 232.160156 162.625 232.679688 C 161.890625 233.210938 161.097656 233.640625 160.25 233.964844 C 159.40625 234.292969 158.53125 234.503906 157.628906 234.597656 C 156.726562 234.695312 155.828125 234.675781 154.929688 234.535156 C 154.035156 234.398438 153.171875 234.148438 152.339844 233.78125 L 142.300781 229.242188 C 141.941406 229.042969 141.582031 229.042969 141.222656 229.242188 L 131.136719 233.78125 C 130.308594 234.152344 129.445312 234.410156 128.550781 234.554688 C 127.652344 234.695312 126.753906 234.722656 125.851562 234.625 C 124.945312 234.53125 124.070312 234.320312 123.222656 233.996094 C 122.375 233.667969 121.585938 233.238281 120.851562 232.703125 C 120.132812 232.183594 119.496094 231.578125 118.9375 230.886719 C 118.382812 230.191406 117.929688 229.4375 117.578125 228.625 C 117.226562 227.808594 116.988281 226.960938 116.867188 226.082031 C 116.742188 225.203125 116.738281 224.324219 116.855469 223.441406 L 118.15625 212.652344 C 118.171875 212.347656 118.066406 212.09375 117.84375 211.886719 L 110.339844 203.882812 C 109.722656 203.242188 109.199219 202.527344 108.773438 201.738281 C 108.347656 200.953125 108.039062 200.125 107.839844 199.253906 C 107.640625 198.378906 107.5625 197.496094 107.609375 196.605469 C 107.652344 195.710938 107.8125 194.839844 108.09375 193.992188 C 108.375 193.136719 108.761719 192.332031 109.257812 191.578125 C 109.753906 190.824219 110.335938 190.148438 111.011719 189.550781 C 111.6875 188.953125 112.429688 188.457031 113.238281 188.058594 C 114.046875 187.660156 114.890625 187.375 115.777344 187.203125 L 126.691406 185.046875 C 127.039062 184.984375 127.292969 184.796875 127.453125 184.484375 L 132.890625 174.996094 C 133.113281 174.613281 133.363281 174.242188 133.636719 173.890625 C 133.910156 173.539062 134.203125 173.207031 134.519531 172.890625 C 134.835938 172.578125 135.171875 172.285156 135.527344 172.015625 C 135.882812 171.746094 136.25 171.5 136.636719 171.277344 C 137.023438 171.054688 137.425781 170.859375 137.835938 170.691406 C 138.246094 170.519531 138.667969 170.378906 139.097656 170.261719 C 139.53125 170.148438 139.964844 170.0625 140.40625 170.003906 C 140.847656 169.945312 141.292969 169.917969 141.738281 169.917969 C 142.183594 169.917969 142.628906 169.945312 143.070312 170.003906 C 143.511719 170.0625 143.945312 170.148438 144.378906 170.261719 C 144.808594 170.378906 145.230469 170.519531 145.640625 170.691406 C 146.054688 170.859375 146.453125 171.054688 146.839844 171.277344 C 147.226562 171.5 147.59375 171.746094 147.949219 172.015625 C 148.304688 172.285156 148.640625 172.578125 148.957031 172.890625 C 149.273438 173.207031 149.566406 173.539062 149.839844 173.890625 C 150.113281 174.242188 150.363281 174.613281 150.585938 174.996094 L 156.023438 184.484375 C 156.183594 184.796875 156.4375 184.984375 156.785156 185.046875 L 167.699219 187.203125 C 168.585938 187.375 169.429688 187.660156 170.238281 188.058594 C 171.046875 188.457031 171.789062 188.953125 172.464844 189.550781 C 173.140625 190.148438 173.726562 190.824219 174.21875 191.578125 C 174.714844 192.332031 175.101562 193.136719 175.382812 193.992188 C 175.664062 194.839844 175.824219 195.710938 175.867188 196.605469 C 175.914062 197.496094 175.835938 198.378906 175.636719 199.253906 C 175.4375 200.125 175.128906 200.953125 174.703125 201.738281 C 174.277344 202.527344 173.757812 203.242188 173.136719 203.882812 Z M 165.589844 211.863281 " fill-opacity="1" fill-rule="nonzero"/></svg>