<svg xmlns="http://www.w3.org/2000/svg" xmlns:xlink="http://www.w3.org/1999/xlink" width="378" zoomAndPan="magnify" viewBox="0 0 282.96 283.499989" height="378" preserveAspectRatio="xMidYMid meet" version="1.0"><defs><clipPath id="7c83312067"><path d="M 7 8.746094 L 282.691406 8.746094 L 282.691406 255.808594 L 7 255.808594 Z M 7 8.746094 " clip-rule="nonzero"/></clipPath></defs><g clip-path="url(#7c83312067)"><path fill="#000000" d="M 279.023438 208.105469 L 173.074219 24.597656 C 167.355469 14.683594 157.105469 8.761719 145.660156 8.761719 C 134.210938 8.761719 123.960938 14.675781 118.234375 24.589844 L 12.277344 208.105469 C 6.550781 218.015625 6.558594 229.855469 12.277344 239.769531 C 17.996094 249.679688 28.253906 255.597656 39.699219 255.597656 L 251.601562 255.597656 C 263.046875 255.597656 273.296875 249.679688 279.023438 239.761719 C 284.75 229.855469 284.75 218.015625 279.023438 208.105469 Z M 145.652344 214.941406 C 138.742188 214.941406 133.148438 209.347656 133.148438 202.441406 C 133.148438 195.535156 138.75 189.941406 145.652344 189.941406 C 152.558594 189.941406 158.152344 195.535156 158.152344 202.441406 C 158.152344 209.347656 152.558594 214.941406 145.652344 214.941406 Z M 160.078125 104.578125 L 153.148438 171.730469 C 152.753906 175.566406 149.511719 178.488281 145.652344 178.488281 C 141.789062 178.488281 138.554688 175.566406 138.152344 171.730469 L 131.222656 104.578125 C 130.339844 96.027344 137.050781 88.585938 145.652344 88.585938 C 154.25 88.585938 160.960938 96.027344 160.078125 104.578125 Z M 160.078125 104.578125 " fill-opacity="1" fill-rule="nonzero"/></g></svg>