<svg xmlns="http://www.w3.org/2000/svg" xmlns:xlink="http://www.w3.org/1999/xlink" width="378" zoomAndPan="magnify" viewBox="0 0 282.96 283.499989" height="378" preserveAspectRatio="xMidYMid meet" version="1.0"><defs><clipPath id="1918cbd719"><path d="M 85.117188 91.257812 L 198 91.257812 L 198 191.578125 L 85.117188 191.578125 Z M 85.117188 91.257812 " clip-rule="nonzero"/></clipPath></defs><g clip-path="url(#1918cbd719)"><path fill="#000000" d="M 195.972656 172.371094 L 152.867188 97.707031 C 150.539062 93.675781 146.367188 91.265625 141.710938 91.265625 C 137.054688 91.265625 132.882812 93.671875 130.554688 97.707031 L 87.441406 172.371094 C 85.113281 176.40625 85.117188 181.222656 87.441406 185.257812 C 89.769531 189.289062 93.941406 191.695312 98.601562 191.695312 L 184.816406 191.695312 C 189.472656 191.695312 193.644531 189.289062 195.972656 185.253906 C 198.304688 181.222656 198.304688 176.40625 195.972656 172.371094 Z M 141.707031 175.15625 C 138.898438 175.15625 136.621094 172.878906 136.621094 170.066406 C 136.621094 167.257812 138.902344 164.980469 141.707031 164.980469 C 144.519531 164.980469 146.792969 167.257812 146.792969 170.066406 C 146.792969 172.878906 144.519531 175.15625 141.707031 175.15625 Z M 147.578125 130.25 L 144.757812 157.574219 C 144.597656 159.132812 143.28125 160.320312 141.707031 160.320312 C 140.136719 160.320312 138.820312 159.132812 138.65625 157.574219 L 135.839844 130.25 C 135.480469 126.773438 138.210938 123.742188 141.707031 123.742188 C 145.207031 123.742188 147.9375 126.773438 147.578125 130.25 Z M 147.578125 130.25 " fill-opacity="1" fill-rule="nonzero"/></g></svg>