<svg xmlns="http://www.w3.org/2000/svg" xmlns:xlink="http://www.w3.org/1999/xlink" width="378" zoomAndPan="magnify" viewBox="0 0 282.96 283.499989" height="378" preserveAspectRatio="xMidYMid meet" version="1.0"><defs><clipPath id="a0e8cbbecd"><path d="M 28.527344 15 L 262.863281 15 L 262.863281 245 L 28.527344 245 Z M 28.527344 15 " clip-rule="nonzero"/></clipPath></defs><path fill="#000000" d="M 180.191406 221.296875 C 178.570312 222.996094 176.597656 224.601562 174.304688 225.910156 C 171.996094 227.214844 169.648438 228.132812 167.363281 228.679688 L 182.425781 260.371094 C 185.652344 266.914062 191.992188 266.796875 196.445312 264.242188 C 200.90625 261.640625 204.167969 256.230469 200.125 250.171875 Z M 180.191406 221.296875 " fill-opacity="1" fill-rule="nonzero"/><g clip-path="url(#a0e8cbbecd)"><path fill="#000000" d="M 96.597656 15.804688 C 91.023438 15.804688 86.519531 20.296875 86.519531 25.863281 L 86.519531 60.191406 C 86.519531 65.777344 91.023438 70.273438 96.597656 70.273438 C 102.1875 70.273438 106.691406 65.78125 106.691406 60.191406 L 106.691406 48.488281 C 111.304688 51.75 114.0625 57.046875 114.0625 62.714844 C 114.082031 72.34375 106.238281 80.179688 96.597656 80.160156 C 86.953125 80.179688 79.128906 72.34375 79.128906 62.714844 L 79.128906 33.875 L 66.765625 33.875 C 59.882812 33.875 53.328125 35.617188 48.183594 39.679688 C 43.0625 43.761719 39.832031 50.089844 39.128906 57.324219 L 29.039062 216.199219 C 28.589844 223.503906 30.230469 230.539062 34.570312 235.871094 C 38.917969 241.203125 45.78125 244.542969 53.390625 244.542969 L 161.964844 244.542969 L 154.804688 229.445312 L 55.109375 229.445312 C 51.375 229.445312 49.128906 228.15625 47.421875 226.066406 C 45.722656 223.996094 44.820312 220.847656 45.035156 216.84375 L 51.433594 92.902344 L 239.964844 92.902344 L 246.359375 216.84375 C 246.574219 220.847656 245.675781 223.996094 243.976562 226.066406 C 242.292969 228.15625 240.027344 229.445312 236.304688 229.445312 L 200.023438 229.445312 L 209.746094 243.550781 C 209.765625 243.589844 209.800781 243.644531 209.820312 243.683594 C 209.996094 243.960938 210.136719 244.253906 210.3125 244.542969 L 238.007812 244.542969 C 245.621094 244.542969 252.484375 241.203125 256.847656 235.871094 C 261.1875 230.535156 262.808594 223.503906 262.34375 216.199219 L 252.269531 57.328125 C 251.5625 50.09375 248.335938 43.765625 243.191406 39.683594 C 238.070312 35.621094 231.515625 33.878906 224.628906 33.878906 L 204.875 33.878906 L 204.875 25.867188 C 204.875 20.300781 200.378906 15.808594 194.78125 15.808594 C 189.207031 15.808594 184.710938 20.300781 184.710938 25.867188 L 184.710938 60.195312 C 184.710938 65.78125 189.207031 70.277344 194.78125 70.277344 C 200.378906 70.277344 204.875 65.785156 204.875 60.195312 L 204.875 48.492188 C 209.492188 51.753906 212.25 57.050781 212.269531 62.71875 C 212.269531 72.347656 204.445312 80.183594 194.78125 80.164062 C 185.140625 80.164062 177.3125 72.347656 177.3125 62.71875 L 177.3125 33.878906 L 106.691406 33.878906 L 106.691406 25.867188 C 106.691406 20.300781 102.1875 15.804688 96.597656 15.804688 Z M 96.597656 15.804688 " fill-opacity="1" fill-rule="evenodd"/></g><path fill="#000000" d="M 141.957031 115.308594 C 140.664062 115.265625 139.390625 115.265625 138.101562 115.308594 C 130.003906 115.640625 122.121094 117.828125 115.042969 121.773438 C 102.917969 128.539062 94.054688 139.886719 90.453125 153.308594 C 83.121094 180.664062 99.375 208.796875 126.773438 216.121094 C 136.144531 218.601562 146.003906 218.386719 155.253906 215.511719 L 156.273438 217.546875 C 158.972656 223.464844 166.113281 225.007812 171.878906 221.707031 C 177.652344 218.367188 179.882812 211.410156 176.105469 206.117188 L 174.875 204.277344 C 182.011719 197.691406 187.15625 189.238281 189.679688 179.859375 C 192.925781 167.664062 191.578125 154.714844 185.847656 143.460938 L 177.886719 153.5625 C 180.488281 161.082031 180.785156 169.230469 178.726562 176.925781 C 173.019531 198.257812 151.054688 210.914062 129.691406 205.214844 C 108.335938 199.484375 95.679688 177.574219 101.390625 156.214844 C 104.1875 145.78125 111.09375 136.933594 120.539062 131.65625 C 126.386719 128.371094 132.980469 126.632812 138.164062 126.59375 C 143.328125 126.535156 146.949219 127.003906 150.425781 127.945312 C 156.160156 129.503906 161.476562 132.339844 165.976562 136.1875 L 137.671875 166.523438 L 125.863281 154.984375 C 119.089844 148.363281 107.042969 161.390625 115.394531 169.714844 L 133.195312 187.453125 C 135.679688 189.953125 140 190.226562 142.195312 187.453125 L 189.9375 127.085938 C 195.40625 120.152344 187.722656 112.921875 182.542969 118.449219 L 173.699219 127.925781 C 167.835938 122.785156 160.871094 119.054688 153.359375 117.023438 C 149.601562 116.03125 145.789062 115.445312 141.957031 115.308594 Z M 141.957031 115.308594 " fill-opacity="1" fill-rule="nonzero"/></svg>