<svg xmlns="http://www.w3.org/2000/svg" xmlns:xlink="http://www.w3.org/1999/xlink" width="378" zoomAndPan="magnify" viewBox="0 0 282.96 283.499989" height="378" preserveAspectRatio="xMidYMid meet" version="1.0"><defs><clipPath id="51153d82b0"><path d="M 83.703125 79 L 199.75 79 L 199.75 193 L 83.703125 193 Z M 83.703125 79 " clip-rule="nonzero"/></clipPath></defs><path fill="#000000" d="M 158.808594 181.375 C 158.007812 182.21875 157.03125 183.015625 155.894531 183.664062 C 154.75 184.3125 153.589844 184.769531 152.457031 185.042969 L 159.914062 200.792969 C 161.511719 204.046875 164.652344 203.988281 166.859375 202.71875 C 169.066406 201.425781 170.683594 198.738281 168.679688 195.726562 Z M 158.808594 181.375 " fill-opacity="1" fill-rule="nonzero"/><g clip-path="url(#51153d82b0)"><path fill="#000000" d="M 117.414062 79.230469 C 114.652344 79.230469 112.421875 81.464844 112.421875 84.230469 L 112.421875 101.296875 C 112.421875 104.070312 114.652344 106.304688 117.414062 106.304688 C 120.179688 106.304688 122.410156 104.074219 122.410156 101.296875 L 122.410156 95.476562 C 124.695312 97.097656 126.0625 99.730469 126.0625 102.546875 C 126.070312 107.335938 122.1875 111.230469 117.414062 111.21875 C 112.636719 111.230469 108.761719 107.335938 108.761719 102.546875 L 108.761719 88.214844 L 102.640625 88.214844 C 99.230469 88.214844 95.984375 89.078125 93.4375 91.097656 C 90.902344 93.128906 89.304688 96.273438 88.953125 99.867188 L 83.957031 178.839844 C 83.734375 182.46875 84.546875 185.964844 86.699219 188.617188 C 88.847656 191.265625 92.25 192.929688 96.015625 192.929688 L 149.785156 192.929688 L 146.238281 185.425781 L 96.867188 185.425781 C 95.019531 185.425781 93.90625 184.78125 93.0625 183.742188 C 92.21875 182.714844 91.773438 181.148438 91.878906 179.160156 L 95.046875 117.554688 L 188.410156 117.554688 L 191.578125 179.160156 C 191.683594 181.148438 191.238281 182.714844 190.394531 183.742188 C 189.5625 184.78125 188.441406 185.425781 186.597656 185.425781 L 168.628906 185.425781 L 173.445312 192.433594 C 173.453125 192.453125 173.472656 192.480469 173.480469 192.5 C 173.570312 192.636719 173.636719 192.785156 173.726562 192.929688 L 187.441406 192.929688 C 191.210938 192.929688 194.609375 191.265625 196.769531 188.617188 C 198.917969 185.964844 199.722656 182.46875 199.492188 178.839844 L 194.503906 99.871094 C 194.152344 96.277344 192.554688 93.128906 190.007812 91.101562 C 187.472656 89.082031 184.226562 88.214844 180.816406 88.214844 L 171.03125 88.214844 L 171.03125 84.234375 C 171.03125 81.464844 168.808594 79.234375 166.035156 79.234375 C 163.273438 79.234375 161.046875 81.464844 161.046875 84.234375 L 161.046875 101.296875 C 161.046875 104.074219 163.273438 106.308594 166.035156 106.308594 C 168.808594 106.308594 171.03125 104.074219 171.03125 101.296875 L 171.03125 95.480469 C 173.320312 97.101562 174.683594 99.734375 174.695312 102.550781 C 174.695312 107.335938 170.820312 111.230469 166.035156 111.222656 C 161.261719 111.222656 157.382812 107.335938 157.382812 102.550781 L 157.382812 88.214844 L 122.410156 88.214844 L 122.410156 84.234375 C 122.410156 81.464844 120.179688 79.230469 117.414062 79.230469 Z M 117.414062 79.230469 " fill-opacity="1" fill-rule="evenodd"/></g><path fill="#000000" d="M 139.875 128.691406 C 139.234375 128.667969 138.605469 128.667969 137.964844 128.691406 C 133.957031 128.855469 130.050781 129.945312 126.546875 131.90625 C 120.542969 135.265625 116.152344 140.90625 114.371094 147.578125 C 110.738281 161.175781 118.789062 175.160156 132.355469 178.800781 C 136.996094 180.035156 141.878906 179.925781 146.460938 178.496094 L 146.964844 179.507812 C 148.300781 182.449219 151.835938 183.21875 154.695312 181.578125 C 157.550781 179.917969 158.65625 176.460938 156.785156 173.828125 L 156.175781 172.914062 C 159.710938 169.640625 162.257812 165.4375 163.507812 160.777344 C 165.117188 154.714844 164.449219 148.277344 161.609375 142.683594 L 157.667969 147.703125 C 158.957031 151.441406 159.101562 155.492188 158.085938 159.320312 C 155.257812 169.921875 144.378906 176.214844 133.800781 173.378906 C 123.226562 170.53125 116.957031 159.640625 119.789062 149.023438 C 121.171875 143.835938 124.59375 139.4375 129.269531 136.816406 C 132.164062 135.183594 135.429688 134.320312 137.996094 134.300781 C 140.554688 134.269531 142.347656 134.503906 144.070312 134.972656 C 146.910156 135.746094 149.542969 137.15625 151.769531 139.066406 L 137.753906 154.148438 L 131.90625 148.410156 C 128.550781 145.121094 122.585938 151.597656 126.722656 155.734375 L 135.535156 164.550781 C 136.765625 165.792969 138.90625 165.929688 139.992188 164.550781 L 163.636719 134.546875 C 166.34375 131.097656 162.539062 127.503906 159.972656 130.25 L 155.59375 134.960938 C 152.691406 132.40625 149.242188 130.554688 145.523438 129.542969 C 143.660156 129.050781 141.773438 128.757812 139.875 128.691406 Z M 139.875 128.691406 " fill-opacity="1" fill-rule="nonzero"/></svg>