<svg xmlns="http://www.w3.org/2000/svg" xmlns:xlink="http://www.w3.org/1999/xlink" width="378" zoomAndPan="magnify" viewBox="0 0 282.96 283.499989" height="378" preserveAspectRatio="xMidYMid meet" version="1.0"><defs><clipPath id="b699d4d396"><path d="M 17.109375 22.535156 L 282.691406 22.535156 L 282.691406 283 L 17.109375 283 Z M 17.109375 22.535156 " clip-rule="nonzero"/></clipPath></defs><g clip-path="url(#b699d4d396)"><path fill="#000000" d="M 60.152344 56.953125 C 64.609375 56.953125 68.25 53.304688 68.25 48.84375 L 68.25 30.636719 C 68.25 26.175781 64.609375 22.527344 60.152344 22.527344 C 55.699219 22.527344 52.054688 26.175781 52.054688 30.636719 L 52.054688 48.84375 C 52.054688 53.304688 55.699219 56.953125 60.152344 56.953125 Z M 215.789062 149.039062 C 252.75 149.039062 282.710938 179.046875 282.710938 216.0625 C 282.710938 253.078125 252.75 283.085938 215.789062 283.085938 C 178.832031 283.085938 148.871094 253.078125 148.871094 216.0625 C 148.871094 179.046875 178.832031 149.039062 215.789062 149.039062 Z M 218.289062 170.460938 C 217.777344 169.515625 216.863281 168.964844 215.789062 168.964844 C 214.71875 168.964844 213.800781 169.515625 213.292969 170.460938 L 200.84375 193.636719 C 200.421875 194.421875 199.730469 194.925781 198.851562 195.085938 L 173 199.777344 C 171.945312 199.96875 171.140625 200.675781 170.808594 201.699219 C 170.476562 202.71875 170.71875 203.765625 171.457031 204.539062 L 189.617188 223.554688 C 190.234375 224.203125 190.496094 225.015625 190.378906 225.902344 L 186.847656 251.980469 C 186.703125 253.042969 187.125 254.027344 187.992188 254.660156 C 188.859375 255.289062 189.925781 255.386719 190.890625 254.917969 L 214.558594 243.5 C 215.363281 243.109375 216.21875 243.109375 217.019531 243.5 L 240.691406 254.917969 C 241.65625 255.386719 242.722656 255.289062 243.589844 254.660156 C 244.457031 254.027344 244.875 253.042969 244.730469 251.980469 L 241.203125 225.902344 C 241.082031 225.015625 241.347656 224.203125 241.960938 223.554688 L 260.121094 204.539062 C 260.863281 203.765625 261.101562 202.71875 260.769531 201.699219 C 260.4375 200.675781 259.632812 199.96875 258.582031 199.777344 L 232.726562 195.085938 C 231.847656 194.925781 231.160156 194.421875 230.734375 193.632812 Z M 57.296875 109.941406 L 65.773438 109.941406 C 70.320312 109.941406 74.042969 113.667969 74.042969 118.222656 L 74.042969 126.714844 C 74.042969 131.265625 70.320312 134.992188 65.773438 134.992188 L 57.296875 134.992188 C 52.75 134.992188 49.03125 131.265625 49.03125 126.714844 L 49.03125 118.222656 C 49.03125 113.667969 52.75 109.941406 57.296875 109.941406 Z M 230.246094 41.328125 L 239.617188 41.328125 C 249.972656 41.328125 258.433594 49.804688 258.433594 60.171875 L 258.433594 83.007812 L 17.230469 83.007812 L 17.230469 60.171875 C 17.230469 49.804688 25.695312 41.328125 36.046875 41.328125 L 45.417969 41.328125 L 45.417969 48.84375 C 45.417969 56.972656 52.035156 63.601562 60.152344 63.601562 C 68.269531 63.601562 74.886719 56.976562 74.886719 48.84375 L 74.886719 41.328125 L 123.097656 41.328125 L 123.097656 48.84375 C 123.097656 56.976562 129.714844 63.601562 137.832031 63.601562 C 145.949219 63.601562 152.566406 56.976562 152.566406 48.84375 L 152.566406 41.328125 L 200.777344 41.328125 L 200.777344 48.84375 C 200.777344 56.972656 207.390625 63.601562 215.507812 63.601562 C 223.628906 63.601562 230.246094 56.976562 230.246094 48.84375 Z M 258.433594 89.65625 L 17.230469 89.65625 L 17.230469 226.796875 C 17.230469 237.160156 25.695312 245.640625 36.046875 245.640625 L 148.40625 245.640625 C 144.441406 236.585938 142.234375 226.582031 142.234375 216.0625 C 142.234375 201.523438 146.441406 187.96875 153.699219 176.550781 C 151.90625 175.027344 150.761719 172.757812 150.761719 170.230469 L 150.761719 161.738281 C 150.761719 157.1875 154.480469 153.460938 159.027344 153.460938 L 167.503906 153.460938 C 169.777344 153.460938 171.84375 154.390625 173.34375 155.890625 C 185.335938 147.390625 199.980469 142.390625 215.789062 142.390625 C 231.6875 142.390625 246.40625 147.445312 258.433594 156.03125 Z M 209.890625 109.941406 L 218.371094 109.941406 C 222.917969 109.941406 226.636719 113.667969 226.636719 118.222656 L 226.636719 126.714844 C 226.636719 131.265625 222.917969 134.992188 218.371094 134.992188 L 209.890625 134.992188 C 205.34375 134.992188 201.625 131.265625 201.625 126.714844 L 201.625 118.222656 C 201.625 113.667969 205.34375 109.941406 209.890625 109.941406 Z M 159.027344 109.941406 L 167.503906 109.941406 C 172.050781 109.941406 175.769531 113.667969 175.769531 118.222656 L 175.769531 126.714844 C 175.769531 131.265625 172.050781 134.992188 167.503906 134.992188 L 159.027344 134.992188 C 154.480469 134.992188 150.761719 131.265625 150.761719 126.714844 L 150.761719 118.222656 C 150.761719 113.667969 154.480469 109.941406 159.027344 109.941406 Z M 108.160156 153.460938 L 116.640625 153.460938 C 121.1875 153.460938 124.90625 157.1875 124.90625 161.738281 L 124.90625 170.230469 C 124.90625 174.785156 121.1875 178.511719 116.640625 178.511719 L 108.160156 178.511719 C 103.613281 178.511719 99.894531 174.785156 99.894531 170.230469 L 99.894531 161.738281 C 99.894531 157.1875 103.613281 153.460938 108.160156 153.460938 Z M 108.160156 196.980469 L 116.640625 196.980469 C 121.1875 196.980469 124.90625 200.703125 124.90625 205.257812 L 124.90625 213.75 C 124.90625 218.304688 121.1875 222.027344 116.640625 222.027344 L 108.160156 222.027344 C 103.613281 222.027344 99.894531 218.304688 99.894531 213.75 L 99.894531 205.257812 C 99.894531 200.703125 103.613281 196.980469 108.160156 196.980469 Z M 108.160156 109.941406 L 116.640625 109.941406 C 121.1875 109.941406 124.90625 113.667969 124.90625 118.222656 L 124.90625 126.714844 C 124.90625 131.265625 121.1875 134.992188 116.640625 134.992188 L 108.160156 134.992188 C 103.613281 134.992188 99.894531 131.265625 99.894531 126.714844 L 99.894531 118.222656 C 99.894531 113.667969 103.613281 109.941406 108.160156 109.941406 Z M 57.296875 153.460938 L 65.773438 153.460938 C 70.320312 153.460938 74.042969 157.1875 74.042969 161.738281 L 74.042969 170.230469 C 74.042969 174.785156 70.320312 178.511719 65.773438 178.511719 L 57.296875 178.511719 C 52.75 178.511719 49.03125 174.785156 49.03125 170.230469 L 49.03125 161.738281 C 49.03125 157.1875 52.75 153.460938 57.296875 153.460938 Z M 57.296875 196.980469 L 65.773438 196.980469 C 70.320312 196.980469 74.042969 200.703125 74.042969 205.257812 L 74.042969 213.75 C 74.042969 218.304688 70.320312 222.027344 65.773438 222.027344 L 57.296875 222.027344 C 52.75 222.027344 49.03125 218.304688 49.03125 213.75 L 49.03125 205.257812 C 49.03125 200.703125 52.75 196.980469 57.296875 196.980469 Z M 215.507812 56.953125 L 215.511719 56.953125 C 219.964844 56.953125 223.609375 53.304688 223.609375 48.84375 L 223.609375 30.636719 C 223.609375 26.175781 219.964844 22.527344 215.511719 22.527344 L 215.507812 22.527344 C 211.054688 22.527344 207.414062 26.175781 207.414062 30.636719 L 207.414062 48.84375 C 207.414062 53.304688 211.054688 56.953125 215.507812 56.953125 Z M 137.832031 56.953125 C 142.289062 56.953125 145.929688 53.304688 145.929688 48.84375 L 145.929688 30.636719 C 145.929688 26.175781 142.289062 22.527344 137.832031 22.527344 C 133.375 22.527344 129.734375 26.175781 129.734375 30.636719 L 129.734375 48.84375 C 129.734375 53.304688 133.375 56.953125 137.832031 56.953125 Z M 137.832031 56.953125 " fill-opacity="1" fill-rule="evenodd"/></g></svg>