<svg xmlns="http://www.w3.org/2000/svg" xmlns:xlink="http://www.w3.org/1999/xlink" width="378" zoomAndPan="magnify" viewBox="0 0 282.96 283.499989" height="378" preserveAspectRatio="xMidYMid meet" version="1.0"><defs><clipPath id="5495f05743"><path d="M 85.117188 86.09375 L 198.167969 86.09375 L 198.167969 196.898438 L 85.117188 196.898438 Z M 85.117188 86.09375 " clip-rule="nonzero"/></clipPath></defs><g clip-path="url(#5495f05743)"><path fill="#000000" d="M 103.429688 100.730469 C 105.324219 100.730469 106.875 99.179688 106.875 97.28125 L 106.875 89.539062 C 106.875 87.640625 105.324219 86.089844 103.429688 86.089844 C 101.535156 86.089844 99.984375 87.640625 99.984375 89.539062 L 99.984375 97.28125 C 99.984375 99.179688 101.535156 100.730469 103.429688 100.730469 Z M 169.625 139.894531 C 185.34375 139.894531 198.089844 152.652344 198.089844 168.398438 C 198.089844 184.140625 185.34375 196.902344 169.625 196.902344 C 153.90625 196.902344 141.164062 184.140625 141.164062 168.398438 C 141.164062 152.652344 153.90625 139.894531 169.625 139.894531 Z M 170.6875 149.003906 C 170.472656 148.601562 170.082031 148.367188 169.625 148.367188 C 169.167969 148.367188 168.777344 148.601562 168.5625 149.003906 L 163.269531 158.859375 C 163.089844 159.195312 162.796875 159.40625 162.421875 159.476562 L 151.425781 161.472656 C 150.976562 161.554688 150.636719 161.851562 150.492188 162.289062 C 150.355469 162.722656 150.457031 163.167969 150.769531 163.496094 L 158.492188 171.582031 C 158.757812 171.859375 158.867188 172.203125 158.816406 172.582031 L 157.316406 183.671875 C 157.253906 184.125 157.433594 184.542969 157.800781 184.8125 C 158.171875 185.078125 158.625 185.121094 159.035156 184.921875 L 169.101562 180.066406 C 169.445312 179.898438 169.808594 179.898438 170.148438 180.066406 L 180.21875 184.921875 C 180.628906 185.121094 181.082031 185.078125 181.449219 184.8125 C 181.816406 184.542969 181.996094 184.125 181.9375 183.671875 L 180.433594 172.582031 C 180.382812 172.203125 180.496094 171.859375 180.757812 171.582031 L 188.480469 163.496094 C 188.796875 163.167969 188.898438 162.722656 188.757812 162.289062 C 188.617188 161.851562 188.273438 161.554688 187.824219 161.472656 L 176.832031 159.476562 C 176.457031 159.40625 176.164062 159.195312 175.984375 158.859375 Z M 102.214844 123.265625 L 105.820312 123.265625 C 107.753906 123.265625 109.335938 124.851562 109.335938 126.785156 L 109.335938 130.398438 C 109.335938 132.335938 107.753906 133.917969 105.820312 133.917969 L 102.214844 133.917969 C 100.28125 133.917969 98.699219 132.335938 98.699219 130.398438 L 98.699219 126.785156 C 98.699219 124.851562 100.28125 123.265625 102.214844 123.265625 Z M 175.773438 94.085938 L 179.761719 94.085938 C 184.164062 94.085938 187.765625 97.691406 187.765625 102.097656 L 187.765625 111.808594 L 85.171875 111.808594 L 85.171875 102.097656 C 85.171875 97.691406 88.773438 94.085938 93.175781 94.085938 L 97.160156 94.085938 L 97.160156 97.28125 C 97.160156 100.738281 99.976562 103.558594 103.429688 103.558594 C 106.882812 103.558594 109.695312 100.738281 109.695312 97.28125 L 109.695312 94.085938 L 130.199219 94.085938 L 130.199219 97.28125 C 130.199219 100.738281 133.015625 103.558594 136.46875 103.558594 C 139.921875 103.558594 142.734375 100.738281 142.734375 97.28125 L 142.734375 94.085938 L 163.238281 94.085938 L 163.238281 97.28125 C 163.238281 100.738281 166.054688 103.558594 169.507812 103.558594 C 172.960938 103.558594 175.773438 100.738281 175.773438 97.28125 Z M 187.765625 114.636719 L 85.171875 114.636719 L 85.171875 172.960938 C 85.171875 177.371094 88.773438 180.976562 93.175781 180.976562 L 140.964844 180.976562 C 139.277344 177.125 138.339844 172.871094 138.339844 168.398438 C 138.339844 162.214844 140.128906 156.449219 143.21875 151.59375 C 142.453125 150.945312 141.96875 149.980469 141.96875 148.90625 L 141.96875 145.292969 C 141.96875 143.359375 143.550781 141.773438 145.484375 141.773438 L 149.089844 141.773438 C 150.054688 141.773438 150.933594 142.167969 151.570312 142.808594 C 156.671875 139.191406 162.902344 137.066406 169.625 137.066406 C 176.386719 137.066406 182.648438 139.214844 187.765625 142.867188 Z M 167.117188 123.265625 L 170.722656 123.265625 C 172.65625 123.265625 174.238281 124.851562 174.238281 126.785156 L 174.238281 130.398438 C 174.238281 132.335938 172.65625 133.917969 170.722656 133.917969 L 167.117188 133.917969 C 165.183594 133.917969 163.601562 132.335938 163.601562 130.398438 L 163.601562 126.785156 C 163.601562 124.851562 165.183594 123.265625 167.117188 123.265625 Z M 145.484375 123.265625 L 149.089844 123.265625 C 151.023438 123.265625 152.605469 124.851562 152.605469 126.785156 L 152.605469 130.398438 C 152.605469 132.335938 151.023438 133.917969 149.089844 133.917969 L 145.484375 133.917969 C 143.550781 133.917969 141.96875 132.335938 141.96875 130.398438 L 141.96875 126.785156 C 141.96875 124.851562 143.550781 123.265625 145.484375 123.265625 Z M 123.847656 141.773438 L 127.453125 141.773438 C 129.386719 141.773438 130.96875 143.359375 130.96875 145.292969 L 130.96875 148.90625 C 130.96875 150.84375 129.386719 152.425781 127.453125 152.425781 L 123.847656 152.425781 C 121.914062 152.425781 120.332031 150.84375 120.332031 148.90625 L 120.332031 145.292969 C 120.332031 143.359375 121.914062 141.773438 123.847656 141.773438 Z M 123.847656 160.28125 L 127.453125 160.28125 C 129.386719 160.28125 130.96875 161.867188 130.96875 163.800781 L 130.96875 167.414062 C 130.96875 169.351562 129.386719 170.933594 127.453125 170.933594 L 123.847656 170.933594 C 121.914062 170.933594 120.332031 169.351562 120.332031 167.414062 L 120.332031 163.800781 C 120.332031 161.867188 121.914062 160.28125 123.847656 160.28125 Z M 123.847656 123.265625 L 127.453125 123.265625 C 129.386719 123.265625 130.96875 124.851562 130.96875 126.785156 L 130.96875 130.398438 C 130.96875 132.335938 129.386719 133.917969 127.453125 133.917969 L 123.847656 133.917969 C 121.914062 133.917969 120.332031 132.335938 120.332031 130.398438 L 120.332031 126.785156 C 120.332031 124.851562 121.914062 123.265625 123.847656 123.265625 Z M 102.214844 141.773438 L 105.820312 141.773438 C 107.753906 141.773438 109.335938 143.359375 109.335938 145.292969 L 109.335938 148.90625 C 109.335938 150.84375 107.753906 152.425781 105.820312 152.425781 L 102.214844 152.425781 C 100.28125 152.425781 98.699219 150.84375 98.699219 148.90625 L 98.699219 145.292969 C 98.699219 143.359375 100.28125 141.773438 102.214844 141.773438 Z M 102.214844 160.28125 L 105.820312 160.28125 C 107.753906 160.28125 109.335938 161.867188 109.335938 163.800781 L 109.335938 167.414062 C 109.335938 169.351562 107.753906 170.933594 105.820312 170.933594 L 102.214844 170.933594 C 100.28125 170.933594 98.699219 169.351562 98.699219 167.414062 L 98.699219 163.800781 C 98.699219 161.867188 100.28125 160.28125 102.214844 160.28125 Z M 169.507812 100.730469 C 171.402344 100.730469 172.953125 99.179688 172.953125 97.28125 L 172.953125 89.539062 C 172.953125 87.640625 171.402344 86.089844 169.507812 86.089844 C 167.613281 86.089844 166.0625 87.640625 166.0625 89.539062 L 166.0625 97.28125 C 166.0625 99.179688 167.613281 100.730469 169.507812 100.730469 Z M 136.46875 100.730469 C 138.363281 100.730469 139.914062 99.179688 139.914062 97.28125 L 139.914062 89.539062 C 139.914062 87.640625 138.363281 86.089844 136.46875 86.089844 C 134.574219 86.089844 133.023438 87.640625 133.023438 89.539062 L 133.023438 97.28125 C 133.023438 99.179688 134.574219 100.730469 136.46875 100.730469 Z M 136.46875 100.730469 " fill-opacity="1" fill-rule="evenodd"/></g></svg>