<svg xmlns="http://www.w3.org/2000/svg" xmlns:xlink="http://www.w3.org/1999/xlink" width="378" zoomAndPan="magnify" viewBox="0 0 282.96 283.499989" height="378" preserveAspectRatio="xMidYMid meet" version="1.0"><path fill="#000000" d="M 196.628906 131.136719 C 194.890625 128.996094 193.246094 126.96875 192.589844 124.941406 C 191.890625 122.777344 192.03125 119.960938 192.171875 117.234375 C 192.371094 113.222656 192.582031 109.074219 190.335938 105.980469 C 188.066406 102.851562 184.042969 101.769531 180.15625 100.722656 C 177.425781 99.988281 174.847656 99.296875 173.050781 97.984375 C 171.28125 96.695312 169.847656 94.46875 168.332031 92.113281 C 166.128906 88.699219 163.851562 85.167969 160.128906 83.953125 C 156.570312 82.792969 152.738281 84.261719 149.03125 85.679688 C 146.453125 86.667969 143.785156 87.691406 141.453125 87.691406 C 139.117188 87.691406 136.449219 86.667969 133.871094 85.679688 C 130.167969 84.261719 126.335938 82.792969 122.773438 83.953125 C 119.050781 85.167969 116.773438 88.699219 114.574219 92.113281 C 113.054688 94.46875 111.621094 96.695312 109.855469 97.984375 C 108.054688 99.296875 105.476562 99.988281 102.75 100.722656 C 98.859375 101.769531 94.835938 102.851562 92.566406 105.980469 C 90.320312 109.074219 90.53125 113.222656 90.734375 117.234375 C 90.871094 119.960938 91.011719 122.777344 90.3125 124.941406 C 89.65625 126.96875 88.011719 128.996094 86.273438 131.136719 C 83.695312 134.316406 81.027344 137.601562 81.027344 141.605469 C 81.027344 145.613281 83.695312 148.898438 86.273438 152.078125 C 88.011719 154.21875 89.65625 156.242188 90.3125 158.273438 C 91.011719 160.4375 90.871094 163.253906 90.734375 165.980469 C 90.53125 169.992188 90.320312 174.140625 92.566406 177.234375 C 94.835938 180.363281 98.859375 181.445312 102.75 182.488281 C 105.476562 183.222656 108.054688 183.917969 109.855469 185.230469 C 111.621094 186.519531 113.054688 188.746094 114.574219 191.097656 C 116.773438 194.515625 119.050781 198.046875 122.777344 199.261719 C 123.675781 199.554688 124.597656 199.679688 125.527344 199.679688 C 128.269531 199.679688 131.105469 198.59375 133.871094 197.535156 C 136.449219 196.546875 139.117188 195.523438 141.453125 195.523438 C 143.785156 195.523438 146.453125 196.546875 149.03125 197.535156 C 152.734375 198.953125 156.566406 200.414062 160.128906 199.261719 C 163.851562 198.046875 166.128906 194.515625 168.332031 191.097656 C 169.847656 188.746094 171.28125 186.519531 173.050781 185.230469 C 174.847656 183.917969 177.425781 183.226562 180.152344 182.492188 C 184.042969 181.445312 188.066406 180.363281 190.335938 177.234375 C 192.582031 174.140625 192.371094 169.992188 192.171875 165.980469 C 192.03125 163.253906 191.890625 160.4375 192.589844 158.273438 C 193.246094 156.242188 194.890625 154.21875 196.628906 152.078125 C 199.207031 148.898438 201.875 145.613281 201.875 141.605469 C 201.875 137.601562 199.207031 134.316406 196.628906 131.136719 Z M 141.453125 183.878906 C 118.214844 183.878906 99.308594 164.914062 99.308594 141.605469 C 99.308594 118.300781 118.214844 99.335938 141.453125 99.335938 C 164.691406 99.335938 183.597656 118.300781 183.597656 141.605469 C 183.597656 164.914062 164.691406 183.878906 141.453125 183.878906 Z M 141.453125 183.878906 " fill-opacity="1" fill-rule="nonzero"/><path fill="#000000" d="M 141.453125 102.390625 C 119.894531 102.390625 102.355469 119.984375 102.355469 141.605469 C 102.355469 163.230469 119.894531 180.820312 141.453125 180.820312 C 163.011719 180.820312 180.550781 163.230469 180.550781 141.605469 C 180.550781 119.984375 163.011719 102.390625 141.453125 102.390625 Z M 167.429688 127.191406 L 133.371094 161.359375 C 133.082031 161.644531 132.695312 161.804688 132.292969 161.804688 C 131.890625 161.804688 131.5 161.644531 131.214844 161.359375 L 115.472656 145.566406 C 114.878906 144.972656 114.878906 144.003906 115.472656 143.40625 L 121.21875 137.644531 C 121.8125 137.050781 122.777344 137.050781 123.371094 137.644531 L 132.292969 146.59375 L 159.53125 119.269531 C 160.128906 118.675781 161.09375 118.675781 161.6875 119.269531 L 167.429688 125.03125 C 168.027344 125.628906 168.027344 126.597656 167.429688 127.191406 Z M 167.429688 127.191406 " fill-opacity="1" fill-rule="nonzero"/></svg>