<svg xmlns="http://www.w3.org/2000/svg" xmlns:xlink="http://www.w3.org/1999/xlink" width="378" zoomAndPan="magnify" viewBox="0 0 282.96 283.499989" height="378" preserveAspectRatio="xMidYMid meet" version="1.0"><defs><clipPath id="b10e8fd575"><path d="M 2 8 L 281.894531 8 L 281.894531 276 L 2 276 Z M 2 8 " clip-rule="nonzero"/></clipPath></defs><g clip-path="url(#b10e8fd575)"><path fill="#000000" d="M 269.039062 117.675781 C 265.027344 112.746094 261.234375 108.09375 259.71875 103.425781 C 258.101562 98.453125 258.429688 91.976562 258.746094 85.707031 C 259.214844 76.484375 259.695312 66.945312 254.511719 59.828125 C 249.273438 52.636719 239.988281 50.148438 231.007812 47.742188 C 224.707031 46.054688 218.757812 44.460938 214.601562 41.441406 C 210.523438 38.476562 207.214844 33.363281 203.707031 27.949219 C 198.625 20.09375 193.367188 11.972656 184.773438 9.183594 C 176.558594 6.519531 167.710938 9.890625 159.15625 13.152344 C 153.203125 15.425781 147.042969 17.777344 141.65625 17.777344 C 136.265625 17.777344 130.109375 15.425781 124.152344 13.152344 C 115.601562 9.890625 106.761719 6.511719 98.535156 9.183594 C 89.941406 11.972656 84.683594 20.09375 79.601562 27.949219 C 76.097656 33.363281 72.785156 38.476562 68.707031 41.441406 C 64.554688 44.460938 58.605469 46.054688 52.304688 47.742188 C 43.324219 50.144531 34.039062 52.632812 28.796875 59.828125 C 23.613281 66.941406 24.097656 76.480469 24.5625 85.707031 C 24.882812 91.972656 25.210938 98.453125 23.59375 103.425781 C 22.078125 108.09375 18.285156 112.746094 14.269531 117.675781 C 8.316406 124.980469 2.160156 132.539062 2.160156 141.75 C 2.160156 150.960938 8.316406 158.515625 14.269531 165.824219 C 18.285156 170.75 22.078125 175.40625 23.59375 180.070312 C 25.210938 185.042969 24.882812 191.523438 24.5625 197.789062 C 24.097656 207.011719 23.613281 216.550781 28.796875 223.667969 C 34.039062 230.859375 43.324219 233.351562 52.304688 235.753906 C 58.601562 237.441406 64.554688 239.035156 68.707031 242.058594 C 72.785156 245.019531 76.097656 250.136719 79.601562 255.550781 C 84.683594 263.402344 89.941406 271.523438 98.539062 274.316406 C 100.621094 274.988281 102.746094 275.277344 104.890625 275.277344 C 111.21875 275.277344 117.769531 272.78125 124.152344 270.34375 C 130.109375 268.070312 136.265625 265.722656 141.65625 265.722656 C 147.042969 265.722656 153.203125 268.070312 159.15625 270.34375 C 167.707031 273.605469 176.546875 276.96875 184.773438 274.316406 C 193.367188 271.523438 198.625 263.402344 203.707031 255.550781 C 207.214844 250.136719 210.523438 245.019531 214.601562 242.058594 C 218.753906 239.035156 224.707031 237.445312 231.003906 235.753906 C 239.988281 233.351562 249.273438 230.867188 254.511719 223.671875 C 259.695312 216.554688 259.214844 207.015625 258.746094 197.792969 C 258.429688 191.523438 258.101562 185.042969 259.71875 180.070312 C 261.234375 175.40625 265.027344 170.75 269.039062 165.824219 C 274.996094 158.515625 281.152344 150.960938 281.152344 141.75 C 281.152344 132.539062 274.996094 124.980469 269.039062 117.675781 Z M 141.65625 238.945312 C 88.007812 238.945312 44.359375 195.339844 44.359375 141.75 C 44.359375 88.15625 88.007812 44.554688 141.65625 44.554688 C 195.304688 44.554688 238.953125 88.15625 238.953125 141.75 C 238.953125 195.339844 195.304688 238.945312 141.65625 238.945312 Z M 141.65625 238.945312 " fill-opacity="1" fill-rule="nonzero"/></g><path fill="#000000" d="M 141.65625 51.578125 C 91.886719 51.578125 51.394531 92.03125 51.394531 141.75 C 51.394531 191.46875 91.886719 231.917969 141.65625 231.917969 C 191.425781 231.917969 231.917969 191.46875 231.917969 141.75 C 231.917969 92.03125 191.425781 51.578125 141.65625 51.578125 Z M 201.632812 108.605469 L 122.996094 187.164062 C 122.335938 187.820312 121.441406 188.191406 120.507812 188.191406 C 119.578125 188.191406 118.683594 187.820312 118.023438 187.164062 L 81.679688 150.855469 C 80.304688 149.484375 80.304688 147.261719 81.679688 145.886719 L 94.941406 132.640625 C 96.3125 131.269531 98.539062 131.269531 99.914062 132.640625 L 120.507812 153.210938 L 183.398438 90.390625 C 184.773438 89.019531 186.996094 89.019531 188.371094 90.390625 L 201.632812 103.636719 C 203.003906 105.011719 203.003906 107.234375 201.632812 108.605469 Z M 201.632812 108.605469 " fill-opacity="1" fill-rule="nonzero"/></svg>