<svg xmlns="http://www.w3.org/2000/svg" xmlns:xlink="http://www.w3.org/1999/xlink" width="378" zoomAndPan="magnify" viewBox="0 0 282.96 283.499989" height="378" preserveAspectRatio="xMidYMid meet" version="1.0"><defs><clipPath id="41aa8b0d88"><path d="M 79.878906 82.742188 L 203.410156 82.742188 L 203.410156 200.285156 L 79.878906 200.285156 Z M 79.878906 82.742188 " clip-rule="nonzero"/></clipPath></defs><g clip-path="url(#41aa8b0d88)"><path fill="#000000" d="M 141.644531 82.753906 C 140.628906 82.753906 139.820312 83.59375 139.820312 84.585938 L 139.820312 103.71875 C 139.820312 104.734375 140.628906 105.542969 141.644531 105.542969 C 142.664062 105.542969 143.46875 104.734375 143.46875 103.71875 L 143.46875 84.585938 C 143.46875 83.566406 142.664062 82.753906 141.644531 82.753906 Z M 111.070312 94.921875 C 110.777344 94.925781 110.484375 95 110.214844 95.15625 C 109.328125 95.652344 109.015625 96.773438 109.511719 97.632812 C 109.511719 97.632812 109.511719 97.660156 109.539062 97.660156 L 116.992188 110.636719 C 117.304688 111.238281 117.902344 111.574219 118.554688 111.574219 C 119.570312 111.574219 120.378906 110.765625 120.378906 109.746094 C 120.378906 109.433594 120.300781 109.121094 120.144531 108.832031 L 112.691406 95.859375 C 112.351562 95.25 111.714844 94.910156 111.070312 94.921875 Z M 172.679688 94.96875 C 172.03125 94.949219 171.402344 95.277344 171.042969 95.886719 L 163.589844 108.859375 C 163.09375 109.722656 163.382812 110.84375 164.242188 111.367188 C 165.101562 111.863281 166.222656 111.574219 166.742188 110.714844 L 166.742188 110.6875 L 174.222656 97.6875 C 174.71875 96.828125 174.429688 95.703125 173.542969 95.207031 C 173.265625 95.054688 172.972656 94.972656 172.679688 94.96875 Z M 141.621094 109.175781 C 134.339844 109.179688 127.0625 111.953125 121.5 117.5 C 116.105469 122.796875 113.054688 130.03125 113.082031 137.601562 C 113.082031 144.023438 116.285156 149.714844 119.128906 154.699219 C 120.484375 157.074219 121.734375 159.320312 122.382812 161.199219 C 123.558594 164.699219 124.417969 168.300781 124.964844 171.953125 C 125.042969 177.046875 129.164062 181.351562 134.0625 181.351562 L 149.203125 181.351562 C 154.074219 181.351562 158.21875 177.046875 158.296875 171.953125 C 158.847656 168.300781 159.707031 164.722656 160.878906 161.222656 C 161.53125 159.320312 162.78125 157.101562 164.109375 154.75 C 166.953125 149.710938 170.183594 143.996094 170.183594 137.550781 C 170.183594 130.003906 167.160156 122.75 161.738281 117.476562 C 156.175781 111.941406 148.898438 109.171875 141.621094 109.175781 Z M 89.320312 117.371094 C 88.671875 117.34375 88.03125 117.667969 87.671875 118.257812 C 87.152344 119.121094 87.4375 120.242188 88.296875 120.765625 L 88.324219 120.789062 L 101.226562 128.28125 C 102.085938 128.777344 103.207031 128.488281 103.726562 127.628906 C 104.25 126.765625 103.9375 125.644531 103.074219 125.121094 L 90.175781 117.628906 C 89.90625 117.46875 89.613281 117.382812 89.320312 117.371094 Z M 194.679688 117.390625 C 194.386719 117.398438 194.089844 117.476562 193.820312 117.628906 L 180.921875 125.121094 C 180.058594 125.617188 179.746094 126.742188 180.242188 127.628906 C 180.582031 128.175781 181.179688 128.515625 181.832031 128.515625 C 182.144531 128.515625 182.457031 128.4375 182.746094 128.28125 L 195.644531 120.789062 C 196.503906 120.265625 196.792969 119.148438 196.296875 118.285156 C 195.957031 117.691406 195.320312 117.371094 194.679688 117.390625 Z M 81.703125 148.199219 C 80.6875 148.199219 79.878906 149.007812 79.878906 150.027344 C 79.878906 151.042969 80.6875 151.851562 81.703125 151.851562 L 100.726562 151.851562 C 101.746094 151.851562 102.550781 151.042969 102.550781 150.027344 C 102.550781 149.007812 101.746094 148.199219 100.726562 148.199219 Z M 182.5625 148.199219 C 181.546875 148.199219 180.738281 149.007812 180.738281 150.027344 C 180.738281 151.042969 181.546875 151.851562 182.5625 151.851562 L 201.585938 151.851562 C 202.605469 151.851562 203.410156 151.042969 203.410156 150.027344 C 203.410156 149.007812 202.605469 148.199219 201.585938 148.199219 Z M 129.394531 183.964844 C 128.378906 183.964844 127.570312 184.773438 127.570312 185.789062 C 127.570312 186.808594 128.378906 187.617188 129.394531 187.617188 L 153.894531 187.617188 C 154.910156 187.617188 155.71875 186.808594 155.71875 185.789062 C 155.71875 184.773438 154.910156 183.964844 153.894531 183.964844 Z M 132 190.226562 C 130.984375 190.226562 130.179688 191.035156 130.179688 192.054688 C 130.179688 193.074219 130.984375 193.882812 132 193.882812 L 151.289062 193.882812 C 152.304688 193.882812 153.113281 193.074219 153.113281 192.054688 C 153.113281 191.035156 152.304688 190.226562 151.289062 190.226562 Z M 134.609375 196.492188 C 133.59375 196.492188 132.785156 197.300781 132.785156 198.320312 C 132.785156 199.335938 133.59375 200.148438 134.609375 200.148438 L 148.679688 200.148438 C 149.699219 200.148438 150.507812 199.335938 150.507812 198.320312 C 150.507812 197.300781 149.699219 196.492188 148.679688 196.492188 Z M 134.609375 196.492188 " fill-opacity="1" fill-rule="nonzero"/></g></svg>