<svg xmlns="http://www.w3.org/2000/svg" xmlns:xlink="http://www.w3.org/1999/xlink" width="378" zoomAndPan="magnify" viewBox="0 0 282.96 283.499989" height="378" preserveAspectRatio="xMidYMid meet" version="1.0"><defs><clipPath id="d9c9091cf1"><path d="M 0.230469 0 L 282.691406 0 L 282.691406 274 L 0.230469 274 Z M 0.230469 0 " clip-rule="nonzero"/></clipPath></defs><g clip-path="url(#d9c9091cf1)"><path fill="#000000" d="M 138.910156 0.0390625 C 136.535156 0.0390625 134.652344 1.992188 134.652344 4.304688 L 134.652344 48.90625 C 134.652344 51.277344 136.535156 53.160156 138.910156 53.160156 C 141.28125 53.160156 143.164062 51.277344 143.164062 48.90625 L 143.164062 4.304688 C 143.164062 1.929688 141.28125 0.0390625 138.910156 0.0390625 Z M 67.570312 28.398438 C 66.886719 28.410156 66.195312 28.585938 65.570312 28.945312 C 63.5 30.101562 62.769531 32.71875 63.925781 34.726562 C 63.925781 34.726562 63.929688 34.785156 63.988281 34.785156 L 81.382812 65.035156 C 82.113281 66.433594 83.511719 67.21875 85.03125 67.21875 C 87.402344 67.21875 89.289062 65.332031 89.289062 62.960938 C 89.289062 62.230469 89.105469 61.5 88.742188 60.832031 L 71.347656 30.589844 C 70.550781 29.167969 69.070312 28.375 67.570312 28.398438 Z M 211.316406 28.507812 C 209.808594 28.464844 208.335938 29.230469 207.5 30.652344 L 190.113281 60.890625 C 188.957031 62.898438 189.625 65.519531 191.628906 66.734375 C 193.636719 67.890625 196.25 67.21875 197.46875 65.210938 L 197.46875 65.152344 L 214.921875 34.847656 C 216.078125 32.839844 215.40625 30.226562 213.339844 29.070312 C 212.691406 28.707031 212.003906 28.523438 211.316406 28.507812 Z M 138.847656 61.628906 C 121.863281 61.636719 104.882812 68.097656 91.898438 81.03125 C 79.3125 93.382812 72.199219 110.246094 72.257812 127.890625 C 72.257812 142.859375 79.738281 156.125 86.363281 167.746094 C 89.53125 173.285156 92.445312 178.519531 93.964844 182.902344 C 96.703125 191.054688 98.714844 199.449219 99.988281 207.96875 C 100.171875 219.835938 109.78125 229.871094 121.214844 229.871094 L 156.539062 229.871094 C 167.910156 229.871094 177.582031 219.835938 177.761719 207.96875 C 179.042969 199.449219 181.050781 191.109375 183.789062 182.957031 C 185.308594 178.511719 188.226562 173.34375 191.328125 167.863281 C 197.953125 156.121094 205.496094 142.796875 205.496094 127.765625 C 205.496094 110.179688 198.441406 93.269531 185.792969 80.976562 C 172.808594 68.074219 155.828125 61.621094 138.847656 61.628906 Z M 16.8125 80.734375 C 15.304688 80.667969 13.808594 81.417969 12.972656 82.800781 C 11.757812 84.808594 12.425781 87.425781 14.429688 88.640625 L 14.492188 88.699219 L 44.59375 106.160156 C 46.601562 107.316406 49.21875 106.648438 50.433594 104.640625 C 51.648438 102.632812 50.921875 100.015625 48.910156 98.800781 L 18.808594 81.335938 C 18.183594 80.953125 17.496094 80.761719 16.8125 80.734375 Z M 262.652344 80.773438 C 261.96875 80.792969 261.277344 80.976562 260.648438 81.335938 L 230.550781 98.800781 C 228.542969 99.957031 227.8125 102.574219 228.964844 104.640625 C 229.757812 105.917969 231.15625 106.714844 232.675781 106.714844 C 233.40625 106.714844 234.132812 106.527344 234.804688 106.160156 L 264.90625 88.699219 C 266.914062 87.480469 267.582031 84.871094 266.425781 82.863281 C 265.632812 81.484375 264.152344 80.730469 262.652344 80.773438 Z M -0.957031 152.59375 C -3.328125 152.59375 -5.210938 154.480469 -5.210938 156.851562 C -5.210938 159.222656 -3.328125 161.109375 -0.957031 161.109375 L 43.433594 161.109375 C 45.804688 161.109375 47.691406 159.222656 47.691406 156.851562 C 47.691406 154.480469 45.804688 152.59375 43.433594 152.59375 Z M 234.382812 152.59375 C 232.011719 152.59375 230.125 154.480469 230.125 156.851562 C 230.125 159.222656 232.011719 161.109375 234.382812 161.109375 L 278.773438 161.109375 C 281.144531 161.109375 283.027344 159.222656 283.027344 156.851562 C 283.027344 154.480469 281.144531 152.59375 278.773438 152.59375 Z M 110.328125 235.960938 C 107.953125 235.960938 106.070312 237.847656 106.070312 240.21875 C 106.070312 242.59375 107.953125 244.480469 110.328125 244.480469 L 167.492188 244.480469 C 169.863281 244.480469 171.746094 242.59375 171.746094 240.21875 C 171.746094 237.847656 169.863281 235.960938 167.492188 235.960938 Z M 116.40625 250.5625 C 114.035156 250.5625 112.152344 252.449219 112.152344 254.820312 C 112.152344 257.195312 114.035156 259.082031 116.40625 259.082031 L 161.410156 259.082031 C 163.78125 259.082031 165.664062 257.195312 165.664062 254.820312 C 165.664062 252.449219 163.78125 250.5625 161.410156 250.5625 Z M 122.492188 265.164062 C 120.121094 265.164062 118.230469 267.050781 118.230469 269.425781 C 118.230469 271.796875 120.121094 273.691406 122.492188 273.691406 L 155.324219 273.691406 C 157.695312 273.691406 159.585938 271.796875 159.585938 269.425781 C 159.585938 267.050781 157.695312 265.164062 155.324219 265.164062 Z M 122.492188 265.164062 " fill-opacity="1" fill-rule="nonzero"/></g></svg>