<svg xmlns="http://www.w3.org/2000/svg" xmlns:xlink="http://www.w3.org/1999/xlink" width="378" zoomAndPan="magnify" viewBox="0 0 282.96 283.499989" height="378" preserveAspectRatio="xMidYMid meet" version="1.0"><defs><clipPath id="156d2ff616"><path d="M 112 190 L 171 190 L 171 207.492188 L 112 207.492188 Z M 112 190 " clip-rule="nonzero"/></clipPath><clipPath id="115f9b0b12"><path d="M 76.695312 97.433594 L 206.964844 97.433594 L 206.964844 187 L 76.695312 187 Z M 76.695312 97.433594 " clip-rule="nonzero"/></clipPath></defs><g clip-path="url(#156d2ff616)"><path fill="#000000" d="M 164.726562 195.796875 L 159.605469 195.796875 L 159.605469 190.546875 L 124.054688 190.546875 L 124.054688 195.796875 L 118.933594 195.796875 C 115.46875 195.796875 112.757812 198.496094 112.757812 201.644531 C 112.757812 204.941406 115.46875 207.492188 118.933594 207.492188 L 164.726562 207.492188 C 168.191406 207.492188 170.902344 204.792969 170.902344 201.644531 C 170.902344 198.34375 168.191406 195.796875 164.726562 195.796875 Z M 164.726562 195.796875 " fill-opacity="1" fill-rule="nonzero"/></g><g clip-path="url(#115f9b0b12)"><path fill="#000000" d="M 197.417969 97.433594 L 86.246094 97.433594 C 81.125 97.433594 76.90625 101.632812 76.90625 106.882812 L 76.90625 177.503906 C 76.90625 182.75 81.125 186.949219 86.246094 186.949219 L 197.265625 186.949219 C 202.386719 186.949219 206.605469 182.75 206.605469 177.503906 L 206.605469 106.882812 C 206.757812 101.632812 202.539062 97.433594 197.417969 97.433594 Z M 141.832031 182.453125 C 139.722656 182.453125 137.914062 180.652344 137.914062 178.554688 C 137.914062 176.453125 139.722656 174.65625 141.832031 174.65625 C 143.941406 174.65625 145.746094 176.453125 145.746094 178.554688 C 145.746094 180.800781 143.941406 182.453125 141.832031 182.453125 Z M 198.167969 170.457031 L 85.492188 170.457031 L 85.492188 106.882812 C 85.492188 106.28125 85.945312 105.832031 86.394531 105.832031 L 197.417969 105.832031 C 197.867188 105.832031 198.320312 106.28125 198.320312 106.882812 Z M 198.167969 170.457031 " fill-opacity="1" fill-rule="nonzero"/></g><path fill="#000000" d="M 149.816406 118.128906 L 177.984375 118.128906 L 177.984375 122.625 L 149.816406 122.625 Z M 149.816406 118.128906 " fill-opacity="1" fill-rule="nonzero"/><path fill="#000000" d="M 149.816406 131.320312 L 192.292969 131.320312 L 192.292969 135.820312 L 149.816406 135.820312 Z M 149.816406 131.320312 " fill-opacity="1" fill-rule="nonzero"/><path fill="#000000" d="M 149.816406 138.820312 L 192.292969 138.820312 L 192.292969 143.316406 L 149.816406 143.316406 Z M 149.816406 138.820312 " fill-opacity="1" fill-rule="nonzero"/><path fill="#000000" d="M 149.816406 146.316406 L 192.292969 146.316406 L 192.292969 150.8125 L 149.816406 150.8125 Z M 149.816406 146.316406 " fill-opacity="1" fill-rule="nonzero"/><path fill="#000000" d="M 149.816406 153.8125 L 171.054688 153.8125 L 171.054688 158.3125 L 149.816406 158.3125 Z M 149.816406 153.8125 " fill-opacity="1" fill-rule="nonzero"/><path fill="#000000" d="M 116.675781 148.414062 L 115.769531 148.113281 L 102.964844 142.71875 L 102.964844 150.0625 C 102.964844 153.960938 108.992188 157.113281 116.675781 157.113281 C 124.355469 157.113281 130.382812 153.8125 130.382812 150.0625 L 130.382812 142.71875 L 117.578125 148.113281 Z M 116.675781 148.414062 " fill-opacity="1" fill-rule="nonzero"/><path fill="#000000" d="M 140.023438 148.265625 L 140.023438 136.570312 L 141.832031 135.820312 L 116.824219 125.175781 L 91.820312 135.820312 L 116.824219 146.464844 L 130.53125 140.617188 L 138.214844 137.320312 L 138.214844 148.265625 C 138.066406 148.414062 137.761719 148.714844 137.761719 149.015625 L 137.761719 151.414062 C 137.761719 151.863281 138.367188 152.3125 139.121094 152.3125 C 140.023438 152.3125 140.476562 151.863281 140.476562 151.414062 L 140.476562 149.015625 C 140.324219 148.714844 140.175781 148.414062 140.023438 148.265625 Z M 140.023438 148.265625 " fill-opacity="1" fill-rule="nonzero"/></svg>