<svg xmlns="http://www.w3.org/2000/svg" xmlns:xlink="http://www.w3.org/1999/xlink" width="378" zoomAndPan="magnify" viewBox="0 0 282.96 283.499989" height="378" preserveAspectRatio="xMidYMid meet" version="1.0"><defs><clipPath id="e84a5c3502"><path d="M 80 226 L 204 226 L 204 262.632812 L 80 262.632812 Z M 80 226 " clip-rule="nonzero"/></clipPath><clipPath id="e16000acd0"><path d="M 4 28.296875 L 279.949219 28.296875 L 279.949219 219 L 4 219 Z M 4 28.296875 " clip-rule="nonzero"/></clipPath></defs><g clip-path="url(#e84a5c3502)"><path fill="#000000" d="M 190.375 237.730469 L 179.515625 237.730469 L 179.515625 226.558594 L 104.125 226.558594 L 104.125 237.730469 L 93.261719 237.730469 C 85.914062 237.730469 80.164062 243.476562 80.164062 250.183594 C 80.164062 257.207031 85.914062 262.632812 93.261719 262.632812 L 190.375 262.632812 C 197.722656 262.632812 203.472656 256.886719 203.472656 250.183594 C 203.472656 243.160156 197.722656 237.730469 190.375 237.730469 Z M 190.375 237.730469 " fill-opacity="1" fill-rule="nonzero"/></g><g clip-path="url(#e16000acd0)"><path fill="#000000" d="M 259.699219 28.296875 L 23.941406 28.296875 C 13.078125 28.296875 4.136719 37.234375 4.136719 48.410156 L 4.136719 198.78125 C 4.136719 209.957031 13.078125 218.894531 23.941406 218.894531 L 259.378906 218.894531 C 270.238281 218.894531 279.183594 209.957031 279.183594 198.78125 L 279.183594 48.410156 C 279.503906 37.234375 270.558594 28.296875 259.699219 28.296875 Z M 141.820312 209.316406 C 137.347656 209.316406 133.511719 205.484375 133.511719 201.015625 C 133.511719 196.546875 137.347656 192.714844 141.820312 192.714844 C 146.292969 192.714844 150.125 196.546875 150.125 201.015625 C 150.125 205.804688 146.292969 209.316406 141.820312 209.316406 Z M 261.292969 183.777344 L 22.34375 183.777344 L 22.34375 48.410156 C 22.34375 47.132812 23.300781 46.175781 24.261719 46.175781 L 259.699219 46.175781 C 260.65625 46.175781 261.613281 47.132812 261.613281 48.410156 Z M 261.292969 183.777344 " fill-opacity="1" fill-rule="nonzero"/></g><path fill="#000000" d="M 158.75 72.355469 L 218.488281 72.355469 L 218.488281 81.933594 L 158.75 81.933594 Z M 158.75 72.355469 " fill-opacity="1" fill-rule="nonzero"/><path fill="#000000" d="M 158.75 100.449219 L 248.835938 100.449219 L 248.835938 110.027344 L 158.75 110.027344 Z M 158.75 100.449219 " fill-opacity="1" fill-rule="nonzero"/><path fill="#000000" d="M 158.75 116.414062 L 248.835938 116.414062 L 248.835938 125.988281 L 158.75 125.988281 Z M 158.75 116.414062 " fill-opacity="1" fill-rule="nonzero"/><path fill="#000000" d="M 158.75 132.375 L 248.835938 132.375 L 248.835938 141.953125 L 158.75 141.953125 Z M 158.75 132.375 " fill-opacity="1" fill-rule="nonzero"/><path fill="#000000" d="M 158.75 148.339844 L 203.792969 148.339844 L 203.792969 157.917969 L 158.75 157.917969 Z M 158.75 148.339844 " fill-opacity="1" fill-rule="nonzero"/><path fill="#000000" d="M 88.46875 136.84375 L 86.554688 136.207031 L 59.398438 124.714844 L 59.398438 140.355469 C 59.398438 148.65625 72.179688 155.363281 88.46875 155.363281 C 104.761719 155.363281 117.539062 148.339844 117.539062 140.355469 L 117.539062 124.714844 L 90.386719 136.207031 Z M 88.46875 136.84375 " fill-opacity="1" fill-rule="nonzero"/><path fill="#000000" d="M 137.984375 136.527344 L 137.984375 111.625 L 141.820312 110.027344 L 88.789062 87.359375 L 35.761719 110.027344 L 88.789062 132.695312 L 117.859375 120.242188 L 134.152344 113.21875 L 134.152344 136.527344 C 133.832031 136.84375 133.195312 137.484375 133.195312 138.121094 L 133.195312 143.230469 C 133.195312 144.1875 134.472656 145.144531 136.070312 145.144531 C 137.984375 145.144531 138.945312 144.1875 138.945312 143.230469 L 138.945312 138.121094 C 138.625 137.484375 138.304688 136.84375 137.984375 136.527344 Z M 137.984375 136.527344 " fill-opacity="1" fill-rule="nonzero"/></svg>