<svg xmlns="http://www.w3.org/2000/svg" xmlns:xlink="http://www.w3.org/1999/xlink" width="378" zoomAndPan="magnify" viewBox="0 0 282.96 283.499989" height="378" preserveAspectRatio="xMidYMid meet" version="1.0"><path fill="#1b181a" d="M 262.9375 109.050781 C 262.695312 108.890625 262.453125 108.726562 262.199219 108.554688 C 262.453125 108.726562 262.695312 108.890625 262.9375 109.050781 Z M 264.023438 109.765625 C 263.78125 109.609375 263.539062 109.457031 263.292969 109.289062 C 263.539062 109.457031 263.78125 109.609375 264.023438 109.765625 Z M 265.070312 110.417969 C 264.828125 110.273438 264.589844 110.125 264.339844 109.96875 C 264.589844 110.125 264.828125 110.273438 265.070312 110.417969 Z M 266.078125 111.015625 C 265.839844 110.878906 265.597656 110.734375 265.347656 110.585938 C 265.597656 110.734375 265.839844 110.878906 266.078125 111.015625 Z M 267.070312 111.566406 C 266.820312 111.433594 266.570312 111.296875 266.3125 111.148438 C 266.570312 111.296875 266.820312 111.433594 267.070312 111.566406 Z M 268.03125 112.066406 C 267.769531 111.9375 267.5 111.800781 267.230469 111.652344 C 267.5 111.800781 267.769531 111.9375 268.03125 112.066406 Z M 259.875 106.878906 C 260.132812 107.074219 260.386719 107.257812 260.636719 107.441406 C 260.386719 107.257812 260.132812 107.074219 259.875 106.878906 Z M 258.640625 105.941406 C 258.90625 106.144531 259.160156 106.34375 259.417969 106.535156 C 259.160156 106.34375 258.90625 106.144531 258.640625 105.941406 Z M 257.359375 104.933594 C 257.625 105.148438 257.890625 105.355469 258.15625 105.5625 C 257.890625 105.355469 257.625 105.148438 257.359375 104.933594 Z M 256.03125 103.851562 C 256.304688 104.082031 256.578125 104.300781 256.847656 104.519531 C 256.578125 104.300781 256.304688 104.082031 256.03125 103.851562 Z M 254.648438 102.695312 C 254.929688 102.933594 255.210938 103.171875 255.484375 103.402344 C 255.210938 103.171875 254.929688 102.933594 254.648438 102.695312 Z M 253.21875 101.460938 C 253.503906 101.714844 253.792969 101.964844 254.082031 102.210938 C 253.792969 101.964844 253.503906 101.714844 253.21875 101.460938 Z M 251.734375 100.148438 C 252.03125 100.417969 252.332031 100.683594 252.621094 100.941406 C 252.332031 100.683594 252.03125 100.417969 251.734375 100.148438 Z M 250.195312 98.753906 C 250.503906 99.035156 250.808594 99.316406 251.113281 99.589844 C 250.808594 99.316406 250.503906 99.035156 250.195312 98.753906 Z M 248.601562 97.269531 C 248.921875 97.570312 249.238281 97.867188 249.550781 98.15625 C 249.238281 97.867188 248.921875 97.570312 248.601562 97.269531 Z M 246.960938 95.699219 C 247.285156 96.015625 247.613281 96.335938 247.9375 96.640625 C 247.613281 96.335938 247.285156 96.015625 246.960938 95.699219 Z M 261.058594 107.75 C 261.3125 107.929688 261.5625 108.105469 261.808594 108.277344 C 261.5625 108.105469 261.3125 107.929688 261.058594 107.75 Z M 246.269531 95.035156 C 245.933594 94.710938 245.59375 94.375 245.25 94.039062 C 245.59375 94.375 245.933594 94.710938 246.269531 95.035156 Z M 243.492188 92.289062 C 243.84375 92.644531 244.199219 92.996094 244.546875 93.34375 C 244.199219 92.996094 243.84375 92.644531 243.492188 92.289062 Z M 241.679688 90.449219 C 242.042969 90.824219 242.40625 91.195312 242.765625 91.554688 C 242.40625 91.195312 242.042969 90.824219 241.679688 90.449219 Z M 239.804688 88.515625 C 240.179688 88.90625 240.554688 89.292969 240.921875 89.675781 C 240.554688 89.292969 240.179688 88.90625 239.804688 88.515625 Z M 237.867188 86.46875 C 238.253906 86.882812 238.644531 87.296875 239.027344 87.699219 C 238.644531 87.296875 238.253906 86.882812 237.867188 86.46875 Z M 235.875 84.335938 C 236.273438 84.765625 236.675781 85.203125 237.074219 85.625 C 236.675781 85.203125 236.273438 84.765625 235.875 84.335938 Z M 233.800781 82.074219 C 234.222656 82.535156 234.640625 83 235.054688 83.449219 C 234.640625 83 234.222656 82.535156 233.800781 82.074219 Z M 231.664062 79.703125 C 232.105469 80.195312 232.546875 80.691406 232.980469 81.171875 C 232.546875 80.691406 232.105469 80.195312 231.664062 79.703125 Z M 229.4375 77.195312 C 229.910156 77.734375 230.382812 78.269531 230.847656 78.789062 C 230.382812 78.269531 229.910156 77.734375 229.4375 77.195312 Z M 227.128906 74.558594 C 227.640625 75.144531 228.148438 75.730469 228.648438 76.300781 C 228.148438 75.730469 227.640625 75.144531 227.128906 74.558594 Z M 224.683594 71.71875 C 225.253906 72.386719 225.824219 73.050781 226.386719 73.699219 C 225.824219 73.050781 225.253906 72.386719 224.683594 71.71875 Z M 215.726562 72.851562 C 209.898438 65.460938 204.890625 58.332031 200.757812 52.011719 C 207.894531 62.652344 214.746094 71.582031 215.726562 72.851562 Z M 190.675781 19.175781 L 190.660156 19.019531 Z M 190.8125 20.085938 C 190.792969 19.996094 190.777344 19.910156 190.765625 19.824219 C 190.777344 19.910156 190.792969 19.996094 190.8125 20.085938 Z M 191.015625 20.984375 C 190.992188 20.902344 190.976562 20.824219 190.953125 20.742188 C 190.976562 20.824219 190.992188 20.902344 191.015625 20.984375 Z M 191.347656 22.089844 L 191.292969 21.9375 Z M 191.800781 23.304688 C 191.753906 23.1875 191.707031 23.074219 191.664062 22.960938 C 191.707031 23.074219 191.753906 23.1875 191.800781 23.304688 Z M 190.683594 17.414062 L 190.664062 17.589844 Z M 190.632812 18.144531 L 190.628906 18.277344 Z M 190.984375 16.203125 L 190.96875 16.242188 Z M 191.253906 15.625 L 191.1875 15.742188 Z M 191.535156 15.179688 L 191.46875 15.277344 Z M 190.796875 16.804688 L 190.773438 16.925781 Z M 196.375 12.902344 C 196.480469 12.894531 196.574219 12.886719 196.671875 12.882812 C 196.574219 12.886719 196.480469 12.894531 196.375 12.902344 Z M 195.890625 12.960938 L 196.078125 12.9375 Z M 195.453125 13.027344 L 195.640625 12.996094 Z M 195.007812 13.117188 L 195.167969 13.082031 Z M 194.464844 13.257812 L 194.578125 13.222656 Z M 193.980469 13.417969 L 194.125 13.367188 Z M 193.539062 13.597656 L 193.65625 13.550781 Z M 193.082031 13.832031 L 193.105469 13.816406 Z M 196.839844 12.871094 C 196.917969 12.867188 196.996094 12.863281 197.070312 12.863281 C 196.996094 12.863281 196.917969 12.867188 196.839844 12.871094 Z M 192.601562 14.140625 L 192.699219 14.066406 Z M 192.210938 14.441406 L 192.296875 14.367188 Z M 192.296875 24.453125 C 192.242188 24.332031 192.191406 24.21875 192.140625 24.101562 C 192.191406 24.21875 192.242188 24.332031 192.296875 24.453125 Z M 224.054688 70.984375 C 223.265625 70.0625 222.472656 69.117188 221.660156 68.15625 C 222.472656 69.117188 223.265625 70.0625 224.054688 70.984375 Z M 165.152344 124.277344 C 166.0625 125.167969 167.347656 126.398438 168.820312 127.707031 C 167.449219 126.535156 166.234375 125.390625 165.152344 124.277344 Z M 161.683594 202.402344 L 134.882812 168.203125 L 146.003906 158.875 C 156.40625 155.632812 166.121094 167.429688 166.121094 167.429688 C 181.988281 189.363281 161.683594 202.402344 161.683594 202.402344 Z M 144.898438 213.542969 C 143.84375 214.425781 142.273438 214.285156 141.394531 213.230469 L 117.640625 184.863281 C 116.757812 183.808594 116.894531 182.238281 117.949219 181.355469 C 119 180.46875 120.574219 180.609375 121.457031 181.660156 L 145.207031 210.03125 C 146.089844 211.085938 145.949219 212.660156 144.898438 213.542969 Z M 128.109375 227.625 C 127.054688 228.507812 125.484375 228.371094 124.601562 227.3125 L 100.851562 198.945312 C 99.964844 197.894531 100.105469 196.320312 101.160156 195.4375 C 102.210938 194.554688 103.785156 194.691406 104.664062 195.742188 L 128.417969 224.113281 C 129.300781 225.171875 129.164062 226.742188 128.109375 227.625 Z M 80.199219 237.878906 C 80.199219 237.878906 70.976562 227.046875 75.640625 218.023438 L 85.996094 209.335938 L 112.957031 239.507812 C 112.957031 239.507812 97.703125 256.015625 80.199219 237.878906 Z M 9.792969 258.136719 C 10.019531 258.378906 10.246094 258.605469 10.46875 258.828125 C 10.03125 258.410156 9.792969 258.136719 9.792969 258.136719 Z M 85.78125 162.71875 L 85.808594 162.691406 L 85.699219 162.785156 Z M 279.8125 112.253906 C 279.8125 112.253906 277.742188 116.914062 268.105469 112.109375 C 268.976562 112.542969 269.785156 112.898438 270.535156 113.191406 C 277.992188 115.984375 279.8125 112.253906 279.8125 112.253906 C 279.46875 97.0625 245.828125 57.988281 245.828125 57.988281 C 217.753906 22.605469 198.929688 12.929688 198.929688 12.929688 C 198.289062 12.871094 197.703125 12.855469 197.144531 12.859375 C 198.183594 12.828125 198.929688 12.929688 198.929688 12.929688 C 198.929688 12.929688 190.964844 7.84375 186.339844 11.929688 C 181.71875 16.015625 186.769531 28.082031 186.769531 28.082031 C 190.011719 81.082031 156.613281 110.640625 156.613281 110.640625 C 157.71875 114.675781 160.535156 118.777344 162.289062 121.0625 C 157.351562 114.960938 156.613281 110.640625 156.613281 110.640625 L 115.691406 147.957031 L 112.039062 144.210938 C 113.199219 139.316406 109.464844 142.242188 109.464844 142.242188 C 109.464844 142.242188 107.636719 143.8125 105.308594 145.839844 L 100.6875 140.320312 C 100.6875 140.320312 104.882812 135.5625 103.355469 132.101562 C 101.828125 128.636719 99.164062 131.734375 99.164062 131.734375 L 93.65625 136.359375 L 88.140625 140.980469 C 88.140625 140.980469 84.628906 143.058594 87.765625 145.175781 C 90.910156 147.285156 96.320312 143.984375 96.320312 143.984375 L 101.023438 149.601562 C 99.179688 151.234375 97.484375 152.765625 96.496094 153.722656 C 93.417969 156.699219 98.289062 156.359375 98.289062 156.359375 L 101.863281 160.378906 L 99.121094 162.890625 L 94.960938 159.152344 C 96.039062 155.148438 92.800781 156.941406 92.800781 156.941406 C 92.800781 156.941406 90.597656 158.691406 87.960938 160.882812 L 83.09375 155.070312 C 83.09375 155.070312 87.289062 150.316406 85.761719 146.851562 C 84.234375 143.386719 81.574219 146.488281 81.574219 146.488281 L 70.554688 155.730469 C 70.554688 155.730469 67.03125 157.8125 70.175781 159.921875 C 73.316406 162.035156 78.726562 158.734375 78.726562 158.734375 L 83.628906 164.589844 L 83.640625 164.578125 C 81.738281 166.265625 80.113281 167.816406 79.464844 168.722656 C 77.464844 171.503906 81.40625 171.039062 81.40625 171.039062 L 85 175.453125 L 82.542969 177.816406 L 78.4375 173.527344 C 79.148438 169.941406 76.746094 171.128906 76.746094 171.128906 C 76.746094 171.128906 74.5 172.929688 71.78125 175.175781 L 66.324219 169.527344 C 70.707031 166.136719 68.578125 161.261719 68.578125 161.261719 C 67.246094 157.324219 58.925781 165.644531 58.925781 165.644531 C 58.925781 165.644531 57.5 166.53125 53.976562 169.796875 C 50.449219 173.066406 51.777344 174.191406 51.777344 174.191406 C 55.917969 177.839844 61.535156 173.746094 61.535156 173.746094 L 66.703125 179.460938 L 66.734375 179.433594 C 64.382812 181.472656 62.484375 183.234375 62.277344 183.777344 C 61.695312 185.296875 64.386719 185.3125 64.386719 185.3125 L 68.273438 189.585938 L 21.621094 232.738281 L 7.097656 242.855469 L 4.085938 242.828125 C -2.070312 249.695312 7.996094 260.519531 7.996094 260.519531 C 7.996094 260.519531 12.199219 265.351562 18.210938 266.8125 C 24.226562 268.265625 24.765625 261.984375 24.765625 261.984375 L 36.769531 249.847656 C 36.769531 249.847656 35.953125 249.769531 34.695312 249.394531 C 35.953125 249.765625 36.769531 249.847656 36.769531 249.847656 C 38.226562 249.25 53.910156 235.476562 53.910156 235.476562 C 56.042969 249.472656 69.179688 258.886719 69.179688 258.886719 C 103.90625 283.003906 128.949219 256.582031 128.949219 256.582031 L 135.191406 264.039062 C 143.578125 262.421875 148.742188 252.519531 148.742188 252.519531 L 142.882812 245.515625 L 145.648438 242.730469 L 151.816406 250.09375 C 161.890625 248.460938 166.335938 238.074219 166.335938 238.074219 L 160.628906 231.25 L 163.367188 228.796875 L 169.761719 236.4375 C 179.679688 233.6875 183.753906 224.703125 183.753906 224.703125 L 177.207031 216.882812 C 193.863281 203.53125 198.128906 187.570312 193.921875 168.5 C 189.710938 149.433594 170.398438 140.40625 170.398438 140.40625 L 177.757812 134.234375 C 177.757812 134.234375 209.496094 104.359375 261.066406 116.828125 C 261.066406 116.828125 252.054688 111.136719 239.957031 99.777344 C 245.953125 105.320312 253.011719 111.191406 261.066406 116.828125 C 261.066406 116.828125 283.136719 129.277344 279.8125 112.253906 " fill-opacity="1" fill-rule="nonzero"/></svg>