<svg xmlns="http://www.w3.org/2000/svg" xmlns:xlink="http://www.w3.org/1999/xlink" width="378" zoomAndPan="magnify" viewBox="0 0 282.96 283.499989" height="378" preserveAspectRatio="xMidYMid meet" version="1.0"><defs><clipPath id="a3b0ceaf27"><path d="M 82.027344 6.851562 L 182.351562 6.851562 L 182.351562 274.128906 L 82.027344 274.128906 Z M 82.027344 6.851562 " clip-rule="nonzero"/></clipPath></defs><g clip-path="url(#a3b0ceaf27)"><path fill="#000000" d="M 142.410156 127.722656 C 144.503906 127.820312 146.308594 127.960938 147.816406 128.140625 C 154.914062 128.976562 161.195312 131.410156 166.65625 135.441406 C 179.578125 144.976562 184.890625 162.78125 181.175781 178.101562 C 177.792969 192.050781 167.300781 202.410156 154.089844 207.492188 C 153.941406 207.550781 153.824219 207.648438 153.746094 207.789062 C 153.664062 207.925781 153.636719 208.074219 153.664062 208.234375 C 154.78125 215.148438 155.671875 222.320312 156.328125 229.757812 C 156.816406 235.28125 156.589844 240.753906 155.652344 246.183594 C 154.117188 255.09375 149.734375 262.585938 142.289062 267.824219 C 139.167969 270.019531 135.789062 271.648438 132.152344 272.710938 C 121.960938 275.6875 110.507812 273.585938 102.675781 266.179688 C 98.449219 262.179688 96.007812 257.261719 95.355469 251.421875 C 94.144531 240.652344 100.492188 229.925781 111.660156 228.128906 C 117.597656 227.171875 123.523438 229.625 127.179688 234.246094 C 130.484375 238.421875 131.566406 243.097656 130.417969 248.273438 C 128.667969 256.214844 121.703125 260.992188 113.660156 260.78125 C 113.539062 260.777344 113.449219 260.828125 113.394531 260.9375 C 113.339844 261.042969 113.347656 261.144531 113.417969 261.242188 C 114.21875 262.332031 116.316406 263.304688 117.320312 263.707031 C 121.757812 265.484375 126.324219 265.789062 131.019531 264.625 C 139.746094 262.460938 145.410156 255.648438 147.476562 247.09375 C 148.507812 242.8125 148.839844 238.253906 148.476562 233.417969 C 147.898438 225.78125 146.722656 218.488281 145.609375 210.164062 C 145.597656 210.078125 145.554688 210.007812 145.488281 209.957031 C 145.417969 209.902344 145.339844 209.882812 145.253906 209.890625 C 135.398438 211.085938 125.535156 210.421875 116.210938 207 C 105.402344 203.035156 96.082031 195.074219 89.925781 185.21875 C 86.851562 180.300781 84.511719 174.015625 83.339844 168.148438 C 80.863281 155.734375 81.855469 143.792969 86.316406 132.320312 C 93.585938 113.613281 109.566406 100.066406 124.527344 87.203125 C 125.230469 86.597656 127.191406 84.945312 127.519531 83.8125 C 127.546875 83.707031 127.558594 83.597656 127.542969 83.488281 C 126.660156 76.835938 126 71.027344 125.570312 66.066406 C 124.816406 57.4375 124.832031 48.324219 126.597656 39.972656 C 128.390625 31.460938 131.941406 23.707031 137.242188 16.710938 C 139.578125 13.628906 142.144531 10.8125 145.300781 8.742188 C 147.515625 7.289062 149.9375 6.722656 152.570312 7.046875 C 156.554688 7.539062 158.789062 11.824219 160.277344 15.070312 C 167.992188 31.875 168.882812 51.695312 161.753906 68.914062 C 157.269531 79.757812 149.96875 89.679688 141.382812 97.664062 C 140.164062 98.800781 138.414062 100.558594 138.675781 102.382812 C 139.339844 107.070312 140.515625 115.457031 142.207031 127.535156 C 142.222656 127.65625 142.289062 127.71875 142.410156 127.722656 Z M 135.164062 77.488281 C 135.285156 77.53125 135.464844 77.464844 135.699219 77.28125 C 147.328125 68.339844 159.070312 54.027344 159.300781 38.621094 C 159.363281 34.394531 157.78125 28.941406 153.566406 27.386719 C 149.351562 25.832031 144.621094 28.953125 141.933594 32.214844 C 132.148438 44.089844 131.820312 62.617188 134.890625 76.980469 C 134.953125 77.277344 135.042969 77.445312 135.164062 77.488281 Z M 130.320312 107.847656 C 127.355469 109.90625 123.933594 112.664062 120.828125 115.152344 C 108.941406 124.691406 97.878906 135.691406 93.5625 150.441406 C 90.699219 160.21875 91.359375 171.054688 95.882812 180.136719 C 104.65625 197.769531 125.269531 205.953125 144.09375 202.097656 C 144.175781 202.078125 144.242188 202.035156 144.292969 201.96875 C 144.339844 201.898438 144.359375 201.820312 144.347656 201.738281 L 136.53125 146.109375 C 136.515625 145.996094 136.460938 145.90625 136.367188 145.839844 C 136.273438 145.773438 136.171875 145.75 136.058594 145.773438 C 128.527344 147.210938 122.546875 151.917969 119.488281 158.929688 C 115.515625 168.039062 117.769531 177.960938 125.386719 184.339844 C 126.183594 185.003906 127.269531 185.808594 128.648438 186.75 C 130.453125 187.984375 128.964844 190.246094 126.984375 189.585938 C 124.164062 188.644531 121.597656 187.234375 119.285156 185.359375 C 113.050781 180.289062 109.308594 173.464844 108.425781 165.519531 C 106.984375 152.523438 113.246094 140.519531 124.1875 133.632812 C 126.953125 131.894531 130.039062 130.449219 133.441406 129.296875 C 133.890625 129.144531 134.0625 128.890625 133.953125 128.527344 C 133.863281 128.222656 133.8125 128.035156 133.800781 127.957031 C 132.855469 121.003906 131.90625 114.386719 130.949219 108.117188 C 130.941406 108.046875 130.914062 107.984375 130.871094 107.929688 C 130.828125 107.875 130.773438 107.832031 130.710938 107.804688 C 130.644531 107.777344 130.578125 107.769531 130.511719 107.773438 C 130.441406 107.78125 130.378906 107.804688 130.320312 107.847656 Z M 144.925781 145.808594 L 152.410156 199.058594 C 152.425781 199.15625 152.472656 199.226562 152.558594 199.273438 C 152.640625 199.320312 152.726562 199.324219 152.8125 199.285156 C 161.445312 195.453125 167.652344 188.128906 169.195312 178.691406 C 170.914062 168.160156 166.542969 157.246094 158.117188 150.832031 C 154.386719 147.992188 150.09375 146.214844 145.230469 145.507812 C 145.140625 145.492188 145.066406 145.519531 145.003906 145.582031 C 144.9375 145.644531 144.914062 145.71875 144.925781 145.808594 Z M 144.925781 145.808594 " fill-opacity="1" fill-rule="nonzero"/></g></svg>