<svg xmlns="http://www.w3.org/2000/svg" xmlns:xlink="http://www.w3.org/1999/xlink" width="378" zoomAndPan="magnify" viewBox="0 0 282.96 283.499989" height="378" preserveAspectRatio="xMidYMid meet" version="1.0"><defs><clipPath id="c009dc6de6"><path d="M 0.230469 86 L 122 86 L 122 254.546875 L 0.230469 254.546875 Z M 0.230469 86 " clip-rule="nonzero"/></clipPath><clipPath id="4b8f7990c6"><path d="M 162 86 L 282.691406 86 L 282.691406 254.546875 L 162 254.546875 Z M 162 86 " clip-rule="nonzero"/></clipPath><clipPath id="967cb4029c"><path d="M 114 197 L 169 197 L 169 254.546875 L 114 254.546875 Z M 114 197 " clip-rule="nonzero"/></clipPath></defs><path fill="#000000" d="M 107.625 102.902344 C 102.039062 84.78125 115.21875 64.167969 115.550781 63.65625 C 115.9375 63.070312 116.261719 62.449219 116.523438 61.796875 C 116.785156 61.144531 116.984375 60.472656 117.117188 59.78125 C 117.246094 59.09375 117.3125 58.394531 117.304688 57.691406 C 117.300781 56.988281 117.226562 56.292969 117.085938 55.605469 C 116.941406 54.914062 116.734375 54.246094 116.460938 53.597656 C 116.1875 52.949219 115.855469 52.335938 115.460938 51.753906 C 115.066406 51.171875 114.617188 50.632812 114.117188 50.136719 C 113.617188 49.640625 113.074219 49.199219 112.488281 48.8125 C 111.902344 48.421875 111.28125 48.097656 110.632812 47.828125 C 109.980469 47.5625 109.308594 47.359375 108.617188 47.222656 C 107.929688 47.089844 107.230469 47.023438 106.527344 47.023438 C 105.824219 47.023438 105.125 47.09375 104.4375 47.230469 C 103.746094 47.367188 103.074219 47.570312 102.425781 47.839844 C 101.773438 48.109375 101.15625 48.441406 100.570312 48.828125 C 99.984375 49.21875 99.445312 49.664062 98.945312 50.160156 C 98.445312 50.65625 98 51.195312 97.609375 51.78125 C 96.824219 52.960938 78.464844 81.03125 87.003906 109.070312 C 88.730469 114.6875 91.371094 119.832031 94.929688 124.511719 L 112.078125 111.472656 C 110.097656 108.875 108.613281 106.019531 107.625 102.902344 Z M 107.625 102.902344 " fill-opacity="1" fill-rule="nonzero"/><path fill="#000000" d="M 186.050781 51.78125 C 185.660156 51.191406 185.214844 50.648438 184.714844 50.148438 C 184.21875 49.644531 183.675781 49.199219 183.089844 48.804688 C 182.5 48.410156 181.882812 48.074219 181.230469 47.804688 C 180.578125 47.53125 179.90625 47.324219 179.210938 47.183594 C 178.519531 47.046875 177.816406 46.972656 177.109375 46.972656 C 176.402344 46.96875 175.703125 47.039062 175.007812 47.171875 C 174.316406 47.308594 173.640625 47.511719 172.988281 47.78125 C 172.332031 48.046875 171.710938 48.378906 171.125 48.769531 C 170.535156 49.160156 169.988281 49.605469 169.488281 50.101562 C 168.988281 50.601562 168.539062 51.144531 168.144531 51.730469 C 167.75 52.316406 167.417969 52.9375 167.144531 53.589844 C 166.875 54.242188 166.667969 54.914062 166.527344 55.605469 C 166.390625 56.296875 166.320312 56.996094 166.316406 57.703125 C 166.316406 58.410156 166.382812 59.109375 166.519531 59.800781 C 166.65625 60.496094 166.859375 61.167969 167.128906 61.820312 C 167.398438 62.476562 167.730469 63.09375 168.121094 63.683594 C 168.257812 63.886719 181.585938 84.671875 176.0625 102.816406 C 175.085938 105.96875 173.597656 108.863281 171.601562 111.496094 L 188.726562 124.511719 C 192.289062 119.835938 194.929688 114.6875 196.65625 109.074219 C 205.191406 81.03125 186.835938 52.964844 186.050781 51.78125 Z M 186.050781 51.78125 " fill-opacity="1" fill-rule="nonzero"/><g clip-path="url(#c009dc6de6)"><path fill="#000000" d="M 113.535156 188.523438 C 111.234375 184.453125 108.585938 180.628906 105.582031 177.046875 C 103.34375 174.371094 100.835938 171.972656 98.070312 169.847656 C 95.300781 167.722656 92.335938 165.921875 89.171875 164.449219 C 86.007812 162.976562 82.71875 161.863281 79.308594 161.109375 C 75.902344 160.355469 72.449219 159.980469 68.960938 159.988281 L 53.394531 159.988281 C 51.386719 159.984375 49.402344 159.785156 47.4375 159.394531 C 45.46875 159 43.5625 158.421875 41.710938 157.652344 C 39.859375 156.882812 38.101562 155.941406 36.433594 154.824219 C 34.769531 153.710938 33.226562 152.445312 31.8125 151.027344 C 30.664062 149.980469 29.613281 148.84375 28.652344 147.621094 C 21.828125 138.105469 17.476562 123.34375 25.347656 101.539062 C 27.125 96.609375 25.347656 90.828125 20.785156 88.238281 C 20.445312 88.042969 20.097656 87.867188 19.738281 87.707031 C 19.378906 87.550781 19.011719 87.410156 18.640625 87.292969 C 18.265625 87.175781 17.886719 87.078125 17.503906 87 C 17.117188 86.921875 16.730469 86.867188 16.339844 86.832031 C 15.949219 86.796875 15.558594 86.78125 15.167969 86.789062 C 14.777344 86.796875 14.386719 86.828125 13.996094 86.878906 C 13.609375 86.925781 13.222656 87 12.84375 87.089844 C 12.460938 87.183594 12.085938 87.296875 11.71875 87.429688 C 11.351562 87.5625 10.988281 87.714844 10.636719 87.886719 C 10.285156 88.058594 9.945312 88.25 9.613281 88.460938 C 9.28125 88.671875 8.964844 88.898438 8.65625 89.140625 C 8.351562 89.386719 8.058594 89.648438 7.78125 89.921875 C 7.503906 90.199219 7.242188 90.492188 6.996094 90.796875 C 6.75 91.101562 6.523438 91.417969 6.3125 91.746094 C 6.097656 92.078125 5.90625 92.417969 5.734375 92.769531 C 5.558594 93.117188 5.402344 93.476562 5.269531 93.847656 C -7.167969 127.902344 2.742188 151.96875 16.613281 166.703125 C 22.300781 172.769531 28.902344 177.585938 36.417969 181.152344 L 36.417969 244.476562 C 36.417969 245.136719 36.484375 245.789062 36.613281 246.4375 C 36.742188 247.085938 36.929688 247.714844 37.183594 248.324219 C 37.4375 248.933594 37.746094 249.515625 38.113281 250.0625 C 38.480469 250.613281 38.898438 251.121094 39.367188 251.585938 C 39.835938 252.054688 40.34375 252.472656 40.890625 252.839844 C 41.441406 253.207031 42.023438 253.515625 42.632812 253.769531 C 43.242188 254.023438 43.875 254.210938 44.523438 254.339844 C 45.171875 254.46875 45.824219 254.535156 46.484375 254.535156 L 77.25 254.535156 C 77.910156 254.535156 78.566406 254.472656 79.214844 254.34375 C 79.863281 254.214844 80.492188 254.023438 81.105469 253.769531 C 81.714844 253.519531 82.296875 253.207031 82.847656 252.839844 C 83.394531 252.472656 83.90625 252.058594 84.371094 251.589844 C 84.839844 251.121094 85.257812 250.613281 85.625 250.066406 C 85.992188 249.515625 86.304688 248.9375 86.558594 248.324219 C 86.808594 247.714844 87 247.085938 87.128906 246.4375 C 87.257812 245.789062 87.324219 245.136719 87.324219 244.476562 L 87.324219 188.011719 C 91.085938 191.285156 94.078125 195.15625 96.300781 199.625 C 100.476562 208.121094 102.097656 220.011719 96.242188 236.238281 C 94.445312 241.207031 96.316406 247.03125 100.953125 249.574219 C 101.289062 249.761719 101.636719 249.933594 101.996094 250.085938 C 102.355469 250.238281 102.71875 250.371094 103.089844 250.484375 C 103.460938 250.597656 103.839844 250.691406 104.222656 250.761719 C 104.601562 250.835938 104.988281 250.886719 105.375 250.917969 C 105.761719 250.949219 106.152344 250.957031 106.539062 250.945312 C 106.929688 250.933594 107.316406 250.902344 107.699219 250.847656 C 108.085938 250.796875 108.46875 250.722656 108.84375 250.628906 C 109.222656 250.53125 109.59375 250.417969 109.957031 250.285156 C 110.320312 250.148438 110.679688 249.996094 111.027344 249.820312 C 111.375 249.648438 111.710938 249.457031 112.039062 249.246094 C 112.367188 249.039062 112.679688 248.808594 112.984375 248.566406 C 113.285156 248.324219 113.574219 248.0625 113.847656 247.789062 C 114.125 247.511719 114.382812 247.222656 114.625 246.921875 C 114.867188 246.617188 115.09375 246.300781 115.304688 245.976562 C 115.511719 245.648438 115.703125 245.308594 115.875 244.960938 C 116.046875 244.613281 116.199219 244.257812 116.332031 243.890625 C 125.601562 221.109375 121.367188 202.433594 113.535156 188.523438 Z M 113.535156 188.523438 " fill-opacity="1" fill-rule="nonzero"/></g><g clip-path="url(#4b8f7990c6)"><path fill="#000000" d="M 278.390625 93.847656 C 278.253906 93.480469 278.101562 93.121094 277.925781 92.769531 C 277.75 92.417969 277.558594 92.078125 277.347656 91.75 C 277.136719 91.417969 276.90625 91.101562 276.660156 90.796875 C 276.417969 90.492188 276.152344 90.203125 275.875 89.925781 C 275.597656 89.648438 275.308594 89.390625 275 89.144531 C 274.695312 88.898438 274.375 88.671875 274.046875 88.464844 C 273.714844 88.253906 273.371094 88.0625 273.019531 87.890625 C 272.667969 87.71875 272.308594 87.566406 271.941406 87.433594 C 271.570312 87.296875 271.195312 87.1875 270.816406 87.09375 C 270.433594 87 270.050781 86.929688 269.660156 86.878906 C 269.273438 86.828125 268.882812 86.800781 268.492188 86.792969 C 268.097656 86.785156 267.707031 86.796875 267.316406 86.832031 C 266.925781 86.867188 266.539062 86.925781 266.15625 87 C 265.769531 87.078125 265.390625 87.175781 265.019531 87.292969 C 264.644531 87.414062 264.277344 87.550781 263.921875 87.710938 C 263.5625 87.867188 263.214844 88.046875 262.875 88.242188 C 258.3125 90.828125 256.53125 96.613281 258.308594 101.542969 C 266.183594 123.347656 261.828125 138.105469 255.003906 147.625 C 254.046875 148.847656 252.992188 149.980469 251.847656 151.027344 C 250.429688 152.445312 248.890625 153.714844 247.222656 154.828125 C 245.558594 155.941406 243.800781 156.886719 241.949219 157.652344 C 240.097656 158.421875 238.1875 159.003906 236.222656 159.394531 C 234.257812 159.789062 232.269531 159.988281 230.265625 159.988281 L 214.699219 159.988281 C 211.207031 159.984375 207.757812 160.359375 204.347656 161.109375 C 200.9375 161.863281 197.652344 162.976562 194.488281 164.449219 C 191.324219 165.925781 188.359375 167.722656 185.589844 169.847656 C 182.820312 171.972656 180.316406 174.375 178.074219 177.046875 C 175.074219 180.628906 172.421875 184.457031 170.125 188.523438 C 162.289062 202.4375 158.058594 221.113281 167.328125 243.894531 C 167.460938 244.257812 167.613281 244.613281 167.785156 244.964844 C 167.957031 245.3125 168.148438 245.648438 168.359375 245.976562 C 168.566406 246.304688 168.792969 246.621094 169.035156 246.921875 C 169.28125 247.226562 169.539062 247.515625 169.8125 247.789062 C 170.085938 248.066406 170.375 248.324219 170.679688 248.570312 C 170.980469 248.8125 171.296875 249.039062 171.621094 249.25 C 171.949219 249.457031 172.289062 249.652344 172.636719 249.824219 C 172.984375 249.996094 173.339844 250.152344 173.703125 250.285156 C 174.070312 250.421875 174.441406 250.535156 174.816406 250.628906 C 175.195312 250.722656 175.574219 250.796875 175.960938 250.851562 C 176.347656 250.90625 176.734375 250.9375 177.121094 250.949219 C 177.511719 250.960938 177.898438 250.949219 178.285156 250.917969 C 178.671875 250.890625 179.058594 250.835938 179.441406 250.765625 C 179.820312 250.691406 180.199219 250.601562 180.570312 250.488281 C 180.941406 250.375 181.308594 250.242188 181.664062 250.089844 C 182.023438 249.9375 182.371094 249.765625 182.710938 249.574219 C 187.347656 247.03125 189.214844 241.210938 187.421875 236.238281 C 181.566406 220.011719 183.183594 208.125 187.363281 199.625 C 189.585938 195.160156 192.578125 191.289062 196.339844 188.011719 L 196.339844 244.476562 C 196.339844 245.136719 196.40625 245.789062 196.535156 246.4375 C 196.664062 247.085938 196.851562 247.714844 197.105469 248.324219 C 197.359375 248.933594 197.667969 249.515625 198.035156 250.0625 C 198.402344 250.613281 198.820312 251.121094 199.289062 251.585938 C 199.757812 252.054688 200.265625 252.472656 200.8125 252.839844 C 201.363281 253.207031 201.945312 253.515625 202.554688 253.769531 C 203.164062 254.019531 203.792969 254.210938 204.441406 254.339844 C 205.089844 254.46875 205.746094 254.535156 206.40625 254.535156 L 237.171875 254.535156 C 237.832031 254.535156 238.488281 254.472656 239.136719 254.34375 C 239.785156 254.214844 240.414062 254.023438 241.027344 253.769531 C 241.636719 253.515625 242.21875 253.207031 242.765625 252.839844 C 243.316406 252.472656 243.824219 252.054688 244.292969 251.589844 C 244.761719 251.121094 245.179688 250.613281 245.546875 250.0625 C 245.914062 249.515625 246.222656 248.933594 246.476562 248.324219 C 246.730469 247.714844 246.921875 247.085938 247.050781 246.4375 C 247.179688 245.789062 247.242188 245.136719 247.242188 244.476562 L 247.242188 181.152344 C 254.761719 177.585938 261.363281 172.769531 267.046875 166.703125 C 280.917969 151.96875 290.824219 127.902344 278.390625 93.847656 Z M 278.390625 93.847656 " fill-opacity="1" fill-rule="nonzero"/></g><path fill="#000000" d="M 164.777344 185.519531 C 166.035156 183.28125 167.425781 181.089844 168.921875 178.949219 L 168.921875 141.34375 C 177.222656 136.671875 183.8125 131.039062 188.71875 124.519531 C 184.03125 120.96875 175.773438 114.710938 171.585938 111.515625 C 169.59375 114.152344 167.285156 116.476562 164.660156 118.488281 C 158.414062 123.332031 150.492188 125.515625 142.589844 125.515625 L 141.300781 125.515625 C 132.609375 125.515625 124.226562 122.90625 117.75 117.484375 C 115.628906 115.707031 113.746094 113.710938 112.09375 111.496094 C 107.914062 114.6875 99.632812 120.964844 94.9375 124.519531 C 99.847656 131.039062 106.433594 136.675781 114.738281 141.34375 L 114.738281 178.953125 C 116.230469 181.089844 117.621094 183.28125 118.878906 185.519531 C 119.890625 187.308594 120.730469 189.140625 121.566406 190.96875 L 162.089844 190.96875 C 162.925781 189.140625 163.769531 187.308594 164.777344 185.519531 Z M 164.777344 185.519531 " fill-opacity="1" fill-rule="nonzero"/><g clip-path="url(#967cb4029c)"><path fill="#000000" d="M 161.644531 246.199219 C 154.839844 229.472656 154.269531 212.730469 159.664062 197.097656 L 123.992188 197.097656 C 129.390625 212.734375 128.820312 229.472656 122.015625 246.199219 C 121.300781 247.9375 120.332031 249.519531 119.105469 250.945312 C 117.878906 252.371094 116.460938 253.566406 114.847656 254.535156 L 168.808594 254.535156 C 167.199219 253.566406 165.777344 252.371094 164.554688 250.945312 C 163.328125 249.519531 162.359375 247.9375 161.644531 246.199219 Z M 161.644531 246.199219 " fill-opacity="1" fill-rule="nonzero"/></g><path fill="#000000" d="M 89.269531 24.1875 C 89.269531 24.894531 89.199219 25.597656 89.0625 26.289062 C 88.921875 26.984375 88.71875 27.65625 88.445312 28.3125 C 88.175781 28.964844 87.84375 29.585938 87.449219 30.175781 C 87.054688 30.761719 86.609375 31.308594 86.109375 31.808594 C 85.605469 32.308594 85.0625 32.753906 84.472656 33.148438 C 83.882812 33.539062 83.261719 33.871094 82.609375 34.144531 C 81.953125 34.414062 81.28125 34.617188 80.585938 34.757812 C 79.890625 34.894531 79.1875 34.964844 78.480469 34.964844 C 77.773438 34.964844 77.070312 34.894531 76.375 34.757812 C 75.679688 34.617188 75.007812 34.414062 74.351562 34.144531 C 73.699219 33.871094 73.074219 33.539062 72.488281 33.148438 C 71.898438 32.753906 71.351562 32.308594 70.851562 31.808594 C 70.351562 31.308594 69.902344 30.761719 69.511719 30.175781 C 69.117188 29.585938 68.785156 28.964844 68.511719 28.3125 C 68.242188 27.65625 68.039062 26.984375 67.898438 26.289062 C 67.761719 25.597656 67.691406 24.894531 67.691406 24.1875 C 67.691406 23.480469 67.761719 22.777344 67.898438 22.085938 C 68.039062 21.390625 68.242188 20.71875 68.511719 20.0625 C 68.785156 19.410156 69.117188 18.789062 69.511719 18.199219 C 69.902344 17.613281 70.351562 17.066406 70.851562 16.566406 C 71.351562 16.066406 71.898438 15.621094 72.488281 15.226562 C 73.074219 14.835938 73.699219 14.503906 74.351562 14.230469 C 75.007812 13.960938 75.679688 13.757812 76.375 13.617188 C 77.070312 13.480469 77.773438 13.410156 78.480469 13.410156 C 79.1875 13.410156 79.890625 13.480469 80.585938 13.617188 C 81.28125 13.757812 81.953125 13.960938 82.609375 14.230469 C 83.261719 14.503906 83.882812 14.835938 84.472656 15.226562 C 85.0625 15.621094 85.605469 16.066406 86.109375 16.566406 C 86.609375 17.066406 87.054688 17.613281 87.449219 18.199219 C 87.84375 18.789062 88.175781 19.410156 88.445312 20.0625 C 88.71875 20.71875 88.921875 21.390625 89.0625 22.085938 C 89.199219 22.777344 89.269531 23.480469 89.269531 24.1875 Z M 89.269531 24.1875 " fill-opacity="1" fill-rule="nonzero"/><path fill="#000000" d="M 137.890625 30.546875 C 137.890625 31.117188 137.832031 31.679688 137.722656 32.238281 C 137.609375 32.796875 137.445312 33.335938 137.230469 33.863281 C 137.011719 34.386719 136.746094 34.886719 136.429688 35.359375 C 136.113281 35.832031 135.753906 36.269531 135.351562 36.671875 C 134.949219 37.070312 134.511719 37.429688 134.039062 37.746094 C 133.5625 38.0625 133.066406 38.328125 132.539062 38.546875 C 132.011719 38.765625 131.472656 38.929688 130.914062 39.039062 C 130.355469 39.148438 129.792969 39.207031 129.222656 39.207031 C 128.652344 39.207031 128.089844 39.148438 127.53125 39.039062 C 126.972656 38.929688 126.433594 38.765625 125.90625 38.546875 C 125.378906 38.328125 124.878906 38.0625 124.40625 37.746094 C 123.933594 37.429688 123.496094 37.070312 123.09375 36.671875 C 122.691406 36.269531 122.332031 35.832031 122.015625 35.359375 C 121.699219 34.886719 121.433594 34.386719 121.214844 33.863281 C 120.996094 33.335938 120.832031 32.796875 120.722656 32.238281 C 120.613281 31.679688 120.554688 31.117188 120.554688 30.546875 C 120.554688 29.980469 120.613281 29.417969 120.722656 28.859375 C 120.832031 28.300781 120.996094 27.761719 121.214844 27.234375 C 121.433594 26.710938 121.699219 26.210938 122.015625 25.738281 C 122.332031 25.265625 122.691406 24.828125 123.09375 24.425781 C 123.496094 24.023438 123.933594 23.667969 124.40625 23.351562 C 124.878906 23.035156 125.378906 22.769531 125.90625 22.550781 C 126.433594 22.332031 126.972656 22.167969 127.53125 22.058594 C 128.089844 21.945312 128.652344 21.890625 129.222656 21.890625 C 129.792969 21.890625 130.355469 21.945312 130.914062 22.058594 C 131.472656 22.167969 132.011719 22.332031 132.539062 22.550781 C 133.066406 22.769531 133.5625 23.035156 134.039062 23.351562 C 134.511719 23.667969 134.949219 24.023438 135.351562 24.425781 C 135.753906 24.828125 136.113281 25.265625 136.429688 25.738281 C 136.746094 26.210938 137.011719 26.710938 137.230469 27.234375 C 137.445312 27.761719 137.609375 28.300781 137.722656 28.859375 C 137.832031 29.417969 137.890625 29.980469 137.890625 30.546875 Z M 137.890625 30.546875 " fill-opacity="1" fill-rule="nonzero"/><path fill="#000000" d="M 62.464844 62.070312 C 62.464844 62.539062 62.417969 63.003906 62.328125 63.464844 C 62.234375 63.925781 62.097656 64.375 61.917969 64.808594 C 61.738281 65.242188 61.519531 65.65625 61.257812 66.046875 C 60.996094 66.433594 60.699219 66.796875 60.367188 67.128906 C 60.035156 67.460938 59.671875 67.757812 59.28125 68.019531 C 58.890625 68.28125 58.476562 68.5 58.042969 68.679688 C 57.609375 68.859375 57.160156 68.996094 56.699219 69.085938 C 56.238281 69.179688 55.773438 69.222656 55.304688 69.222656 C 54.832031 69.222656 54.367188 69.179688 53.90625 69.085938 C 53.445312 68.996094 52.996094 68.859375 52.5625 68.679688 C 52.128906 68.5 51.714844 68.28125 51.324219 68.019531 C 50.933594 67.757812 50.574219 67.460938 50.238281 67.128906 C 49.90625 66.796875 49.609375 66.433594 49.347656 66.046875 C 49.089844 65.65625 48.867188 65.242188 48.6875 64.808594 C 48.507812 64.375 48.371094 63.925781 48.28125 63.464844 C 48.1875 63.003906 48.144531 62.539062 48.144531 62.070312 C 48.144531 61.601562 48.1875 61.136719 48.28125 60.675781 C 48.371094 60.214844 48.507812 59.765625 48.6875 59.332031 C 48.867188 58.898438 49.089844 58.488281 49.347656 58.097656 C 49.609375 57.707031 49.90625 57.34375 50.238281 57.011719 C 50.574219 56.679688 50.933594 56.382812 51.324219 56.125 C 51.714844 55.863281 52.128906 55.640625 52.5625 55.460938 C 52.996094 55.28125 53.445312 55.148438 53.90625 55.054688 C 54.367188 54.964844 54.832031 54.917969 55.304688 54.917969 C 55.773438 54.917969 56.238281 54.964844 56.699219 55.054688 C 57.160156 55.148438 57.609375 55.28125 58.042969 55.460938 C 58.476562 55.640625 58.890625 55.863281 59.28125 56.125 C 59.671875 56.382812 60.035156 56.679688 60.367188 57.011719 C 60.699219 57.34375 60.996094 57.707031 61.257812 58.097656 C 61.519531 58.488281 61.738281 58.898438 61.917969 59.332031 C 62.097656 59.765625 62.234375 60.214844 62.328125 60.675781 C 62.417969 61.136719 62.464844 61.601562 62.464844 62.070312 Z M 62.464844 62.070312 " fill-opacity="1" fill-rule="nonzero"/><path fill="#000000" d="M 215.578125 24.1875 C 215.578125 24.894531 215.511719 25.597656 215.371094 26.289062 C 215.234375 26.984375 215.03125 27.65625 214.757812 28.3125 C 214.488281 28.964844 214.15625 29.585938 213.761719 30.175781 C 213.367188 30.761719 212.921875 31.308594 212.421875 31.808594 C 211.917969 32.308594 211.375 32.753906 210.785156 33.148438 C 210.195312 33.539062 209.574219 33.871094 208.921875 34.144531 C 208.265625 34.414062 207.589844 34.617188 206.898438 34.757812 C 206.203125 34.894531 205.5 34.964844 204.792969 34.964844 C 204.082031 34.964844 203.382812 34.894531 202.6875 34.757812 C 201.992188 34.617188 201.320312 34.414062 200.664062 34.144531 C 200.007812 33.871094 199.386719 33.539062 198.800781 33.148438 C 198.210938 32.753906 197.664062 32.308594 197.164062 31.808594 C 196.664062 31.308594 196.214844 30.761719 195.824219 30.175781 C 195.429688 29.585938 195.097656 28.964844 194.824219 28.3125 C 194.554688 27.65625 194.351562 26.984375 194.210938 26.289062 C 194.074219 25.597656 194.003906 24.894531 194.003906 24.1875 C 194.003906 23.480469 194.074219 22.777344 194.210938 22.085938 C 194.351562 21.390625 194.554688 20.71875 194.824219 20.0625 C 195.097656 19.410156 195.429688 18.789062 195.824219 18.199219 C 196.214844 17.613281 196.664062 17.066406 197.164062 16.566406 C 197.664062 16.066406 198.210938 15.621094 198.800781 15.226562 C 199.386719 14.835938 200.007812 14.503906 200.664062 14.230469 C 201.320312 13.960938 201.992188 13.757812 202.6875 13.617188 C 203.382812 13.480469 204.082031 13.410156 204.792969 13.410156 C 205.5 13.410156 206.203125 13.480469 206.898438 13.617188 C 207.589844 13.757812 208.265625 13.960938 208.921875 14.230469 C 209.574219 14.503906 210.195312 14.835938 210.785156 15.226562 C 211.375 15.621094 211.917969 16.066406 212.421875 16.566406 C 212.921875 17.066406 213.367188 17.613281 213.761719 18.199219 C 214.15625 18.789062 214.488281 19.410156 214.757812 20.0625 C 215.03125 20.71875 215.234375 21.390625 215.371094 22.085938 C 215.511719 22.777344 215.578125 23.480469 215.578125 24.1875 Z M 215.578125 24.1875 " fill-opacity="1" fill-rule="nonzero"/><path fill="#000000" d="M 169.964844 17.65625 C 169.964844 18.222656 169.910156 18.785156 169.800781 19.34375 C 169.6875 19.902344 169.523438 20.441406 169.304688 20.96875 C 169.089844 21.492188 168.820312 21.992188 168.503906 22.464844 C 168.1875 22.9375 167.828125 23.375 167.425781 23.777344 C 167.023438 24.179688 166.585938 24.539062 166.113281 24.855469 C 165.640625 25.167969 165.140625 25.4375 164.617188 25.652344 C 164.089844 25.871094 163.546875 26.035156 162.988281 26.144531 C 162.429688 26.257812 161.867188 26.3125 161.300781 26.3125 C 160.730469 26.3125 160.167969 26.257812 159.609375 26.144531 C 159.050781 26.035156 158.507812 25.871094 157.984375 25.652344 C 157.457031 25.4375 156.957031 25.167969 156.484375 24.855469 C 156.011719 24.539062 155.574219 24.179688 155.171875 23.777344 C 154.769531 23.375 154.410156 22.9375 154.09375 22.464844 C 153.777344 21.992188 153.511719 21.492188 153.292969 20.96875 C 153.074219 20.441406 152.910156 19.902344 152.800781 19.34375 C 152.6875 18.785156 152.632812 18.222656 152.632812 17.65625 C 152.632812 17.085938 152.6875 16.523438 152.800781 15.964844 C 152.910156 15.410156 153.074219 14.867188 153.292969 14.34375 C 153.511719 13.816406 153.777344 13.320312 154.09375 12.847656 C 154.410156 12.375 154.769531 11.9375 155.171875 11.535156 C 155.574219 11.132812 156.011719 10.773438 156.484375 10.457031 C 156.957031 10.140625 157.457031 9.875 157.984375 9.65625 C 158.507812 9.441406 159.050781 9.277344 159.609375 9.164062 C 160.167969 9.054688 160.730469 9 161.300781 9 C 161.867188 9 162.429688 9.054688 162.988281 9.164062 C 163.546875 9.277344 164.089844 9.441406 164.617188 9.65625 C 165.140625 9.875 165.640625 10.140625 166.113281 10.457031 C 166.585938 10.773438 167.023438 11.132812 167.425781 11.535156 C 167.828125 11.9375 168.1875 12.375 168.503906 12.847656 C 168.820312 13.320312 169.089844 13.816406 169.304688 14.34375 C 169.523438 14.867188 169.6875 15.410156 169.800781 15.964844 C 169.910156 16.523438 169.964844 17.085938 169.964844 17.65625 Z M 169.964844 17.65625 " fill-opacity="1" fill-rule="nonzero"/><path fill="#000000" d="M 235.128906 62.070312 C 235.128906 62.539062 235.082031 63.003906 234.992188 63.464844 C 234.902344 63.925781 234.765625 64.375 234.585938 64.808594 C 234.40625 65.242188 234.183594 65.65625 233.921875 66.046875 C 233.660156 66.433594 233.363281 66.796875 233.03125 67.128906 C 232.699219 67.460938 232.339844 67.757812 231.949219 68.019531 C 231.554688 68.28125 231.144531 68.5 230.710938 68.679688 C 230.273438 68.859375 229.828125 68.996094 229.367188 69.085938 C 228.90625 69.179688 228.4375 69.222656 227.96875 69.222656 C 227.5 69.222656 227.03125 69.179688 226.570312 69.085938 C 226.109375 68.996094 225.664062 68.859375 225.230469 68.679688 C 224.792969 68.5 224.382812 68.28125 223.992188 68.019531 C 223.601562 67.757812 223.238281 67.460938 222.90625 67.128906 C 222.574219 66.796875 222.277344 66.433594 222.015625 66.046875 C 221.753906 65.65625 221.535156 65.242188 221.351562 64.808594 C 221.171875 64.375 221.039062 63.925781 220.945312 63.464844 C 220.855469 63.003906 220.808594 62.539062 220.808594 62.070312 C 220.808594 61.601562 220.855469 61.136719 220.945312 60.675781 C 221.039062 60.214844 221.171875 59.765625 221.351562 59.332031 C 221.535156 58.898438 221.753906 58.488281 222.015625 58.097656 C 222.277344 57.707031 222.574219 57.34375 222.90625 57.011719 C 223.238281 56.679688 223.601562 56.382812 223.992188 56.125 C 224.382812 55.863281 224.792969 55.640625 225.230469 55.460938 C 225.664062 55.28125 226.109375 55.148438 226.570312 55.054688 C 227.03125 54.964844 227.5 54.917969 227.96875 54.917969 C 228.4375 54.917969 228.90625 54.964844 229.367188 55.054688 C 229.828125 55.148438 230.273438 55.28125 230.710938 55.460938 C 231.144531 55.640625 231.554688 55.863281 231.949219 56.125 C 232.339844 56.382812 232.699219 56.679688 233.03125 57.011719 C 233.363281 57.34375 233.660156 57.707031 233.921875 58.097656 C 234.183594 58.488281 234.40625 58.898438 234.585938 59.332031 C 234.765625 59.765625 234.902344 60.214844 234.992188 60.675781 C 235.082031 61.136719 235.128906 61.601562 235.128906 62.070312 Z M 235.128906 62.070312 " fill-opacity="1" fill-rule="nonzero"/><path fill="#000000" d="M 61.855469 101.183594 C 84.84375 101.183594 86.800781 119.558594 86.621094 127.214844 C 86.601562 127.675781 86.5 128.117188 86.316406 128.542969 C 86.132812 128.96875 85.878906 129.34375 85.550781 129.671875 C 85.226562 130 84.851562 130.257812 84.425781 130.445312 C 84.003906 130.632812 83.5625 130.734375 83.097656 130.757812 C 56.695312 132.308594 50.640625 119.609375 50.640625 119.609375 C 48.636719 122.917969 46.050781 125.683594 42.882812 127.902344 C 42.3125 128.292969 41.679688 128.507812 40.988281 128.542969 C 40.292969 128.578125 39.644531 128.429688 39.035156 128.101562 C 38.425781 127.769531 37.949219 127.304688 37.601562 126.703125 C 37.257812 126.101562 37.09375 125.457031 37.113281 124.765625 C 37.46875 116.234375 41.050781 101.183594 61.855469 101.183594 Z M 61.855469 101.183594 " fill-opacity="1" fill-rule="nonzero"/><path fill="#000000" d="M 83.457031 136.875 C 81.8125 136.972656 80.238281 137.019531 78.734375 137.015625 C 64.441406 137.015625 55.890625 132.960938 50.980469 129.078125 C 49.554688 130.53125 48.003906 131.828125 46.320312 132.976562 C 44.65625 134.109375 42.816406 134.675781 40.804688 134.675781 C 40.355469 134.617188 39.917969 134.527344 39.484375 134.40625 C 39.609375 135.730469 39.851562 137.035156 40.210938 138.316406 C 40.566406 139.597656 41.035156 140.839844 41.617188 142.039062 C 42.195312 143.238281 42.878906 144.375 43.660156 145.453125 C 44.441406 146.53125 45.316406 147.527344 46.277344 148.453125 C 47.238281 149.375 48.273438 150.203125 49.382812 150.941406 C 50.492188 151.679688 51.65625 152.3125 52.878906 152.84375 C 54.101562 153.375 55.363281 153.792969 56.660156 154.097656 C 57.957031 154.402344 59.269531 154.59375 60.601562 154.664062 C 61.929688 154.734375 63.257812 154.6875 64.582031 154.523438 C 65.902344 154.359375 67.199219 154.082031 68.472656 153.683594 C 69.746094 153.289062 70.972656 152.785156 72.15625 152.171875 C 73.335938 151.554688 74.457031 150.84375 75.511719 150.027344 C 76.566406 149.214844 77.542969 148.316406 78.4375 147.328125 C 79.328125 146.339844 80.128906 145.28125 80.835938 144.152344 C 81.539062 143.023438 82.140625 141.839844 82.636719 140.605469 C 83.128906 139.367188 83.511719 138.097656 83.777344 136.792969 C 83.667969 136.804688 83.574219 136.871094 83.457031 136.875 Z M 83.457031 136.875 " fill-opacity="1" fill-rule="nonzero"/><path fill="#000000" d="M 141.828125 65.273438 C 117.355469 65.273438 115.222656 84.792969 115.402344 92.992188 C 115.40625 93.46875 115.5 93.929688 115.6875 94.371094 C 115.871094 94.8125 116.136719 95.199219 116.480469 95.535156 C 116.820312 95.867188 117.214844 96.125 117.660156 96.300781 C 118.105469 96.476562 118.566406 96.5625 119.046875 96.554688 C 121.148438 96.4375 123.226562 96.136719 125.28125 95.660156 C 127.332031 95.1875 129.332031 94.539062 131.269531 93.71875 C 133.210938 92.898438 135.070312 91.921875 136.84375 90.78125 C 138.613281 89.644531 140.277344 88.363281 141.828125 86.9375 C 143.382812 88.363281 145.042969 89.644531 146.816406 90.78125 C 148.589844 91.921875 150.445312 92.898438 152.386719 93.71875 C 154.328125 94.539062 156.324219 95.183594 158.378906 95.660156 C 160.429688 96.136719 162.507812 96.433594 164.613281 96.554688 C 165.09375 96.5625 165.554688 96.476562 166 96.300781 C 166.445312 96.125 166.835938 95.867188 167.179688 95.535156 C 167.523438 95.199219 167.785156 94.8125 167.972656 94.371094 C 168.160156 93.929688 168.253906 93.46875 168.253906 92.992188 C 168.4375 84.789062 166.300781 65.273438 141.828125 65.273438 Z M 141.828125 65.273438 " fill-opacity="1" fill-rule="nonzero"/><path fill="#000000" d="M 164.316406 102.675781 C 160.273438 102.449219 156.339844 101.664062 152.515625 100.328125 C 148.695312 98.992188 145.132812 97.152344 141.828125 94.8125 C 138.527344 97.152344 134.964844 98.992188 131.144531 100.328125 C 127.320312 101.664062 123.390625 102.445312 119.347656 102.675781 L 119.21875 102.675781 C 119.578125 103.882812 120.03125 105.058594 120.578125 106.195312 C 121.128906 107.332031 121.761719 108.417969 122.484375 109.449219 C 123.207031 110.484375 124.007812 111.457031 124.886719 112.363281 C 125.761719 113.269531 126.707031 114.101562 127.71875 114.855469 C 128.730469 115.609375 129.796875 116.277344 130.917969 116.863281 C 132.035156 117.445312 133.195312 117.9375 134.394531 118.335938 C 135.59375 118.730469 136.816406 119.03125 138.0625 119.234375 C 139.308594 119.433594 140.5625 119.535156 141.824219 119.535156 C 143.089844 119.535156 144.34375 119.433594 145.589844 119.234375 C 146.835938 119.03125 148.058594 118.730469 149.257812 118.335938 C 150.457031 117.9375 151.613281 117.445312 152.734375 116.863281 C 153.855469 116.277344 154.917969 115.609375 155.933594 114.855469 C 156.945312 114.101562 157.886719 113.269531 158.765625 112.363281 C 159.644531 111.457031 160.445312 110.484375 161.167969 109.453125 C 161.890625 108.417969 162.523438 107.332031 163.070312 106.195312 C 163.621094 105.058594 164.074219 103.882812 164.429688 102.675781 C 164.390625 102.675781 164.339844 102.675781 164.316406 102.675781 Z M 164.316406 102.675781 " fill-opacity="1" fill-rule="nonzero"/><path fill="#000000" d="M 221.789062 102.785156 C 207.648438 102.785156 200.914062 114.023438 198.488281 119.445312 C 198.296875 119.871094 198.179688 120.316406 198.144531 120.78125 C 198.109375 121.246094 198.15625 121.703125 198.28125 122.15625 C 198.410156 122.605469 198.609375 123.019531 198.882812 123.394531 C 199.15625 123.773438 199.488281 124.09375 199.875 124.355469 C 203.289062 126.726562 210.34375 130.300781 221.789062 130.300781 C 233.234375 130.300781 240.285156 126.726562 243.703125 124.355469 C 244.089844 124.09375 244.421875 123.773438 244.695312 123.394531 C 244.96875 123.019531 245.167969 122.605469 245.296875 122.15625 C 245.421875 121.703125 245.46875 121.246094 245.433594 120.78125 C 245.398438 120.316406 245.28125 119.871094 245.089844 119.445312 C 242.660156 114.023438 235.929688 102.785156 221.789062 102.785156 Z M 221.789062 102.785156 " fill-opacity="1" fill-rule="nonzero"/><path fill="#000000" d="M 221.789062 136.429688 C 211.378906 136.429688 204.140625 133.820312 199.273438 131.101562 C 199.25 131.433594 199.171875 131.757812 199.171875 132.101562 C 199.171875 132.839844 199.210938 133.578125 199.28125 134.316406 C 199.355469 135.050781 199.464844 135.78125 199.609375 136.507812 C 199.753906 137.234375 199.933594 137.949219 200.148438 138.660156 C 200.363281 139.367188 200.613281 140.0625 200.894531 140.746094 C 201.179688 141.429688 201.496094 142.097656 201.84375 142.75 C 202.191406 143.402344 202.574219 144.035156 202.984375 144.652344 C 203.394531 145.265625 203.835938 145.859375 204.308594 146.433594 C 204.777344 147.003906 205.273438 147.550781 205.796875 148.074219 C 206.320312 148.597656 206.871094 149.09375 207.441406 149.566406 C 208.015625 150.035156 208.609375 150.472656 209.222656 150.886719 C 209.839844 151.296875 210.476562 151.675781 211.128906 152.023438 C 211.78125 152.375 212.449219 152.691406 213.132812 152.972656 C 213.820312 153.257812 214.515625 153.503906 215.222656 153.71875 C 215.933594 153.933594 216.652344 154.113281 217.375 154.257812 C 218.101562 154.402344 218.835938 154.511719 219.570312 154.582031 C 220.308594 154.65625 221.046875 154.691406 221.789062 154.691406 C 222.53125 154.691406 223.269531 154.65625 224.003906 154.582031 C 224.742188 154.511719 225.472656 154.402344 226.199219 154.257812 C 226.925781 154.113281 227.644531 153.933594 228.355469 153.71875 C 229.0625 153.503906 229.757812 153.257812 230.445312 152.972656 C 231.128906 152.691406 231.796875 152.375 232.449219 152.023438 C 233.101562 151.675781 233.738281 151.296875 234.351562 150.886719 C 234.96875 150.472656 235.5625 150.035156 236.136719 149.566406 C 236.707031 149.09375 237.257812 148.597656 237.78125 148.074219 C 238.304688 147.550781 238.800781 147.003906 239.269531 146.433594 C 239.742188 145.859375 240.179688 145.265625 240.59375 144.652344 C 241.003906 144.035156 241.386719 143.402344 241.734375 142.75 C 242.082031 142.097656 242.398438 141.429688 242.683594 140.746094 C 242.964844 140.0625 243.214844 139.367188 243.429688 138.660156 C 243.644531 137.949219 243.824219 137.234375 243.96875 136.507812 C 244.113281 135.78125 244.222656 135.050781 244.296875 134.316406 C 244.367188 133.578125 244.40625 132.839844 244.40625 132.101562 C 244.40625 131.757812 244.328125 131.433594 244.304688 131.101562 C 239.4375 133.816406 232.199219 136.429688 221.789062 136.429688 Z M 221.789062 136.429688 " fill-opacity="1" fill-rule="nonzero"/></svg>