<svg xmlns="http://www.w3.org/2000/svg" xmlns:xlink="http://www.w3.org/1999/xlink" width="378" zoomAndPan="magnify" viewBox="0 0 282.96 283.499989" height="378" preserveAspectRatio="xMidYMid meet" version="1.0"><defs><clipPath id="80b3ea093c"><path d="M 76 128 L 133 128 L 133 204.929688 L 76 204.929688 Z M 76 128 " clip-rule="nonzero"/></clipPath><clipPath id="e19a836f8b"><path d="M 150 128 L 207 128 L 207 204.929688 L 150 204.929688 Z M 150 128 " clip-rule="nonzero"/></clipPath><clipPath id="6f26a57461"><path d="M 129 178 L 154 178 L 154 204.929688 L 129 204.929688 Z M 129 178 " clip-rule="nonzero"/></clipPath><clipPath id="9211ae1dd5"><path d="M 146 92.628906 L 155 92.628906 L 155 101 L 146 101 Z M 146 92.628906 " clip-rule="nonzero"/></clipPath></defs><path fill="#000000" d="M 126.074219 135.582031 C 123.535156 127.292969 129.527344 117.867188 129.679688 117.632812 C 129.851562 117.363281 130 117.078125 130.121094 116.78125 C 130.242188 116.484375 130.332031 116.175781 130.390625 115.859375 C 130.449219 115.542969 130.480469 115.226562 130.476562 114.902344 C 130.472656 114.582031 130.441406 114.265625 130.375 113.949219 C 130.3125 113.632812 130.214844 113.328125 130.09375 113.03125 C 129.96875 112.734375 129.816406 112.453125 129.636719 112.1875 C 129.457031 111.921875 129.253906 111.675781 129.027344 111.449219 C 128.800781 111.222656 128.550781 111.019531 128.285156 110.84375 C 128.019531 110.664062 127.738281 110.515625 127.441406 110.394531 C 127.144531 110.269531 126.839844 110.179688 126.527344 110.117188 C 126.210938 110.054688 125.894531 110.023438 125.574219 110.023438 C 125.253906 110.027344 124.9375 110.058594 124.625 110.121094 C 124.308594 110.183594 124.003906 110.277344 123.710938 110.398438 C 123.414062 110.523438 123.132812 110.671875 122.867188 110.851562 C 122.601562 111.03125 122.351562 111.234375 122.125 111.460938 C 121.898438 111.6875 121.699219 111.933594 121.519531 112.199219 C 121.160156 112.742188 112.8125 125.578125 116.695312 138.402344 C 117.480469 140.96875 118.683594 143.324219 120.300781 145.460938 L 128.101562 139.5 C 127.199219 138.3125 126.523438 137.003906 126.074219 135.582031 Z M 126.074219 135.582031 " fill-opacity="1" fill-rule="nonzero"/><path fill="#000000" d="M 161.738281 112.203125 C 161.5625 111.933594 161.359375 111.683594 161.132812 111.453125 C 160.90625 111.222656 160.660156 111.019531 160.394531 110.839844 C 160.125 110.660156 159.84375 110.507812 159.546875 110.382812 C 159.25 110.257812 158.945312 110.164062 158.628906 110.097656 C 158.3125 110.035156 157.996094 110.003906 157.675781 110 C 157.351562 110 157.035156 110.03125 156.71875 110.09375 C 156.402344 110.15625 156.097656 110.25 155.800781 110.371094 C 155.5 110.492188 155.21875 110.644531 154.953125 110.824219 C 154.683594 111.003906 154.4375 111.207031 154.207031 111.433594 C 153.980469 111.660156 153.777344 111.910156 153.597656 112.179688 C 153.417969 112.445312 153.265625 112.730469 153.140625 113.027344 C 153.019531 113.324219 152.925781 113.632812 152.863281 113.949219 C 152.796875 114.265625 152.765625 114.585938 152.765625 114.910156 C 152.765625 115.234375 152.796875 115.550781 152.859375 115.871094 C 152.921875 116.1875 153.011719 116.496094 153.136719 116.792969 C 153.257812 117.089844 153.410156 117.375 153.585938 117.644531 C 153.648438 117.738281 159.710938 127.242188 157.199219 135.539062 C 156.753906 136.984375 156.078125 138.304688 155.167969 139.507812 L 162.957031 145.460938 C 164.574219 143.324219 165.777344 140.96875 166.5625 138.402344 C 170.445312 125.578125 162.097656 112.742188 161.738281 112.203125 Z M 161.738281 112.203125 " fill-opacity="1" fill-rule="nonzero"/><g clip-path="url(#80b3ea093c)"><path fill="#000000" d="M 128.761719 174.734375 C 127.714844 172.875 126.511719 171.125 125.144531 169.488281 C 124.125 168.261719 122.988281 167.167969 121.726562 166.195312 C 120.46875 165.222656 119.121094 164.398438 117.679688 163.726562 C 116.242188 163.050781 114.746094 162.542969 113.195312 162.199219 C 111.648438 161.855469 110.078125 161.683594 108.488281 161.683594 L 101.410156 161.683594 C 99.570312 161.683594 97.796875 161.328125 96.097656 160.617188 C 94.398438 159.90625 92.894531 158.898438 91.597656 157.585938 C 91.074219 157.109375 90.59375 156.589844 90.160156 156.03125 C 87.054688 151.675781 85.078125 144.929688 88.65625 134.957031 C 89.464844 132.703125 88.65625 130.058594 86.582031 128.875 C 86.273438 128.695312 85.945312 128.550781 85.605469 128.441406 C 85.265625 128.332031 84.917969 128.261719 84.558594 128.230469 C 84.203125 128.199219 83.847656 128.203125 83.496094 128.25 C 83.140625 128.296875 82.792969 128.382812 82.457031 128.503906 C 82.121094 128.625 81.804688 128.78125 81.5 128.976562 C 81.199219 129.167969 80.921875 129.390625 80.667969 129.644531 C 80.414062 129.898438 80.191406 130.175781 80 130.476562 C 79.804688 130.78125 79.648438 131.101562 79.523438 131.4375 C 73.871094 147.011719 78.375 158.019531 84.683594 164.757812 C 87.269531 167.53125 90.273438 169.734375 93.691406 171.363281 L 93.691406 200.324219 C 93.691406 200.625 93.71875 200.925781 93.777344 201.21875 C 93.835938 201.515625 93.925781 201.804688 94.039062 202.082031 C 94.15625 202.363281 94.296875 202.628906 94.460938 202.878906 C 94.628906 203.128906 94.820312 203.363281 95.03125 203.574219 C 95.246094 203.789062 95.476562 203.980469 95.726562 204.148438 C 95.976562 204.316406 96.238281 204.457031 96.515625 204.574219 C 96.796875 204.6875 97.082031 204.777344 97.375 204.835938 C 97.671875 204.894531 97.96875 204.921875 98.269531 204.921875 L 112.257812 204.921875 C 112.558594 204.925781 112.859375 204.894531 113.152344 204.835938 C 113.449219 204.777344 113.734375 204.691406 114.011719 204.574219 C 114.289062 204.457031 114.554688 204.316406 114.804688 204.148438 C 115.054688 203.980469 115.285156 203.789062 115.5 203.578125 C 115.710938 203.363281 115.902344 203.132812 116.070312 202.878906 C 116.238281 202.628906 116.378906 202.363281 116.492188 202.085938 C 116.609375 201.804688 116.695312 201.515625 116.753906 201.222656 C 116.8125 200.925781 116.839844 200.625 116.839844 200.324219 L 116.839844 174.5 C 118.550781 176 119.914062 177.769531 120.921875 179.8125 C 122.824219 183.699219 123.558594 189.136719 120.898438 196.554688 C 120.082031 198.828125 120.929688 201.492188 123.039062 202.65625 C 123.347656 202.828125 123.671875 202.96875 124.011719 203.070312 C 124.351562 203.175781 124.699219 203.242188 125.050781 203.269531 C 125.40625 203.296875 125.757812 203.285156 126.109375 203.238281 C 126.460938 203.1875 126.800781 203.101562 127.132812 202.980469 C 127.46875 202.855469 127.78125 202.699219 128.082031 202.503906 C 128.378906 202.3125 128.652344 202.089844 128.90625 201.839844 C 129.15625 201.585938 129.375 201.308594 129.566406 201.007812 C 129.757812 200.707031 129.914062 200.390625 130.035156 200.054688 C 134.25 189.636719 132.324219 181.097656 128.761719 174.734375 Z M 128.761719 174.734375 " fill-opacity="1" fill-rule="nonzero"/></g><g clip-path="url(#e19a836f8b)"><path fill="#000000" d="M 203.734375 131.4375 C 203.609375 131.101562 203.453125 130.78125 203.257812 130.480469 C 203.066406 130.175781 202.84375 129.898438 202.589844 129.644531 C 202.335938 129.390625 202.058594 129.167969 201.757812 128.976562 C 201.457031 128.785156 201.136719 128.625 200.800781 128.503906 C 200.464844 128.382812 200.117188 128.296875 199.765625 128.253906 C 199.410156 128.207031 199.054688 128.199219 198.699219 128.230469 C 198.339844 128.261719 197.992188 128.332031 197.652344 128.441406 C 197.3125 128.550781 196.988281 128.695312 196.675781 128.875 C 194.601562 130.058594 193.792969 132.703125 194.601562 134.957031 C 198.179688 144.929688 196.203125 151.679688 193.097656 156.03125 C 192.664062 156.589844 192.183594 157.109375 191.664062 157.589844 C 190.363281 158.898438 188.859375 159.910156 187.160156 160.617188 C 185.460938 161.328125 183.6875 161.683594 181.847656 161.6875 L 174.769531 161.6875 C 173.179688 161.683594 171.613281 161.855469 170.0625 162.199219 C 168.511719 162.542969 167.015625 163.054688 165.578125 163.726562 C 164.136719 164.402344 162.789062 165.222656 161.53125 166.195312 C 160.269531 167.167969 159.132812 168.265625 158.113281 169.488281 C 156.746094 171.125 155.542969 172.875 154.496094 174.734375 C 150.933594 181.097656 149.007812 189.640625 153.226562 200.058594 C 153.347656 200.390625 153.503906 200.710938 153.695312 201.011719 C 153.882812 201.308594 154.105469 201.585938 154.355469 201.839844 C 154.605469 202.089844 154.878906 202.3125 155.179688 202.507812 C 155.476562 202.699219 155.792969 202.855469 156.125 202.980469 C 156.457031 203.105469 156.800781 203.191406 157.152344 203.238281 C 157.503906 203.289062 157.855469 203.296875 158.207031 203.269531 C 158.5625 203.242188 158.910156 203.175781 159.246094 203.074219 C 159.585938 202.96875 159.910156 202.828125 160.21875 202.65625 C 162.328125 201.492188 163.179688 198.832031 162.363281 196.558594 C 159.699219 189.136719 160.4375 183.699219 162.335938 179.8125 C 163.347656 177.769531 164.707031 176 166.417969 174.5 L 166.417969 200.324219 C 166.417969 200.625 166.449219 200.925781 166.507812 201.21875 C 166.566406 201.515625 166.652344 201.804688 166.769531 202.082031 C 166.882812 202.363281 167.023438 202.628906 167.191406 202.878906 C 167.359375 203.128906 167.546875 203.363281 167.761719 203.574219 C 167.972656 203.789062 168.203125 203.980469 168.453125 204.148438 C 168.703125 204.316406 168.96875 204.457031 169.246094 204.574219 C 169.523438 204.6875 169.808594 204.777344 170.105469 204.835938 C 170.398438 204.894531 170.695312 204.921875 170.996094 204.921875 L 184.988281 204.921875 C 185.289062 204.921875 185.585938 204.894531 185.882812 204.835938 C 186.175781 204.777344 186.464844 204.6875 186.742188 204.574219 C 187.019531 204.457031 187.28125 204.316406 187.53125 204.148438 C 187.78125 203.980469 188.015625 203.789062 188.226562 203.578125 C 188.441406 203.363281 188.628906 203.128906 188.796875 202.878906 C 188.964844 202.628906 189.105469 202.363281 189.21875 202.082031 C 189.335938 201.804688 189.421875 201.515625 189.480469 201.21875 C 189.539062 200.925781 189.570312 200.625 189.570312 200.324219 L 189.570312 171.363281 C 192.988281 169.734375 195.988281 167.53125 198.574219 164.757812 C 204.882812 158.019531 209.390625 147.011719 203.734375 131.4375 Z M 203.734375 131.4375 " fill-opacity="1" fill-rule="nonzero"/></g><path fill="#000000" d="M 152.066406 173.359375 C 152.636719 172.339844 153.269531 171.335938 153.949219 170.355469 L 153.949219 153.160156 C 157.726562 151.023438 160.722656 148.445312 162.953125 145.464844 C 160.820312 143.839844 157.066406 140.980469 155.160156 139.519531 C 154.253906 140.726562 153.207031 141.789062 152.011719 142.707031 C 149.171875 144.921875 145.570312 145.921875 141.976562 145.921875 L 141.390625 145.921875 C 137.433594 145.921875 133.625 144.726562 130.679688 142.246094 C 129.714844 141.4375 128.855469 140.523438 128.105469 139.507812 C 126.207031 140.96875 122.4375 143.839844 120.304688 145.464844 C 122.535156 148.445312 125.53125 151.023438 129.308594 153.160156 L 129.308594 170.359375 C 129.988281 171.335938 130.621094 172.339844 131.191406 173.359375 C 131.652344 174.179688 132.035156 175.015625 132.414062 175.855469 L 150.84375 175.855469 C 151.222656 175.015625 151.605469 174.179688 152.066406 173.359375 Z M 152.066406 173.359375 " fill-opacity="1" fill-rule="nonzero"/><g clip-path="url(#6f26a57461)"><path fill="#000000" d="M 150.640625 201.113281 C 147.546875 193.460938 147.285156 185.804688 149.742188 178.65625 L 133.519531 178.65625 C 135.972656 185.808594 135.714844 193.460938 132.617188 201.113281 C 131.949219 202.746094 130.863281 204.015625 129.359375 204.921875 L 153.898438 204.921875 C 152.394531 204.015625 151.308594 202.742188 150.640625 201.113281 Z M 150.640625 201.113281 " fill-opacity="1" fill-rule="nonzero"/></g><path fill="#000000" d="M 117.726562 99.582031 C 117.726562 99.90625 117.695312 100.226562 117.632812 100.542969 C 117.570312 100.859375 117.476562 101.167969 117.351562 101.46875 C 117.230469 101.765625 117.078125 102.050781 116.898438 102.320312 C 116.71875 102.589844 116.515625 102.839844 116.289062 103.066406 C 116.0625 103.296875 115.8125 103.5 115.546875 103.679688 C 115.277344 103.859375 114.996094 104.011719 114.695312 104.136719 C 114.398438 104.257812 114.09375 104.351562 113.777344 104.414062 C 113.460938 104.480469 113.140625 104.511719 112.820312 104.511719 C 112.496094 104.511719 112.179688 104.480469 111.863281 104.414062 C 111.546875 104.351562 111.238281 104.257812 110.941406 104.136719 C 110.644531 104.011719 110.363281 103.859375 110.09375 103.679688 C 109.824219 103.5 109.578125 103.296875 109.351562 103.066406 C 109.121094 102.839844 108.917969 102.589844 108.742188 102.320312 C 108.5625 102.050781 108.410156 101.765625 108.285156 101.46875 C 108.164062 101.167969 108.070312 100.859375 108.007812 100.542969 C 107.945312 100.226562 107.914062 99.90625 107.914062 99.582031 C 107.914062 99.257812 107.945312 98.9375 108.007812 98.621094 C 108.070312 98.304688 108.164062 97.996094 108.285156 97.695312 C 108.410156 97.398438 108.5625 97.113281 108.742188 96.84375 C 108.917969 96.574219 109.121094 96.324219 109.351562 96.097656 C 109.578125 95.867188 109.824219 95.664062 110.09375 95.484375 C 110.363281 95.304688 110.644531 95.152344 110.941406 95.027344 C 111.238281 94.90625 111.546875 94.8125 111.863281 94.75 C 112.179688 94.683594 112.496094 94.652344 112.820312 94.652344 C 113.140625 94.652344 113.460938 94.683594 113.777344 94.75 C 114.09375 94.8125 114.398438 94.90625 114.695312 95.027344 C 114.996094 95.152344 115.277344 95.304688 115.546875 95.484375 C 115.8125 95.664062 116.0625 95.867188 116.289062 96.097656 C 116.515625 96.324219 116.71875 96.574219 116.898438 96.84375 C 117.078125 97.113281 117.230469 97.398438 117.351562 97.695312 C 117.476562 97.996094 117.570312 98.304688 117.632812 98.621094 C 117.695312 98.9375 117.726562 99.257812 117.726562 99.582031 Z M 117.726562 99.582031 " fill-opacity="1" fill-rule="nonzero"/><path fill="#000000" d="M 139.835938 102.492188 C 139.835938 102.75 139.8125 103.007812 139.761719 103.261719 C 139.710938 103.519531 139.636719 103.765625 139.539062 104.007812 C 139.4375 104.246094 139.316406 104.472656 139.171875 104.691406 C 139.027344 104.90625 138.867188 105.105469 138.683594 105.289062 C 138.5 105.472656 138.300781 105.636719 138.085938 105.78125 C 137.871094 105.925781 137.644531 106.050781 137.402344 106.148438 C 137.164062 106.25 136.917969 106.324219 136.664062 106.375 C 136.410156 106.425781 136.15625 106.449219 135.894531 106.449219 C 135.636719 106.449219 135.378906 106.425781 135.128906 106.375 C 134.875 106.324219 134.625 106.25 134.386719 106.148438 C 134.148438 106.050781 133.921875 105.925781 133.707031 105.78125 C 133.492188 105.636719 133.292969 105.472656 133.109375 105.289062 C 132.925781 105.105469 132.761719 104.90625 132.617188 104.691406 C 132.476562 104.472656 132.355469 104.246094 132.253906 104.007812 C 132.15625 103.765625 132.082031 103.519531 132.03125 103.261719 C 131.980469 103.007812 131.953125 102.75 131.953125 102.492188 C 131.953125 102.230469 131.980469 101.972656 132.03125 101.71875 C 132.082031 101.464844 132.15625 101.214844 132.253906 100.976562 C 132.355469 100.734375 132.476562 100.507812 132.617188 100.292969 C 132.761719 100.074219 132.925781 99.875 133.109375 99.691406 C 133.292969 99.507812 133.492188 99.34375 133.707031 99.199219 C 133.921875 99.054688 134.148438 98.933594 134.386719 98.832031 C 134.625 98.734375 134.875 98.660156 135.128906 98.609375 C 135.378906 98.558594 135.636719 98.53125 135.894531 98.53125 C 136.15625 98.53125 136.410156 98.558594 136.664062 98.609375 C 136.917969 98.660156 137.164062 98.734375 137.402344 98.832031 C 137.644531 98.933594 137.871094 99.054688 138.085938 99.199219 C 138.300781 99.34375 138.5 99.507812 138.683594 99.691406 C 138.867188 99.875 139.027344 100.074219 139.171875 100.292969 C 139.316406 100.507812 139.4375 100.734375 139.539062 100.976562 C 139.636719 101.214844 139.710938 101.464844 139.761719 101.71875 C 139.8125 101.972656 139.835938 102.230469 139.835938 102.492188 Z M 139.835938 102.492188 " fill-opacity="1" fill-rule="nonzero"/><path fill="#000000" d="M 105.535156 116.90625 C 105.535156 117.339844 105.453125 117.757812 105.289062 118.160156 C 105.121094 118.558594 104.886719 118.914062 104.582031 119.21875 C 104.277344 119.527344 103.925781 119.761719 103.527344 119.929688 C 103.125 120.09375 102.710938 120.179688 102.28125 120.179688 C 101.847656 120.179688 101.433594 120.09375 101.035156 119.929688 C 100.632812 119.761719 100.28125 119.527344 99.976562 119.21875 C 99.671875 118.914062 99.4375 118.558594 99.269531 118.160156 C 99.105469 117.757812 99.023438 117.339844 99.023438 116.90625 C 99.023438 116.472656 99.105469 116.054688 99.269531 115.65625 C 99.4375 115.253906 99.671875 114.898438 99.976562 114.59375 C 100.28125 114.285156 100.632812 114.050781 101.035156 113.882812 C 101.433594 113.71875 101.847656 113.636719 102.28125 113.636719 C 102.710938 113.636719 103.125 113.71875 103.527344 113.882812 C 103.925781 114.050781 104.277344 114.285156 104.582031 114.59375 C 104.886719 114.898438 105.121094 115.253906 105.289062 115.65625 C 105.453125 116.054688 105.535156 116.472656 105.535156 116.90625 Z M 105.535156 116.90625 " fill-opacity="1" fill-rule="nonzero"/><path fill="#000000" d="M 175.167969 99.582031 C 175.167969 99.90625 175.136719 100.226562 175.074219 100.542969 C 175.011719 100.859375 174.917969 101.167969 174.796875 101.46875 C 174.671875 101.765625 174.519531 102.050781 174.34375 102.320312 C 174.164062 102.589844 173.960938 102.839844 173.730469 103.066406 C 173.503906 103.296875 173.257812 103.5 172.988281 103.679688 C 172.722656 103.859375 172.4375 104.011719 172.140625 104.136719 C 171.84375 104.257812 171.535156 104.351562 171.21875 104.414062 C 170.902344 104.480469 170.585938 104.511719 170.261719 104.511719 C 169.941406 104.511719 169.621094 104.480469 169.304688 104.414062 C 168.988281 104.351562 168.683594 104.257812 168.386719 104.136719 C 168.089844 104.011719 167.804688 103.859375 167.539062 103.679688 C 167.269531 103.5 167.023438 103.296875 166.792969 103.066406 C 166.566406 102.839844 166.363281 102.589844 166.183594 102.320312 C 166.003906 102.050781 165.855469 101.765625 165.730469 101.46875 C 165.605469 101.167969 165.515625 100.859375 165.453125 100.542969 C 165.386719 100.226562 165.355469 99.90625 165.355469 99.582031 C 165.355469 99.257812 165.386719 98.9375 165.453125 98.621094 C 165.515625 98.304688 165.605469 97.996094 165.730469 97.695312 C 165.855469 97.398438 166.003906 97.113281 166.183594 96.84375 C 166.363281 96.574219 166.566406 96.324219 166.792969 96.097656 C 167.023438 95.867188 167.269531 95.664062 167.539062 95.484375 C 167.804688 95.304688 168.089844 95.152344 168.386719 95.027344 C 168.683594 94.90625 168.988281 94.8125 169.304688 94.75 C 169.621094 94.683594 169.941406 94.652344 170.261719 94.652344 C 170.585938 94.652344 170.902344 94.683594 171.21875 94.75 C 171.535156 94.8125 171.84375 94.90625 172.140625 95.027344 C 172.4375 95.152344 172.722656 95.304688 172.988281 95.484375 C 173.257812 95.664062 173.503906 95.867188 173.730469 96.097656 C 173.960938 96.324219 174.164062 96.574219 174.34375 96.84375 C 174.519531 97.113281 174.671875 97.398438 174.796875 97.695312 C 174.917969 97.996094 175.011719 98.304688 175.074219 98.621094 C 175.136719 98.9375 175.167969 99.257812 175.167969 99.582031 Z M 175.167969 99.582031 " fill-opacity="1" fill-rule="nonzero"/><g clip-path="url(#9211ae1dd5)"><path fill="#000000" d="M 154.425781 96.59375 C 154.425781 96.855469 154.398438 97.113281 154.347656 97.367188 C 154.296875 97.621094 154.222656 97.871094 154.125 98.109375 C 154.027344 98.351562 153.90625 98.578125 153.761719 98.792969 C 153.617188 99.011719 153.453125 99.210938 153.269531 99.394531 C 153.085938 99.578125 152.886719 99.742188 152.671875 99.886719 C 152.457031 100.03125 152.230469 100.152344 151.992188 100.253906 C 151.753906 100.351562 151.507812 100.425781 151.253906 100.476562 C 151 100.527344 150.742188 100.554688 150.484375 100.554688 C 150.226562 100.554688 149.96875 100.527344 149.714844 100.476562 C 149.460938 100.425781 149.214844 100.351562 148.976562 100.253906 C 148.734375 100.152344 148.507812 100.03125 148.292969 99.886719 C 148.078125 99.742188 147.878906 99.578125 147.695312 99.394531 C 147.511719 99.210938 147.351562 99.011719 147.207031 98.792969 C 147.0625 98.578125 146.941406 98.351562 146.84375 98.109375 C 146.742188 97.871094 146.667969 97.621094 146.617188 97.367188 C 146.566406 97.113281 146.542969 96.855469 146.542969 96.59375 C 146.542969 96.335938 146.566406 96.078125 146.617188 95.824219 C 146.667969 95.566406 146.742188 95.320312 146.84375 95.078125 C 146.941406 94.839844 147.0625 94.613281 147.207031 94.394531 C 147.351562 94.179688 147.511719 93.980469 147.695312 93.796875 C 147.878906 93.613281 148.078125 93.449219 148.292969 93.304688 C 148.507812 93.160156 148.734375 93.035156 148.976562 92.9375 C 149.214844 92.835938 149.460938 92.761719 149.714844 92.710938 C 149.96875 92.660156 150.226562 92.636719 150.484375 92.636719 C 150.742188 92.636719 151 92.660156 151.253906 92.710938 C 151.507812 92.761719 151.753906 92.835938 151.992188 92.9375 C 152.230469 93.035156 152.457031 93.160156 152.671875 93.304688 C 152.886719 93.449219 153.085938 93.613281 153.269531 93.796875 C 153.453125 93.980469 153.617188 94.179688 153.761719 94.394531 C 153.90625 94.613281 154.027344 94.839844 154.125 95.078125 C 154.222656 95.320312 154.296875 95.566406 154.347656 95.824219 C 154.398438 96.078125 154.425781 96.335938 154.425781 96.59375 Z M 154.425781 96.59375 " fill-opacity="1" fill-rule="nonzero"/></g><path fill="#000000" d="M 184.058594 116.90625 C 184.058594 117.339844 183.976562 117.757812 183.8125 118.160156 C 183.648438 118.558594 183.410156 118.914062 183.105469 119.21875 C 182.800781 119.527344 182.449219 119.761719 182.050781 119.929688 C 181.652344 120.09375 181.234375 120.179688 180.804688 120.179688 C 180.371094 120.179688 179.957031 120.09375 179.558594 119.929688 C 179.15625 119.761719 178.804688 119.527344 178.5 119.21875 C 178.195312 118.914062 177.960938 118.558594 177.792969 118.160156 C 177.628906 117.757812 177.546875 117.339844 177.546875 116.90625 C 177.546875 116.472656 177.628906 116.054688 177.792969 115.65625 C 177.960938 115.253906 178.195312 114.898438 178.5 114.59375 C 178.804688 114.285156 179.15625 114.050781 179.558594 113.882812 C 179.957031 113.71875 180.371094 113.636719 180.804688 113.636719 C 181.234375 113.636719 181.652344 113.71875 182.050781 113.882812 C 182.449219 114.050781 182.800781 114.285156 183.105469 114.59375 C 183.410156 114.898438 183.648438 115.253906 183.8125 115.65625 C 183.976562 116.054688 184.058594 116.472656 184.058594 116.90625 Z M 184.058594 116.90625 " fill-opacity="1" fill-rule="nonzero"/><path fill="#000000" d="M 105.257812 134.792969 C 115.714844 134.792969 116.605469 143.199219 116.519531 146.699219 C 116.511719 146.910156 116.46875 147.113281 116.382812 147.304688 C 116.300781 147.5 116.183594 147.671875 116.035156 147.820312 C 115.886719 147.972656 115.71875 148.089844 115.523438 148.175781 C 115.332031 148.261719 115.128906 148.308594 114.917969 148.316406 C 102.914062 149.027344 100.160156 143.21875 100.160156 143.21875 C 99.25 144.734375 98.070312 145.996094 96.628906 147.011719 C 96.371094 147.191406 96.082031 147.289062 95.769531 147.304688 C 95.453125 147.320312 95.15625 147.253906 94.878906 147.101562 C 94.605469 146.953125 94.386719 146.738281 94.230469 146.464844 C 94.070312 146.191406 93.996094 145.894531 94.007812 145.578125 C 94.167969 141.675781 95.796875 134.792969 105.257812 134.792969 Z M 105.257812 134.792969 " fill-opacity="1" fill-rule="nonzero"/><path fill="#000000" d="M 115.082031 151.117188 C 114.335938 151.160156 113.621094 151.183594 112.9375 151.179688 C 106.433594 151.179688 102.546875 149.324219 100.3125 147.550781 C 99.664062 148.214844 98.960938 148.808594 98.195312 149.332031 C 97.4375 149.851562 96.601562 150.109375 95.683594 150.109375 C 95.480469 150.082031 95.28125 150.042969 95.085938 149.984375 C 95.140625 150.59375 95.253906 151.1875 95.414062 151.773438 C 95.578125 152.359375 95.792969 152.929688 96.054688 153.476562 C 96.320312 154.023438 96.628906 154.546875 96.984375 155.039062 C 97.339844 155.53125 97.738281 155.988281 98.175781 156.410156 C 98.609375 156.832031 99.082031 157.210938 99.585938 157.546875 C 100.089844 157.886719 100.621094 158.175781 101.175781 158.417969 C 101.734375 158.660156 102.304688 158.851562 102.894531 158.992188 C 103.484375 159.132812 104.082031 159.21875 104.6875 159.25 C 105.292969 159.285156 105.898438 159.261719 106.5 159.1875 C 107.101562 159.113281 107.691406 158.984375 108.269531 158.804688 C 108.847656 158.621094 109.40625 158.390625 109.941406 158.109375 C 110.480469 157.828125 110.988281 157.503906 111.46875 157.132812 C 111.949219 156.757812 112.394531 156.347656 112.800781 155.894531 C 113.207031 155.445312 113.570312 154.960938 113.890625 154.445312 C 114.210938 153.929688 114.484375 153.386719 114.710938 152.820312 C 114.933594 152.257812 115.105469 151.675781 115.230469 151.078125 C 115.179688 151.085938 115.136719 151.113281 115.082031 151.117188 Z M 115.082031 151.117188 " fill-opacity="1" fill-rule="nonzero"/><path fill="#000000" d="M 141.628906 118.371094 C 130.5 118.371094 129.527344 127.296875 129.613281 131.046875 C 129.613281 131.265625 129.65625 131.476562 129.738281 131.679688 C 129.824219 131.878906 129.945312 132.058594 130.101562 132.210938 C 130.257812 132.363281 130.433594 132.480469 130.636719 132.5625 C 130.839844 132.640625 131.050781 132.679688 131.269531 132.675781 C 133.195312 132.566406 135.050781 132.132812 136.828125 131.378906 C 138.605469 130.625 140.207031 129.589844 141.628906 128.277344 C 143.050781 129.589844 144.652344 130.625 146.429688 131.378906 C 148.210938 132.132812 150.0625 132.566406 151.992188 132.675781 C 152.207031 132.679688 152.417969 132.640625 152.621094 132.5625 C 152.824219 132.480469 153.003906 132.363281 153.15625 132.210938 C 153.3125 132.054688 153.433594 131.878906 153.519531 131.675781 C 153.601562 131.476562 153.644531 131.265625 153.648438 131.046875 C 153.730469 127.296875 152.757812 118.371094 141.628906 118.371094 Z M 141.628906 118.371094 " fill-opacity="1" fill-rule="nonzero"/><path fill="#000000" d="M 151.855469 135.476562 C 150.015625 135.371094 148.226562 135.015625 146.488281 134.402344 C 144.75 133.792969 143.132812 132.949219 141.628906 131.878906 C 140.128906 132.949219 138.507812 133.792969 136.769531 134.402344 C 135.03125 135.015625 133.242188 135.371094 131.40625 135.476562 L 131.347656 135.476562 C 131.511719 136.027344 131.714844 136.566406 131.964844 137.085938 C 132.214844 137.605469 132.503906 138.101562 132.832031 138.574219 C 133.160156 139.046875 133.523438 139.492188 133.921875 139.90625 C 134.324219 140.320312 134.753906 140.699219 135.210938 141.046875 C 135.671875 141.390625 136.15625 141.695312 136.667969 141.964844 C 137.175781 142.230469 137.703125 142.453125 138.246094 142.636719 C 138.792969 142.820312 139.347656 142.957031 139.914062 143.046875 C 140.484375 143.140625 141.054688 143.1875 141.628906 143.1875 C 142.203125 143.1875 142.773438 143.140625 143.339844 143.046875 C 143.90625 142.957031 144.460938 142.820312 145.007812 142.636719 C 145.550781 142.453125 146.078125 142.230469 146.589844 141.964844 C 147.097656 141.695312 147.582031 141.390625 148.042969 141.046875 C 148.503906 140.699219 148.933594 140.320312 149.332031 139.90625 C 149.730469 139.492188 150.09375 139.046875 150.421875 138.574219 C 150.753906 138.101562 151.039062 137.605469 151.289062 137.085938 C 151.539062 136.566406 151.746094 136.027344 151.90625 135.476562 C 151.890625 135.476562 151.867188 135.476562 151.855469 135.476562 Z M 151.855469 135.476562 " fill-opacity="1" fill-rule="nonzero"/><path fill="#000000" d="M 177.992188 135.527344 C 171.5625 135.527344 168.5 140.664062 167.398438 143.144531 C 167.308594 143.339844 167.257812 143.542969 167.242188 143.757812 C 167.222656 143.96875 167.246094 144.179688 167.300781 144.382812 C 167.359375 144.589844 167.449219 144.777344 167.574219 144.953125 C 167.699219 145.125 167.851562 145.269531 168.027344 145.390625 C 169.582031 146.472656 172.789062 148.109375 177.992188 148.109375 C 183.199219 148.109375 186.40625 146.472656 187.957031 145.390625 C 188.136719 145.269531 188.285156 145.125 188.410156 144.953125 C 188.535156 144.777344 188.625 144.589844 188.683594 144.382812 C 188.742188 144.179688 188.761719 143.96875 188.746094 143.757812 C 188.730469 143.542969 188.675781 143.339844 188.589844 143.144531 C 187.484375 140.664062 184.421875 135.527344 177.992188 135.527344 Z M 177.992188 135.527344 " fill-opacity="1" fill-rule="nonzero"/><path fill="#000000" d="M 177.992188 150.914062 C 173.257812 150.914062 169.964844 149.71875 167.753906 148.476562 C 167.742188 148.628906 167.707031 148.777344 167.707031 148.933594 C 167.707031 149.609375 167.773438 150.28125 167.90625 150.949219 C 168.039062 151.613281 168.230469 152.257812 168.492188 152.886719 C 168.75 153.511719 169.066406 154.109375 169.441406 154.671875 C 169.816406 155.238281 170.242188 155.757812 170.71875 156.238281 C 171.199219 156.71875 171.71875 157.144531 172.277344 157.523438 C 172.839844 157.898438 173.433594 158.21875 174.058594 158.476562 C 174.679688 158.738281 175.324219 158.933594 175.984375 159.066406 C 176.648438 159.199219 177.316406 159.265625 177.992188 159.265625 C 178.667969 159.265625 179.335938 159.199219 180 159.066406 C 180.660156 158.933594 181.304688 158.738281 181.929688 158.476562 C 182.550781 158.21875 183.144531 157.898438 183.707031 157.523438 C 184.269531 157.144531 184.789062 156.71875 185.265625 156.238281 C 185.742188 155.757812 186.167969 155.238281 186.542969 154.671875 C 186.917969 154.109375 187.238281 153.511719 187.496094 152.886719 C 187.753906 152.257812 187.949219 151.613281 188.082031 150.949219 C 188.210938 150.28125 188.277344 149.609375 188.277344 148.933594 C 188.277344 148.777344 188.242188 148.628906 188.230469 148.476562 C 186.019531 149.71875 182.726562 150.914062 177.992188 150.914062 Z M 177.992188 150.914062 " fill-opacity="1" fill-rule="nonzero"/></svg>