<svg xmlns="http://www.w3.org/2000/svg" xmlns:xlink="http://www.w3.org/1999/xlink" width="378" zoomAndPan="magnify" viewBox="0 0 282.96 283.499989" height="378" preserveAspectRatio="xMidYMid meet" version="1.0"><defs><clipPath id="94a005dde4"><path d="M 82 82 L 192.515625 82 L 192.515625 209.605469 L 82 209.605469 Z M 82 82 " clip-rule="nonzero"/></clipPath><clipPath id="a9f92ec630"><path d="M 63.742188 114 L 78 114 L 78 128 L 63.742188 128 Z M 63.742188 114 " clip-rule="nonzero"/></clipPath><clipPath id="3989f92039"><path d="M 144 73.34375 L 151 73.34375 L 151 80 L 144 80 Z M 144 73.34375 " clip-rule="nonzero"/></clipPath></defs><g clip-path="url(#94a005dde4)"><path fill="#000000" d="M 141.359375 101.933594 C 141.273438 107.421875 142.605469 112.660156 144.457031 117.765625 C 144.984375 119.214844 144.628906 119.863281 143.382812 120.554688 C 135.136719 125.132812 127.5 130.550781 120.566406 136.890625 C 119.46875 137.894531 118.628906 137.847656 117.484375 137 C 112.445312 133.277344 106.945312 130.445312 100.746094 129.082031 C 95.078125 127.835938 89.480469 128.085938 84.113281 130.320312 C 83.28125 130.664062 82.289062 132.066406 82.398438 132.847656 C 82.609375 134.390625 84.148438 134.496094 85.4375 134.03125 C 96.464844 130.0625 105.792969 133.925781 114.691406 140.003906 C 115.898438 140.832031 115.769531 141.375 114.945312 142.417969 C 112.8125 145.117188 110.632812 147.816406 108.847656 150.742188 C 106.636719 154.359375 107.125 157.804688 111.445312 160.417969 C 126.941406 169.804688 142.113281 179.703125 157.402344 189.414062 C 167.636719 195.914062 177.851562 202.453125 188.128906 208.882812 C 189.039062 209.453125 190.59375 209.828125 191.488281 209.457031 C 193.078125 208.796875 192.378906 207.230469 192.011719 205.980469 C 187.476562 190.5625 182.941406 175.148438 178.382812 159.738281 C 174.515625 146.636719 170.660156 133.53125 166.71875 120.453125 C 164.949219 114.578125 163.226562 113.621094 156.980469 114.960938 C 154.742188 115.441406 152.539062 116.207031 150.429688 117.085938 C 149.125 117.625 148.5625 117.128906 148.214844 116.136719 C 144.664062 106.007812 143.519531 96.042969 150.480469 86.695312 C 151.34375 85.539062 151.921875 84.351562 150.476562 83.269531 C 148.914062 82.101562 148.011719 83.332031 147.195312 84.367188 C 143.113281 89.539062 141.414062 95.476562 141.359375 101.933594 Z M 122.539062 140.777344 C 123.085938 140.191406 123.425781 139.691406 123.882812 139.359375 C 130.433594 134.59375 136.9375 129.765625 143.59375 125.144531 C 146.429688 123.175781 146.476562 123.449219 148.566406 126.128906 C 149.128906 126.847656 150.644531 127.511719 151.40625 127.261719 C 152.867188 126.785156 152.855469 125.441406 152.003906 124.191406 C 151.71875 123.769531 151.296875 123.296875 151.300781 122.851562 C 151.308594 122.199219 151.480469 121.09375 151.859375 120.972656 C 154.585938 120.070312 157.34375 119.175781 160.164062 118.671875 C 162.0625 118.332031 162.683594 119.269531 161.777344 121.015625 C 160.667969 123.136719 159.4375 125.269531 157.878906 127.085938 C 149.0625 137.375 138.316406 145.355469 126.230469 151.554688 C 122.523438 153.457031 118.398438 154.597656 114.410156 155.9375 C 113.742188 156.160156 112.539062 155.847656 112.070312 155.34375 C 111.703125 154.953125 111.820312 153.707031 112.195312 153.144531 C 114.316406 149.945312 116.578125 146.84375 118.984375 143.441406 C 120.265625 144.597656 121.097656 145.300781 121.871094 146.058594 C 122.878906 147.042969 124.066406 147.59375 125.183594 146.507812 C 126.296875 145.425781 125.726562 144.234375 124.78125 143.21875 C 124.042969 142.433594 123.320312 141.628906 122.539062 140.777344 Z M 168.910156 142.332031 C 169.921875 145.621094 170.820312 148.660156 171.792969 151.675781 C 172.257812 153.121094 171.816406 154.132812 170.71875 155.148438 C 162.730469 162.53125 153.980469 168.898438 144.476562 174.273438 C 143.230469 174.976562 142.164062 174.957031 140.972656 174.140625 C 138.835938 172.683594 136.675781 171.257812 134.4375 169.964844 C 132.6875 168.953125 132.890625 168.433594 134.570312 167.539062 C 143.273438 162.902344 151.476562 157.507812 158.984375 151.152344 C 162.234375 148.410156 165.351562 145.507812 168.910156 142.332031 Z M 160.855469 186.722656 C 166.824219 182.371094 172.421875 178.285156 178.351562 173.957031 C 179.363281 177.511719 180.34375 180.769531 181.175781 184.058594 C 181.292969 184.53125 180.871094 185.371094 180.429688 185.707031 C 177.5625 187.894531 174.652344 190.023438 171.683594 192.070312 C 171.191406 192.410156 170.167969 192.5625 169.707031 192.289062 C 166.800781 190.574219 163.980469 188.710938 160.855469 186.722656 Z M 160.855469 186.722656 " fill-opacity="1" fill-rule="nonzero"/></g><path fill="#000000" d="M 131.59375 99.929688 C 131.566406 92.917969 133.703125 86.875 137.324219 81.28125 C 137.640625 80.789062 138.21875 80.324219 138.253906 79.820312 C 138.316406 78.851562 138.445312 77.496094 137.890625 76.972656 C 136.925781 76.0625 135.550781 76.425781 134.902344 77.667969 C 132.863281 81.609375 130.371094 85.4375 129.066406 89.609375 C 126.253906 98.613281 127.078125 107.628906 130.617188 116.386719 C 130.777344 116.789062 130.972656 117.191406 131.191406 117.566406 C 131.820312 118.632812 132.585938 119.640625 134.003906 118.910156 C 135.335938 118.230469 135.492188 117.191406 134.863281 115.773438 C 132.601562 110.628906 131.335938 105.261719 131.59375 99.929688 Z M 131.59375 99.929688 " fill-opacity="1" fill-rule="nonzero"/><path fill="#000000" d="M 92.121094 114.355469 C 90.011719 114.726562 85.988281 115.367188 82.003906 116.179688 C 80.691406 116.449219 79.246094 117.199219 79.726562 118.855469 C 80.21875 120.554688 81.589844 120.476562 83.171875 120.039062 C 96.210938 116.421875 107.835938 119.214844 118.183594 127.636719 C 119.292969 128.539062 120.484375 129.601562 121.789062 128.007812 C 123.03125 126.496094 121.902344 125.417969 120.800781 124.507812 C 113.085938 118.140625 104.226562 114.671875 92.121094 114.355469 Z M 92.121094 114.355469 " fill-opacity="1" fill-rule="nonzero"/><path fill="#000000" d="M 106.15625 81.855469 C 101.671875 83.453125 97.957031 82.308594 94.042969 80.71875 C 95.292969 84.742188 94.386719 88.304688 92.085938 92.203125 C 96.527344 91.667969 100.398438 91.457031 104.023438 94.101562 C 104.046875 91.742188 103.835938 89.796875 104.15625 87.9375 C 104.472656 86.070312 105.328125 84.296875 106.15625 81.855469 Z M 106.15625 81.855469 " fill-opacity="1" fill-rule="nonzero"/><g clip-path="url(#a9f92ec630)"><path fill="#000000" d="M 70.613281 127.601562 C 74.582031 127.632812 77.503906 124.828125 77.570312 120.941406 C 77.636719 117.199219 74.589844 114.140625 70.734375 114.070312 C 66.953125 114 63.820312 117.039062 63.769531 120.824219 C 63.71875 124.65625 66.667969 127.578125 70.613281 127.601562 Z M 70.613281 127.601562 " fill-opacity="1" fill-rule="nonzero"/></g><path fill="#000000" d="M 93.320312 150.445312 C 95.066406 147.496094 97.742188 145.929688 101.351562 144.597656 C 97.722656 142.953125 95.78125 140.691406 94.550781 137.347656 C 92.570312 140.257812 90.476562 142.433594 86.4375 143.3125 C 89.722656 145.332031 92.21875 147.308594 93.320312 150.445312 Z M 93.320312 150.445312 " fill-opacity="1" fill-rule="nonzero"/><path fill="#1d1d1b" d="M 93.316406 150.496094 L 93.34375 150.457031 C 94.890625 147.839844 97.21875 146.148438 101.363281 144.621094 L 101.410156 144.601562 L 101.363281 144.578125 C 97.894531 143.007812 95.863281 140.84375 94.570312 137.34375 L 94.558594 137.300781 L 94.53125 137.339844 C 92.464844 140.375 90.390625 142.4375 86.433594 143.296875 L 86.382812 143.308594 L 86.425781 143.335938 C 89.773438 145.394531 92.226562 147.390625 93.300781 150.457031 Z M 101.296875 144.597656 C 97.191406 146.117188 94.878906 147.800781 93.328125 150.394531 C 92.808594 148.9375 91.957031 147.644531 90.714844 146.441406 C 89.699219 145.453125 88.394531 144.492188 86.5 143.324219 C 88.375 142.910156 89.9375 142.183594 91.285156 141.109375 C 92.390625 140.226562 93.402344 139.078125 94.550781 137.394531 C 95.835938 140.871094 97.859375 143.027344 101.296875 144.597656 Z M 101.296875 144.597656 " fill-opacity="1" fill-rule="nonzero"/><path fill="#000000" d="M 166.976562 101.546875 C 163.597656 99.335938 161.769531 96.515625 160.777344 93.046875 C 158.128906 95.882812 155.210938 97.855469 150.515625 98.355469 C 153.976562 100.894531 156.625 103.324219 157.246094 107.15625 C 159.9375 104.449219 162.890625 102.417969 166.976562 101.546875 Z M 166.976562 101.546875 " fill-opacity="1" fill-rule="nonzero"/><path fill="#1d1d1b" d="M 157.246094 107.167969 L 157.25 107.160156 C 160.328125 104.0625 163.332031 102.332031 166.980469 101.550781 L 166.988281 101.550781 L 166.980469 101.542969 C 163.8125 99.472656 161.84375 96.769531 160.785156 93.046875 L 160.78125 93.035156 L 160.773438 93.042969 C 158.605469 95.359375 155.695312 97.796875 150.515625 98.351562 L 150.5 98.351562 L 150.511719 98.359375 C 154.226562 101.082031 156.648438 103.507812 157.242188 107.15625 Z M 166.964844 101.546875 C 165.015625 101.964844 163.257812 102.652344 161.585938 103.660156 C 160.128906 104.539062 158.707031 105.679688 157.25 107.148438 C 157.097656 106.21875 156.832031 105.355469 156.425781 104.519531 C 156.054688 103.742188 155.570312 103.003906 154.953125 102.269531 C 153.691406 100.757812 152.011719 99.445312 150.535156 98.359375 C 152.761719 98.121094 154.6875 97.539062 156.417969 96.578125 C 157.921875 95.75 159.304688 94.632812 160.777344 93.054688 C 161.835938 96.777344 163.804688 99.472656 166.964844 101.546875 Z M 166.964844 101.546875 " fill-opacity="1" fill-rule="nonzero"/><path fill="#000000" d="M 119.707031 117.160156 C 121.746094 117.265625 122.675781 115.535156 121.765625 113.988281 C 121.0625 112.796875 120.113281 111.746094 119.277344 110.636719 C 116.050781 106.355469 112.824219 102.074219 109.589844 97.808594 C 109.191406 97.285156 108.804688 96.550781 108.261719 96.382812 C 107.46875 96.136719 106.253906 95.984375 105.75 96.40625 C 105.261719 96.8125 105.054688 98.242188 105.414062 98.796875 C 106.964844 101.1875 108.753906 103.433594 110.480469 105.714844 C 112.957031 108.996094 115.429688 112.277344 117.960938 115.519531 C 118.515625 116.226562 119.292969 116.777344 119.707031 117.160156 Z M 119.707031 117.160156 " fill-opacity="1" fill-rule="nonzero"/><path fill="#000000" d="M 118.101562 88.964844 C 120.992188 89.015625 123.214844 86.910156 123.253906 84.089844 C 123.296875 81.234375 121.179688 79.054688 118.300781 78.984375 C 115.4375 78.914062 113.167969 81.0625 113.128906 83.875 C 113.085938 86.695312 115.253906 88.917969 118.101562 88.964844 Z M 118.101562 88.964844 " fill-opacity="1" fill-rule="nonzero"/><path fill="#000000" d="M 94.605469 106.445312 L 96.332031 105.183594 L 98.363281 105.871094 L 97.679688 103.859375 L 98.972656 102.164062 L 96.824219 102.179688 L 95.589844 100.445312 L 94.941406 102.46875 L 92.890625 103.089844 L 94.640625 104.324219 Z M 94.605469 106.445312 " fill-opacity="1" fill-rule="nonzero"/><g clip-path="url(#3989f92039)"><path fill="#000000" d="M 146.414062 79.777344 L 148.027344 78.195312 L 150.261719 78.613281 L 149.238281 76.609375 L 150.332031 74.636719 L 148.085938 74.980469 L 146.527344 73.34375 L 146.164062 75.5625 L 144.105469 76.515625 L 146.125 77.546875 Z M 146.414062 79.777344 " fill-opacity="1" fill-rule="nonzero"/></g></svg>