<svg xmlns="http://www.w3.org/2000/svg" xmlns:xlink="http://www.w3.org/1999/xlink" width="378" zoomAndPan="magnify" viewBox="0 0 282.96 283.499989" height="378" preserveAspectRatio="xMidYMid meet" version="1.0"><defs><clipPath id="3d5faf6b9e"><path d="M 9.175781 46 L 265 46 L 265 268 L 9.175781 268 Z M 9.175781 46 " clip-rule="nonzero"/></clipPath><clipPath id="a7026a76b9"><path d="M 270 170 L 282.691406 170 L 282.691406 184 L 270 184 Z M 270 170 " clip-rule="nonzero"/></clipPath></defs><g clip-path="url(#3d5faf6b9e)"><path fill="#000000" d="M 225.699219 165.117188 C 214.660156 164.941406 204.132812 167.625 193.859375 171.351562 C 190.945312 172.410156 189.644531 171.695312 188.257812 169.1875 C 179.050781 152.597656 168.152344 137.242188 155.402344 123.289062 C 153.386719 121.082031 153.480469 119.394531 155.183594 117.089844 C 162.671875 106.953125 168.363281 95.894531 171.109375 83.417969 C 173.617188 72.015625 173.113281 60.761719 168.617188 49.964844 C 167.925781 48.292969 165.105469 46.296875 163.53125 46.515625 C 160.429688 46.941406 160.214844 50.03125 161.152344 52.625 C 169.136719 74.808594 161.363281 93.570312 149.140625 111.46875 C 147.480469 113.902344 146.386719 113.640625 144.289062 111.980469 C 138.859375 107.691406 133.433594 103.304688 127.550781 99.71875 C 120.273438 95.273438 113.347656 96.253906 108.085938 104.945312 C 89.214844 136.117188 69.304688 166.628906 49.777344 197.386719 C 36.707031 217.972656 23.5625 238.519531 10.628906 259.195312 C 9.484375 261.03125 8.730469 264.152344 9.476562 265.957031 C 10.796875 269.152344 13.953125 267.746094 16.46875 267.007812 C 47.46875 257.878906 78.46875 248.757812 109.460938 239.59375 C 135.804688 231.808594 162.160156 224.054688 188.460938 216.132812 C 200.277344 212.574219 202.195312 209.101562 199.5 196.539062 C 198.535156 192.035156 196.996094 187.605469 195.234375 183.359375 C 194.144531 180.734375 195.148438 179.609375 197.140625 178.910156 C 217.511719 171.761719 237.542969 169.457031 256.34375 183.460938 C 258.671875 185.203125 261.054688 186.363281 263.234375 183.453125 C 265.585938 180.3125 263.109375 178.5 261.027344 176.855469 C 250.628906 168.648438 238.683594 165.226562 225.699219 165.117188 Z M 147.589844 127.257812 C 148.765625 128.359375 149.769531 129.039062 150.441406 129.960938 C 160.019531 143.140625 169.730469 156.222656 179.023438 169.613281 C 182.980469 175.3125 182.433594 175.40625 177.042969 179.617188 C 175.601562 180.742188 174.265625 183.796875 174.769531 185.324219 C 175.726562 188.265625 178.429688 188.242188 180.945312 186.53125 C 181.792969 185.953125 182.742188 185.105469 183.632812 185.113281 C 184.949219 185.128906 187.167969 185.480469 187.417969 186.238281 C 189.230469 191.722656 191.027344 197.269531 192.042969 202.941406 C 192.726562 206.761719 190.835938 208.011719 187.328125 206.183594 C 183.0625 203.957031 178.773438 201.484375 175.121094 198.351562 C 154.429688 180.613281 138.378906 159 125.914062 134.683594 C 122.09375 127.226562 119.792969 118.933594 117.101562 110.90625 C 116.648438 109.5625 117.277344 107.144531 118.292969 106.199219 C 119.082031 105.460938 121.589844 105.695312 122.722656 106.449219 C 129.152344 110.71875 135.390625 115.269531 142.226562 120.109375 C 139.90625 122.6875 138.488281 124.355469 136.96875 125.914062 C 134.988281 127.945312 133.878906 130.335938 136.0625 132.578125 C 138.238281 134.816406 140.636719 133.675781 142.675781 131.765625 C 144.257812 130.28125 145.875 128.828125 147.589844 127.257812 Z M 144.464844 220.539062 C 137.84375 222.570312 131.738281 224.378906 125.671875 226.335938 C 122.765625 227.269531 120.734375 226.386719 118.6875 224.171875 C 103.84375 208.109375 91.035156 190.507812 80.230469 171.386719 C 78.8125 168.882812 78.855469 166.738281 80.492188 164.34375 C 83.421875 160.042969 86.292969 155.695312 88.894531 151.195312 C 90.925781 147.671875 91.96875 148.082031 93.765625 151.457031 C 103.097656 168.96875 113.945312 185.464844 126.726562 200.570312 C 132.242188 207.105469 138.078125 213.378906 144.464844 220.539062 Z M 55.191406 204.335938 C 63.941406 216.335938 72.164062 227.601562 80.863281 239.527344 C 73.71875 241.566406 67.164062 243.535156 60.546875 245.207031 C 59.597656 245.449219 57.910156 244.59375 57.234375 243.707031 C 52.835938 237.941406 48.554688 232.085938 44.4375 226.117188 C 43.757812 225.128906 43.449219 223.070312 43.996094 222.140625 C 47.445312 216.292969 51.195312 210.621094 55.191406 204.335938 Z M 55.191406 204.335938 " fill-opacity="1" fill-rule="nonzero"/></g><path fill="#000000" d="M 229.734375 145.472656 C 243.835938 145.417969 255.984375 149.71875 267.238281 156.996094 C 268.222656 157.640625 269.15625 158.800781 270.171875 158.867188 C 272.117188 159 274.847656 159.253906 275.902344 158.136719 C 277.726562 156.199219 276.996094 153.429688 274.5 152.128906 C 266.570312 148.027344 258.878906 143.015625 250.484375 140.390625 C 232.378906 134.734375 214.253906 136.386719 196.636719 143.503906 C 195.828125 143.832031 195.023438 144.222656 194.261719 144.667969 C 192.121094 145.929688 190.089844 147.464844 191.558594 150.324219 C 192.933594 153 195.015625 153.3125 197.871094 152.046875 C 208.21875 147.503906 219.007812 144.953125 229.734375 145.472656 Z M 229.734375 145.472656 " fill-opacity="1" fill-rule="nonzero"/><path fill="#000000" d="M 200.722656 66.074219 C 199.976562 61.828125 198.691406 53.738281 197.054688 45.71875 C 196.511719 43.082031 195 40.171875 191.667969 41.136719 C 188.257812 42.132812 188.410156 44.886719 189.292969 48.074219 C 196.5625 74.296875 190.953125 97.6875 174.011719 118.5 C 172.199219 120.730469 170.066406 123.128906 173.265625 125.75 C 176.304688 128.25 178.472656 125.976562 180.308594 123.761719 C 193.109375 108.246094 200.085938 90.421875 200.722656 66.074219 Z M 200.722656 66.074219 " fill-opacity="1" fill-rule="nonzero"/><path fill="#000000" d="M 266.082031 94.300781 C 262.867188 85.28125 265.167969 77.8125 268.363281 69.933594 C 260.273438 72.457031 253.105469 70.628906 245.265625 66 C 246.347656 74.933594 246.773438 82.722656 241.453125 90.011719 C 246.195312 90.0625 250.109375 89.640625 253.851562 90.28125 C 257.601562 90.917969 261.171875 92.636719 266.082031 94.300781 Z M 266.082031 94.300781 " fill-opacity="1" fill-rule="nonzero"/><path fill="#000000" d="M 174.082031 22.808594 C 174.023438 30.789062 179.65625 36.664062 187.476562 36.804688 C 195 36.933594 201.152344 30.808594 201.296875 23.046875 C 201.4375 15.445312 195.320312 9.140625 187.714844 9.042969 C 180.007812 8.933594 174.132812 14.871094 174.082031 22.808594 Z M 174.082031 22.808594 " fill-opacity="1" fill-rule="nonzero"/><path fill="#000000" d="M 128.140625 68.488281 C 134.074219 71.996094 137.222656 77.382812 139.90625 84.640625 C 143.214844 77.339844 147.757812 73.433594 154.488281 70.957031 C 148.628906 66.972656 144.257812 62.765625 142.492188 54.636719 C 138.429688 61.242188 134.453125 66.265625 128.140625 68.488281 Z M 128.140625 68.488281 " fill-opacity="1" fill-rule="nonzero"/><path fill="#1d1d1b" d="M 128.039062 68.480469 L 128.121094 68.53125 C 133.386719 71.644531 136.785156 76.320312 139.859375 84.660156 L 139.898438 84.757812 L 139.941406 84.660156 C 143.105469 77.679688 147.453125 73.597656 154.496094 71 L 154.574219 70.972656 L 154.503906 70.921875 C 148.394531 66.761719 144.253906 62.589844 142.519531 54.628906 L 142.5 54.527344 L 142.441406 54.613281 C 138.304688 61.347656 134.285156 66.28125 128.121094 68.441406 Z M 139.90625 84.53125 C 136.851562 76.269531 133.460938 71.613281 128.246094 68.5 C 131.175781 67.457031 133.773438 65.738281 136.195312 63.246094 C 138.179688 61.199219 140.117188 58.574219 142.46875 54.761719 C 143.300781 58.53125 144.757812 61.683594 146.917969 64.386719 C 148.695312 66.617188 151.003906 68.648438 154.394531 70.957031 C 147.402344 73.542969 143.0625 77.617188 139.90625 84.53125 Z M 139.90625 84.53125 " fill-opacity="1" fill-rule="nonzero"/><path fill="#000000" d="M 226.484375 216.644531 C 230.925781 209.855469 236.59375 206.171875 243.570312 204.175781 C 237.875 198.847656 233.90625 192.976562 232.898438 183.535156 C 227.789062 190.5 222.902344 195.820312 215.203125 197.070312 C 220.644531 202.488281 224.730469 208.429688 226.484375 216.644531 Z M 226.484375 216.644531 " fill-opacity="1" fill-rule="nonzero"/><path fill="#1d1d1b" d="M 215.171875 197.070312 L 215.1875 197.085938 C 221.417969 203.277344 224.898438 209.3125 226.46875 216.652344 L 226.476562 216.671875 L 226.488281 216.652344 C 230.65625 210.285156 236.082031 206.324219 243.570312 204.191406 L 243.59375 204.183594 L 243.578125 204.167969 C 238.925781 199.8125 234.023438 193.957031 232.90625 183.535156 L 232.90625 183.507812 L 232.890625 183.527344 C 227.410156 190.996094 222.539062 195.871094 215.203125 197.0625 Z M 226.484375 216.621094 C 225.644531 212.703125 224.253906 209.167969 222.230469 205.804688 C 220.460938 202.875 218.167969 200.015625 215.214844 197.085938 C 217.085938 196.777344 218.820312 196.238281 220.5 195.425781 C 222.0625 194.675781 223.546875 193.703125 225.027344 192.460938 C 228.066406 189.921875 230.707031 186.546875 232.890625 183.570312 C 233.371094 188.050781 234.542969 191.925781 236.46875 195.414062 C 238.136719 198.429688 240.386719 201.214844 243.558594 204.175781 C 236.070312 206.308594 230.648438 210.265625 226.484375 216.621094 Z M 226.484375 216.621094 " fill-opacity="1" fill-rule="nonzero"/><path fill="#000000" d="M 195.082031 121.5625 C 194.871094 125.664062 198.347656 127.535156 201.460938 125.699219 C 203.855469 124.289062 205.96875 122.382812 208.203125 120.695312 C 216.808594 114.203125 225.417969 107.722656 234 101.207031 C 235.054688 100.410156 236.527344 99.628906 236.863281 98.539062 C 237.363281 96.941406 237.667969 94.5 236.820312 93.484375 C 236.003906 92.503906 233.125 92.085938 232.011719 92.8125 C 227.199219 95.929688 222.683594 99.527344 218.09375 103 C 211.496094 107.984375 204.902344 112.960938 198.382812 118.046875 C 196.957031 119.167969 195.847656 120.730469 195.082031 121.5625 Z M 195.082031 121.5625 " fill-opacity="1" fill-rule="nonzero"/><path fill="#000000" d="M 251.785156 118.332031 C 251.683594 124.144531 255.910156 128.617188 261.589844 128.695312 C 267.324219 128.785156 271.714844 124.523438 271.855469 118.734375 C 271.992188 112.976562 267.675781 108.40625 262.019531 108.328125 C 256.34375 108.238281 251.878906 112.601562 251.785156 118.332031 Z M 251.785156 118.332031 " fill-opacity="1" fill-rule="nonzero"/><path fill="#000000" d="M 216.625 71.066406 L 219.167969 74.539062 L 217.78125 78.625 L 221.828125 77.25 L 225.242188 79.851562 L 225.203125 75.53125 L 228.695312 73.046875 L 224.628906 71.746094 L 223.378906 67.617188 L 220.894531 71.140625 Z M 216.625 71.066406 " fill-opacity="1" fill-rule="nonzero"/><g clip-path="url(#a7026a76b9)"><path fill="#000000" d="M 270.261719 175.285156 L 273.4375 178.527344 L 272.597656 183.023438 L 276.632812 180.960938 L 280.59375 183.164062 L 279.90625 178.644531 L 283.191406 175.511719 L 278.734375 174.777344 L 276.816406 170.640625 L 274.738281 174.707031 Z M 270.261719 175.285156 " fill-opacity="1" fill-rule="nonzero"/></g></svg>