<svg xmlns="http://www.w3.org/2000/svg" xmlns:xlink="http://www.w3.org/1999/xlink" width="378" zoomAndPan="magnify" viewBox="0 0 282.96 283.499989" height="378" preserveAspectRatio="xMidYMid meet" version="1.0"><defs><clipPath id="542d6ac8b9"><path d="M 92 79.039062 L 192 79.039062 L 192 203 L 92 203 Z M 92 79.039062 " clip-rule="nonzero"/></clipPath><clipPath id="c32d556f81"><path d="M 182 179 L 200.277344 179 L 200.277344 204.070312 L 182 204.070312 Z M 182 179 " clip-rule="nonzero"/></clipPath><clipPath id="e58220eb83"><path d="M 83.484375 179 L 97 179 L 97 198 L 83.484375 198 Z M 83.484375 179 " clip-rule="nonzero"/></clipPath></defs><g clip-path="url(#542d6ac8b9)"><path fill="#000000" d="M 186.351562 131.441406 C 182.105469 122.976562 175.25 115.675781 166.914062 110.746094 C 159.789062 106.527344 151.523438 104.195312 143.171875 103.917969 C 143.464844 103.132812 143.375 102.285156 143.367188 101.363281 C 143.363281 100.296875 143.351562 99.230469 143.34375 98.160156 C 143.328125 95.972656 143.308594 93.78125 143.273438 91.59375 C 143.242188 89.460938 143.210938 87.324219 143.171875 85.191406 C 143.152344 84.128906 143.117188 83.050781 143.023438 81.992188 C 142.945312 81.109375 142.824219 80.058594 142.105469 79.523438 C 142.097656 79.515625 142.09375 79.507812 142.089844 79.496094 C 141.792969 78.894531 140.769531 78.882812 140.472656 79.496094 C 140.46875 79.511719 140.460938 79.523438 140.457031 79.53125 C 139.785156 80.039062 139.664062 80.976562 139.582031 81.824219 C 139.476562 82.878906 139.464844 83.964844 139.449219 85.023438 C 139.417969 87.214844 139.425781 89.402344 139.414062 91.59375 C 139.402344 93.726562 139.40625 95.859375 139.414062 97.996094 C 139.417969 99.0625 139.421875 100.128906 139.425781 101.195312 C 139.429688 102.15625 139.324219 103.085938 139.644531 103.925781 C 138.78125 103.957031 137.917969 104.007812 137.054688 104.085938 C 126.660156 105.007812 116.75 108.996094 109.105469 115.871094 C 102.449219 121.855469 96.738281 130.152344 94.730469 138.753906 C 93.574219 143.710938 92.832031 150.984375 92.976562 156.941406 C 93.113281 162.464844 94.582031 168.210938 96.382812 173.472656 C 99.617188 182.9375 107.78125 191.683594 115.511719 195.847656 C 120.367188 198.46875 136.605469 203.144531 147.964844 201.855469 C 158.976562 200.605469 169.582031 196.328125 177.25 188.476562 C 191.925781 173.453125 195.636719 149.960938 186.351562 131.441406 Z M 178.261719 128.597656 C 179.757812 130.78125 181.027344 133.070312 182.074219 135.429688 C 180.914062 135.964844 179.75 136.480469 178.570312 136.972656 C 177.28125 133.148438 175.566406 129.457031 173.441406 125.988281 C 173.425781 125.957031 173.402344 125.925781 173.382812 125.894531 C 174.113281 125.628906 174.84375 125.355469 175.5625 125.066406 C 176.519531 126.199219 177.421875 127.375 178.261719 128.597656 Z M 154.210938 146.425781 C 158.277344 145.820312 162.308594 144.988281 166.28125 143.933594 C 166.308594 143.925781 166.339844 143.917969 166.367188 143.910156 C 167.027344 147.65625 167.394531 151.464844 167.464844 155.285156 C 163.183594 156.34375 158.839844 157.167969 154.46875 157.742188 C 154.53125 153.96875 154.445312 150.195312 154.210938 146.425781 Z M 154.363281 161.445312 C 154.382812 161.058594 154.390625 160.671875 154.40625 160.285156 C 158.800781 159.742188 163.164062 158.957031 167.46875 157.941406 C 167.394531 162.070312 166.964844 166.195312 166.164062 170.238281 C 161.984375 171.261719 157.742188 172.035156 153.476562 172.554688 C 153.910156 168.867188 154.207031 165.15625 154.363281 161.445312 Z M 177.242188 140.371094 C 177.457031 141.140625 177.65625 141.914062 177.835938 142.691406 C 178.535156 145.6875 178.945312 148.722656 179.089844 151.765625 C 178.914062 151.828125 178.738281 151.894531 178.5625 151.953125 C 175.769531 152.945312 172.9375 153.832031 170.078125 154.609375 C 169.96875 154.636719 169.859375 154.664062 169.753906 154.695312 C 169.65625 150.875 169.265625 147.058594 168.59375 143.289062 C 171.515625 142.445312 174.402344 141.472656 177.242188 140.371094 Z M 165.878906 141.390625 C 161.988281 142.476562 158.039062 143.339844 154.035156 143.957031 C 153.6875 139.535156 153.136719 135.128906 152.382812 130.757812 C 155.417969 130.390625 158.433594 129.886719 161.421875 129.246094 C 161.65625 129.195312 161.890625 129.144531 162.125 129.09375 C 163.71875 133.058594 164.980469 137.164062 165.878906 141.390625 Z M 151.945312 128.339844 C 151.734375 127.230469 151.515625 126.117188 151.277344 125.011719 C 150.738281 122.488281 150.136719 119.972656 149.453125 117.476562 C 151.363281 117.3125 153.265625 117.09375 155.164062 116.816406 C 155.363281 116.789062 155.5625 116.757812 155.761719 116.726562 C 157.800781 119.9375 159.597656 123.285156 161.132812 126.753906 C 158.097656 127.429688 155.03125 127.960938 151.945312 128.339844 Z M 124.378906 130.265625 C 127.1875 130.707031 130.015625 131.027344 132.84375 131.234375 C 133.582031 131.285156 134.316406 131.332031 135.054688 131.367188 C 134.285156 135.921875 133.734375 140.511719 133.382812 145.113281 C 129.296875 144.953125 125.21875 144.5625 121.179688 143.933594 C 121.890625 139.316406 122.871094 134.695312 124.378906 130.265625 Z M 131.363281 147.421875 C 131.980469 147.457031 132.601562 147.488281 133.21875 147.515625 C 133.214844 147.578125 133.214844 147.636719 133.210938 147.695312 C 132.992188 151.324219 132.914062 154.960938 132.964844 158.597656 C 128.628906 158.382812 124.304688 157.941406 120.007812 157.273438 C 120.042969 153.582031 120.359375 149.886719 120.847656 146.242188 C 124.332031 146.808594 127.839844 147.203125 131.363281 147.421875 Z M 132.542969 161.027344 C 132.703125 161.035156 132.863281 161.046875 133.023438 161.050781 C 133.148438 165.125 133.449219 169.195312 133.914062 173.242188 C 129.792969 173.027344 125.683594 172.589844 121.613281 171.917969 C 121.199219 170.292969 120.871094 168.648438 120.628906 167.003906 C 120.273438 164.589844 120.082031 162.15625 120.023438 159.710938 C 124.1875 160.367188 128.378906 160.796875 132.542969 161.027344 Z M 150.820312 144.402344 C 145.734375 145.023438 140.597656 145.28125 135.46875 145.179688 C 135.808594 140.578125 136.371094 136 137.15625 131.453125 C 141.46875 131.578125 145.792969 131.429688 150.089844 131.007812 C 150.652344 134.296875 151.101562 137.597656 151.425781 140.917969 C 151.535156 142.039062 151.636719 143.164062 151.71875 144.289062 C 151.421875 144.328125 151.121094 144.367188 150.820312 144.402344 Z M 149.652344 128.589844 C 149.285156 128.628906 148.917969 128.667969 148.546875 128.699219 C 144.90625 129.015625 141.246094 129.132812 137.59375 129.050781 C 137.714844 128.410156 137.839844 127.769531 137.972656 127.128906 C 138.613281 124 139.359375 120.890625 140.203125 117.804688 C 142.515625 117.839844 144.824219 117.785156 147.128906 117.644531 C 147.621094 119.445312 148.082031 121.253906 148.5 123.074219 C 148.921875 124.90625 149.304688 126.746094 149.652344 128.589844 Z M 135.472656 128.984375 C 132.039062 128.832031 128.609375 128.507812 125.210938 127.996094 C 125.851562 126.351562 126.574219 124.738281 127.394531 123.167969 C 128.5 121.058594 129.769531 119.0625 131.199219 117.210938 C 133.132812 117.441406 135.066406 117.605469 137.015625 117.703125 C 137.355469 117.71875 137.699219 117.734375 138.039062 117.746094 C 137.027344 121.453125 136.175781 125.203125 135.472656 128.984375 Z M 118.78125 129.214844 C 119.910156 129.464844 121.046875 129.691406 122.1875 129.894531 C 120.972656 133.582031 120.09375 137.390625 119.441406 141.195312 C 119.304688 141.988281 119.171875 142.78125 119.050781 143.582031 C 118.214844 143.433594 117.375 143.277344 116.542969 143.113281 C 114.03125 142.605469 111.542969 142.003906 109.074219 141.324219 C 110.421875 136.757812 112.417969 132.367188 114.976562 128.3125 C 116.246094 128.636719 117.519531 128.9375 118.78125 129.214844 Z M 108.496094 143.46875 C 110.296875 143.996094 112.113281 144.46875 113.941406 144.890625 C 115.53125 145.257812 117.125 145.582031 118.726562 145.875 C 118.246094 149.523438 117.945312 153.226562 117.90625 156.929688 C 117.546875 156.867188 117.1875 156.800781 116.832031 156.738281 C 113.535156 156.136719 110.285156 155.375 107.066406 154.492188 C 107.109375 150.773438 107.601562 147.074219 108.496094 143.46875 Z M 113.726562 172.824219 C 115.820312 173.316406 117.929688 173.746094 120.050781 174.121094 C 121.054688 177.589844 122.453125 180.949219 124.324219 184.136719 C 122.460938 183.863281 120.605469 183.539062 118.757812 183.164062 C 117.695312 182.949219 116.632812 182.71875 115.578125 182.472656 C 113.398438 179.175781 111.585938 175.636719 110.199219 171.917969 C 111.367188 172.242188 112.546875 172.546875 113.726562 172.824219 Z M 135.390625 165.195312 C 135.300781 163.847656 135.230469 162.496094 135.179688 161.144531 C 140.804688 161.335938 146.441406 161.140625 152.042969 160.558594 C 151.886719 164.664062 151.554688 168.761719 151.023438 172.828125 C 146.085938 173.320312 141.113281 173.492188 136.15625 173.332031 C 135.824219 170.628906 135.566406 167.917969 135.390625 165.195312 Z M 153.160156 175.066406 C 157.335938 174.574219 161.484375 173.855469 165.582031 172.910156 C 164.984375 175.394531 164.246094 177.84375 163.359375 180.238281 C 163.042969 181.09375 162.699219 181.949219 162.332031 182.792969 C 158.765625 183.582031 155.160156 184.1875 151.53125 184.597656 C 152.183594 181.441406 152.726562 178.261719 153.160156 175.066406 Z M 168.089844 172.300781 C 171.03125 171.546875 173.9375 170.671875 176.800781 169.679688 C 175.726562 173.175781 174.292969 176.574219 172.519531 179.804688 C 172.476562 179.882812 172.433594 179.960938 172.386719 180.039062 C 169.988281 180.828125 167.558594 181.527344 165.105469 182.140625 C 166.375 178.953125 167.355469 175.652344 168.089844 172.300781 Z M 168.621094 169.613281 C 168.902344 168.023438 169.132812 166.425781 169.316406 164.824219 C 169.59375 162.355469 169.746094 159.863281 169.773438 157.371094 C 172.734375 156.609375 175.667969 155.730469 178.5625 154.738281 C 178.757812 154.671875 178.953125 154.601562 179.144531 154.535156 C 179.117188 158.660156 178.589844 162.769531 177.601562 166.773438 C 174.652344 167.851562 171.652344 168.796875 168.621094 169.613281 Z M 173.722656 123.019531 C 173.128906 123.230469 172.527344 123.441406 171.929688 123.644531 C 170.3125 121.273438 168.519531 119.023438 166.554688 116.929688 C 169.15625 118.710938 171.5625 120.757812 173.722656 123.019531 Z M 162.453125 115.453125 C 165.21875 118.160156 167.695312 121.140625 169.84375 124.34375 C 167.714844 125.039062 165.566406 125.679688 163.382812 126.226562 C 161.871094 122.820312 160.105469 119.496094 158.070312 116.34375 C 158.792969 116.214844 159.511719 116.078125 160.230469 115.933594 C 160.972656 115.785156 161.714844 115.621094 162.453125 115.453125 Z M 158.65625 112.597656 C 159.113281 112.792969 159.570312 112.996094 160.019531 113.203125 C 160.054688 113.234375 160.089844 113.265625 160.125 113.296875 C 158.914062 113.550781 157.695312 113.78125 156.476562 113.984375 C 155.757812 112.972656 155.011719 111.984375 154.234375 111.015625 C 155.742188 111.460938 157.21875 111.984375 158.65625 112.597656 Z M 151.160156 110.226562 C 152.214844 111.570312 153.222656 112.941406 154.183594 114.339844 C 152.371094 114.59375 150.550781 114.789062 148.726562 114.933594 C 148.1875 113.113281 147.597656 111.308594 146.953125 109.527344 C 148.367188 109.691406 149.773438 109.925781 151.160156 110.226562 Z M 142.816406 109.222656 C 143.433594 109.242188 144.046875 109.269531 144.664062 109.3125 C 145.265625 111.230469 145.851562 113.152344 146.410156 115.082031 C 144.589844 115.175781 142.765625 115.214844 140.941406 115.203125 C 141.527344 113.199219 142.152344 111.203125 142.816406 109.222656 Z M 139.8125 109.234375 C 140.101562 109.222656 140.390625 109.214844 140.683594 109.210938 C 140 111.179688 139.363281 113.164062 138.773438 115.160156 C 136.917969 115.105469 135.058594 114.992188 133.207031 114.832031 C 135.15625 112.707031 137.359375 110.824219 139.8125 109.234375 Z M 130.34375 114.539062 C 129.953125 114.492188 129.5625 114.445312 129.171875 114.394531 C 128.8125 114.347656 128.453125 114.296875 128.09375 114.246094 C 130.046875 112.824219 132.101562 111.542969 134.242188 110.425781 C 132.839844 111.6875 131.539062 113.074219 130.34375 114.539062 Z M 128.773438 111.003906 C 127.472656 111.859375 126.214844 112.773438 124.996094 113.742188 C 124.753906 113.699219 124.511719 113.65625 124.265625 113.609375 C 123.808594 113.523438 123.300781 113.386719 122.777344 113.261719 C 124.703125 112.363281 126.707031 111.609375 128.773438 111.003906 Z M 119.6875 114.863281 C 120.441406 115.421875 121.601562 115.625 122.582031 115.792969 C 119.335938 118.71875 116.457031 122.050781 114.019531 125.679688 C 113.757812 125.609375 113.496094 125.539062 113.238281 125.46875 C 111.707031 125.046875 110.191406 124.566406 108.671875 124.097656 C 111.761719 120.371094 115.496094 117.257812 119.6875 114.863281 Z M 100.207031 141.679688 C 100.273438 141.371094 100.347656 141.066406 100.417969 140.761719 C 102.105469 141.429688 103.851562 141.992188 105.542969 142.550781 C 105.84375 142.648438 106.144531 142.746094 106.441406 142.84375 C 105.578125 146.492188 105.148438 150.222656 105.121094 153.945312 C 103.035156 153.34375 100.960938 152.699219 98.894531 152.019531 C 99.027344 148.695312 99.449219 145.238281 100.207031 141.679688 Z M 98.847656 154.113281 C 100.921875 154.917969 103.027344 155.648438 105.160156 156.308594 C 105.324219 160.445312 105.984375 164.5625 107.113281 168.558594 C 107.035156 168.53125 106.953125 168.507812 106.871094 168.484375 C 104.617188 167.804688 102.40625 166.921875 100.167969 166.175781 C 99.308594 162.449219 98.832031 158.402344 98.847656 154.113281 Z M 105.761719 179.75 C 105.15625 178.8125 104.589844 177.847656 104.070312 176.859375 C 102.804688 174.453125 101.726562 171.789062 100.882812 168.90625 C 102.292969 169.445312 103.734375 169.90625 105.132812 170.371094 C 106.070312 170.683594 107.011719 170.984375 107.957031 171.269531 C 109.164062 174.8125 110.738281 178.242188 112.667969 181.46875 C 112.734375 181.582031 112.804688 181.695312 112.871094 181.804688 C 110.484375 181.1875 108.113281 180.5 105.761719 179.75 Z M 117.519531 190.765625 C 115.734375 189.710938 114.007812 188.5 112.316406 187.125 C 110.589844 185.722656 109.054688 184.148438 107.695312 182.4375 C 109.964844 183.203125 112.261719 183.867188 114.582031 184.449219 C 116.3125 186.957031 118.261719 189.324219 120.40625 191.492188 C 119.441406 191.261719 118.480469 191.019531 117.519531 190.765625 Z M 123.917969 192.257812 C 121.550781 190.074219 119.386719 187.683594 117.457031 185.121094 C 120.246094 185.726562 123.0625 186.214844 125.890625 186.589844 C 127.667969 189.160156 129.757812 191.515625 132.125 193.539062 C 129.574219 193.253906 127.039062 192.871094 124.519531 192.378906 C 124.320312 192.339844 124.121094 192.296875 123.917969 192.257812 Z M 126.835938 194.765625 C 126.785156 194.722656 126.734375 194.679688 126.683594 194.636719 C 129.464844 195.152344 132.277344 195.542969 135.097656 195.800781 C 135.433594 196.023438 135.773438 196.246094 136.117188 196.457031 C 132.785156 196.140625 129.714844 195.589844 126.835938 194.765625 Z M 135.460938 193.855469 C 132.816406 191.898438 130.523438 189.539062 128.570312 186.910156 C 129.648438 187.027344 130.726562 187.125 131.804688 187.210938 C 133.289062 187.328125 134.78125 187.410156 136.269531 187.464844 C 136.460938 188.335938 136.65625 189.207031 136.863281 190.074219 C 137.175781 191.390625 137.503906 192.699219 137.855469 194.007812 C 137.054688 193.964844 136.257812 193.914062 135.460938 193.855469 Z M 137.925781 184.214844 C 137.359375 181.421875 136.878906 178.613281 136.480469 175.789062 C 141.210938 175.929688 145.957031 175.773438 150.671875 175.328125 C 150.578125 175.929688 150.484375 176.53125 150.386719 177.132812 C 149.957031 179.71875 149.460938 182.296875 148.90625 184.859375 C 145.328125 185.171875 141.734375 185.304688 138.140625 185.253906 C 138.066406 184.90625 137.996094 184.5625 137.925781 184.214844 Z M 145.804688 196.714844 C 145.011719 196.75 144.199219 196.773438 143.367188 196.773438 C 142.589844 196.773438 141.828125 196.765625 141.074219 196.746094 C 141.015625 196.546875 140.957031 196.347656 140.898438 196.152344 C 142.589844 196.203125 144.28125 196.207031 145.972656 196.164062 C 145.917969 196.347656 145.859375 196.53125 145.804688 196.714844 Z M 146.589844 194.0625 C 146.488281 194.066406 146.390625 194.070312 146.292969 194.074219 C 144.300781 194.148438 142.304688 194.152344 140.308594 194.101562 C 140.25 193.894531 140.191406 193.683594 140.132812 193.476562 C 139.589844 191.503906 139.09375 189.519531 138.640625 187.527344 C 141.882812 187.574219 145.128906 187.480469 148.367188 187.238281 C 147.828125 189.527344 147.234375 191.804688 146.589844 194.0625 Z M 151.203125 196.171875 C 150.332031 196.3125 149.433594 196.425781 148.507812 196.519531 C 148.554688 196.367188 148.601562 196.21875 148.648438 196.066406 C 149.683594 196.015625 150.71875 195.945312 151.75 195.859375 C 151.570312 195.964844 151.386719 196.070312 151.203125 196.171875 Z M 155.136719 193.34375 C 153.1875 193.601562 151.230469 193.792969 149.265625 193.925781 C 149.90625 191.632812 150.488281 189.328125 151.011719 187.011719 C 154.363281 186.679688 157.695312 186.195312 161 185.558594 C 159.460938 188.460938 157.542969 191.160156 155.136719 193.34375 Z M 163.328125 191.90625 C 163.015625 191.976562 162.699219 192.042969 162.386719 192.109375 C 161.246094 192.347656 160.101562 192.566406 158.957031 192.761719 C 160.957031 190.425781 162.585938 187.746094 163.894531 184.960938 C 166.085938 184.476562 168.257812 183.917969 170.410156 183.289062 C 168.339844 186.398438 165.9375 189.242188 163.328125 191.90625 Z M 170.425781 187.492188 C 171.472656 186.050781 172.441406 184.566406 173.324219 183.054688 C 173.480469 182.785156 173.636719 182.511719 173.792969 182.238281 C 174.542969 181.988281 175.289062 181.734375 176.035156 181.46875 C 174.78125 183.136719 172.960938 185.308594 170.425781 187.492188 Z M 178.601562 177.777344 C 177.585938 178.183594 176.566406 178.574219 175.539062 178.945312 C 177.167969 175.65625 178.507812 172.242188 179.492188 168.707031 C 180.882812 168.183594 182.261719 167.632812 183.628906 167.054688 C 182.4375 170.792969 180.757812 174.398438 178.601562 177.777344 Z M 184.496094 163.984375 C 183.085938 164.617188 181.660156 165.214844 180.222656 165.785156 C 180.328125 165.292969 180.433594 164.796875 180.527344 164.300781 C 181.183594 160.796875 181.480469 157.246094 181.4375 153.707031 C 182.054688 153.476562 182.675781 153.242188 183.289062 153 C 184.117188 152.675781 184.96875 152.378906 185.78125 152.015625 C 185.886719 156.03125 185.453125 160.058594 184.496094 163.984375 Z M 184.496094 163.984375 " fill-opacity="1" fill-rule="nonzero"/></g><path fill="#000000" d="M 87.980469 100.953125 C 88.558594 100.992188 89.136719 100.972656 89.707031 100.902344 C 92.113281 101.253906 94.160156 103.382812 95.175781 105.484375 C 96.445312 108.113281 96.546875 111.132812 96.476562 114.042969 C 96.449219 114.710938 96.425781 115.378906 96.410156 116.042969 C 96.371094 117.460938 98.5625 117.457031 98.613281 116.042969 C 98.625 115.65625 98.640625 115.265625 98.648438 114.871094 C 98.859375 109.28125 99.683594 101.992188 105.832031 100.0625 C 107.023438 99.6875 106.796875 97.941406 105.539062 97.894531 C 100.757812 97.726562 96.996094 93.359375 97.835938 88.582031 C 98.09375 87.117188 95.542969 86.5 95.605469 87.96875 C 95.84375 93.742188 93.226562 98.265625 89.019531 98.597656 C 88.675781 98.578125 88.332031 98.578125 87.980469 98.605469 C 86.46875 98.714844 86.464844 100.847656 87.980469 100.953125 Z M 95.59375 97.554688 C 96.179688 96.777344 96.601562 95.914062 96.871094 95.007812 C 97.160156 95.507812 97.492188 95.988281 97.871094 96.449219 C 99.027344 97.84375 100.5625 98.867188 102.25 99.472656 C 100.535156 100.734375 99.1875 102.492188 98.304688 104.453125 C 98.085938 104.941406 97.894531 105.4375 97.722656 105.9375 C 97.476562 105.210938 97.164062 104.5 96.777344 103.816406 C 95.867188 102.210938 94.527344 100.796875 92.941406 99.847656 C 93.964844 99.277344 94.875 98.507812 95.59375 97.554688 Z M 95.59375 97.554688 " fill-opacity="1" fill-rule="nonzero"/><g clip-path="url(#c32d556f81)"><path fill="#000000" d="M 199.238281 188.339844 C 194.914062 188.203125 191.507812 184.628906 192.269531 180.722656 C 192.503906 179.523438 190.195312 179.015625 190.25 180.21875 C 190.464844 184.941406 188.097656 188.644531 184.289062 188.914062 C 183.980469 188.898438 183.667969 188.898438 183.351562 188.921875 C 181.980469 189.011719 181.980469 190.753906 183.351562 190.84375 C 183.875 190.878906 184.398438 190.863281 184.914062 190.804688 C 187.089844 191.089844 188.945312 192.832031 189.863281 194.554688 C 191.011719 196.703125 191.105469 199.175781 191.039062 201.558594 C 191.015625 202.105469 190.996094 202.652344 190.980469 203.195312 C 190.945312 204.355469 192.929688 204.351562 192.972656 203.195312 C 192.984375 202.878906 192.996094 202.558594 193.007812 202.234375 C 193.195312 197.660156 193.941406 191.699219 199.507812 190.117188 C 200.585938 189.808594 200.378906 188.378906 199.238281 188.34375 Z M 192.695312 193.707031 C 192.496094 194.105469 192.324219 194.511719 192.171875 194.921875 C 191.945312 194.324219 191.664062 193.746094 191.3125 193.1875 C 190.488281 191.871094 189.277344 190.714844 187.839844 189.9375 C 188.765625 189.46875 189.589844 188.839844 190.238281 188.058594 C 190.769531 187.421875 191.152344 186.71875 191.398438 185.976562 C 191.65625 186.386719 191.957031 186.777344 192.304688 187.152344 C 193.347656 188.296875 194.738281 189.132812 196.265625 189.628906 C 194.714844 190.664062 193.496094 192.101562 192.699219 193.707031 Z M 192.695312 193.707031 " fill-opacity="1" fill-rule="nonzero"/></g><path fill="#000000" d="M 121.800781 91.992188 C 123.25 92.03125 124.390625 93 124.699219 94.277344 C 124.660156 94.855469 124.65625 95.433594 124.660156 95.996094 C 124.675781 97.171875 126.507812 97.492188 126.773438 96.28125 C 126.917969 95.621094 126.9375 94.976562 126.851562 94.355469 C 126.957031 93.054688 127.304688 91.660156 128.425781 91.28125 C 128.78125 91.273438 129.132812 91.230469 129.480469 91.140625 C 130.648438 90.847656 130.363281 89.132812 129.203125 89.09375 C 128.875 89.082031 128.554688 89.117188 128.246094 89.1875 C 127.648438 89.152344 127.078125 88.875 126.726562 88.359375 C 126.175781 87.5625 126.546875 86.738281 126.410156 85.867188 C 126.296875 85.125 125.28125 84.992188 124.8125 85.445312 C 124.246094 85.992188 124.105469 86.792969 124.214844 87.601562 C 123.910156 88.835938 122.871094 89.789062 121.527344 89.976562 C 120.34375 90.140625 120.6875 91.964844 121.800781 91.992188 Z M 121.800781 91.992188 " fill-opacity="1" fill-rule="nonzero"/><path fill="#000000" d="M 155.105469 97.535156 C 155.339844 97.472656 155.566406 97.394531 155.789062 97.3125 C 156.621094 97.21875 157.484375 97.839844 157.917969 98.496094 C 158.628906 99.582031 158.710938 100.941406 158.765625 102.195312 C 158.824219 103.5 160.691406 103.484375 160.785156 102.195312 C 160.929688 100.140625 161.703125 97.148438 164.3125 97.261719 C 165.449219 97.3125 165.710938 95.511719 164.582031 95.265625 C 162.1875 94.746094 160.613281 92.992188 160.207031 90.808594 C 160.195312 90.511719 160.160156 90.210938 160.105469 89.910156 C 160.089844 89.5 160.113281 89.085938 160.175781 88.660156 C 160.375 87.34375 158.472656 86.734375 158.121094 88.097656 C 158.101562 88.164062 158.089844 88.230469 158.074219 88.292969 C 158.011719 88.414062 157.980469 88.550781 157.992188 88.703125 C 157.828125 89.707031 157.890625 90.703125 158.140625 91.648438 C 157.796875 93.320312 156.6875 94.753906 154.945312 95.375 C 154.824219 95.40625 154.699219 95.445312 154.578125 95.492188 C 154.566406 95.496094 154.558594 95.5 154.546875 95.5 C 154.546875 95.5 154.546875 95.5 154.546875 95.503906 C 154.460938 95.535156 154.378906 95.566406 154.292969 95.609375 C 153.183594 96.113281 153.976562 97.839844 155.105469 97.535156 Z M 159.382812 94.214844 C 159.933594 94.960938 160.621094 95.613281 161.402344 96.128906 C 160.796875 96.59375 160.3125 97.207031 159.929688 97.90625 C 159.710938 97.460938 159.4375 97.042969 159.085938 96.664062 C 158.789062 96.347656 158.460938 96.078125 158.101562 95.859375 C 158.613281 95.378906 159.046875 94.820312 159.382812 94.214844 Z M 159.382812 94.214844 " fill-opacity="1" fill-rule="nonzero"/><g clip-path="url(#e58220eb83)"><path fill="#000000" d="M 95.066406 186.65625 C 92.128906 186.386719 90.121094 183.566406 90.746094 180.710938 C 91.066406 179.25 88.808594 178.628906 88.496094 180.09375 C 88.324219 180.914062 88.289062 181.722656 88.371094 182.496094 C 88.289062 183.496094 88.066406 184.414062 87.441406 185.289062 C 86.710938 186.308594 85.644531 186.921875 84.414062 187.125 C 82.878906 187.429688 83.550781 189.691406 85.058594 189.445312 C 86.484375 189.144531 87.820312 190.230469 88.476562 191.40625 C 89.316406 192.917969 89.402344 194.746094 89.511719 196.433594 C 89.609375 197.917969 91.910156 197.941406 91.847656 196.433594 C 91.777344 194.761719 91.652344 192.980469 92.261719 191.382812 C 92.714844 190.203125 93.730469 189.027344 95.066406 188.917969 C 96.527344 188.800781 96.515625 186.789062 95.066406 186.65625 Z M 90.476562 189.824219 C 90.441406 189.882812 90.414062 189.949219 90.382812 190.011719 C 90.292969 189.863281 90.199219 189.722656 90.097656 189.578125 C 89.589844 188.878906 88.964844 188.289062 88.261719 187.851562 C 88.855469 187.332031 89.375 186.714844 89.78125 186.039062 C 90.363281 186.8125 91.105469 187.46875 91.964844 187.960938 C 91.367188 188.46875 90.859375 189.101562 90.476562 189.824219 Z M 90.476562 189.824219 " fill-opacity="1" fill-rule="nonzero"/></g><path fill="#000000" d="M 180.097656 113.933594 C 180.382812 113.917969 180.664062 113.878906 180.941406 113.828125 C 182.511719 113.8125 183.050781 115.808594 183.253906 117.375 C 183.289062 117.851562 183.339844 118.332031 183.394531 118.800781 C 183.539062 120.042969 185.683594 119.808594 185.601562 118.550781 C 185.574219 118.054688 185.535156 117.550781 185.480469 117.050781 C 185.441406 115.46875 185.738281 113.503906 187.59375 113.75 C 188.832031 113.914062 189.164062 111.835938 187.941406 111.570312 C 186.445312 111.25 185.449219 110.171875 185.246094 108.851562 C 185.246094 108.671875 185.230469 108.492188 185.207031 108.316406 C 185.207031 107.898438 185.109375 107.371094 185.128906 106.902344 C 185.195312 105.164062 183.277344 105.453125 183.277344 106.953125 C 183.277344 109.371094 182.796875 109.957031 182.523438 110.308594 C 182.042969 110.921875 181.382812 111.347656 180.632812 111.503906 C 180.371094 111.507812 180.101562 111.539062 179.835938 111.601562 C 178.566406 111.894531 178.734375 114.011719 180.097656 113.933594 Z M 180.097656 113.933594 " fill-opacity="1" fill-rule="nonzero"/></svg>