<svg xmlns="http://www.w3.org/2000/svg" xmlns:xlink="http://www.w3.org/1999/xlink" width="378" zoomAndPan="magnify" viewBox="0 0 282.96 283.499989" height="378" preserveAspectRatio="xMidYMid meet" version="1.0"><defs><clipPath id="6ad452ad09"><path d="M 238 223 L 281.734375 223 L 281.734375 283 L 238 283 Z M 238 223 " clip-rule="nonzero"/></clipPath><clipPath id="41b1a70f82"><path d="M 0.230469 223 L 31 223 L 31 268 L 0.230469 268 Z M 0.230469 223 " clip-rule="nonzero"/></clipPath></defs><path fill="#000000" d="M 248.167969 107.792969 C 237.941406 87.363281 221.414062 69.75 201.324219 57.847656 C 184.144531 47.671875 164.226562 42.039062 144.089844 41.375 C 144.796875 39.476562 144.585938 37.433594 144.566406 35.207031 C 144.550781 32.632812 144.53125 30.058594 144.511719 27.480469 C 144.472656 22.199219 144.421875 16.914062 144.339844 11.628906 C 144.257812 6.480469 144.183594 1.335938 144.089844 -3.816406 C 144.046875 -6.378906 143.964844 -8.984375 143.738281 -11.539062 C 143.546875 -13.671875 143.257812 -16.203125 141.519531 -17.492188 C 141.507812 -17.511719 141.5 -17.53125 141.488281 -17.554688 C 140.765625 -19.015625 138.304688 -19.039062 137.585938 -17.554688 C 137.574219 -17.527344 137.5625 -17.5 137.550781 -17.472656 C 135.933594 -16.253906 135.640625 -13.992188 135.441406 -11.945312 C 135.183594 -9.398438 135.15625 -6.777344 135.125 -4.21875 C 135.050781 1.0625 135.066406 6.347656 135.039062 11.628906 C 135.007812 16.78125 135.019531 21.925781 135.039062 27.078125 C 135.046875 29.652344 135.054688 32.226562 135.0625 34.800781 C 135.070312 37.117188 134.824219 39.363281 135.589844 41.390625 C 133.507812 41.46875 131.429688 41.589844 129.351562 41.777344 C 104.296875 44.003906 80.410156 53.632812 61.980469 70.222656 C 45.9375 84.660156 32.175781 104.679688 27.335938 125.4375 C 24.546875 137.402344 22.753906 154.953125 23.105469 169.324219 C 23.433594 182.652344 26.976562 196.527344 31.316406 209.222656 C 39.109375 232.058594 58.789062 253.164062 77.417969 263.21875 C 89.128906 269.542969 128.261719 280.824219 155.644531 277.710938 C 182.1875 274.695312 207.753906 264.378906 226.238281 245.429688 C 261.601562 209.175781 270.554688 152.484375 248.167969 107.792969 Z M 228.667969 100.929688 C 232.28125 106.199219 235.339844 111.722656 237.867188 117.421875 C 235.070312 118.707031 232.253906 119.949219 229.417969 121.136719 C 226.3125 111.914062 222.175781 103.007812 217.054688 94.636719 C 217.011719 94.558594 216.960938 94.484375 216.917969 94.410156 C 218.675781 93.769531 220.429688 93.105469 222.164062 92.40625 C 224.476562 95.144531 226.648438 97.984375 228.667969 100.929688 Z M 170.699219 143.949219 C 180.5 142.492188 190.21875 140.484375 199.792969 137.941406 C 199.863281 137.917969 199.933594 137.898438 200.003906 137.882812 C 201.589844 146.917969 202.484375 156.117188 202.652344 165.328125 C 192.332031 167.886719 181.863281 169.875 171.320312 171.257812 C 171.46875 162.15625 171.261719 153.042969 170.699219 143.949219 Z M 171.070312 180.195312 C 171.109375 179.261719 171.136719 178.332031 171.167969 177.398438 C 181.761719 176.085938 192.277344 174.195312 202.65625 171.738281 C 202.476562 181.707031 201.441406 191.65625 199.511719 201.421875 C 189.433594 203.882812 179.214844 205.75 168.929688 207.007812 C 169.980469 198.101562 170.695312 189.152344 171.070312 180.195312 Z M 226.210938 129.34375 C 226.730469 131.199219 227.207031 133.0625 227.648438 134.941406 C 229.332031 142.171875 230.320312 149.496094 230.667969 156.839844 C 230.242188 156.992188 229.820312 157.148438 229.394531 157.296875 C 222.667969 159.6875 215.84375 161.820312 208.949219 163.695312 C 208.6875 163.765625 208.421875 163.835938 208.164062 163.90625 C 207.929688 154.683594 206.992188 145.476562 205.371094 136.386719 C 212.410156 134.347656 219.371094 132.003906 226.210938 129.34375 Z M 198.820312 131.796875 C 189.453125 134.421875 179.925781 136.5 170.28125 137.996094 C 169.4375 127.324219 168.109375 116.695312 166.292969 106.144531 C 173.609375 105.257812 180.878906 104.042969 188.082031 102.496094 C 188.644531 102.375 189.210938 102.25 189.773438 102.125 C 193.621094 111.691406 196.664062 121.601562 198.820312 131.796875 Z M 165.242188 100.3125 C 164.730469 97.625 164.199219 94.945312 163.628906 92.277344 C 162.328125 86.1875 160.875 80.113281 159.234375 74.089844 C 163.835938 73.699219 168.421875 73.167969 172.996094 72.503906 C 173.476562 72.433594 173.957031 72.355469 174.441406 72.28125 C 179.359375 80.03125 183.683594 88.113281 187.386719 96.480469 C 180.070312 98.105469 172.679688 99.394531 165.242188 100.3125 Z M 98.800781 104.957031 C 105.566406 106.015625 112.386719 106.789062 119.199219 107.292969 C 120.972656 107.417969 122.75 107.527344 124.523438 107.617188 C 122.675781 118.601562 121.34375 129.675781 120.5 140.789062 C 110.652344 140.402344 100.824219 139.453125 91.085938 137.941406 C 92.800781 126.792969 95.160156 115.644531 98.800781 104.957031 Z M 115.625 146.351562 C 117.121094 146.441406 118.613281 146.519531 120.105469 146.585938 C 120.097656 146.730469 120.089844 146.875 120.082031 147.015625 C 119.558594 155.773438 119.367188 164.546875 119.492188 173.320312 C 109.042969 172.808594 98.613281 171.738281 88.257812 170.125 C 88.347656 161.222656 89.109375 152.308594 90.289062 143.511719 C 98.679688 144.875 107.140625 145.824219 115.625 146.351562 Z M 118.476562 179.191406 C 118.859375 179.210938 119.246094 179.234375 119.628906 179.25 C 119.9375 189.078125 120.65625 198.894531 121.78125 208.664062 C 111.847656 208.152344 101.941406 207.089844 92.128906 205.472656 C 91.128906 201.546875 90.339844 197.582031 89.753906 193.609375 C 88.898438 187.789062 88.441406 181.910156 88.296875 176.011719 C 98.335938 177.597656 108.4375 178.632812 118.476562 179.191406 Z M 162.53125 139.070312 C 150.269531 140.566406 137.886719 141.191406 125.527344 140.941406 C 126.347656 129.84375 127.699219 118.789062 129.589844 107.816406 C 139.988281 108.125 150.414062 107.769531 160.765625 106.75 C 162.125 114.679688 163.203125 122.652344 163.992188 130.660156 C 164.253906 133.363281 164.492188 136.078125 164.699219 138.796875 C 163.972656 138.890625 163.253906 138.984375 162.53125 139.070312 Z M 159.71875 100.914062 C 158.828125 101.003906 157.941406 101.097656 157.046875 101.175781 C 148.273438 101.9375 139.449219 102.222656 130.644531 102.023438 C 130.9375 100.480469 131.242188 98.929688 131.558594 97.386719 C 133.105469 89.835938 134.90625 82.328125 136.941406 74.882812 C 142.507812 74.964844 148.078125 74.832031 153.632812 74.496094 C 154.816406 78.84375 155.925781 83.207031 156.941406 87.601562 C 157.957031 92.023438 158.878906 96.460938 159.71875 100.914062 Z M 125.539062 101.859375 C 117.257812 101.5 108.996094 100.710938 100.796875 99.480469 C 102.34375 95.511719 104.089844 91.621094 106.066406 87.828125 C 108.722656 82.734375 111.785156 77.921875 115.234375 73.453125 C 119.890625 74.007812 124.5625 74.40625 129.25 74.640625 C 130.078125 74.683594 130.898438 74.714844 131.726562 74.746094 C 129.285156 83.691406 127.230469 92.742188 125.539062 101.859375 Z M 85.308594 102.414062 C 88.027344 103.019531 90.761719 103.566406 93.507812 104.0625 C 90.582031 112.960938 88.46875 122.144531 86.890625 131.328125 C 86.5625 133.242188 86.25 135.160156 85.957031 137.09375 C 83.9375 136.734375 81.917969 136.355469 79.90625 135.953125 C 73.855469 134.738281 67.859375 133.277344 61.90625 131.640625 C 65.15625 120.621094 69.96875 110.03125 76.132812 100.246094 C 79.195312 101.027344 82.261719 101.746094 85.308594 102.414062 Z M 60.507812 136.816406 C 64.851562 138.089844 69.234375 139.226562 73.640625 140.246094 C 77.46875 141.128906 81.308594 141.917969 85.171875 142.625 C 84.011719 151.425781 83.285156 160.367188 83.195312 169.296875 C 82.328125 169.148438 81.464844 168.992188 80.605469 168.835938 C 72.65625 167.386719 64.824219 165.546875 57.070312 163.421875 C 57.171875 154.441406 58.355469 145.515625 60.507812 136.816406 Z M 73.125 207.65625 C 78.171875 208.84375 83.253906 209.886719 88.363281 210.78125 C 90.78125 219.15625 94.152344 227.265625 98.667969 234.960938 C 94.171875 234.296875 89.695312 233.515625 85.246094 232.613281 C 82.683594 232.089844 80.128906 231.535156 77.585938 230.9375 C 72.324219 222.984375 67.960938 214.441406 64.613281 205.46875 C 67.433594 206.25 70.273438 206.988281 73.125 207.65625 Z M 125.332031 189.246094 C 125.121094 185.992188 124.957031 182.730469 124.832031 179.476562 C 138.386719 179.933594 151.976562 179.457031 165.472656 178.050781 C 165.101562 187.960938 164.296875 197.851562 163.015625 207.664062 C 151.117188 208.851562 139.132812 209.265625 127.179688 208.886719 C 126.378906 202.363281 125.761719 195.8125 125.332031 189.246094 Z M 168.164062 213.0625 C 178.234375 211.882812 188.234375 210.148438 198.105469 207.867188 C 196.667969 213.859375 194.890625 219.769531 192.75 225.550781 C 191.988281 227.613281 191.164062 229.671875 190.273438 231.710938 C 181.679688 233.617188 172.992188 235.078125 164.246094 236.070312 C 165.8125 228.453125 167.121094 220.777344 168.164062 213.0625 Z M 204.152344 206.390625 C 211.238281 204.578125 218.246094 202.464844 225.148438 200.066406 C 222.558594 208.507812 219.109375 216.707031 214.835938 224.5 C 214.730469 224.695312 214.621094 224.878906 214.515625 225.066406 C 208.726562 226.972656 202.875 228.660156 196.960938 230.140625 C 200.023438 222.449219 202.386719 214.484375 204.152344 206.390625 Z M 205.433594 199.90625 C 206.113281 196.070312 206.671875 192.21875 207.105469 188.355469 C 207.78125 182.390625 208.148438 176.382812 208.210938 170.363281 C 215.351562 168.523438 222.425781 166.40625 229.398438 164.011719 C 229.871094 163.847656 230.335938 163.683594 230.804688 163.519531 C 230.734375 173.472656 229.464844 183.394531 227.085938 193.058594 C 219.972656 195.65625 212.746094 197.9375 205.433594 199.90625 Z M 217.734375 87.472656 C 216.296875 87.980469 214.851562 88.484375 213.40625 88.980469 C 209.511719 83.253906 205.183594 77.824219 200.449219 72.769531 C 206.722656 77.074219 212.523438 82.011719 217.734375 87.472656 Z M 190.566406 69.207031 C 197.234375 75.742188 203.203125 82.9375 208.378906 90.664062 C 203.246094 92.34375 198.074219 93.886719 192.8125 95.203125 C 189.167969 86.992188 184.90625 78.964844 180.007812 71.359375 C 181.742188 71.050781 183.480469 70.722656 185.207031 70.375 C 187 70.007812 188.785156 69.617188 190.566406 69.207031 Z M 181.414062 62.320312 C 182.519531 62.789062 183.617188 63.277344 184.699219 63.78125 C 184.785156 63.855469 184.875 63.929688 184.957031 64.003906 C 182.035156 64.617188 179.101562 65.171875 176.160156 65.671875 C 174.429688 63.222656 172.632812 60.835938 170.761719 58.503906 C 174.390625 59.578125 177.953125 60.84375 181.414062 62.320312 Z M 163.347656 56.601562 C 165.886719 59.839844 168.316406 63.144531 170.632812 66.519531 C 166.269531 67.136719 161.878906 67.609375 157.484375 67.953125 C 156.179688 63.5625 154.757812 59.210938 153.207031 54.90625 C 156.617188 55.308594 160.003906 55.875 163.347656 56.601562 Z M 143.238281 54.179688 C 144.722656 54.21875 146.203125 54.289062 147.6875 54.394531 C 149.140625 59.019531 150.554688 63.65625 151.898438 68.3125 C 147.507812 68.542969 143.113281 68.636719 138.714844 68.605469 C 140.128906 63.765625 141.640625 58.957031 143.238281 54.179688 Z M 135.992188 54.203125 C 136.691406 54.179688 137.394531 54.160156 138.09375 54.144531 C 136.445312 58.898438 134.914062 63.683594 133.496094 68.507812 C 129.015625 68.371094 124.535156 68.101562 120.074219 67.710938 C 124.773438 62.582031 130.082031 58.039062 135.992188 54.203125 Z M 113.175781 67.003906 C 112.230469 66.890625 111.285156 66.777344 110.34375 66.65625 C 109.480469 66.542969 108.617188 66.421875 107.753906 66.300781 C 112.460938 62.871094 117.40625 59.777344 122.570312 57.078125 C 119.1875 60.125 116.054688 63.464844 113.175781 67.003906 Z M 109.386719 58.476562 C 106.253906 60.539062 103.214844 62.742188 100.285156 65.082031 C 99.695312 64.976562 99.113281 64.871094 98.523438 64.761719 C 97.421875 64.554688 96.199219 64.226562 94.9375 63.917969 C 99.578125 61.757812 104.40625 59.933594 109.386719 58.476562 Z M 87.484375 67.78125 C 89.304688 69.136719 92.101562 69.621094 94.464844 70.03125 C 86.644531 77.09375 79.703125 85.132812 73.824219 93.890625 C 73.199219 93.71875 72.570312 93.550781 71.941406 93.378906 C 68.25 92.359375 64.597656 91.203125 60.9375 90.070312 C 68.386719 81.078125 77.386719 73.566406 87.484375 67.78125 Z M 40.535156 132.5 C 40.691406 131.757812 40.867188 131.019531 41.039062 130.28125 C 45.109375 131.890625 49.316406 133.25 53.394531 134.601562 C 54.121094 134.839844 54.839844 135.074219 55.5625 135.304688 C 53.480469 144.113281 52.441406 153.109375 52.378906 162.101562 C 47.355469 160.648438 42.351562 159.09375 37.371094 157.453125 C 37.6875 149.429688 38.703125 141.089844 40.535156 132.5 Z M 37.261719 162.5 C 42.253906 164.449219 47.328125 166.210938 52.472656 167.800781 C 52.867188 177.785156 54.460938 187.722656 57.179688 197.359375 C 56.988281 197.300781 56.789062 197.242188 56.597656 197.1875 C 51.164062 195.542969 45.835938 193.417969 40.433594 191.617188 C 38.367188 182.617188 37.222656 172.855469 37.261719 162.5 Z M 53.917969 224.363281 C 52.457031 222.105469 51.101562 219.777344 49.847656 217.390625 C 46.796875 211.585938 44.195312 205.160156 42.160156 198.207031 C 45.558594 199.5 49.035156 200.617188 52.410156 201.742188 C 54.667969 202.492188 56.933594 203.214844 59.210938 203.902344 C 62.121094 212.457031 65.921875 220.730469 70.570312 228.519531 C 70.730469 228.792969 70.894531 229.058594 71.058594 229.328125 C 65.300781 227.839844 59.585938 226.179688 53.917969 224.363281 Z M 82.261719 250.953125 C 77.960938 248.402344 73.796875 245.488281 69.722656 242.171875 C 65.5625 238.785156 61.863281 234.980469 58.582031 230.855469 C 64.050781 232.699219 69.589844 234.304688 75.183594 235.707031 C 79.351562 241.757812 84.046875 247.472656 89.222656 252.703125 C 86.894531 252.152344 84.574219 251.566406 82.261719 250.953125 Z M 97.683594 254.554688 C 91.976562 249.28125 86.761719 243.511719 82.109375 237.332031 C 88.832031 238.796875 95.621094 239.972656 102.4375 240.875 C 106.726562 247.078125 111.761719 252.761719 117.464844 257.644531 C 111.320312 256.957031 105.203125 256.027344 99.136719 254.847656 C 98.652344 254.753906 98.167969 254.652344 97.683594 254.554688 Z M 104.722656 260.601562 C 104.597656 260.496094 104.472656 260.394531 104.347656 260.292969 C 111.054688 261.542969 117.832031 262.480469 124.632812 263.101562 C 125.441406 263.644531 126.257812 264.171875 127.085938 264.683594 C 119.0625 263.925781 111.660156 262.589844 104.722656 260.601562 Z M 125.503906 258.40625 C 119.136719 253.679688 113.601562 247.996094 108.902344 241.648438 C 111.496094 241.925781 114.09375 242.171875 116.695312 242.375 C 120.273438 242.65625 123.867188 242.855469 127.457031 242.988281 C 127.914062 245.09375 128.390625 247.191406 128.882812 249.285156 C 129.636719 252.460938 130.433594 255.621094 131.277344 258.773438 C 129.347656 258.671875 127.425781 258.554688 125.503906 258.40625 Z M 131.449219 235.148438 C 130.082031 228.40625 128.921875 221.621094 127.960938 214.816406 C 139.367188 215.152344 150.804688 214.777344 162.167969 213.699219 C 161.945312 215.152344 161.71875 216.601562 161.480469 218.054688 C 160.449219 224.292969 159.257812 230.511719 157.910156 236.699219 C 149.289062 237.453125 140.628906 237.777344 131.96875 237.648438 C 131.792969 236.8125 131.617188 235.984375 131.449219 235.148438 Z M 150.4375 265.308594 C 148.523438 265.394531 146.570312 265.449219 144.566406 265.449219 C 142.691406 265.449219 140.851562 265.425781 139.039062 265.382812 C 138.894531 264.902344 138.75 264.425781 138.613281 263.945312 C 142.6875 264.070312 146.769531 264.078125 150.839844 263.984375 C 150.707031 264.425781 150.574219 264.867188 150.4375 265.308594 Z M 152.328125 258.910156 C 152.089844 258.917969 151.851562 258.929688 151.617188 258.941406 C 146.8125 259.113281 142 259.128906 137.191406 259 C 137.050781 258.5 136.90625 257.992188 136.765625 257.492188 C 135.460938 252.730469 134.265625 247.945312 133.167969 243.136719 C 140.984375 243.25 148.8125 243.019531 156.613281 242.441406 C 155.316406 247.96875 153.886719 253.460938 152.328125 258.910156 Z M 163.453125 264 C 161.351562 264.332031 159.1875 264.613281 156.957031 264.835938 C 157.066406 264.472656 157.179688 264.105469 157.289062 263.746094 C 159.785156 263.617188 162.28125 263.453125 164.769531 263.242188 C 164.332031 263.503906 163.894531 263.753906 163.453125 264 Z M 172.9375 257.175781 C 168.234375 257.792969 163.511719 258.257812 158.785156 258.574219 C 160.328125 253.046875 161.734375 247.484375 162.992188 241.890625 C 171.066406 241.09375 179.101562 239.925781 187.066406 238.386719 C 183.355469 245.394531 178.730469 251.902344 172.9375 257.175781 Z M 192.675781 253.707031 C 191.921875 253.871094 191.164062 254.039062 190.40625 254.195312 C 187.664062 254.765625 184.902344 255.292969 182.136719 255.769531 C 186.960938 250.128906 190.882812 243.667969 194.042969 236.945312 C 199.320312 235.773438 204.554688 234.425781 209.742188 232.910156 C 204.753906 240.414062 198.96875 247.28125 192.675781 253.707031 Z M 209.789062 243.050781 C 212.304688 239.574219 214.640625 235.992188 216.769531 232.347656 C 217.152344 231.691406 217.523438 231.03125 217.898438 230.371094 C 219.710938 229.773438 221.511719 229.160156 223.304688 228.515625 C 220.28125 232.542969 215.890625 237.785156 209.789062 243.050781 Z M 229.496094 219.609375 C 227.046875 220.585938 224.582031 221.527344 222.109375 222.429688 C 226.03125 214.488281 229.265625 206.25 231.636719 197.71875 C 234.992188 196.460938 238.3125 195.128906 241.613281 193.738281 C 238.738281 202.753906 234.691406 211.460938 229.496094 219.609375 Z M 243.699219 186.328125 C 240.296875 187.847656 236.863281 189.296875 233.394531 190.664062 C 233.652344 189.476562 233.90625 188.28125 234.128906 187.085938 C 235.71875 178.628906 236.433594 170.066406 236.324219 161.527344 C 237.816406 160.972656 239.308594 160.402344 240.792969 159.820312 C 242.789062 159.035156 244.835938 158.316406 246.800781 157.445312 C 247.050781 167.128906 246.011719 176.851562 243.699219 186.328125 Z M 243.699219 186.328125 " fill-opacity="1" fill-rule="nonzero"/><path fill="#000000" d="M 11.0625 34.214844 C 12.457031 34.3125 13.847656 34.269531 15.222656 34.101562 C 21.023438 34.941406 25.960938 40.082031 28.40625 45.15625 C 31.464844 51.496094 31.710938 58.785156 31.539062 65.808594 C 31.472656 67.421875 31.421875 69.03125 31.382812 70.636719 C 31.292969 74.050781 36.570312 74.042969 36.6875 70.636719 C 36.722656 69.699219 36.753906 68.753906 36.777344 67.804688 C 37.285156 54.316406 39.269531 36.726562 54.089844 32.070312 C 56.960938 31.164062 56.417969 26.945312 53.382812 26.839844 C 41.863281 26.4375 32.789062 15.894531 34.816406 4.367188 C 35.4375 0.828125 29.292969 -0.65625 29.441406 2.886719 C 30.015625 16.820312 23.707031 27.738281 13.5625 28.535156 C 12.742188 28.484375 11.90625 28.488281 11.0625 28.550781 C 7.417969 28.8125 7.410156 33.960938 11.0625 34.21875 Z M 29.410156 26.015625 C 30.824219 24.140625 31.84375 22.054688 32.492188 19.871094 C 33.1875 21.078125 33.988281 22.238281 34.902344 23.34375 C 37.6875 26.71875 41.386719 29.183594 45.453125 30.644531 C 41.320312 33.6875 38.078125 37.9375 35.953125 42.664062 C 35.421875 43.84375 34.960938 45.039062 34.550781 46.25 C 33.949219 44.488281 33.195312 42.777344 32.265625 41.128906 C 30.070312 37.25 26.84375 33.84375 23.015625 31.550781 C 25.484375 30.179688 27.679688 28.316406 29.410156 26.015625 Z M 29.410156 26.015625 " fill-opacity="1" fill-rule="nonzero"/><g clip-path="url(#6ad452ad09)"><path fill="#000000" d="M 279.238281 245.101562 C 268.808594 244.769531 260.601562 236.144531 262.433594 226.710938 C 262.996094 223.816406 257.4375 222.601562 257.566406 225.5 C 258.085938 236.898438 252.378906 245.835938 243.199219 246.488281 C 242.457031 246.445312 241.699219 246.449219 240.9375 246.5 C 237.640625 246.71875 237.632812 250.925781 240.9375 251.140625 C 242.199219 251.222656 243.460938 251.1875 244.703125 251.046875 C 249.953125 251.738281 254.421875 255.9375 256.640625 260.09375 C 259.402344 265.28125 259.628906 271.25 259.472656 277 C 259.410156 278.320312 259.371094 279.640625 259.328125 280.949219 C 259.246094 283.746094 264.027344 283.738281 264.128906 280.949219 C 264.15625 280.183594 264.1875 279.410156 264.210938 278.632812 C 264.667969 267.59375 266.464844 253.199219 279.878906 249.386719 C 282.476562 248.644531 281.984375 245.191406 279.238281 245.105469 Z M 263.460938 258.046875 C 262.980469 259.011719 262.566406 259.992188 262.195312 260.984375 C 261.652344 259.542969 260.972656 258.140625 260.125 256.792969 C 258.140625 253.621094 255.222656 250.832031 251.757812 248.953125 C 253.988281 247.828125 255.976562 246.304688 257.542969 244.421875 C 258.820312 242.886719 259.738281 241.183594 260.332031 239.394531 C 260.960938 240.382812 261.6875 241.332031 262.515625 242.234375 C 265.039062 244.996094 268.382812 247.011719 272.066406 248.210938 C 268.328125 250.703125 265.390625 254.179688 263.464844 258.046875 Z M 263.460938 258.046875 " fill-opacity="1" fill-rule="nonzero"/></g><path fill="#000000" d="M 92.582031 12.59375 C 96.074219 12.691406 98.820312 15.023438 99.566406 18.109375 C 99.46875 19.5 99.460938 20.902344 99.476562 22.253906 C 99.507812 25.097656 103.925781 25.871094 104.570312 22.941406 C 104.917969 21.355469 104.964844 19.792969 104.757812 18.300781 C 105.011719 15.160156 105.847656 11.796875 108.550781 10.875 C 109.402344 10.863281 110.257812 10.757812 111.09375 10.542969 C 113.90625 9.828125 113.21875 5.695312 110.421875 5.597656 C 109.628906 5.570312 108.859375 5.65625 108.121094 5.828125 C 106.679688 5.738281 105.304688 5.070312 104.449219 3.828125 C 103.125 1.90625 104.023438 -0.0898438 103.695312 -2.183594 C 103.414062 -3.976562 100.976562 -4.292969 99.839844 -3.199219 C 98.472656 -1.882812 98.140625 0.0507812 98.402344 1.996094 C 97.664062 4.980469 95.164062 7.277344 91.921875 7.726562 C 89.070312 8.121094 89.894531 12.523438 92.578125 12.597656 Z M 92.582031 12.59375 " fill-opacity="1" fill-rule="nonzero"/><path fill="#000000" d="M 172.859375 25.96875 C 173.421875 25.816406 173.96875 25.636719 174.503906 25.429688 C 176.507812 25.203125 178.59375 26.707031 179.632812 28.292969 C 181.347656 30.90625 181.546875 34.1875 181.683594 37.222656 C 181.820312 40.367188 186.320312 40.328125 186.542969 37.222656 C 186.894531 32.261719 188.761719 25.039062 195.050781 25.3125 C 197.785156 25.429688 198.417969 21.089844 195.699219 20.496094 C 189.929688 19.238281 186.136719 15.007812 185.152344 9.742188 C 185.125 9.019531 185.042969 8.292969 184.910156 7.566406 C 184.875 6.585938 184.921875 5.582031 185.078125 4.558594 C 185.558594 1.378906 180.972656 -0.0976562 180.125 3.191406 C 180.082031 3.351562 180.050781 3.511719 180.011719 3.667969 C 179.863281 3.960938 179.785156 4.292969 179.820312 4.65625 C 179.414062 7.078125 179.566406 9.488281 180.175781 11.765625 C 179.34375 15.800781 176.667969 19.261719 172.472656 20.753906 C 172.175781 20.832031 171.878906 20.929688 171.582031 21.039062 C 171.558594 21.046875 171.535156 21.054688 171.511719 21.058594 C 171.511719 21.058594 171.511719 21.0625 171.511719 21.066406 C 171.304688 21.144531 171.101562 21.222656 170.898438 21.320312 C 168.226562 22.539062 170.140625 26.703125 172.859375 25.972656 Z M 183.167969 17.960938 C 184.496094 19.761719 186.148438 21.332031 188.03125 22.574219 C 186.578125 23.695312 185.410156 25.183594 184.484375 26.867188 C 183.957031 25.796875 183.292969 24.785156 182.449219 23.871094 C 181.738281 23.101562 180.941406 22.453125 180.082031 21.929688 C 181.316406 20.765625 182.355469 19.421875 183.167969 17.960938 Z M 183.167969 17.960938 " fill-opacity="1" fill-rule="nonzero"/><g clip-path="url(#41b1a70f82)"><path fill="#000000" d="M 28.140625 241.035156 C 21.0625 240.386719 16.21875 233.582031 17.730469 226.691406 C 18.503906 223.164062 13.058594 221.660156 12.308594 225.199219 C 11.890625 227.175781 11.800781 229.125 12.007812 230.996094 C 11.8125 233.414062 11.273438 235.628906 9.761719 237.734375 C 7.996094 240.195312 5.429688 241.675781 2.46875 242.160156 C -1.238281 242.902344 0.382812 248.359375 4.015625 247.765625 C 7.453125 247.039062 10.679688 249.65625 12.257812 252.5 C 14.28125 256.148438 14.492188 260.558594 14.757812 264.628906 C 14.988281 268.210938 20.535156 268.269531 20.382812 264.628906 C 20.214844 260.59375 19.910156 256.300781 21.382812 252.445312 C 22.472656 249.589844 24.925781 246.753906 28.140625 246.496094 C 31.660156 246.210938 31.636719 241.359375 28.140625 241.039062 Z M 17.074219 248.679688 C 16.996094 248.828125 16.929688 248.976562 16.855469 249.128906 C 16.636719 248.777344 16.410156 248.429688 16.167969 248.089844 C 14.9375 246.402344 13.429688 244.972656 11.738281 243.917969 C 13.171875 242.664062 14.425781 241.175781 15.402344 239.546875 C 16.808594 241.414062 18.59375 242.996094 20.671875 244.183594 C 19.222656 245.410156 18 246.933594 17.078125 248.679688 Z M 17.074219 248.679688 " fill-opacity="1" fill-rule="nonzero"/></g><path fill="#000000" d="M 233.097656 65.542969 C 233.78125 65.5 234.460938 65.414062 235.128906 65.289062 C 238.917969 65.253906 240.21875 70.070312 240.707031 73.847656 C 240.785156 75.003906 240.914062 76.152344 241.046875 77.285156 C 241.390625 80.285156 246.5625 79.722656 246.367188 76.6875 C 246.292969 75.492188 246.207031 74.273438 246.070312 73.066406 C 245.972656 69.246094 246.695312 64.511719 251.164062 65.097656 C 254.144531 65.492188 254.949219 60.480469 252 59.84375 C 248.394531 59.0625 245.996094 56.460938 245.503906 53.273438 C 245.503906 52.84375 245.46875 52.414062 245.410156 51.992188 C 245.414062 50.980469 245.179688 49.703125 245.21875 48.574219 C 245.382812 44.382812 240.765625 45.082031 240.765625 48.699219 C 240.765625 54.535156 239.605469 55.953125 238.941406 56.796875 C 237.789062 58.273438 236.191406 59.304688 234.390625 59.679688 C 233.757812 59.691406 233.109375 59.761719 232.464844 59.914062 C 229.40625 60.625 229.8125 65.734375 233.09375 65.542969 Z M 233.097656 65.542969 " fill-opacity="1" fill-rule="nonzero"/></svg>