<svg xmlns="http://www.w3.org/2000/svg" xmlns:xlink="http://www.w3.org/1999/xlink" width="378" zoomAndPan="magnify" viewBox="0 0 282.96 283.499989" height="378" preserveAspectRatio="xMidYMid meet" version="1.0"><defs><clipPath id="9e6cea146b"><path d="M 78.402344 77.691406 L 204.925781 77.691406 L 204.925781 204.96875 L 78.402344 204.96875 Z M 78.402344 77.691406 " clip-rule="nonzero"/></clipPath></defs><g clip-path="url(#9e6cea146b)"><path fill="#000000" d="M 191.683594 148.457031 C 190.992188 150.316406 190.195312 152.132812 189.292969 153.902344 C 188.394531 155.671875 187.398438 157.386719 186.304688 159.042969 C 185.210938 160.703125 184.027344 162.292969 182.753906 163.816406 C 181.484375 165.34375 180.128906 166.789062 178.691406 168.164062 C 177.253906 169.535156 175.746094 170.820312 174.164062 172.023438 C 172.582031 173.226562 170.9375 174.335938 169.230469 175.351562 C 167.519531 176.367188 165.761719 177.285156 163.949219 178.101562 C 162.140625 178.921875 160.289062 179.636719 158.394531 180.246094 C 158 179.339844 157.542969 178.46875 157.023438 177.628906 C 156.5 176.789062 155.921875 175.988281 155.285156 175.234375 C 154.648438 174.480469 153.960938 173.773438 153.21875 173.117188 C 152.480469 172.460938 151.695312 171.863281 150.871094 171.320312 C 150.042969 170.777344 149.183594 170.296875 148.285156 169.878906 C 147.390625 169.460938 146.464844 169.109375 145.519531 168.824219 C 144.570312 168.539062 143.609375 168.328125 142.628906 168.179688 C 141.652344 168.035156 140.667969 167.964844 139.679688 167.960938 L 134.445312 167.960938 C 134.265625 166.929688 134.023438 165.914062 133.707031 164.914062 C 133.394531 163.914062 133.015625 162.941406 132.574219 161.992188 C 132.128906 161.046875 131.625 160.128906 131.0625 159.25 C 130.496094 158.367188 129.875 157.527344 129.195312 156.726562 C 128.519531 155.929688 127.792969 155.179688 127.015625 154.476562 C 126.234375 153.777344 125.414062 153.128906 124.550781 152.535156 C 123.6875 151.941406 122.785156 151.410156 121.851562 150.9375 C 120.917969 150.464844 119.953125 150.054688 118.964844 149.710938 C 117.972656 149.367188 116.964844 149.089844 115.9375 148.878906 C 114.910156 148.667969 113.875 148.527344 112.828125 148.453125 C 111.785156 148.382812 110.738281 148.378906 109.691406 148.445312 C 108.644531 148.511719 107.609375 148.648438 106.582031 148.851562 C 105.550781 149.058594 104.542969 149.328125 103.550781 149.667969 C 102.558594 150.007812 101.59375 150.410156 100.65625 150.878906 C 99.71875 151.34375 98.816406 151.871094 97.949219 152.460938 C 97.082031 153.046875 96.253906 153.691406 95.472656 154.386719 C 93.523438 150.644531 92.042969 146.71875 91.042969 142.617188 C 90.042969 138.515625 89.542969 134.351562 89.550781 130.128906 C 89.550781 102.746094 110.496094 80.25 137.261719 77.734375 C 137.621094 77.703125 137.878906 77.84375 138.042969 78.164062 C 138.207031 78.480469 138.175781 78.777344 137.941406 79.046875 C 137.125 80 136.347656 80.984375 135.613281 82 C 134.878906 83.019531 134.191406 84.0625 133.546875 85.140625 C 132.902344 86.214844 132.304688 87.316406 131.753906 88.445312 C 131.203125 89.570312 130.703125 90.71875 130.25 91.890625 C 129.800781 93.058594 129.398438 94.246094 129.046875 95.449219 C 128.695312 96.652344 128.398438 97.871094 128.152344 99.097656 C 127.90625 100.328125 127.710938 101.566406 127.570312 102.8125 C 127.429688 104.058594 127.339844 105.308594 127.308594 106.558594 C 127.273438 107.8125 127.292969 109.066406 127.363281 110.316406 C 127.4375 111.570312 127.5625 112.816406 127.742188 114.054688 C 127.921875 115.296875 128.15625 116.527344 128.441406 117.75 C 128.722656 118.96875 129.0625 120.175781 129.449219 121.371094 C 129.835938 122.5625 130.273438 123.734375 130.761719 124.890625 C 131.25 126.046875 131.785156 127.179688 132.371094 128.289062 C 132.957031 129.398438 133.589844 130.480469 134.265625 131.535156 C 134.941406 132.589844 135.664062 133.613281 136.429688 134.609375 C 137.195312 135.605469 138 136.5625 138.847656 137.488281 C 139.695312 138.414062 140.578125 139.300781 141.503906 140.152344 C 142.425781 141.003906 143.382812 141.8125 144.375 142.578125 C 145.367188 143.347656 146.390625 144.074219 147.445312 144.753906 C 148.5 145.4375 149.578125 146.070312 150.6875 146.660156 C 151.796875 147.25 152.925781 147.789062 154.082031 148.28125 C 155.238281 148.777344 156.410156 149.21875 157.601562 149.609375 C 158.796875 150.003906 160.003906 150.34375 161.222656 150.636719 C 162.445312 150.925781 163.675781 151.164062 164.917969 151.347656 C 166.160156 151.53125 167.410156 151.664062 168.660156 151.742188 C 169.914062 151.820312 171.167969 151.847656 172.425781 151.820312 C 173.679688 151.789062 174.933594 151.707031 176.179688 151.574219 C 177.429688 151.4375 178.667969 151.25 179.902344 151.011719 C 181.132812 150.769531 182.351562 150.476562 183.5625 150.132812 C 184.769531 149.789062 185.957031 149.394531 187.132812 148.945312 C 188.304688 148.5 189.457031 148.007812 190.589844 147.460938 C 190.914062 147.304688 191.207031 147.347656 191.472656 147.589844 C 191.738281 147.832031 191.808594 148.121094 191.683594 148.457031 Z M 194.269531 182.980469 L 196.714844 189.1875 C 196.835938 189.507812 197.066406 189.675781 197.410156 189.691406 L 204.082031 190.101562 C 204.441406 190.121094 204.679688 190.304688 204.789062 190.648438 C 204.902344 190.992188 204.820312 191.28125 204.539062 191.511719 L 199.382812 195.753906 C 199.117188 195.964844 199.027344 196.238281 199.117188 196.566406 L 200.789062 203.027344 C 200.882812 203.378906 200.78125 203.660156 200.488281 203.871094 C 200.195312 204.082031 199.894531 204.09375 199.589844 203.898438 L 193.953125 200.3125 C 193.667969 200.125 193.382812 200.125 193.09375 200.3125 L 187.460938 203.898438 C 187.15625 204.09375 186.855469 204.082031 186.5625 203.871094 C 186.269531 203.660156 186.167969 203.378906 186.257812 203.027344 L 187.933594 196.566406 C 188.023438 196.238281 187.933594 195.964844 187.667969 195.753906 L 182.511719 191.507812 C 182.230469 191.277344 182.148438 190.992188 182.257812 190.648438 C 182.371094 190.304688 182.609375 190.121094 182.96875 190.097656 L 189.640625 189.691406 C 189.980469 189.675781 190.210938 189.507812 190.332031 189.1875 L 192.78125 182.976562 C 192.914062 182.640625 193.160156 182.472656 193.523438 182.472656 C 193.886719 182.472656 194.132812 182.640625 194.265625 182.976562 Z M 156.109375 96.976562 C 155.976562 96.640625 155.730469 96.472656 155.367188 96.472656 C 155.003906 96.472656 154.757812 96.640625 154.625 96.976562 L 152.175781 103.1875 C 152.054688 103.507812 151.824219 103.671875 151.484375 103.691406 L 144.8125 104.097656 C 144.449219 104.117188 144.214844 104.300781 144.101562 104.644531 C 143.988281 104.988281 144.074219 105.277344 144.351562 105.507812 L 149.507812 109.75 C 149.773438 109.964844 149.863281 110.234375 149.773438 110.566406 L 148.101562 117.027344 C 148.007812 117.375 148.109375 117.65625 148.402344 117.871094 C 148.695312 118.082031 148.996094 118.089844 149.300781 117.898438 L 154.9375 114.3125 C 155.222656 114.125 155.507812 114.125 155.796875 114.3125 L 161.429688 117.898438 C 161.738281 118.089844 162.035156 118.082031 162.328125 117.871094 C 162.621094 117.65625 162.722656 117.375 162.632812 117.027344 L 160.960938 110.566406 C 160.871094 110.234375 160.957031 109.964844 161.226562 109.75 L 166.382812 105.507812 C 166.660156 105.277344 166.746094 104.992188 166.632812 104.644531 C 166.523438 104.300781 166.285156 104.121094 165.921875 104.097656 L 159.253906 103.691406 C 158.910156 103.675781 158.679688 103.507812 158.558594 103.1875 L 156.113281 96.980469 Z M 194.269531 114.578125 C 194.136719 114.242188 193.886719 114.074219 193.527344 114.074219 C 193.164062 114.074219 192.914062 114.242188 192.785156 114.578125 L 190.335938 120.789062 C 190.214844 121.105469 189.984375 121.273438 189.640625 121.292969 L 182.972656 121.699219 C 182.609375 121.71875 182.375 121.902344 182.261719 122.246094 C 182.148438 122.59375 182.234375 122.878906 182.511719 123.109375 L 187.667969 127.351562 C 187.9375 127.566406 188.023438 127.835938 187.9375 128.167969 L 186.261719 134.628906 C 186.171875 134.976562 186.273438 135.257812 186.566406 135.472656 C 186.859375 135.683594 187.15625 135.691406 187.464844 135.5 L 193.097656 131.914062 C 193.386719 131.726562 193.671875 131.726562 193.957031 131.914062 L 199.59375 135.5 C 199.898438 135.691406 200.199219 135.683594 200.492188 135.472656 C 200.785156 135.257812 200.886719 134.976562 200.792969 134.628906 L 199.121094 128.167969 C 199.03125 127.835938 199.121094 127.566406 199.386719 127.351562 L 204.542969 123.109375 C 204.824219 122.878906 204.90625 122.59375 204.796875 122.246094 C 204.683594 121.902344 204.445312 121.71875 204.085938 121.699219 L 197.414062 121.292969 C 197.074219 121.273438 196.839844 121.105469 196.71875 120.789062 L 194.273438 114.578125 Z M 194.269531 79.378906 C 194.136719 79.042969 193.886719 78.875 193.527344 78.875 C 193.164062 78.875 192.914062 79.042969 192.785156 79.378906 L 190.335938 85.589844 C 190.214844 85.90625 189.984375 86.078125 189.640625 86.09375 L 182.972656 86.5 C 182.609375 86.523438 182.375 86.703125 182.261719 87.050781 C 182.148438 87.394531 182.234375 87.679688 182.511719 87.910156 L 187.667969 92.152344 C 187.9375 92.367188 188.023438 92.636719 187.9375 92.96875 L 186.261719 99.429688 C 186.171875 99.777344 186.273438 100.058594 186.566406 100.273438 C 186.859375 100.484375 187.15625 100.492188 187.464844 100.300781 L 193.097656 96.714844 C 193.386719 96.527344 193.671875 96.527344 193.957031 96.714844 L 199.59375 100.300781 C 199.898438 100.492188 200.199219 100.484375 200.492188 100.273438 C 200.785156 100.058594 200.886719 99.777344 200.792969 99.429688 L 199.117188 92.964844 C 199.027344 92.636719 199.117188 92.367188 199.382812 92.152344 L 204.542969 87.910156 C 204.820312 87.679688 204.902344 87.390625 204.792969 87.046875 C 204.679688 86.703125 204.445312 86.519531 204.082031 86.5 L 197.410156 86.089844 C 197.070312 86.074219 196.835938 85.90625 196.71875 85.585938 Z M 91.3125 172.035156 C 83.945312 173.835938 78.417969 180.472656 78.417969 188.332031 C 78.417969 188.878906 78.445312 189.421875 78.503906 189.964844 C 78.558594 190.503906 78.636719 191.042969 78.746094 191.578125 C 78.855469 192.113281 78.988281 192.640625 79.148438 193.160156 C 79.304688 193.683594 79.492188 194.195312 79.699219 194.699219 C 79.910156 195.199219 80.144531 195.691406 80.402344 196.171875 C 80.660156 196.652344 80.941406 197.121094 81.242188 197.574219 C 81.546875 198.027344 81.871094 198.460938 82.21875 198.882812 C 82.566406 199.304688 82.929688 199.707031 83.316406 200.09375 C 83.703125 200.480469 84.105469 200.84375 84.527344 201.191406 C 84.949219 201.535156 85.386719 201.859375 85.839844 202.164062 C 86.296875 202.46875 86.761719 202.746094 87.242188 203.003906 C 87.726562 203.261719 88.21875 203.496094 88.722656 203.703125 C 89.226562 203.914062 89.738281 204.097656 90.261719 204.257812 C 90.78125 204.417969 91.3125 204.550781 91.847656 204.65625 C 92.382812 204.765625 92.921875 204.847656 93.464844 204.902344 C 94.007812 204.957031 94.550781 204.984375 95.097656 204.984375 L 139.679688 204.984375 C 140.222656 204.984375 140.769531 204.957031 141.3125 204.90625 C 141.855469 204.851562 142.394531 204.773438 142.933594 204.664062 C 143.46875 204.558594 143.996094 204.425781 144.519531 204.269531 C 145.042969 204.109375 145.554688 203.925781 146.0625 203.71875 C 146.566406 203.507812 147.058594 203.277344 147.539062 203.019531 C 148.023438 202.761719 148.488281 202.480469 148.945312 202.179688 C 149.398438 201.875 149.835938 201.550781 150.257812 201.207031 C 150.679688 200.859375 151.085938 200.492188 151.472656 200.109375 C 151.859375 199.722656 152.222656 199.320312 152.570312 198.898438 C 152.917969 198.476562 153.242188 198.039062 153.546875 197.585938 C 153.847656 197.128906 154.128906 196.664062 154.386719 196.183594 C 154.644531 195.703125 154.878906 195.207031 155.085938 194.703125 C 155.296875 194.199219 155.480469 193.6875 155.640625 193.167969 C 155.796875 192.644531 155.929688 192.117188 156.035156 191.582031 C 156.144531 191.046875 156.222656 190.507812 156.277344 189.964844 C 156.332031 189.421875 156.355469 188.878906 156.355469 188.332031 C 156.355469 187.785156 156.332031 187.242188 156.277344 186.699219 C 156.222656 186.15625 156.144531 185.617188 156.035156 185.082031 C 155.929688 184.546875 155.796875 184.019531 155.640625 183.496094 C 155.480469 182.976562 155.296875 182.464844 155.085938 181.960938 C 154.878906 181.457031 154.644531 180.964844 154.386719 180.480469 C 154.128906 180 153.847656 179.535156 153.546875 179.082031 C 153.242188 178.625 152.917969 178.1875 152.570312 177.765625 C 152.222656 177.347656 151.859375 176.941406 151.472656 176.554688 C 151.085938 176.171875 150.679688 175.804688 150.257812 175.460938 C 149.835938 175.113281 149.398438 174.789062 148.945312 174.484375 C 148.488281 174.183594 148.023438 173.902344 147.539062 173.644531 C 147.058594 173.386719 146.566406 173.15625 146.0625 172.945312 C 145.554688 172.738281 145.042969 172.554688 144.519531 172.394531 C 143.996094 172.238281 143.46875 172.105469 142.933594 172 C 142.394531 171.894531 141.855469 171.8125 141.3125 171.757812 C 140.769531 171.707031 140.222656 171.679688 139.679688 171.679688 L 131.058594 171.679688 C 131.046875 171.03125 131.007812 170.386719 130.933594 169.742188 C 130.863281 169.097656 130.757812 168.460938 130.625 167.824219 C 130.488281 167.191406 130.324219 166.566406 130.125 165.949219 C 129.929688 165.332031 129.703125 164.726562 129.449219 164.132812 C 129.191406 163.535156 128.90625 162.953125 128.59375 162.386719 C 128.28125 161.820312 127.941406 161.269531 127.574219 160.734375 C 127.207031 160.199219 126.816406 159.683594 126.398438 159.191406 C 125.980469 158.695312 125.539062 158.21875 125.074219 157.765625 C 124.609375 157.3125 124.125 156.886719 123.621094 156.480469 C 123.113281 156.074219 122.589844 155.695312 122.046875 155.339844 C 121.503906 154.988281 120.941406 154.660156 120.367188 154.359375 C 119.792969 154.0625 119.203125 153.792969 118.601562 153.550781 C 118 153.308594 117.386719 153.097656 116.765625 152.914062 C 116.140625 152.734375 115.511719 152.582031 114.875 152.460938 C 114.238281 152.339844 113.59375 152.253906 112.949219 152.195312 C 112.304688 152.136719 111.65625 152.109375 111.007812 152.117188 C 110.359375 152.121094 109.710938 152.160156 109.066406 152.230469 C 108.421875 152.296875 107.78125 152.398438 107.144531 152.53125 C 106.511719 152.664062 105.882812 152.824219 105.265625 153.019531 C 104.644531 153.210938 104.035156 153.433594 103.4375 153.6875 C 102.839844 153.9375 102.257812 154.21875 101.6875 154.527344 C 101.117188 154.839844 100.566406 155.175781 100.027344 155.539062 C 99.492188 155.902344 98.972656 156.292969 98.472656 156.707031 C 97.976562 157.121094 97.5 157.558594 97.042969 158.019531 C 96.585938 158.480469 96.15625 158.960938 95.746094 159.464844 C 95.335938 159.96875 94.953125 160.492188 94.597656 161.03125 C 94.238281 161.570312 93.910156 162.128906 93.609375 162.703125 C 93.304688 163.273438 93.03125 163.859375 92.785156 164.460938 C 92.539062 165.058594 92.324219 165.671875 92.140625 166.292969 C 91.953125 166.910156 91.800781 167.539062 91.675781 168.175781 C 91.554688 168.8125 91.460938 169.453125 91.398438 170.097656 C 91.339844 170.742188 91.308594 171.386719 91.3125 172.035156 Z M 91.3125 172.035156 " fill-opacity="1" fill-rule="evenodd"/></g></svg>