<svg xmlns="http://www.w3.org/2000/svg" xmlns:xlink="http://www.w3.org/1999/xlink" width="378" zoomAndPan="magnify" viewBox="0 0 282.96 283.499989" height="378" preserveAspectRatio="xMidYMid meet" version="1.0"><defs><clipPath id="fe87384b8e"><path d="M 9.210938 7 L 274.242188 7 L 274.242188 274.257812 L 9.210938 274.257812 Z M 9.210938 7 " clip-rule="nonzero"/></clipPath></defs><g clip-path="url(#fe87384b8e)"><path fill="#000000" d="M 246.511719 155.582031 C 245.054688 159.488281 243.386719 163.300781 241.5 167.015625 C 239.617188 170.734375 237.53125 174.332031 235.242188 177.816406 C 232.949219 181.296875 230.472656 184.636719 227.804688 187.839844 C 225.140625 191.042969 222.300781 194.082031 219.292969 196.964844 C 216.28125 199.84375 213.121094 202.546875 209.804688 205.070312 C 206.492188 207.597656 203.046875 209.925781 199.46875 212.058594 C 195.890625 214.195312 192.207031 216.121094 188.414062 217.839844 C 184.617188 219.558594 180.738281 221.058594 176.777344 222.339844 C 175.949219 220.4375 174.992188 218.605469 173.898438 216.839844 C 172.808594 215.078125 171.59375 213.402344 170.257812 211.816406 C 168.925781 210.226562 167.484375 208.746094 165.933594 207.367188 C 164.382812 205.992188 162.742188 204.730469 161.011719 203.59375 C 159.277344 202.453125 157.472656 201.445312 155.597656 200.566406 C 153.71875 199.691406 151.785156 198.953125 149.800781 198.355469 C 147.816406 197.757812 145.800781 197.308594 143.75 197.003906 C 141.699219 196.699219 139.636719 196.546875 137.566406 196.539062 L 126.605469 196.539062 C 126.230469 194.375 125.71875 192.242188 125.0625 190.144531 C 124.40625 188.046875 123.613281 186 122.683594 184.007812 C 121.753906 182.019531 120.699219 180.097656 119.515625 178.246094 C 118.332031 176.394531 117.027344 174.628906 115.609375 172.953125 C 114.191406 171.273438 112.664062 169.699219 111.035156 168.226562 C 109.40625 166.75 107.6875 165.394531 105.878906 164.148438 C 104.066406 162.902344 102.183594 161.785156 100.222656 160.792969 C 98.265625 159.800781 96.246094 158.941406 94.175781 158.214844 C 92.101562 157.492188 89.988281 156.910156 87.835938 156.46875 C 85.6875 156.027344 83.515625 155.726562 81.324219 155.574219 C 79.132812 155.421875 76.941406 155.417969 74.75 155.558594 C 72.558594 155.699219 70.386719 155.980469 68.234375 156.410156 C 66.078125 156.84375 63.964844 157.414062 61.886719 158.125 C 59.808594 158.835938 57.785156 159.683594 55.820312 160.667969 C 53.855469 161.648438 51.964844 162.757812 50.148438 163.992188 C 48.332031 165.222656 46.605469 166.574219 44.964844 168.039062 C 40.878906 160.171875 37.785156 151.933594 35.683594 143.316406 C 33.585938 134.703125 32.542969 125.960938 32.554688 117.09375 C 32.554688 59.589844 76.433594 12.347656 132.507812 7.066406 C 132.84375 7.035156 133.164062 7.101562 133.460938 7.265625 C 133.761719 7.429688 133.988281 7.664062 134.144531 7.964844 C 134.300781 8.269531 134.359375 8.589844 134.320312 8.925781 C 134.28125 9.265625 134.152344 9.5625 133.929688 9.824219 C 132.214844 11.820312 130.589844 13.886719 129.054688 16.023438 C 127.515625 18.160156 126.074219 20.359375 124.722656 22.617188 C 123.371094 24.878906 122.121094 27.191406 120.96875 29.558594 C 119.816406 31.921875 118.765625 34.335938 117.820312 36.789062 C 116.871094 39.246094 116.03125 41.738281 115.296875 44.265625 C 114.5625 46.796875 113.9375 49.351562 113.417969 51.929688 C 112.902344 54.511719 112.496094 57.113281 112.199219 59.726562 C 111.90625 62.34375 111.722656 64.96875 111.652344 67.601562 C 111.578125 70.230469 111.621094 72.863281 111.773438 75.488281 C 111.925781 78.117188 112.191406 80.734375 112.566406 83.339844 C 112.941406 85.945312 113.429688 88.53125 114.023438 91.097656 C 114.621094 93.660156 115.324219 96.195312 116.136719 98.699219 C 116.949219 101.203125 117.867188 103.667969 118.890625 106.09375 C 119.910156 108.519531 121.035156 110.898438 122.261719 113.226562 C 123.484375 115.554688 124.808594 117.828125 126.226562 120.046875 C 127.648438 122.261719 129.15625 124.414062 130.761719 126.503906 C 132.363281 128.589844 134.050781 130.605469 135.824219 132.550781 C 137.601562 134.492188 139.453125 136.355469 141.386719 138.140625 C 143.320312 139.925781 145.328125 141.625 147.40625 143.242188 C 149.484375 144.855469 151.625 146.375 153.835938 147.808594 C 156.042969 149.238281 158.308594 150.570312 160.628906 151.808594 C 162.949219 153.046875 165.320312 154.183594 167.738281 155.21875 C 170.160156 156.25 172.617188 157.179688 175.113281 158.007812 C 177.613281 158.832031 180.140625 159.546875 182.699219 160.15625 C 185.257812 160.765625 187.839844 161.265625 190.441406 161.652344 C 193.042969 162.039062 195.65625 162.316406 198.28125 162.484375 C 200.90625 162.648438 203.535156 162.699219 206.164062 162.640625 C 208.792969 162.582031 211.414062 162.410156 214.03125 162.128906 C 216.644531 161.84375 219.246094 161.449219 221.824219 160.945312 C 224.40625 160.441406 226.960938 159.824219 229.492188 159.101562 C 232.019531 158.378906 234.515625 157.546875 236.972656 156.613281 C 239.429688 155.675781 241.84375 154.636719 244.214844 153.492188 C 244.523438 153.34375 244.84375 153.292969 245.183594 153.34375 C 245.519531 153.390625 245.816406 153.53125 246.066406 153.761719 C 246.320312 153.992188 246.488281 154.273438 246.566406 154.605469 C 246.648438 154.9375 246.628906 155.261719 246.511719 155.582031 Z M 251.921875 228.082031 L 257.050781 241.117188 C 257.164062 241.421875 257.355469 241.671875 257.617188 241.867188 C 257.882812 242.058594 258.175781 242.160156 258.503906 242.179688 L 272.476562 243.03125 C 272.820312 243.054688 273.125 243.167969 273.398438 243.378906 C 273.667969 243.589844 273.859375 243.859375 273.964844 244.183594 C 274.070312 244.511719 274.074219 244.839844 273.980469 245.171875 C 273.882812 245.5 273.703125 245.773438 273.4375 245.992188 L 262.636719 254.902344 C 262.382812 255.105469 262.203125 255.363281 262.101562 255.675781 C 262 255.984375 261.992188 256.296875 262.078125 256.613281 L 265.585938 270.179688 C 265.671875 270.511719 265.65625 270.839844 265.539062 271.164062 C 265.425781 271.488281 265.226562 271.75 264.949219 271.953125 C 264.671875 272.152344 264.359375 272.261719 264.019531 272.269531 C 263.675781 272.28125 263.359375 272.195312 263.070312 272.007812 L 251.261719 264.480469 C 250.988281 264.300781 250.691406 264.210938 250.363281 264.210938 C 250.039062 264.210938 249.738281 264.300781 249.464844 264.480469 L 237.660156 272.007812 C 237.371094 272.195312 237.054688 272.28125 236.710938 272.269531 C 236.367188 272.261719 236.054688 272.152344 235.777344 271.953125 C 235.5 271.75 235.304688 271.488281 235.1875 271.164062 C 235.070312 270.839844 235.054688 270.511719 235.144531 270.179688 L 238.648438 256.613281 C 238.734375 256.296875 238.726562 255.984375 238.625 255.675781 C 238.523438 255.363281 238.347656 255.105469 238.09375 254.902344 L 227.292969 245.992188 C 227.027344 245.773438 226.847656 245.496094 226.75 245.167969 C 226.65625 244.835938 226.660156 244.507812 226.765625 244.183594 C 226.871094 243.855469 227.0625 243.585938 227.332031 243.375 C 227.605469 243.167969 227.910156 243.050781 228.253906 243.03125 L 242.226562 242.175781 C 242.550781 242.160156 242.847656 242.054688 243.109375 241.863281 C 243.375 241.671875 243.566406 241.421875 243.679688 241.117188 L 248.804688 228.078125 C 248.933594 227.757812 249.136719 227.5 249.421875 227.308594 C 249.703125 227.113281 250.019531 227.015625 250.363281 227.015625 C 250.707031 227.015625 251.019531 227.113281 251.304688 227.308594 C 251.585938 227.5 251.792969 227.757812 251.917969 228.078125 Z M 171.984375 47.476562 C 171.859375 47.15625 171.65625 46.902344 171.371094 46.707031 C 171.085938 46.515625 170.773438 46.417969 170.429688 46.417969 C 170.085938 46.417969 169.773438 46.515625 169.488281 46.707031 C 169.203125 46.902344 169 47.15625 168.875 47.476562 L 163.746094 60.515625 C 163.632812 60.820312 163.441406 61.070312 163.179688 61.261719 C 162.914062 61.453125 162.621094 61.554688 162.292969 61.574219 L 148.320312 62.425781 C 147.976562 62.449219 147.671875 62.5625 147.398438 62.773438 C 147.128906 62.984375 146.9375 63.253906 146.832031 63.578125 C 146.726562 63.90625 146.722656 64.234375 146.816406 64.566406 C 146.914062 64.894531 147.09375 65.167969 147.359375 65.386719 L 158.160156 74.300781 C 158.414062 74.503906 158.589844 74.761719 158.691406 75.074219 C 158.792969 75.382812 158.800781 75.695312 158.714844 76.011719 L 155.210938 89.578125 C 155.125 89.910156 155.136719 90.238281 155.253906 90.5625 C 155.371094 90.882812 155.566406 91.148438 155.84375 91.351562 C 156.121094 91.550781 156.433594 91.65625 156.777344 91.667969 C 157.121094 91.679688 157.4375 91.589844 157.726562 91.40625 L 169.53125 83.878906 C 169.804688 83.699219 170.105469 83.609375 170.429688 83.609375 C 170.757812 83.609375 171.054688 83.699219 171.328125 83.878906 L 183.136719 91.40625 C 183.425781 91.589844 183.742188 91.679688 184.085938 91.667969 C 184.429688 91.65625 184.738281 91.550781 185.015625 91.351562 C 185.292969 91.148438 185.492188 90.882812 185.609375 90.5625 C 185.722656 90.238281 185.738281 89.910156 185.652344 89.578125 L 182.144531 76.011719 C 182.058594 75.695312 182.066406 75.382812 182.167969 75.074219 C 182.269531 74.761719 182.449219 74.503906 182.703125 74.300781 L 193.507812 65.386719 C 193.769531 65.167969 193.953125 64.894531 194.046875 64.566406 C 194.144531 64.234375 194.140625 63.90625 194.03125 63.582031 C 193.925781 63.253906 193.738281 62.984375 193.464844 62.773438 C 193.195312 62.5625 192.886719 62.449219 192.546875 62.425781 L 178.570312 61.574219 C 178.246094 61.558594 177.949219 61.453125 177.6875 61.261719 C 177.421875 61.070312 177.234375 60.820312 177.117188 60.515625 L 171.992188 47.480469 Z M 251.921875 84.4375 C 251.796875 84.117188 251.59375 83.863281 251.308594 83.667969 C 251.023438 83.476562 250.710938 83.378906 250.367188 83.378906 C 250.023438 83.378906 249.710938 83.476562 249.425781 83.667969 C 249.140625 83.863281 248.9375 84.117188 248.8125 84.4375 L 243.683594 97.476562 C 243.570312 97.78125 243.378906 98.03125 243.117188 98.222656 C 242.851562 98.414062 242.558594 98.519531 242.230469 98.535156 L 228.257812 99.390625 C 227.914062 99.410156 227.609375 99.527344 227.335938 99.738281 C 227.066406 99.949219 226.875 100.214844 226.769531 100.542969 C 226.664062 100.871094 226.660156 101.199219 226.753906 101.527344 C 226.851562 101.859375 227.03125 102.132812 227.296875 102.351562 L 238.097656 111.265625 C 238.355469 111.46875 238.53125 111.726562 238.632812 112.035156 C 238.734375 112.347656 238.742188 112.660156 238.65625 112.972656 L 235.148438 126.539062 C 235.0625 126.871094 235.078125 127.199219 235.195312 127.523438 C 235.3125 127.847656 235.507812 128.109375 235.785156 128.3125 C 236.0625 128.515625 236.375 128.621094 236.71875 128.632812 C 237.0625 128.640625 237.378906 128.554688 237.667969 128.371094 L 249.472656 120.839844 C 249.746094 120.660156 250.046875 120.570312 250.371094 120.570312 C 250.695312 120.570312 250.996094 120.660156 251.269531 120.839844 L 263.074219 128.371094 C 263.367188 128.554688 263.683594 128.640625 264.023438 128.632812 C 264.367188 128.621094 264.679688 128.515625 264.957031 128.3125 C 265.234375 128.109375 265.433594 127.847656 265.546875 127.523438 C 265.664062 127.199219 265.679688 126.871094 265.59375 126.539062 L 262.085938 112.972656 C 262 112.660156 262.007812 112.347656 262.109375 112.035156 C 262.210938 111.726562 262.390625 111.46875 262.644531 111.265625 L 273.445312 102.351562 C 273.710938 102.132812 273.890625 101.859375 273.988281 101.527344 C 274.085938 101.199219 274.078125 100.871094 273.972656 100.542969 C 273.867188 100.214844 273.679688 99.949219 273.40625 99.738281 C 273.136719 99.527344 272.828125 99.410156 272.484375 99.390625 L 258.511719 98.535156 C 258.1875 98.519531 257.890625 98.414062 257.628906 98.222656 C 257.363281 98.03125 257.175781 97.78125 257.058594 97.476562 L 251.933594 84.4375 Z M 251.921875 10.519531 C 251.796875 10.199219 251.59375 9.945312 251.308594 9.75 C 251.023438 9.558594 250.710938 9.460938 250.367188 9.460938 C 250.023438 9.460938 249.710938 9.558594 249.425781 9.75 C 249.140625 9.945312 248.9375 10.199219 248.8125 10.519531 L 243.683594 23.558594 C 243.570312 23.863281 243.378906 24.113281 243.117188 24.304688 C 242.851562 24.496094 242.558594 24.601562 242.230469 24.617188 L 228.257812 25.472656 C 227.914062 25.492188 227.609375 25.609375 227.335938 25.820312 C 227.066406 26.03125 226.875 26.296875 226.769531 26.625 C 226.664062 26.953125 226.660156 27.28125 226.753906 27.609375 C 226.851562 27.941406 227.03125 28.214844 227.296875 28.433594 L 238.097656 37.34375 C 238.355469 37.550781 238.53125 37.808594 238.632812 38.117188 C 238.734375 38.425781 238.742188 38.742188 238.65625 39.054688 L 235.148438 52.621094 C 235.0625 52.953125 235.078125 53.28125 235.195312 53.605469 C 235.3125 53.929688 235.507812 54.191406 235.785156 54.394531 C 236.0625 54.597656 236.375 54.703125 236.71875 54.714844 C 237.0625 54.722656 237.378906 54.636719 237.667969 54.453125 L 249.472656 46.921875 C 249.746094 46.742188 250.046875 46.652344 250.371094 46.652344 C 250.695312 46.652344 250.996094 46.742188 251.269531 46.921875 L 263.074219 54.453125 C 263.367188 54.636719 263.683594 54.722656 264.023438 54.714844 C 264.367188 54.703125 264.679688 54.597656 264.957031 54.394531 C 265.234375 54.191406 265.433594 53.929688 265.546875 53.605469 C 265.664062 53.28125 265.679688 52.953125 265.59375 52.621094 L 262.082031 39.054688 C 261.996094 38.738281 262.003906 38.425781 262.105469 38.113281 C 262.207031 37.804688 262.382812 37.546875 262.636719 37.34375 L 273.441406 28.429688 C 273.707031 28.210938 273.886719 27.9375 273.984375 27.609375 C 274.078125 27.277344 274.074219 26.949219 273.96875 26.621094 C 273.863281 26.296875 273.671875 26.027344 273.402344 25.816406 C 273.128906 25.605469 272.824219 25.492188 272.480469 25.46875 L 258.503906 24.613281 C 258.179688 24.597656 257.882812 24.496094 257.621094 24.300781 C 257.355469 24.109375 257.167969 23.859375 257.050781 23.554688 Z M 36.25 205.097656 C 20.820312 208.878906 9.238281 222.8125 9.238281 239.320312 C 9.238281 240.464844 9.300781 241.605469 9.414062 242.746094 C 9.527344 243.882812 9.699219 245.015625 9.925781 246.136719 C 10.148438 247.257812 10.429688 248.367188 10.765625 249.460938 C 11.097656 250.554688 11.484375 251.632812 11.921875 252.6875 C 12.363281 253.746094 12.851562 254.777344 13.390625 255.785156 C 13.933594 256.792969 14.519531 257.773438 15.15625 258.726562 C 15.792969 259.675781 16.472656 260.59375 17.199219 261.480469 C 17.925781 262.363281 18.691406 263.210938 19.5 264.019531 C 20.308594 264.828125 21.15625 265.597656 22.039062 266.324219 C 22.921875 267.050781 23.839844 267.730469 24.789062 268.367188 C 25.738281 269.003906 26.71875 269.59375 27.726562 270.132812 C 28.734375 270.671875 29.765625 271.164062 30.820312 271.601562 C 31.875 272.042969 32.953125 272.429688 34.046875 272.761719 C 35.136719 273.097656 36.246094 273.378906 37.367188 273.601562 C 38.488281 273.828125 39.617188 274 40.753906 274.113281 C 41.890625 274.230469 43.03125 274.289062 44.175781 274.292969 L 137.566406 274.292969 C 138.710938 274.292969 139.851562 274.234375 140.992188 274.125 C 142.128906 274.011719 143.257812 273.84375 144.382812 273.621094 C 145.503906 273.398438 146.613281 273.117188 147.707031 272.785156 C 148.804688 272.453125 149.878906 272.066406 150.9375 271.628906 C 151.992188 271.191406 153.027344 270.703125 154.035156 270.164062 C 155.046875 269.621094 156.027344 269.035156 156.976562 268.398438 C 157.929688 267.761719 158.847656 267.082031 159.730469 266.355469 C 160.617188 265.628906 161.460938 264.859375 162.273438 264.050781 C 163.082031 263.238281 163.847656 262.390625 164.574219 261.507812 C 165.300781 260.621094 165.980469 259.703125 166.617188 258.75 C 167.253906 257.796875 167.839844 256.816406 168.378906 255.804688 C 168.917969 254.796875 169.40625 253.761719 169.84375 252.703125 C 170.285156 251.644531 170.667969 250.566406 171 249.472656 C 171.332031 248.375 171.609375 247.265625 171.832031 246.144531 C 172.058594 245.019531 172.226562 243.886719 172.335938 242.75 C 172.449219 241.609375 172.503906 240.464844 172.503906 239.320312 C 172.503906 238.175781 172.449219 237.03125 172.335938 235.894531 C 172.226562 234.753906 172.058594 233.621094 171.832031 232.496094 C 171.609375 231.375 171.332031 230.265625 171 229.167969 C 170.667969 228.074219 170.285156 226.996094 169.84375 225.9375 C 169.40625 224.878906 168.917969 223.84375 168.378906 222.835938 C 167.839844 221.824219 167.253906 220.84375 166.617188 219.890625 C 165.980469 218.9375 165.300781 218.019531 164.574219 217.132812 C 163.847656 216.25 163.082031 215.402344 162.273438 214.589844 C 161.460938 213.78125 160.617188 213.011719 159.730469 212.285156 C 158.847656 211.558594 157.929688 210.878906 156.976562 210.242188 C 156.027344 209.605469 155.046875 209.019531 154.035156 208.476562 C 153.027344 207.9375 151.992188 207.449219 150.9375 207.011719 C 149.878906 206.574219 148.804688 206.1875 147.707031 205.855469 C 146.613281 205.523438 145.503906 205.246094 144.382812 205.019531 C 143.257812 204.796875 142.128906 204.628906 140.992188 204.515625 C 139.851562 204.40625 138.710938 204.347656 137.566406 204.347656 L 119.507812 204.347656 C 119.488281 202.988281 119.402344 201.632812 119.25 200.28125 C 119.097656 198.929688 118.882812 197.589844 118.597656 196.257812 C 118.316406 194.925781 117.96875 193.613281 117.554688 192.316406 C 117.144531 191.019531 116.671875 189.746094 116.132812 188.496094 C 115.597656 187.246094 115.003906 186.027344 114.347656 184.835938 C 113.691406 183.644531 112.980469 182.488281 112.210938 181.367188 C 111.441406 180.242188 110.621094 179.164062 109.746094 178.121094 C 108.871094 177.078125 107.949219 176.085938 106.976562 175.132812 C 106.003906 174.183594 104.988281 173.28125 103.925781 172.429688 C 102.867188 171.578125 101.769531 170.78125 100.628906 170.039062 C 99.492188 169.296875 98.320312 168.609375 97.113281 167.980469 C 95.910156 167.351562 94.675781 166.785156 93.414062 166.277344 C 92.15625 165.769531 90.871094 165.324219 89.566406 164.941406 C 88.261719 164.5625 86.941406 164.242188 85.609375 163.992188 C 84.273438 163.738281 82.925781 163.550781 81.574219 163.429688 C 80.21875 163.3125 78.863281 163.257812 77.503906 163.269531 C 76.144531 163.28125 74.789062 163.359375 73.441406 163.503906 C 72.089844 163.648438 70.746094 163.859375 69.417969 164.136719 C 68.085938 164.414062 66.773438 164.753906 65.476562 165.160156 C 64.175781 165.566406 62.902344 166.03125 61.652344 166.5625 C 60.398438 167.09375 59.175781 167.683594 57.984375 168.332031 C 56.789062 168.984375 55.628906 169.691406 54.503906 170.453125 C 53.382812 171.21875 52.296875 172.035156 51.25 172.90625 C 50.207031 173.777344 49.207031 174.695312 48.253906 175.664062 C 47.296875 176.628906 46.394531 177.644531 45.535156 178.699219 C 44.679688 179.757812 43.878906 180.851562 43.128906 181.988281 C 42.382812 183.125 41.691406 184.292969 41.058594 185.496094 C 40.421875 186.699219 39.847656 187.929688 39.335938 189.191406 C 38.820312 190.449219 38.371094 191.730469 37.984375 193.035156 C 37.59375 194.339844 37.269531 195.65625 37.011719 196.992188 C 36.753906 198.328125 36.558594 199.671875 36.433594 201.027344 C 36.304688 202.382812 36.242188 203.738281 36.25 205.097656 Z M 36.25 205.097656 " fill-opacity="1" fill-rule="evenodd"/></g></svg>