<svg xmlns="http://www.w3.org/2000/svg" xmlns:xlink="http://www.w3.org/1999/xlink" width="378" zoomAndPan="magnify" viewBox="0 0 282.96 283.499989" height="378" preserveAspectRatio="xMidYMid meet" version="1.0"><defs><clipPath id="affb5767f2"><path d="M 47.699219 4.492188 L 235.621094 4.492188 L 235.621094 278.507812 L 47.699219 278.507812 Z M 47.699219 4.492188 " clip-rule="nonzero"/></clipPath></defs><g clip-path="url(#affb5767f2)"><path fill="#1d1d1b" d="M 145.996094 153.941406 C 145.804688 154.257812 145.332031 154.34375 145.140625 154.664062 C 144.425781 155.859375 145.933594 157.152344 147.296875 162.445312 C 150.820312 176.125 148.667969 184.398438 148.53125 185.070312 C 145.363281 200.371094 137.496094 207.074219 133.714844 213.277344 C 132.292969 215.609375 131.179688 213.734375 131.121094 213.355469 C 131.066406 212.988281 133.171875 204.554688 128.816406 195.367188 C 127.554688 192.703125 124.085938 188.359375 123.28125 187.605469 C 123.199219 187.527344 122.234375 186.625 122.214844 186.628906 C 121.835938 186.699219 121.589844 187.085938 121.242188 187.253906 C 121.046875 187.347656 120.703125 187.214844 120.605469 187.410156 C 120.550781 187.523438 121.273438 191.683594 120.363281 195.242188 C 117.96875 204.628906 112.730469 211.164062 110.269531 214.570312 C 95.089844 235.53125 98.855469 248.804688 100.78125 255.0625 C 101.792969 258.351562 104.644531 263.984375 106.398438 266.417969 C 109.085938 270.15625 109.636719 270.875 110.882812 272.140625 C 114.628906 275.945312 114.925781 275.605469 115.644531 276.433594 C 116.527344 277.441406 116.785156 277.902344 115.554688 278.449219 C 115.085938 278.65625 112.53125 277.542969 112.28125 277.433594 C 104.386719 273.988281 92.457031 270.25 78.648438 258.082031 C 49.195312 232.128906 48.5 201.320312 47.9375 194.0625 C 47.066406 182.761719 50.078125 165.980469 51.464844 161.382812 C 56.214844 145.671875 61.03125 131.101562 77.085938 113.757812 C 80.5625 110 80.34375 109.792969 80.722656 109.558594 C 83.238281 108 82.808594 110.367188 82.773438 110.550781 C 82.699219 110.96875 82.425781 111.328125 82.269531 111.722656 C 82.160156 111.992188 81.300781 114.109375 81.035156 115.136719 C 77.046875 130.503906 80.199219 147.601562 92 149.695312 C 107.175781 152.394531 111.121094 136.214844 111.492188 133.183594 C 112.390625 125.789062 110.449219 119.921875 110.359375 119.496094 C 108.371094 110.375 107.703125 110.570312 105.429688 101.535156 C 101.511719 85.933594 100.632812 79.898438 100.773438 68.792969 C 100.945312 55.375 106.371094 40 114.632812 29.402344 C 126.074219 14.730469 137.773438 8.25 141.679688 5.808594 C 143.484375 4.679688 144.171875 3.617188 144.972656 5.601562 C 145.070312 5.839844 144.089844 7.722656 143.996094 7.898438 C 143.054688 9.707031 140.582031 16.132812 140.351562 16.847656 C 134.195312 35.941406 137.414062 47.734375 137.765625 49.695312 C 141.710938 71.671875 154.925781 86.195312 155.722656 87.261719 C 160.921875 94.21875 166.835938 100.277344 169.929688 103.640625 C 171.4375 105.285156 172.210938 106.632812 172.320312 106.710938 C 172.414062 106.777344 173.230469 107.359375 173.773438 106.75 C 174.191406 106.277344 173.941406 103.996094 173.917969 103.757812 C 173.273438 97.855469 174.058594 88.855469 175.324219 84.566406 C 178.445312 73.980469 178.890625 74.144531 182.179688 68.777344 C 183.914062 65.945312 190.667969 59.398438 193.539062 57.613281 C 193.695312 57.519531 195.097656 56.648438 195.8125 57.46875 C 196.707031 58.492188 193.15625 62.933594 194.164062 77.855469 C 195.253906 94.019531 207.722656 114.972656 211.097656 120.984375 C 221.636719 139.777344 222.402344 141.242188 223.335938 143.03125 C 227.878906 151.734375 227.75 151.777344 229.894531 157.851562 C 230.871094 160.613281 236.621094 176.910156 235.476562 194.074219 C 233.832031 218.769531 226.007812 230.921875 223.566406 235.597656 C 222.273438 238.074219 216.917969 246.074219 213.894531 249.4375 C 208.832031 255.066406 204.464844 258.695312 203.582031 259.429688 C 195.519531 266.136719 192.410156 267.53125 190.285156 268.839844 C 183.15625 273.238281 168.890625 278.414062 168.738281 278.367188 C 168.378906 278.253906 167.84375 277.0625 168.003906 276.699219 C 168.007812 276.691406 170.828125 274.683594 172.707031 272.699219 C 174.273438 271.042969 178.785156 265.148438 180.019531 262.941406 C 180.335938 262.378906 183.808594 256.164062 183.949219 255.867188 C 187.660156 247.84375 188.445312 239.507812 188.582031 238.042969 C 190.089844 222.0625 182.910156 201.074219 178.519531 193.097656 C 171.09375 179.601562 168.390625 175.609375 157.050781 163.910156 C 153.855469 160.613281 148.84375 156.570312 147.433594 155.1875 C 146.757812 154.511719 146.734375 154.574219 145.996094 153.941406 Z M 145.996094 153.941406 " fill-opacity="1" fill-rule="evenodd"/></g></svg>