<svg xmlns="http://www.w3.org/2000/svg" xmlns:xlink="http://www.w3.org/1999/xlink" width="378" zoomAndPan="magnify" viewBox="0 0 282.96 283.499989" height="378" preserveAspectRatio="xMidYMid meet" version="1.0"><defs><clipPath id="fcc47dfd7d"><path d="M 102.875 84.890625 L 180.738281 84.890625 L 180.738281 197.941406 L 102.875 197.941406 Z M 102.875 84.890625 " clip-rule="nonzero"/></clipPath></defs><g clip-path="url(#fcc47dfd7d)"><path fill="#1d1d1b" d="M 143.480469 146.625 C 143.398438 146.757812 143.203125 146.792969 143.125 146.925781 C 142.828125 147.417969 143.453125 147.953125 144.015625 150.140625 C 145.472656 155.789062 144.582031 159.207031 144.523438 159.484375 C 143.214844 165.804688 139.964844 168.574219 138.40625 171.136719 C 137.816406 172.101562 137.359375 171.324219 137.332031 171.167969 C 137.3125 171.019531 138.179688 167.535156 136.382812 163.738281 C 135.859375 162.640625 134.425781 160.84375 134.09375 160.53125 C 134.0625 160.5 133.660156 160.128906 133.65625 160.128906 C 133.5 160.15625 133.394531 160.316406 133.253906 160.386719 C 133.171875 160.425781 133.03125 160.371094 132.988281 160.453125 C 132.964844 160.5 133.265625 162.21875 132.890625 163.6875 C 131.902344 167.566406 129.738281 170.265625 128.71875 171.671875 C 122.449219 180.332031 124.003906 185.8125 124.800781 188.398438 C 125.21875 189.757812 126.398438 192.082031 127.121094 193.089844 C 128.230469 194.632812 128.460938 194.929688 128.972656 195.453125 C 130.519531 197.023438 130.644531 196.886719 130.941406 197.226562 C 131.304688 197.644531 131.410156 197.832031 130.902344 198.058594 C 130.710938 198.144531 129.65625 197.683594 129.550781 197.640625 C 126.289062 196.214844 121.363281 194.671875 115.660156 189.648438 C 103.492188 178.925781 103.203125 166.199219 102.972656 163.199219 C 102.609375 158.53125 103.855469 151.601562 104.429688 149.699219 C 106.390625 143.210938 108.378906 137.191406 115.011719 130.027344 C 116.449219 128.472656 116.359375 128.390625 116.515625 128.292969 C 117.554688 127.648438 117.375 128.625 117.363281 128.703125 C 117.332031 128.875 117.21875 129.023438 117.152344 129.1875 C 117.109375 129.296875 116.753906 130.171875 116.644531 130.597656 C 114.996094 136.945312 116.296875 144.007812 121.171875 144.875 C 127.441406 145.988281 129.074219 139.304688 129.226562 138.050781 C 129.597656 134.996094 128.796875 132.574219 128.757812 132.398438 C 127.933594 128.628906 127.660156 128.710938 126.722656 124.976562 C 125.101562 118.53125 124.738281 116.039062 124.796875 111.453125 C 124.867188 105.910156 127.109375 99.558594 130.523438 95.179688 C 135.25 89.121094 140.082031 86.441406 141.695312 85.433594 C 142.441406 84.96875 142.722656 84.53125 143.054688 85.347656 C 143.097656 85.445312 142.691406 86.226562 142.652344 86.296875 C 142.261719 87.042969 141.242188 89.699219 141.144531 89.996094 C 138.601562 97.882812 139.933594 102.753906 140.078125 103.5625 C 141.707031 112.640625 147.167969 118.640625 147.496094 119.082031 C 149.644531 121.957031 152.085938 124.457031 153.363281 125.847656 C 153.988281 126.527344 154.308594 127.082031 154.351562 127.117188 C 154.390625 127.144531 154.730469 127.382812 154.953125 127.132812 C 155.125 126.9375 155.023438 125.996094 155.011719 125.898438 C 154.746094 123.457031 155.070312 119.738281 155.59375 117.96875 C 156.882812 113.59375 157.066406 113.664062 158.425781 111.445312 C 159.140625 110.277344 161.929688 107.570312 163.117188 106.835938 C 163.183594 106.792969 163.761719 106.433594 164.058594 106.773438 C 164.425781 107.195312 162.960938 109.03125 163.375 115.195312 C 163.828125 121.871094 168.976562 130.527344 170.371094 133.011719 C 174.726562 140.777344 175.039062 141.382812 175.425781 142.121094 C 177.304688 145.714844 177.25 145.734375 178.136719 148.242188 C 178.539062 149.382812 180.914062 156.113281 180.441406 163.203125 C 179.761719 173.40625 176.53125 178.425781 175.523438 180.359375 C 174.988281 181.378906 172.773438 184.683594 171.527344 186.074219 C 169.433594 188.398438 167.632812 189.898438 167.265625 190.203125 C 163.9375 192.972656 162.652344 193.546875 161.773438 194.089844 C 158.828125 195.90625 152.9375 198.046875 152.871094 198.027344 C 152.726562 197.980469 152.503906 197.488281 152.570312 197.335938 C 152.570312 197.332031 153.738281 196.503906 154.511719 195.683594 C 155.160156 195 157.023438 192.566406 157.53125 191.652344 C 157.664062 191.421875 159.097656 188.851562 159.15625 188.730469 C 160.6875 185.414062 161.015625 181.972656 161.070312 181.367188 C 161.691406 174.765625 158.726562 166.097656 156.914062 162.800781 C 153.847656 157.226562 152.730469 155.578125 148.046875 150.746094 C 146.722656 149.382812 144.65625 147.710938 144.074219 147.140625 C 143.792969 146.863281 143.785156 146.886719 143.480469 146.625 Z M 143.480469 146.625 " fill-opacity="1" fill-rule="evenodd"/></g></svg>