<svg xmlns="http://www.w3.org/2000/svg" xmlns:xlink="http://www.w3.org/1999/xlink" width="378" zoomAndPan="magnify" viewBox="0 0 282.96 283.499989" height="378" preserveAspectRatio="xMidYMid meet" version="1.0"><defs><clipPath id="21453098d0"><path d="M 85.117188 94.933594 L 198.167969 94.933594 L 198.167969 187.769531 L 85.117188 187.769531 Z M 85.117188 94.933594 " clip-rule="nonzero"/></clipPath></defs><g clip-path="url(#21453098d0)"><path fill="#000000" d="M 176.5625 158.804688 C 177.15625 159.484375 177.644531 160.234375 178.023438 161.054688 C 178.402344 161.875 178.660156 162.730469 178.792969 163.625 C 178.921875 164.515625 178.925781 165.410156 178.800781 166.304688 C 178.675781 167.199219 178.425781 168.058594 178.050781 168.878906 C 177.675781 169.703125 177.195312 170.457031 176.601562 171.140625 C 176.011719 171.824219 175.335938 172.410156 174.574219 172.898438 C 173.816406 173.386719 173 173.761719 172.132812 174.015625 C 171.265625 174.269531 170.378906 174.398438 169.476562 174.398438 L 113.8125 174.398438 C 112.910156 174.398438 112.023438 174.269531 111.15625 174.015625 C 110.289062 173.761719 109.472656 173.386719 108.714844 172.898438 C 107.953125 172.410156 107.277344 171.824219 106.6875 171.140625 C 106.09375 170.457031 105.613281 169.703125 105.238281 168.878906 C 104.863281 168.058594 104.613281 167.199219 104.488281 166.304688 C 104.363281 165.410156 104.367188 164.515625 104.496094 163.625 C 104.628906 162.730469 104.886719 161.875 105.265625 161.054688 C 105.644531 160.234375 106.132812 159.484375 106.726562 158.804688 C 108.167969 157.160156 109.449219 155.402344 110.570312 153.53125 C 111.691406 151.65625 112.636719 149.699219 113.40625 147.65625 C 114.175781 145.613281 114.753906 143.515625 115.144531 141.367188 C 115.535156 139.222656 115.730469 137.054688 115.730469 134.871094 L 115.730469 125.890625 C 115.734375 125.082031 115.769531 124.273438 115.847656 123.46875 C 115.921875 122.664062 116.039062 121.863281 116.1875 121.070312 C 116.339844 120.273438 116.527344 119.488281 116.753906 118.710938 C 116.980469 117.933594 117.242188 117.167969 117.539062 116.414062 C 117.835938 115.664062 118.167969 114.925781 118.535156 114.203125 C 118.902344 113.484375 119.300781 112.78125 119.734375 112.097656 C 120.167969 111.410156 120.632812 110.75 121.128906 110.109375 C 121.621094 109.46875 122.144531 108.851562 122.699219 108.261719 C 123.253906 107.667969 123.832031 107.105469 124.4375 106.566406 C 125.042969 106.03125 125.675781 105.523438 126.328125 105.046875 C 126.984375 104.566406 127.65625 104.121094 128.355469 103.707031 C 129.050781 103.292969 129.761719 102.910156 130.496094 102.5625 C 131.226562 102.214844 131.972656 101.902344 132.734375 101.625 C 133.496094 101.34375 134.269531 101.105469 135.050781 100.898438 C 135.835938 100.691406 136.628906 100.523438 137.429688 100.394531 C 138.226562 100.261719 139.03125 100.167969 139.839844 100.113281 C 139.839844 100.082031 139.820312 100.054688 139.820312 100.023438 L 139.820312 96.789062 C 139.820312 96.546875 139.867188 96.316406 139.960938 96.09375 C 140.054688 95.871094 140.183594 95.671875 140.355469 95.503906 C 140.527344 95.332031 140.722656 95.199219 140.945312 95.109375 C 141.171875 95.015625 141.402344 94.96875 141.644531 94.96875 C 141.886719 94.96875 142.117188 95.015625 142.339844 95.109375 C 142.566406 95.199219 142.761719 95.332031 142.933594 95.503906 C 143.101562 95.671875 143.234375 95.871094 143.328125 96.09375 C 143.417969 96.316406 143.464844 96.546875 143.464844 96.789062 L 143.464844 100.023438 C 143.464844 100.054688 143.449219 100.082031 143.449219 100.113281 C 144.257812 100.167969 145.058594 100.261719 145.859375 100.394531 C 146.660156 100.523438 147.453125 100.695312 148.234375 100.898438 C 149.019531 101.105469 149.792969 101.347656 150.554688 101.625 C 151.316406 101.902344 152.0625 102.214844 152.792969 102.5625 C 153.523438 102.910156 154.238281 103.292969 154.933594 103.707031 C 155.628906 104.121094 156.304688 104.566406 156.960938 105.046875 C 157.613281 105.523438 158.242188 106.03125 158.847656 106.566406 C 159.457031 107.105469 160.035156 107.667969 160.589844 108.261719 C 161.140625 108.851562 161.664062 109.46875 162.160156 110.109375 C 162.65625 110.75 163.121094 111.410156 163.554688 112.097656 C 163.984375 112.78125 164.386719 113.484375 164.753906 114.203125 C 165.121094 114.925781 165.453125 115.664062 165.75 116.414062 C 166.046875 117.167969 166.308594 117.933594 166.535156 118.710938 C 166.757812 119.488281 166.949219 120.273438 167.097656 121.070312 C 167.25 121.863281 167.363281 122.664062 167.441406 123.46875 C 167.515625 124.273438 167.554688 125.082031 167.554688 125.890625 L 167.554688 134.871094 C 167.554688 137.054688 167.75 139.222656 168.140625 141.367188 C 168.53125 143.515625 169.113281 145.613281 169.882812 147.65625 C 170.652344 149.699219 171.597656 151.65625 172.71875 153.53125 C 173.839844 155.402344 175.121094 157.160156 176.5625 158.804688 Z M 108.15625 117.765625 C 107.964844 117.617188 107.753906 117.511719 107.519531 117.449219 C 107.285156 117.382812 107.050781 117.367188 106.808594 117.398438 C 106.570312 117.429688 106.347656 117.503906 106.136719 117.621094 C 105.925781 117.742188 105.746094 117.898438 105.597656 118.089844 C 103.121094 121.277344 101.109375 124.734375 99.558594 128.460938 C 98.007812 132.1875 96.976562 136.054688 96.464844 140.058594 C 96.433594 140.296875 96.453125 140.53125 96.515625 140.765625 C 96.578125 140.996094 96.683594 141.210938 96.832031 141.402344 C 96.980469 141.589844 97.160156 141.746094 97.367188 141.867188 C 97.578125 141.984375 97.804688 142.0625 98.042969 142.089844 C 98.121094 142.101562 98.199219 142.105469 98.277344 142.105469 C 98.496094 142.105469 98.710938 142.066406 98.917969 141.988281 C 99.125 141.910156 99.3125 141.796875 99.480469 141.652344 C 99.644531 141.503906 99.78125 141.335938 99.882812 141.140625 C 99.988281 140.945312 100.054688 140.734375 100.082031 140.515625 C 100.550781 136.835938 101.5 133.28125 102.925781 129.855469 C 104.347656 126.429688 106.199219 123.25 108.476562 120.316406 C 108.625 120.125 108.730469 119.914062 108.796875 119.683594 C 108.859375 119.449219 108.875 119.214844 108.847656 118.976562 C 108.816406 118.734375 108.742188 118.511719 108.621094 118.300781 C 108.5 118.09375 108.347656 117.914062 108.15625 117.765625 Z M 104.285156 106.027344 C 104.113281 105.859375 103.917969 105.726562 103.691406 105.632812 C 103.46875 105.542969 103.238281 105.496094 102.996094 105.496094 C 102.753906 105.496094 102.523438 105.542969 102.296875 105.632812 C 102.074219 105.726562 101.878906 105.859375 101.707031 106.027344 C 99.078125 108.640625 96.730469 111.484375 94.664062 114.5625 C 92.597656 117.636719 90.855469 120.886719 89.4375 124.308594 C 88.015625 127.730469 86.945312 131.261719 86.226562 134.894531 C 85.507812 138.527344 85.15625 142.195312 85.164062 145.902344 C 85.164062 146.140625 85.210938 146.375 85.304688 146.597656 C 85.394531 146.820312 85.527344 147.015625 85.699219 147.1875 C 85.867188 147.355469 86.066406 147.488281 86.289062 147.582031 C 86.511719 147.671875 86.746094 147.71875 86.984375 147.71875 C 87.226562 147.71875 87.460938 147.671875 87.683594 147.582031 C 87.90625 147.488281 88.105469 147.355469 88.273438 147.1875 C 88.445312 147.015625 88.578125 146.820312 88.667969 146.597656 C 88.761719 146.375 88.808594 146.140625 88.808594 145.902344 C 88.796875 142.433594 89.128906 139.003906 89.804688 135.605469 C 90.476562 132.203125 91.476562 128.902344 92.804688 125.703125 C 94.132812 122.5 95.761719 119.460938 97.695312 116.582031 C 99.625 113.703125 101.820312 111.042969 104.28125 108.601562 C 104.453125 108.429688 104.585938 108.234375 104.679688 108.011719 C 104.769531 107.789062 104.816406 107.554688 104.816406 107.3125 C 104.816406 107.074219 104.769531 106.839844 104.679688 106.617188 C 104.585938 106.394531 104.453125 106.199219 104.28125 106.027344 Z M 175.132812 117.765625 C 174.941406 117.914062 174.789062 118.09375 174.667969 118.300781 C 174.546875 118.511719 174.472656 118.734375 174.445312 118.976562 C 174.414062 119.214844 174.429688 119.449219 174.492188 119.683594 C 174.558594 119.914062 174.664062 120.128906 174.8125 120.316406 C 177.089844 123.25 178.941406 126.429688 180.363281 129.855469 C 181.789062 133.28125 182.738281 136.835938 183.207031 140.515625 C 183.234375 140.738281 183.300781 140.945312 183.40625 141.140625 C 183.507812 141.335938 183.644531 141.503906 183.8125 141.652344 C 183.976562 141.796875 184.164062 141.910156 184.371094 141.988281 C 184.578125 142.066406 184.792969 142.105469 185.011719 142.105469 C 185.089844 142.105469 185.167969 142.101562 185.246094 142.09375 C 185.484375 142.0625 185.710938 141.988281 185.921875 141.867188 C 186.128906 141.746094 186.308594 141.589844 186.457031 141.402344 C 186.605469 141.210938 186.710938 141 186.773438 140.765625 C 186.835938 140.53125 186.855469 140.296875 186.824219 140.058594 C 186.3125 136.054688 185.28125 132.1875 183.730469 128.460938 C 182.179688 124.734375 180.167969 121.277344 177.6875 118.089844 C 177.539062 117.898438 177.363281 117.742188 177.152344 117.621094 C 176.941406 117.503906 176.71875 117.429688 176.476562 117.398438 C 176.238281 117.367188 176 117.382812 175.769531 117.449219 C 175.535156 117.511719 175.324219 117.617188 175.132812 117.765625 Z M 181.582031 106.027344 C 181.410156 105.863281 181.214844 105.734375 180.992188 105.648438 C 180.769531 105.558594 180.539062 105.515625 180.300781 105.519531 C 180.0625 105.519531 179.832031 105.566406 179.613281 105.660156 C 179.390625 105.75 179.199219 105.882812 179.027344 106.050781 C 178.859375 106.21875 178.730469 106.414062 178.636719 106.632812 C 178.542969 106.851562 178.496094 107.082031 178.496094 107.320312 C 178.492188 107.558594 178.535156 107.789062 178.625 108.011719 C 178.714844 108.230469 178.839844 108.429688 179.007812 108.601562 C 181.46875 111.042969 183.664062 113.703125 185.59375 116.582031 C 187.527344 119.460938 189.15625 122.5 190.484375 125.703125 C 191.8125 128.90625 192.8125 132.203125 193.484375 135.605469 C 194.15625 139.003906 194.488281 142.433594 194.480469 145.902344 C 194.480469 146.140625 194.527344 146.375 194.617188 146.597656 C 194.710938 146.820312 194.84375 147.015625 195.011719 147.1875 C 195.183594 147.355469 195.382812 147.488281 195.605469 147.582031 C 195.828125 147.671875 196.058594 147.71875 196.300781 147.71875 C 196.542969 147.71875 196.777344 147.671875 197 147.582031 C 197.222656 147.488281 197.417969 147.355469 197.589844 147.1875 C 197.761719 147.015625 197.894531 146.820312 197.984375 146.597656 C 198.078125 146.375 198.125 146.140625 198.125 145.902344 C 198.132812 142.195312 197.78125 138.527344 197.0625 134.894531 C 196.34375 131.261719 195.273438 127.730469 193.851562 124.308594 C 192.433594 120.886719 190.691406 117.636719 188.625 114.5625 C 186.558594 111.484375 184.210938 108.640625 181.582031 106.027344 Z M 143.261719 187.738281 C 143.976562 187.734375 144.683594 187.675781 145.386719 187.558594 C 146.089844 187.441406 146.777344 187.269531 147.453125 187.039062 C 148.128906 186.808594 148.777344 186.523438 149.40625 186.1875 C 150.03125 185.847656 150.628906 185.460938 151.191406 185.023438 C 151.753906 184.589844 152.277344 184.109375 152.761719 183.585938 C 153.246094 183.066406 153.683594 182.507812 154.074219 181.910156 C 154.464844 181.316406 154.804688 180.695312 155.09375 180.042969 C 155.382812 179.394531 155.617188 178.722656 155.796875 178.035156 L 130.730469 178.035156 C 130.910156 178.722656 131.144531 179.394531 131.433594 180.042969 C 131.71875 180.695312 132.0625 181.316406 132.453125 181.910156 C 132.84375 182.507812 133.28125 183.066406 133.765625 183.585938 C 134.25 184.109375 134.773438 184.589844 135.335938 185.023438 C 135.898438 185.460938 136.496094 185.847656 137.121094 186.1875 C 137.75 186.523438 138.398438 186.808594 139.074219 187.039062 C 139.75 187.269531 140.4375 187.441406 141.140625 187.558594 C 141.84375 187.675781 142.550781 187.734375 143.261719 187.738281 Z M 143.261719 187.738281 " fill-opacity="1" fill-rule="nonzero"/></g></svg>