<svg xmlns="http://www.w3.org/2000/svg" xmlns:xlink="http://www.w3.org/1999/xlink" width="378" zoomAndPan="magnify" viewBox="0 0 282.96 283.499989" height="378" preserveAspectRatio="xMidYMid meet" version="1.0"><defs><clipPath id="bbe05cf956"><path d="M 0.230469 9 L 282.691406 9 L 282.691406 269.523438 L 0.230469 269.523438 Z M 0.230469 9 " clip-rule="nonzero"/></clipPath></defs><g clip-path="url(#bbe05cf956)"><path fill="#000000" d="M 239.558594 188.230469 C 240.390625 189.179688 241.148438 190.183594 241.835938 191.238281 C 242.519531 192.296875 243.128906 193.398438 243.65625 194.542969 C 244.1875 195.6875 244.628906 196.863281 244.988281 198.074219 C 245.351562 199.28125 245.621094 200.507812 245.804688 201.757812 C 245.988281 203.003906 246.082031 204.257812 246.089844 205.519531 C 246.09375 206.78125 246.007812 208.035156 245.832031 209.285156 C 245.65625 210.53125 245.390625 211.761719 245.039062 212.972656 C 244.6875 214.183594 244.25 215.363281 243.730469 216.511719 C 243.210938 217.660156 242.609375 218.765625 241.929688 219.828125 C 241.25 220.890625 240.5 221.898438 239.675781 222.851562 C 238.851562 223.804688 237.964844 224.695312 237.011719 225.523438 C 236.0625 226.351562 235.054688 227.105469 233.996094 227.789062 C 232.9375 228.472656 231.832031 229.074219 230.6875 229.601562 C 229.542969 230.125 228.363281 230.566406 227.15625 230.921875 C 225.945312 231.277344 224.714844 231.546875 223.46875 231.726562 C 222.222656 231.90625 220.96875 231.996094 219.707031 231.996094 L 63.78125 231.996094 C 62.523438 231.996094 61.269531 231.90625 60.019531 231.726562 C 58.773438 231.546875 57.542969 231.277344 56.335938 230.921875 C 55.125 230.566406 53.949219 230.125 52.800781 229.601562 C 51.65625 229.074219 50.550781 228.472656 49.492188 227.789062 C 48.433594 227.105469 47.425781 226.351562 46.476562 225.523438 C 45.523438 224.695312 44.636719 223.804688 43.8125 222.851562 C 42.988281 221.898438 42.238281 220.890625 41.558594 219.828125 C 40.878906 218.765625 40.277344 217.660156 39.757812 216.511719 C 39.238281 215.363281 38.800781 214.183594 38.449219 212.972656 C 38.097656 211.761719 37.832031 210.53125 37.65625 209.285156 C 37.480469 208.035156 37.398438 206.78125 37.402344 205.519531 C 37.40625 204.257812 37.5 203.003906 37.683594 201.757812 C 37.867188 200.507812 38.140625 199.28125 38.5 198.074219 C 38.859375 196.863281 39.304688 195.6875 39.832031 194.542969 C 40.359375 193.398438 40.96875 192.296875 41.652344 191.238281 C 42.339844 190.183594 43.097656 189.179688 43.929688 188.230469 C 47.960938 183.621094 51.550781 178.683594 54.695312 173.425781 C 57.839844 168.171875 60.488281 162.675781 62.640625 156.9375 C 64.796875 151.203125 66.417969 145.324219 67.515625 139.296875 C 68.609375 133.269531 69.15625 127.191406 69.15625 121.0625 L 69.15625 95.859375 C 69.15625 93.585938 69.265625 91.320312 69.476562 89.058594 C 69.691406 86.796875 70.011719 84.550781 70.433594 82.320312 C 70.859375 80.089844 71.386719 77.882812 72.019531 75.703125 C 72.652344 73.523438 73.382812 71.375 74.21875 69.261719 C 75.050781 67.148438 75.980469 65.082031 77.007812 63.054688 C 78.035156 61.03125 79.15625 59.058594 80.367188 57.136719 C 81.582031 55.21875 82.882812 53.359375 84.269531 51.558594 C 85.65625 49.761719 87.125 48.035156 88.671875 46.375 C 90.222656 44.714844 91.847656 43.128906 93.546875 41.621094 C 95.242188 40.113281 97.007812 38.691406 98.839844 37.347656 C 100.671875 36.007812 102.5625 34.753906 104.511719 33.589844 C 106.460938 32.425781 108.460938 31.355469 110.511719 30.378906 C 112.5625 29.402344 114.652344 28.523438 116.785156 27.746094 C 118.917969 26.964844 121.082031 26.285156 123.277344 25.710938 C 125.472656 25.132812 127.691406 24.660156 129.933594 24.292969 C 132.171875 23.925781 134.425781 23.664062 136.691406 23.507812 C 136.6875 23.417969 136.640625 23.339844 136.640625 23.25 L 136.640625 14.175781 C 136.640625 13.839844 136.671875 13.507812 136.738281 13.179688 C 136.804688 12.851562 136.898438 12.53125 137.027344 12.222656 C 137.15625 11.910156 137.3125 11.617188 137.5 11.339844 C 137.6875 11.058594 137.898438 10.800781 138.132812 10.566406 C 138.371094 10.328125 138.628906 10.117188 138.90625 9.929688 C 139.1875 9.742188 139.480469 9.585938 139.789062 9.457031 C 140.101562 9.332031 140.417969 9.234375 140.746094 9.167969 C 141.074219 9.101562 141.40625 9.070312 141.742188 9.070312 C 142.078125 9.070312 142.410156 9.101562 142.738281 9.167969 C 143.066406 9.234375 143.386719 9.332031 143.695312 9.457031 C 144.007812 9.585938 144.300781 9.742188 144.578125 9.929688 C 144.855469 10.117188 145.113281 10.328125 145.351562 10.566406 C 145.589844 10.800781 145.800781 11.058594 145.988281 11.339844 C 146.171875 11.617188 146.332031 11.910156 146.457031 12.222656 C 146.585938 12.53125 146.683594 12.851562 146.75 13.179688 C 146.8125 13.507812 146.847656 13.839844 146.847656 14.175781 L 146.847656 23.25 C 146.847656 23.339844 146.800781 23.417969 146.796875 23.507812 C 149.058594 23.664062 151.3125 23.925781 153.554688 24.292969 C 155.792969 24.664062 158.011719 25.132812 160.207031 25.710938 C 162.40625 26.289062 164.570312 26.964844 166.699219 27.746094 C 168.832031 28.527344 170.925781 29.402344 172.976562 30.378906 C 175.023438 31.355469 177.023438 32.425781 178.972656 33.589844 C 180.921875 34.753906 182.8125 36.007812 184.644531 37.347656 C 186.476562 38.691406 188.242188 40.117188 189.941406 41.621094 C 191.640625 43.128906 193.261719 44.714844 194.8125 46.375 C 196.363281 48.035156 197.832031 49.761719 199.21875 51.5625 C 200.605469 53.359375 201.90625 55.21875 203.117188 57.136719 C 204.332031 59.058594 205.449219 61.03125 206.476562 63.054688 C 207.503906 65.082031 208.4375 67.148438 209.269531 69.261719 C 210.101562 71.375 210.835938 73.523438 211.464844 75.703125 C 212.097656 77.882812 212.625 80.089844 213.050781 82.320312 C 213.476562 84.550781 213.792969 86.796875 214.007812 89.058594 C 214.222656 91.320312 214.328125 93.585938 214.332031 95.859375 L 214.332031 121.0625 C 214.332031 127.191406 214.878906 133.269531 215.972656 139.296875 C 217.066406 145.324219 218.691406 151.203125 220.847656 156.9375 C 223 162.675781 225.648438 168.171875 228.792969 173.429688 C 231.9375 178.683594 235.527344 183.621094 239.558594 188.230469 Z M 47.929688 73.050781 C 47.667969 72.847656 47.382812 72.667969 47.085938 72.519531 C 46.785156 72.367188 46.472656 72.25 46.148438 72.160156 C 45.828125 72.070312 45.496094 72.015625 45.164062 71.992188 C 44.828125 71.96875 44.496094 71.976562 44.164062 72.019531 C 43.832031 72.0625 43.503906 72.136719 43.1875 72.242188 C 42.871094 72.347656 42.566406 72.484375 42.273438 72.648438 C 41.984375 72.816406 41.710938 73.007812 41.457031 73.230469 C 41.203125 73.449219 40.976562 73.691406 40.769531 73.957031 C 37.316406 78.410156 34.171875 83.074219 31.339844 87.949219 C 28.507812 92.824219 26.011719 97.863281 23.847656 103.070312 C 21.6875 108.277344 19.882812 113.605469 18.433594 119.054688 C 16.980469 124.5 15.898438 130.023438 15.183594 135.613281 C 15.140625 135.945312 15.132812 136.28125 15.15625 136.613281 C 15.179688 136.949219 15.234375 137.277344 15.324219 137.601562 C 15.410156 137.925781 15.53125 138.238281 15.679688 138.539062 C 15.828125 138.835938 16.007812 139.121094 16.210938 139.386719 C 16.417969 139.648438 16.644531 139.894531 16.898438 140.113281 C 17.152344 140.332031 17.421875 140.527344 17.714844 140.691406 C 18.003906 140.859375 18.308594 140.996094 18.628906 141.101562 C 18.945312 141.207031 19.269531 141.28125 19.601562 141.324219 C 19.820312 141.351562 20.039062 141.363281 20.257812 141.363281 C 20.875 141.363281 21.476562 141.253906 22.058594 141.035156 C 22.636719 140.8125 23.160156 140.5 23.625 140.089844 C 24.089844 139.679688 24.46875 139.199219 24.757812 138.652344 C 25.050781 138.101562 25.234375 137.519531 25.3125 136.90625 C 25.96875 131.761719 26.964844 126.6875 28.296875 121.679688 C 29.632812 116.667969 31.292969 111.769531 33.277344 106.984375 C 35.265625 102.195312 37.558594 97.558594 40.164062 93.078125 C 42.769531 88.597656 45.660156 84.308594 48.835938 80.210938 C 49.039062 79.949219 49.21875 79.664062 49.367188 79.367188 C 49.515625 79.066406 49.636719 78.753906 49.726562 78.429688 C 49.8125 78.109375 49.867188 77.777344 49.890625 77.445312 C 49.917969 77.109375 49.90625 76.777344 49.863281 76.445312 C 49.824219 76.113281 49.75 75.785156 49.644531 75.46875 C 49.535156 75.152344 49.402344 74.847656 49.234375 74.554688 C 49.070312 74.265625 48.875 73.992188 48.65625 73.738281 C 48.4375 73.488281 48.195312 73.257812 47.929688 73.050781 Z M 37.085938 40.109375 C 36.847656 39.871094 36.589844 39.660156 36.3125 39.472656 C 36.03125 39.285156 35.738281 39.128906 35.429688 39 C 35.121094 38.871094 34.800781 38.777344 34.472656 38.710938 C 34.144531 38.644531 33.8125 38.613281 33.476562 38.613281 C 33.140625 38.613281 32.808594 38.644531 32.480469 38.710938 C 32.152344 38.777344 31.832031 38.871094 31.523438 39 C 31.214844 39.128906 30.921875 39.285156 30.640625 39.472656 C 30.363281 39.660156 30.105469 39.871094 29.867188 40.109375 C 26.191406 43.765625 22.707031 47.59375 19.410156 51.59375 C 16.113281 55.597656 13.023438 59.75 10.136719 64.058594 C 7.25 68.363281 4.582031 72.804688 2.136719 77.375 C -0.308594 81.945312 -2.527344 86.628906 -4.507812 91.417969 C -6.492188 96.207031 -8.234375 101.085938 -9.738281 106.046875 C -11.238281 111.011719 -12.492188 116.035156 -13.496094 121.121094 C -14.5 126.210938 -15.25 131.332031 -15.75 136.496094 C -16.246094 141.65625 -16.488281 146.828125 -16.476562 152.015625 C -16.476562 152.351562 -16.441406 152.679688 -16.375 153.011719 C -16.3125 153.339844 -16.214844 153.660156 -16.085938 153.96875 C -15.957031 154.277344 -15.800781 154.570312 -15.613281 154.851562 C -15.429688 155.128906 -15.21875 155.386719 -14.980469 155.625 C -14.742188 155.863281 -14.484375 156.074219 -14.207031 156.257812 C -13.929688 156.445312 -13.632812 156.601562 -13.324219 156.730469 C -13.015625 156.859375 -12.695312 156.957031 -12.367188 157.023438 C -12.039062 157.085938 -11.707031 157.121094 -11.371094 157.121094 C -11.035156 157.121094 -10.703125 157.085938 -10.375 157.023438 C -10.046875 156.957031 -9.726562 156.859375 -9.417969 156.730469 C -9.109375 156.601562 -8.8125 156.445312 -8.535156 156.257812 C -8.257812 156.074219 -8 155.863281 -7.761719 155.625 C -7.523438 155.386719 -7.3125 155.128906 -7.128906 154.851562 C -6.941406 154.570312 -6.785156 154.277344 -6.65625 153.96875 C -6.527344 153.660156 -6.429688 153.339844 -6.367188 153.011719 C -6.300781 152.679688 -6.265625 152.351562 -6.265625 152.015625 C -6.28125 147.164062 -6.054688 142.324219 -5.589844 137.496094 C -5.125 132.667969 -4.421875 127.875 -3.480469 123.117188 C -2.542969 118.355469 -1.371094 113.65625 0.0351562 109.011719 C 1.441406 104.371094 3.070312 99.808594 4.925781 95.328125 C 6.78125 90.847656 8.851562 86.46875 11.140625 82.191406 C 13.429688 77.914062 15.925781 73.761719 18.625 69.730469 C 21.324219 65.703125 24.214844 61.816406 27.300781 58.074219 C 30.382812 54.328125 33.644531 50.746094 37.082031 47.324219 C 37.320312 47.089844 37.53125 46.832031 37.71875 46.550781 C 37.902344 46.273438 38.058594 45.980469 38.1875 45.671875 C 38.316406 45.359375 38.414062 45.042969 38.480469 44.710938 C 38.542969 44.382812 38.578125 44.050781 38.578125 43.714844 C 38.578125 43.382812 38.542969 43.050781 38.480469 42.722656 C 38.414062 42.390625 38.316406 42.074219 38.1875 41.761719 C 38.058594 41.453125 37.902344 41.160156 37.71875 40.882812 C 37.53125 40.601562 37.320312 40.34375 37.082031 40.109375 Z M 235.558594 73.050781 C 235.292969 73.257812 235.050781 73.488281 234.832031 73.738281 C 234.613281 73.992188 234.421875 74.265625 234.253906 74.554688 C 234.089844 74.847656 233.953125 75.152344 233.847656 75.46875 C 233.742188 75.789062 233.667969 76.113281 233.625 76.445312 C 233.582031 76.777344 233.574219 77.109375 233.597656 77.445312 C 233.621094 77.78125 233.675781 78.109375 233.765625 78.429688 C 233.855469 78.753906 233.972656 79.066406 234.121094 79.367188 C 234.273438 79.664062 234.449219 79.949219 234.65625 80.214844 C 237.832031 84.308594 240.722656 88.597656 243.324219 93.078125 C 245.929688 97.5625 248.226562 102.195312 250.210938 106.984375 C 252.199219 111.769531 253.859375 116.667969 255.191406 121.679688 C 256.527344 126.6875 257.519531 131.765625 258.175781 136.90625 C 258.257812 137.519531 258.441406 138.101562 258.730469 138.652344 C 259.023438 139.199219 259.398438 139.679688 259.863281 140.089844 C 260.332031 140.5 260.851562 140.816406 261.433594 141.035156 C 262.011719 141.253906 262.613281 141.363281 263.234375 141.363281 C 263.453125 141.367188 263.671875 141.351562 263.886719 141.324219 C 264.21875 141.285156 264.542969 141.207031 264.863281 141.101562 C 265.179688 140.996094 265.484375 140.859375 265.777344 140.691406 C 266.066406 140.527344 266.339844 140.332031 266.59375 140.113281 C 266.84375 139.894531 267.074219 139.652344 267.277344 139.386719 C 267.484375 139.121094 267.660156 138.839844 267.8125 138.539062 C 267.960938 138.238281 268.078125 137.925781 268.167969 137.601562 C 268.253906 137.277344 268.3125 136.949219 268.335938 136.617188 C 268.359375 136.28125 268.347656 135.949219 268.304688 135.613281 C 267.589844 130.023438 266.507812 124.503906 265.058594 119.054688 C 263.605469 113.605469 261.800781 108.277344 259.640625 103.070312 C 257.476562 97.863281 254.980469 92.824219 252.148438 87.949219 C 249.316406 83.074219 246.171875 78.410156 242.714844 73.957031 C 242.511719 73.691406 242.28125 73.449219 242.027344 73.230469 C 241.777344 73.007812 241.503906 72.816406 241.210938 72.648438 C 240.921875 72.484375 240.617188 72.347656 240.300781 72.242188 C 239.980469 72.136719 239.65625 72.0625 239.324219 72.019531 C 238.992188 71.976562 238.65625 71.96875 238.324219 71.992188 C 237.988281 72.015625 237.660156 72.070312 237.335938 72.160156 C 237.011719 72.25 236.703125 72.367188 236.402344 72.519531 C 236.101562 72.667969 235.820312 72.847656 235.554688 73.050781 Z M 253.625 40.109375 C 253.386719 39.878906 253.128906 39.671875 252.847656 39.492188 C 252.570312 39.3125 252.277344 39.160156 251.96875 39.039062 C 251.664062 38.914062 251.347656 38.824219 251.019531 38.761719 C 250.695312 38.699219 250.367188 38.671875 250.035156 38.675781 C 249.703125 38.675781 249.375 38.710938 249.050781 38.777344 C 248.726562 38.847656 248.410156 38.941406 248.105469 39.070312 C 247.800781 39.199219 247.507812 39.355469 247.234375 39.539062 C 246.957031 39.726562 246.703125 39.933594 246.46875 40.167969 C 246.234375 40.402344 246.027344 40.660156 245.839844 40.933594 C 245.65625 41.210938 245.5 41.5 245.371094 41.804688 C 245.242188 42.109375 245.144531 42.425781 245.078125 42.75 C 245.011719 43.074219 244.976562 43.402344 244.976562 43.734375 C 244.972656 44.066406 245 44.394531 245.0625 44.722656 C 245.125 45.046875 245.214844 45.363281 245.339844 45.671875 C 245.460938 45.980469 245.613281 46.273438 245.792969 46.550781 C 245.972656 46.828125 246.175781 47.085938 246.40625 47.324219 C 249.84375 50.746094 253.105469 54.328125 256.191406 58.074219 C 259.273438 61.816406 262.164062 65.703125 264.863281 69.730469 C 267.5625 73.761719 270.058594 77.914062 272.347656 82.191406 C 274.636719 86.46875 276.707031 90.847656 278.5625 95.328125 C 280.417969 99.808594 282.046875 104.371094 283.453125 109.015625 C 284.855469 113.65625 286.027344 118.359375 286.96875 123.117188 C 287.90625 127.875 288.609375 132.667969 289.074219 137.496094 C 289.539062 142.324219 289.765625 147.164062 289.753906 152.015625 C 289.753906 152.351562 289.785156 152.679688 289.851562 153.011719 C 289.917969 153.339844 290.015625 153.660156 290.140625 153.96875 C 290.269531 154.277344 290.425781 154.570312 290.613281 154.851562 C 290.800781 155.128906 291.011719 155.386719 291.25 155.625 C 291.484375 155.863281 291.742188 156.074219 292.023438 156.257812 C 292.300781 156.445312 292.59375 156.601562 292.90625 156.730469 C 293.214844 156.859375 293.53125 156.957031 293.863281 157.023438 C 294.191406 157.085938 294.523438 157.121094 294.859375 157.121094 C 295.191406 157.121094 295.523438 157.085938 295.851562 157.023438 C 296.183594 156.957031 296.5 156.859375 296.8125 156.730469 C 297.121094 156.601562 297.414062 156.445312 297.691406 156.257812 C 297.972656 156.074219 298.230469 155.863281 298.464844 155.625 C 298.703125 155.386719 298.914062 155.128906 299.101562 154.851562 C 299.289062 154.570312 299.445312 154.277344 299.574219 153.96875 C 299.699219 153.660156 299.796875 153.339844 299.863281 153.011719 C 299.929688 152.679688 299.960938 152.351562 299.960938 152.015625 C 299.976562 146.828125 299.734375 141.65625 299.234375 136.496094 C 298.738281 131.332031 297.988281 126.210938 296.984375 121.121094 C 295.980469 116.035156 294.726562 111.011719 293.222656 106.046875 C 291.722656 101.085938 289.980469 96.207031 287.996094 91.417969 C 286.011719 86.628906 283.796875 81.945312 281.351562 77.375 C 278.90625 72.804688 276.238281 68.363281 273.351562 64.058594 C 270.464844 59.75 267.375 55.597656 264.078125 51.59375 C 260.78125 47.59375 257.296875 43.765625 253.621094 40.109375 Z M 146.28125 269.433594 C 147.277344 269.433594 148.269531 269.390625 149.265625 269.308594 C 150.257812 269.226562 151.246094 269.101562 152.226562 268.9375 C 153.210938 268.773438 154.1875 268.570312 155.152344 268.324219 C 156.117188 268.082031 157.074219 267.796875 158.015625 267.472656 C 158.957031 267.152344 159.886719 266.789062 160.800781 266.390625 C 161.710938 265.992188 162.605469 265.554688 163.484375 265.082031 C 164.359375 264.605469 165.21875 264.097656 166.050781 263.554688 C 166.886719 263.011719 167.699219 262.433594 168.484375 261.824219 C 169.273438 261.210938 170.035156 260.570312 170.769531 259.894531 C 171.503906 259.222656 172.210938 258.519531 172.886719 257.789062 C 173.5625 257.054688 174.207031 256.296875 174.824219 255.511719 C 175.4375 254.726562 176.019531 253.917969 176.566406 253.085938 C 177.113281 252.253906 177.625 251.398438 178.101562 250.523438 C 178.578125 249.648438 179.019531 248.753906 179.425781 247.84375 C 179.828125 246.933594 180.191406 246.007812 180.519531 245.066406 C 180.847656 244.125 181.136719 243.171875 181.382812 242.203125 L 111.175781 242.203125 C 111.425781 243.171875 111.710938 244.125 112.039062 245.066406 C 112.367188 246.007812 112.730469 246.933594 113.136719 247.84375 C 113.539062 248.753906 113.980469 249.648438 114.457031 250.523438 C 114.933594 251.398438 115.445312 252.253906 115.992188 253.085938 C 116.542969 253.917969 117.121094 254.726562 117.738281 255.511719 C 118.351562 256.296875 118.996094 257.054688 119.671875 257.789062 C 120.351562 258.519531 121.054688 259.222656 121.789062 259.894531 C 122.523438 260.570312 123.285156 261.210938 124.074219 261.824219 C 124.859375 262.433594 125.671875 263.011719 126.507812 263.554688 C 127.34375 264.097656 128.199219 264.605469 129.074219 265.082031 C 129.953125 265.554688 130.847656 265.992188 131.761719 266.390625 C 132.671875 266.789062 133.601562 267.152344 134.542969 267.472656 C 135.488281 267.796875 136.441406 268.082031 137.40625 268.324219 C 138.375 268.570312 139.347656 268.773438 140.332031 268.9375 C 141.3125 269.101562 142.300781 269.226562 143.296875 269.308594 C 144.289062 269.390625 145.285156 269.433594 146.28125 269.433594 Z M 146.28125 269.433594 " fill-opacity="1" fill-rule="nonzero"/></g></svg>