<svg xmlns="http://www.w3.org/2000/svg" xmlns:xlink="http://www.w3.org/1999/xlink" width="378" zoomAndPan="magnify" viewBox="0 0 282.96 283.499989" height="378" preserveAspectRatio="xMidYMid meet" version="1.0"><defs><clipPath id="2f7f8a5e67"><path d="M 212 136 L 280.734375 136 L 280.734375 159 L 212 159 Z M 212 136 " clip-rule="nonzero"/></clipPath></defs><path fill="#231f20" d="M 59.738281 158.972656 L 14.089844 158.972656 C 7.980469 158.972656 3.027344 154.019531 3.027344 147.910156 C 3.027344 141.796875 7.980469 136.847656 14.089844 136.847656 L 59.738281 136.847656 C 65.847656 136.847656 70.800781 141.796875 70.800781 147.910156 C 70.800781 154.019531 65.847656 158.972656 59.738281 158.972656 Z M 59.738281 158.972656 " fill-opacity="1" fill-rule="nonzero"/><path fill="#231f20" d="M 64.972656 116.664062 L 25.441406 93.84375 C 20.152344 90.789062 18.339844 84.019531 21.394531 78.730469 C 24.449219 73.4375 31.214844 71.625 36.507812 74.679688 L 76.039062 97.503906 C 81.328125 100.558594 83.140625 107.324219 80.085938 112.617188 C 77.03125 117.90625 70.265625 119.71875 64.972656 116.664062 Z M 64.972656 116.664062 " fill-opacity="1" fill-rule="nonzero"/><path fill="#231f20" d="M 91.039062 82.25 L 68.214844 42.71875 C 65.160156 37.429688 66.972656 30.660156 72.265625 27.605469 C 77.554688 24.550781 84.320312 26.363281 87.378906 31.65625 L 110.199219 71.1875 C 113.253906 76.476562 111.441406 83.246094 106.152344 86.300781 C 100.859375 89.355469 94.09375 87.542969 91.039062 82.25 Z M 91.039062 82.25 " fill-opacity="1" fill-rule="nonzero"/><g clip-path="url(#2f7f8a5e67)"><path fill="#231f20" d="M 223.675781 158.972656 L 269.324219 158.972656 C 275.433594 158.972656 280.386719 154.019531 280.386719 147.910156 C 280.386719 141.796875 275.433594 136.847656 269.324219 136.847656 L 223.675781 136.847656 C 217.566406 136.847656 212.613281 141.796875 212.613281 147.910156 C 212.613281 154.019531 217.566406 158.972656 223.675781 158.972656 Z M 223.675781 158.972656 " fill-opacity="1" fill-rule="nonzero"/></g><path fill="#231f20" d="M 218.441406 116.664062 L 257.972656 93.84375 C 263.261719 90.789062 265.074219 84.019531 262.019531 78.730469 C 258.964844 73.4375 252.199219 71.625 246.90625 74.679688 L 207.375 97.503906 C 202.085938 100.558594 200.273438 107.324219 203.328125 112.617188 C 206.382812 117.90625 213.148438 119.71875 218.441406 116.664062 Z M 218.441406 116.664062 " fill-opacity="1" fill-rule="nonzero"/><path fill="#231f20" d="M 192.375 82.25 L 215.199219 42.71875 C 218.253906 37.425781 216.441406 30.660156 211.148438 27.605469 C 205.859375 24.550781 199.089844 26.363281 196.035156 31.65625 L 173.214844 71.1875 C 170.160156 76.476562 171.972656 83.246094 177.261719 86.300781 C 182.554688 89.355469 189.320312 87.542969 192.375 82.25 Z M 192.375 82.25 " fill-opacity="1" fill-rule="nonzero"/><path fill="#231f20" d="M 131.347656 65.984375 L 130.554688 20.34375 C 130.449219 14.234375 135.316406 9.195312 141.425781 9.089844 C 147.535156 8.980469 152.570312 13.847656 152.679688 19.957031 L 153.472656 65.597656 C 153.578125 71.707031 148.714844 76.746094 142.605469 76.851562 C 136.496094 76.957031 131.457031 72.09375 131.347656 65.984375 Z M 131.347656 65.984375 " fill-opacity="1" fill-rule="nonzero"/><path fill="#231f20" d="M 216.945312 270.84375 L 68.867188 270.84375 C 62.671875 270.84375 57.648438 265.820312 57.648438 259.625 L 57.648438 251.117188 C 57.648438 244.921875 62.671875 239.898438 68.867188 239.898438 L 216.945312 239.898438 C 223.140625 239.898438 228.164062 244.921875 228.164062 251.117188 L 228.164062 259.625 C 228.164062 265.824219 223.140625 270.84375 216.945312 270.84375 Z M 216.945312 270.84375 " fill-opacity="1" fill-rule="nonzero"/><path fill="#231f20" d="M 199.234375 231.542969 L 85.652344 231.542969 C 83.433594 231.542969 81.710938 229.601562 81.980469 227.398438 L 92.234375 143.214844 C 94.757812 122.503906 112.808594 106.90625 134.246094 106.90625 L 150.636719 106.90625 C 172.074219 106.90625 190.125 122.503906 192.648438 143.214844 L 202.902344 227.398438 C 203.171875 229.601562 201.449219 231.542969 199.234375 231.542969 Z M 199.234375 231.542969 " fill-opacity="1" fill-rule="nonzero"/><path fill="#ffffff" d="M 192.242188 209.421875 L 184.046875 142.128906 C 182.03125 125.570312 167.601562 113.101562 150.464844 113.101562 L 137.363281 113.101562 C 133.582031 113.101562 129.933594 113.707031 126.519531 114.832031 L 138.589844 114.832031 C 155.726562 114.832031 170.15625 127.304688 172.171875 143.859375 L 180.367188 211.15625 C 180.4375 211.71875 180.34375 212.257812 180.125 212.734375 L 189.308594 212.734375 C 191.085938 212.734375 192.457031 211.183594 192.242188 209.421875 Z M 192.242188 209.421875 " fill-opacity="1" fill-rule="nonzero"/></svg>