<svg xmlns="http://www.w3.org/2000/svg" xmlns:xlink="http://www.w3.org/1999/xlink" width="378" zoomAndPan="magnify" viewBox="0 0 282.96 283.499989" height="378" preserveAspectRatio="xMidYMid meet" version="1.0"><defs><clipPath id="100648fd68"><path d="M 85.117188 140 L 113 140 L 113 150 L 85.117188 150 Z M 85.117188 140 " clip-rule="nonzero"/></clipPath><clipPath id="4ed7b760aa"><path d="M 170 140 L 198.167969 140 L 198.167969 150 L 170 150 Z M 170 140 " clip-rule="nonzero"/></clipPath><clipPath id="cd73e70806"><path d="M 137 88.074219 L 147 88.074219 L 147 116 L 137 116 Z M 137 88.074219 " clip-rule="nonzero"/></clipPath></defs><g clip-path="url(#100648fd68)"><path fill="#231f20" d="M 108.273438 149.253906 L 89.652344 149.253906 C 87.160156 149.253906 85.140625 147.234375 85.140625 144.742188 C 85.140625 142.25 87.160156 140.230469 89.652344 140.230469 L 108.273438 140.230469 C 110.765625 140.230469 112.785156 142.25 112.785156 144.742188 C 112.785156 147.234375 110.765625 149.253906 108.273438 149.253906 Z M 108.273438 149.253906 " fill-opacity="1" fill-rule="nonzero"/></g><path fill="#231f20" d="M 110.410156 132 L 94.285156 122.6875 C 92.125 121.441406 91.386719 118.683594 92.632812 116.523438 C 93.878906 114.367188 96.636719 113.625 98.796875 114.871094 L 114.921875 124.179688 C 117.078125 125.425781 117.820312 128.1875 116.574219 130.347656 C 115.328125 132.503906 112.566406 133.246094 110.410156 132 Z M 110.410156 132 " fill-opacity="1" fill-rule="nonzero"/><path fill="#231f20" d="M 121.039062 117.960938 L 111.730469 101.835938 C 110.484375 99.675781 111.222656 96.917969 113.382812 95.671875 C 115.539062 94.425781 118.300781 95.164062 119.546875 97.320312 L 128.855469 113.445312 C 130.101562 115.605469 129.363281 118.367188 127.203125 119.613281 C 125.046875 120.859375 122.285156 120.117188 121.039062 117.960938 Z M 121.039062 117.960938 " fill-opacity="1" fill-rule="nonzero"/><g clip-path="url(#4ed7b760aa)"><path fill="#231f20" d="M 175.144531 149.253906 L 193.765625 149.253906 C 196.257812 149.253906 198.277344 147.234375 198.277344 144.742188 C 198.277344 142.25 196.257812 140.230469 193.765625 140.230469 L 175.144531 140.230469 C 172.652344 140.230469 170.632812 142.25 170.632812 144.742188 C 170.632812 147.234375 172.652344 149.253906 175.144531 149.253906 Z M 175.144531 149.253906 " fill-opacity="1" fill-rule="nonzero"/></g><path fill="#231f20" d="M 173.007812 132 L 189.132812 122.6875 C 191.292969 121.441406 192.03125 118.683594 190.785156 116.523438 C 189.539062 114.367188 186.777344 113.625 184.621094 114.871094 L 168.496094 124.179688 C 166.335938 125.425781 165.597656 128.1875 166.84375 130.347656 C 168.089844 132.503906 170.851562 133.246094 173.007812 132 Z M 173.007812 132 " fill-opacity="1" fill-rule="nonzero"/><path fill="#231f20" d="M 162.375 117.960938 L 171.6875 101.835938 C 172.933594 99.675781 172.191406 96.914062 170.035156 95.667969 C 167.875 94.421875 165.117188 95.164062 163.871094 97.320312 L 154.558594 113.445312 C 153.3125 115.605469 154.054688 118.367188 156.210938 119.613281 C 158.371094 120.859375 161.128906 120.117188 162.375 117.960938 Z M 162.375 117.960938 " fill-opacity="1" fill-rule="nonzero"/><g clip-path="url(#cd73e70806)"><path fill="#231f20" d="M 137.484375 111.324219 L 137.160156 92.707031 C 137.117188 90.214844 139.101562 88.160156 141.59375 88.117188 C 144.085938 88.074219 146.140625 90.058594 146.183594 92.550781 L 146.507812 111.167969 C 146.550781 113.660156 144.566406 115.714844 142.074219 115.757812 C 139.582031 115.800781 137.527344 113.816406 137.484375 111.324219 Z M 137.484375 111.324219 " fill-opacity="1" fill-rule="nonzero"/></g><path fill="#231f20" d="M 172.398438 194.890625 L 111.996094 194.890625 C 109.46875 194.890625 107.421875 192.839844 107.421875 190.3125 L 107.421875 186.839844 C 107.421875 184.3125 109.46875 182.265625 111.996094 182.265625 L 172.398438 182.265625 C 174.925781 182.265625 176.976562 184.3125 176.976562 186.839844 L 176.976562 190.3125 C 176.976562 192.839844 174.925781 194.890625 172.398438 194.890625 Z M 172.398438 194.890625 " fill-opacity="1" fill-rule="nonzero"/><path fill="#231f20" d="M 165.171875 178.855469 L 118.84375 178.855469 C 117.9375 178.855469 117.238281 178.066406 117.347656 177.167969 L 121.527344 142.828125 C 122.558594 134.378906 129.921875 128.015625 138.664062 128.015625 L 145.351562 128.015625 C 154.09375 128.015625 161.457031 134.378906 162.488281 142.828125 L 166.671875 177.167969 C 166.78125 178.066406 166.078125 178.855469 165.171875 178.855469 Z M 165.171875 178.855469 " fill-opacity="1" fill-rule="nonzero"/><path fill="#ffffff" d="M 162.324219 169.835938 L 158.980469 142.382812 C 158.15625 135.628906 152.269531 130.542969 145.28125 130.542969 L 139.9375 130.542969 C 138.394531 130.542969 136.90625 130.792969 135.511719 131.25 L 140.4375 131.25 C 147.425781 131.25 153.3125 136.335938 154.136719 143.089844 L 157.480469 170.539062 C 157.507812 170.769531 157.46875 170.992188 157.378906 171.1875 L 161.125 171.1875 C 161.851562 171.1875 162.410156 170.550781 162.324219 169.835938 Z M 162.324219 169.835938 " fill-opacity="1" fill-rule="nonzero"/></svg>