<svg xmlns="http://www.w3.org/2000/svg" xmlns:xlink="http://www.w3.org/1999/xlink" width="378" zoomAndPan="magnify" viewBox="0 0 282.96 283.499989" height="378" preserveAspectRatio="xMidYMid meet" version="1.0"><defs><clipPath id="77d47856e5"><path d="M 34.78125 28.296875 L 219.707031 28.296875 L 219.707031 248.410156 L 34.78125 248.410156 Z M 34.78125 28.296875 " clip-rule="nonzero"/></clipPath></defs><g clip-path="url(#77d47856e5)"><path fill="#000000" d="M 87.785156 194.660156 C 87.917969 194.78125 88.066406 194.808594 88.230469 194.734375 C 88.394531 194.660156 88.476562 194.535156 88.476562 194.355469 L 88.476562 64.128906 C 88.476562 63.992188 88.515625 63.875 88.597656 63.765625 C 88.679688 63.660156 88.785156 63.589844 88.914062 63.554688 L 219.160156 28.328125 C 219.269531 28.296875 219.367188 28.316406 219.457031 28.382812 C 219.546875 28.449219 219.589844 28.539062 219.589844 28.652344 C 219.65625 66.757812 219.675781 118.007812 219.644531 182.398438 C 219.640625 186.679688 219.410156 189.832031 218.949219 191.855469 C 214.941406 209.402344 196.636719 220.027344 179.292969 214.839844 C 162.953125 209.949219 153.144531 192.609375 158.339844 176.09375 C 160.164062 170.289062 163.320312 165.492188 167.800781 161.695312 C 179.871094 151.472656 197.820312 151.359375 209.660156 162.125 C 209.792969 162.242188 209.941406 162.265625 210.101562 162.191406 C 210.265625 162.121094 210.347656 161.996094 210.347656 161.820312 L 210.347656 68.671875 C 210.347656 68.519531 210.289062 68.398438 210.167969 68.304688 C 210.046875 68.214844 209.914062 68.1875 209.769531 68.230469 L 97.957031 98.160156 C 97.816406 98.195312 97.746094 98.289062 97.746094 98.433594 C 97.746094 155.433594 97.761719 194.953125 97.792969 216.992188 C 97.8125 233.113281 85.375 246.5625 69.5 248.210938 C 55.792969 249.628906 42.949219 242.238281 37.300781 229.527344 C 29.875 212.816406 39.441406 193.46875 56.464844 187.945312 C 67.363281 184.40625 79.222656 186.851562 87.785156 194.660156 Z M 87.785156 194.660156 " fill-opacity="1" fill-rule="nonzero"/></g></svg>