<svg xmlns="http://www.w3.org/2000/svg" xmlns:xlink="http://www.w3.org/1999/xlink" width="378" zoomAndPan="magnify" viewBox="0 0 282.96 283.499989" height="378" preserveAspectRatio="xMidYMid meet" version="1.0"><path fill="#010101" d="M 206.671875 110.566406 L 164.730469 105.882812 L 147.261719 67.410156 C 145.097656 62.644531 138.324219 62.644531 136.164062 67.414062 L 118.722656 105.878906 L 76.757812 110.566406 C 71.546875 111.148438 69.445312 117.597656 73.316406 121.132812 L 104.492188 149.636719 L 96.03125 190.980469 C 94.980469 196.109375 100.460938 200.089844 105.015625 197.503906 L 141.714844 176.675781 L 178.4375 197.511719 C 182.992188 200.097656 188.46875 196.117188 187.414062 190.988281 L 178.929688 149.648438 L 210.113281 121.132812 C 213.984375 117.59375 211.882812 111.148438 206.671875 110.566406 Z M 206.671875 110.566406 " fill-opacity="1" fill-rule="nonzero"/><path fill="#ffffff" d="M 135.285156 129.734375 L 126.234375 152.375 C 126.003906 152.949219 125.617188 153.421875 125.074219 153.792969 C 124.53125 154.164062 123.902344 154.347656 123.1875 154.347656 C 122.476562 154.347656 121.847656 154.164062 121.304688 153.792969 C 120.761719 153.421875 120.375 152.949219 120.144531 152.375 L 111.09375 129.734375 C 110.964844 129.402344 110.902344 129.0625 110.902344 128.71875 C 110.902344 127.875 111.246094 127.167969 111.933594 126.59375 C 112.625 126.019531 113.433594 125.734375 114.363281 125.734375 C 116.023438 125.734375 117.128906 126.394531 117.675781 127.722656 L 123.417969 142.136719 L 129.199219 127.703125 C 129.429688 127.128906 129.816406 126.660156 130.359375 126.289062 C 130.898438 125.917969 131.527344 125.734375 132.242188 125.734375 C 133.1875 125.734375 133.960938 126.039062 134.570312 126.652344 C 135.175781 127.265625 135.476562 127.953125 135.476562 128.71875 C 135.476562 129.0625 135.414062 129.402344 135.285156 129.734375 Z M 135.285156 129.734375 " fill-opacity="1" fill-rule="nonzero"/><path fill="#ffffff" d="M 146.699219 151.417969 C 146.699219 152.289062 146.347656 152.996094 145.648438 153.546875 C 144.945312 154.09375 144.132812 154.367188 143.214844 154.367188 C 142.285156 154.367188 141.46875 154.09375 140.773438 153.546875 C 140.078125 152.996094 139.730469 152.289062 139.730469 151.417969 L 139.730469 128.699219 C 139.730469 127.832031 140.078125 127.125 140.773438 126.574219 C 141.46875 126.027344 142.285156 125.75 143.214844 125.75 C 144.132812 125.75 144.945312 126.027344 145.648438 126.574219 C 146.347656 127.125 146.699219 127.832031 146.699219 128.699219 Z M 146.699219 151.417969 " fill-opacity="1" fill-rule="nonzero"/><path fill="#ffffff" d="M 169.222656 128.175781 C 167.347656 126.730469 164.886719 126.03125 161.835938 126.03125 L 155.625 126.03125 C 154.714844 126.03125 153.914062 126.355469 153.324219 126.945312 C 152.734375 127.53125 152.414062 128.226562 152.414062 129.03125 L 152.414062 151.40625 C 152.414062 152.261719 152.734375 153.011719 153.429688 153.546875 C 154.125 154.082031 154.984375 154.347656 155.894531 154.347656 C 156.804688 154.347656 157.605469 154.082031 158.300781 153.546875 C 158.996094 153.011719 159.371094 152.261719 159.371094 151.40625 L 159.371094 144.445312 L 159.480469 144.445312 C 163.011719 144.445312 165.902344 143.804688 168.152344 142.519531 C 171.09375 140.914062 172.539062 138.398438 172.539062 135.023438 C 172.539062 132.132812 171.417969 129.832031 169.222656 128.175781 Z M 163.386719 138.078125 C 162.371094 138.34375 161.03125 138.503906 159.371094 138.503906 L 159.371094 131.976562 L 161.566406 131.976562 C 162.261719 131.976562 162.957031 132.082031 163.546875 132.242188 C 164.136719 132.402344 164.617188 132.722656 164.992188 133.097656 C 165.367188 133.527344 165.582031 134.167969 165.582031 135.023438 C 165.582031 136.632812 164.832031 137.59375 163.386719 138.078125 Z M 163.386719 138.078125 " fill-opacity="1" fill-rule="nonzero"/></svg>