<svg xmlns="http://www.w3.org/2000/svg" xmlns:xlink="http://www.w3.org/1999/xlink" width="378" zoomAndPan="magnify" viewBox="0 0 282.96 283.499989" height="378" preserveAspectRatio="xMidYMid meet" version="1.0"><defs><clipPath id="020f116bab"><path d="M 108 141 L 177 141 L 177 220.054688 L 108 220.054688 Z M 108 141 " clip-rule="nonzero"/></clipPath><clipPath id="1065921477"><path d="M 86.390625 80.800781 L 197.195312 80.800781 L 197.195312 191 L 86.390625 191 Z M 86.390625 80.800781 " clip-rule="nonzero"/></clipPath></defs><g clip-path="url(#020f116bab)"><path fill="#000000" d="M 176.265625 220.089844 L 176.265625 141.152344 L 108.960938 141.152344 L 108.960938 220.089844 L 142.617188 206.21875 L 176.265625 220.089844 " fill-opacity="1" fill-rule="nonzero"/></g><g clip-path="url(#1065921477)"><path fill="#000000" d="M 197.074219 135.90625 C 197.074219 166.328125 172.324219 190.988281 141.792969 190.988281 C 111.261719 190.988281 86.511719 166.328125 86.511719 135.90625 C 86.511719 105.488281 111.261719 80.832031 141.792969 80.832031 C 172.324219 80.832031 197.074219 105.488281 197.074219 135.90625 " fill-opacity="1" fill-rule="nonzero"/></g><path fill="#ffffff" d="M 186.667969 135.90625 C 186.667969 160.601562 166.574219 180.625 141.792969 180.625 C 117.015625 180.625 96.917969 160.601562 96.917969 135.90625 C 96.917969 111.21875 117.015625 91.203125 141.792969 91.203125 C 166.574219 91.203125 186.667969 111.21875 186.667969 135.90625 " fill-opacity="1" fill-rule="nonzero"/><path fill="#000000" d="M 186.667969 135.90625 L 185.628906 135.90625 C 185.628906 147.976562 180.722656 158.882812 172.789062 166.789062 C 164.855469 174.695312 153.898438 179.582031 141.792969 179.589844 C 129.6875 179.582031 118.734375 174.695312 110.796875 166.789062 C 102.863281 158.882812 97.957031 147.976562 97.957031 135.90625 C 97.957031 123.847656 102.863281 112.9375 110.796875 105.027344 C 118.734375 97.121094 129.679688 92.238281 141.792969 92.238281 C 153.898438 92.238281 164.855469 97.121094 172.789062 105.027344 C 180.722656 112.9375 185.628906 123.847656 185.628906 135.90625 L 187.707031 135.90625 C 187.707031 110.644531 167.15625 90.167969 141.792969 90.167969 C 116.4375 90.167969 95.878906 110.644531 95.878906 135.90625 C 95.878906 161.175781 116.4375 181.652344 141.792969 181.660156 C 167.15625 181.652344 187.707031 161.175781 187.707031 135.90625 L 186.667969 135.90625 " fill-opacity="1" fill-rule="nonzero"/><path fill="#000000" d="M 152.785156 125.246094 L 175.296875 128.996094 L 158.617188 144.523438 L 162 167.011719 L 142.027344 156.003906 L 121.601562 166.160156 L 125.9375 143.832031 L 109.933594 127.617188 L 132.585938 124.828125 L 143.117188 104.652344 L 152.785156 125.246094 " fill-opacity="1" fill-rule="nonzero"/></svg>