<svg xmlns="http://www.w3.org/2000/svg" xmlns:xlink="http://www.w3.org/1999/xlink" width="378" zoomAndPan="magnify" viewBox="0 0 282.96 283.499989" height="378" preserveAspectRatio="xMidYMid meet" version="1.0"><path fill="#010101" d="M 263.800781 90.089844 L 184.976562 81.292969 L 152.148438 8.988281 C 148.078125 0.03125 135.355469 0.0351562 131.292969 8.996094 L 98.511719 81.289062 L 19.648438 90.089844 C 9.855469 91.183594 5.910156 103.304688 13.183594 109.953125 L 71.769531 163.519531 L 55.871094 241.214844 C 53.898438 250.859375 64.199219 258.339844 72.757812 253.480469 L 141.726562 214.332031 L 210.738281 253.496094 C 219.296875 258.351562 229.589844 250.867188 227.609375 241.230469 L 211.660156 163.542969 L 270.265625 109.953125 C 277.539062 103.304688 273.59375 91.183594 263.800781 90.089844 Z M 263.800781 90.089844 " fill-opacity="1" fill-rule="nonzero"/><path fill="#ffffff" d="M 129.644531 126.113281 L 112.628906 168.667969 C 112.199219 169.75 111.472656 170.636719 110.453125 171.332031 C 109.433594 172.027344 108.25 172.375 106.910156 172.375 C 105.566406 172.375 104.382812 172.027344 103.367188 171.332031 C 102.347656 170.636719 101.621094 169.75 101.1875 168.667969 L 84.175781 126.113281 C 83.933594 125.492188 83.816406 124.855469 83.816406 124.207031 C 83.816406 122.625 84.460938 121.296875 85.757812 120.214844 C 87.050781 119.136719 88.574219 118.597656 90.324219 118.597656 C 93.441406 118.597656 95.519531 119.84375 96.550781 122.335938 L 107.339844 149.425781 L 118.203125 122.300781 C 118.636719 121.222656 119.359375 120.335938 120.382812 119.640625 C 121.398438 118.945312 122.578125 118.597656 123.925781 118.597656 C 125.699219 118.597656 127.152344 119.171875 128.296875 120.324219 C 129.433594 121.476562 130.003906 122.769531 130.003906 124.207031 C 130.003906 124.855469 129.882812 125.492188 129.644531 126.113281 Z M 129.644531 126.113281 " fill-opacity="1" fill-rule="nonzero"/><path fill="#ffffff" d="M 151.089844 166.871094 C 151.089844 168.503906 150.429688 169.832031 149.113281 170.863281 C 147.792969 171.894531 146.273438 172.414062 144.542969 172.414062 C 142.792969 172.414062 141.265625 171.894531 139.957031 170.863281 C 138.648438 169.832031 137.996094 168.503906 137.996094 166.871094 L 137.996094 124.171875 C 137.996094 122.542969 138.648438 121.210938 139.957031 120.179688 C 141.265625 119.148438 142.792969 118.632812 144.542969 118.632812 C 146.273438 118.632812 147.792969 119.148438 149.113281 120.179688 C 150.429688 121.210938 151.089844 122.542969 151.089844 124.171875 Z M 151.089844 166.871094 " fill-opacity="1" fill-rule="nonzero"/><path fill="#ffffff" d="M 193.417969 123.1875 C 189.898438 120.46875 185.269531 119.160156 179.535156 119.160156 L 167.863281 119.160156 C 166.15625 119.160156 164.648438 119.765625 163.539062 120.871094 C 162.433594 121.976562 161.832031 123.285156 161.832031 124.792969 L 161.832031 166.84375 C 161.832031 168.453125 162.433594 169.863281 163.742188 170.867188 C 165.050781 171.871094 166.660156 172.375 168.371094 172.375 C 170.082031 172.375 171.589844 171.871094 172.894531 170.867188 C 174.203125 169.863281 174.910156 168.453125 174.910156 166.84375 L 174.910156 153.765625 L 175.109375 153.765625 C 181.75 153.765625 187.179688 152.558594 191.40625 150.144531 C 196.9375 147.125 199.65625 142.398438 199.65625 136.058594 C 199.65625 130.628906 197.542969 126.300781 193.417969 123.1875 Z M 182.453125 141.792969 C 180.542969 142.296875 178.027344 142.601562 174.910156 142.601562 L 174.910156 130.328125 L 179.03125 130.328125 C 180.339844 130.328125 181.648438 130.527344 182.753906 130.828125 C 183.859375 131.132812 184.765625 131.734375 185.46875 132.441406 C 186.175781 133.246094 186.578125 134.453125 186.578125 136.058594 C 186.578125 139.078125 185.167969 140.886719 182.453125 141.792969 Z M 182.453125 141.792969 " fill-opacity="1" fill-rule="nonzero"/></svg>