<svg xmlns="http://www.w3.org/2000/svg" xmlns:xlink="http://www.w3.org/1999/xlink" width="378" zoomAndPan="magnify" viewBox="0 0 282.96 283.499989" height="378" preserveAspectRatio="xMidYMid meet" version="1.0"><defs><clipPath id="1585f699fd"><path d="M 97.15625 83.050781 L 186.25 83.050781 L 186.25 199.84375 L 97.15625 199.84375 Z M 97.15625 83.050781 " clip-rule="nonzero"/></clipPath></defs><g clip-path="url(#1585f699fd)"><path fill="#000000" d="M 141.703125 83.050781 C 157.503906 83.050781 170.269531 95.808594 170.269531 111.449219 C 170.269531 127.246094 157.503906 140.003906 141.703125 140.003906 C 126.050781 140.003906 113.289062 127.246094 113.289062 111.449219 C 113.289062 95.808594 126.050781 83.050781 141.703125 83.050781 Z M 141.703125 143.496094 C 166.320312 143.496094 186.222656 168.554688 186.222656 199.386719 C 186.222656 199.539062 186.222656 199.691406 186.222656 199.84375 C 156.59375 199.84375 126.964844 199.84375 97.183594 199.84375 C 97.183594 199.691406 97.183594 199.539062 97.183594 199.386719 C 97.183594 168.554688 117.238281 143.496094 141.703125 143.496094 Z M 141.703125 143.496094 " fill-opacity="1" fill-rule="evenodd"/></g></svg>