<svg xmlns="http://www.w3.org/2000/svg" xmlns:xlink="http://www.w3.org/1999/xlink" width="378" zoomAndPan="magnify" viewBox="0 0 282.96 283.499989" height="378" preserveAspectRatio="xMidYMid meet" version="1.0"><defs><clipPath id="921fa0a289"><path d="M 80 121 L 206 121 L 206 268.773438 L 80 268.773438 Z M 80 121 " clip-rule="nonzero"/></clipPath><clipPath id="07f219b69f"><path d="M 39 9 L 244.6875 9 L 244.6875 215 L 39 215 Z M 39 9 " clip-rule="nonzero"/></clipPath></defs><g clip-path="url(#921fa0a289)"><path fill="#000000" d="M 205.804688 268.835938 L 205.804688 121.578125 L 80.738281 121.578125 L 80.738281 268.835938 L 143.277344 242.960938 L 205.804688 268.835938 " fill-opacity="1" fill-rule="nonzero"/></g><g clip-path="url(#07f219b69f)"><path fill="#000000" d="M 244.472656 111.789062 C 244.472656 168.539062 198.476562 214.546875 141.746094 214.546875 C 85.011719 214.546875 39.015625 168.539062 39.015625 111.789062 C 39.015625 55.039062 85.011719 9.046875 141.746094 9.046875 C 198.476562 9.046875 244.472656 55.039062 244.472656 111.789062 " fill-opacity="1" fill-rule="nonzero"/></g><path fill="#ffffff" d="M 225.132812 111.789062 C 225.132812 157.863281 187.789062 195.214844 141.746094 195.214844 C 95.699219 195.214844 58.355469 157.863281 58.355469 111.789062 C 58.355469 65.730469 95.699219 28.390625 141.746094 28.390625 C 187.789062 28.390625 225.132812 65.730469 225.132812 111.789062 " fill-opacity="1" fill-rule="nonzero"/><path fill="#000000" d="M 225.132812 111.789062 L 223.199219 111.789062 C 223.199219 134.304688 214.085938 154.65625 199.339844 169.402344 C 184.597656 184.152344 164.238281 193.269531 141.746094 193.28125 C 119.25 193.269531 98.890625 184.152344 84.148438 169.402344 C 69.40625 154.65625 60.289062 134.304688 60.289062 111.789062 C 60.289062 89.289062 69.40625 68.9375 84.148438 54.175781 C 98.890625 39.429688 119.238281 30.324219 141.746094 30.324219 C 164.238281 30.324219 184.597656 39.429688 199.339844 54.175781 C 214.085938 68.9375 223.199219 89.289062 223.199219 111.789062 L 227.0625 111.789062 C 227.0625 64.660156 188.871094 26.460938 141.746094 26.460938 C 94.628906 26.460938 56.425781 64.660156 56.425781 111.789062 C 56.425781 158.929688 94.628906 197.132812 141.746094 197.148438 C 188.871094 197.132812 227.0625 158.929688 227.0625 111.789062 L 225.132812 111.789062 " fill-opacity="1" fill-rule="nonzero"/><path fill="#000000" d="M 162.167969 91.902344 L 204.003906 98.898438 L 173.007812 127.863281 L 179.292969 169.816406 L 142.183594 149.285156 L 104.222656 168.230469 L 112.285156 126.578125 L 82.539062 96.320312 L 124.632812 91.117188 L 144.203125 53.480469 L 162.167969 91.902344 " fill-opacity="1" fill-rule="nonzero"/></svg>