<svg xmlns="http://www.w3.org/2000/svg" xmlns:xlink="http://www.w3.org/1999/xlink" width="378" zoomAndPan="magnify" viewBox="0 0 282.96 283.499989" height="378" preserveAspectRatio="xMidYMid meet" version="1.0"><defs><clipPath id="291983a1f7"><path d="M 51.691406 8.980469 L 238.859375 8.980469 L 238.859375 254.546875 L 51.691406 254.546875 Z M 51.691406 8.980469 " clip-rule="nonzero"/></clipPath></defs><g clip-path="url(#291983a1f7)"><path fill="#000000" d="M 145.277344 8.980469 C 178.472656 8.980469 205.285156 35.804688 205.285156 68.695312 C 205.285156 101.90625 178.472656 128.730469 145.277344 128.730469 C 112.398438 128.730469 85.585938 101.90625 85.585938 68.695312 C 85.585938 35.804688 112.398438 8.980469 145.277344 8.980469 Z M 145.277344 136.074219 C 196.988281 136.074219 238.804688 188.765625 238.804688 253.589844 C 238.804688 253.910156 238.804688 254.230469 238.804688 254.546875 C 176.558594 254.546875 114.3125 254.546875 51.75 254.546875 C 51.75 254.230469 51.75 253.910156 51.75 253.589844 C 51.75 188.765625 93.882812 136.074219 145.277344 136.074219 Z M 145.277344 136.074219 " fill-opacity="1" fill-rule="evenodd"/></g></svg>