<svg xmlns="http://www.w3.org/2000/svg" xmlns:xlink="http://www.w3.org/1999/xlink" width="378" zoomAndPan="magnify" viewBox="0 0 282.96 283.499989" height="378" preserveAspectRatio="xMidYMid meet" version="1.0"><defs><clipPath id="22674caed0"><path d="M 91.703125 84.890625 L 192 84.890625 L 192 197.941406 L 91.703125 197.941406 Z M 91.703125 84.890625 " clip-rule="nonzero"/></clipPath></defs><g clip-path="url(#22674caed0)"><path fill="#000000" d="M 138.652344 104.453125 C 144.886719 108.402344 149.234375 114.984375 149.988281 122.511719 C 152.445312 123.640625 155.277344 124.390625 158.300781 124.390625 C 169.257812 124.390625 178.136719 115.550781 178.136719 104.640625 C 178.136719 93.730469 169.257812 84.890625 158.300781 84.890625 C 147.53125 85.078125 138.652344 93.730469 138.652344 104.453125 Z M 125.621094 144.707031 C 136.574219 144.707031 145.453125 135.867188 145.453125 124.957031 C 145.453125 114.046875 136.574219 105.203125 125.621094 105.203125 C 114.664062 105.203125 105.785156 114.046875 105.785156 124.957031 C 105.785156 135.867188 114.664062 144.707031 125.621094 144.707031 Z M 133.929688 146.023438 L 117.117188 146.023438 C 103.136719 146.023438 91.804688 157.308594 91.804688 171.230469 L 91.804688 192.109375 L 93.125 192.484375 C 106.351562 196.625 118.0625 197.941406 127.507812 197.941406 C 146.023438 197.941406 156.789062 192.671875 157.546875 192.296875 L 158.867188 191.542969 L 159.058594 191.542969 L 159.058594 171.230469 C 159.246094 157.308594 147.910156 146.023438 133.929688 146.023438 Z M 166.613281 125.707031 L 149.988281 125.707031 C 149.800781 132.292969 146.964844 138.3125 142.433594 142.636719 C 154.902344 146.398438 163.96875 157.6875 163.96875 171.230469 L 163.96875 177.4375 C 180.402344 176.871094 189.847656 172.171875 190.417969 171.980469 L 191.738281 171.230469 L 191.925781 171.230469 L 191.925781 150.914062 C 191.925781 136.996094 180.59375 125.707031 166.613281 125.707031 Z M 166.613281 125.707031 " fill-opacity="1" fill-rule="nonzero"/></g></svg>