<svg xmlns="http://www.w3.org/2000/svg" xmlns:xlink="http://www.w3.org/1999/xlink" width="378" zoomAndPan="magnify" viewBox="0 0 282.96 283.499989" height="378" preserveAspectRatio="xMidYMid meet" version="1.0"><defs><clipPath id="06eea67c86"><path d="M 124 178 L 165 178 L 165 191.582031 L 124 191.582031 Z M 124 178 " clip-rule="nonzero"/></clipPath><clipPath id="db519c8ba3"><path d="M 151 91.257812 L 189 91.257812 L 189 129 L 151 129 Z M 151 91.257812 " clip-rule="nonzero"/></clipPath><clipPath id="b5c8dd50b1"><path d="M 145 132 L 198.828125 132 L 198.828125 191.582031 L 145 191.582031 Z M 145 132 " clip-rule="nonzero"/></clipPath><clipPath id="8499bd49e3"><path d="M 84.28125 146 L 133 146 L 133 191.582031 L 84.28125 191.582031 Z M 84.28125 146 " clip-rule="nonzero"/></clipPath></defs><g clip-path="url(#06eea67c86)"><path fill="#000000" d="M 151.605469 178.398438 L 137.828125 178.398438 C 130.707031 178.398438 124.933594 184.183594 124.933594 191.3125 L 124.933594 191.527344 L 164.5 191.527344 L 164.5 191.3125 C 164.5 184.183594 158.730469 178.398438 151.605469 178.398438 Z M 151.605469 178.398438 " fill-opacity="1" fill-rule="nonzero"/></g><path fill="#000000" d="M 157.214844 160.40625 C 157.214844 161.273438 157.128906 162.136719 156.960938 162.988281 C 156.792969 163.839844 156.542969 164.667969 156.210938 165.46875 C 155.878906 166.273438 155.46875 167.035156 154.988281 167.757812 C 154.507812 168.480469 153.957031 169.148438 153.34375 169.761719 C 152.730469 170.378906 152.0625 170.925781 151.34375 171.410156 C 150.621094 171.890625 149.859375 172.300781 149.058594 172.632812 C 148.257812 172.964844 147.429688 173.214844 146.582031 173.382812 C 145.730469 173.554688 144.871094 173.640625 144.003906 173.640625 C 143.136719 173.640625 142.277344 173.554688 141.425781 173.382812 C 140.574219 173.214844 139.746094 172.964844 138.945312 172.632812 C 138.144531 172.300781 137.382812 171.890625 136.660156 171.410156 C 135.941406 170.925781 135.273438 170.378906 134.660156 169.761719 C 134.046875 169.148438 133.5 168.480469 133.015625 167.757812 C 132.535156 167.035156 132.128906 166.273438 131.796875 165.46875 C 131.464844 164.667969 131.210938 163.839844 131.042969 162.988281 C 130.875 162.136719 130.789062 161.273438 130.789062 160.40625 C 130.789062 159.539062 130.875 158.675781 131.042969 157.824219 C 131.210938 156.972656 131.464844 156.144531 131.796875 155.34375 C 132.128906 154.539062 132.535156 153.777344 133.015625 153.054688 C 133.5 152.332031 134.046875 151.664062 134.660156 151.050781 C 135.273438 150.433594 135.941406 149.886719 136.660156 149.402344 C 137.382812 148.921875 138.144531 148.511719 138.945312 148.179688 C 139.746094 147.847656 140.574219 147.597656 141.425781 147.429688 C 142.277344 147.257812 143.136719 147.175781 144.003906 147.175781 C 144.871094 147.175781 145.730469 147.257812 146.582031 147.429688 C 147.429688 147.597656 148.257812 147.847656 149.058594 148.179688 C 149.859375 148.511719 150.621094 148.921875 151.34375 149.402344 C 152.0625 149.886719 152.730469 150.433594 153.34375 151.050781 C 153.957031 151.664062 154.507812 152.332031 154.988281 153.054688 C 155.46875 153.777344 155.878906 154.539062 156.210938 155.34375 C 156.542969 156.144531 156.792969 156.972656 156.960938 157.824219 C 157.128906 158.675781 157.214844 159.539062 157.214844 160.40625 Z M 157.214844 160.40625 " fill-opacity="1" fill-rule="nonzero"/><path fill="#000000" d="M 129.144531 123.765625 C 129.144531 124.367188 129.113281 124.96875 129.054688 125.570312 C 128.996094 126.167969 128.910156 126.765625 128.792969 127.355469 C 128.675781 127.945312 128.527344 128.527344 128.355469 129.105469 C 128.179688 129.683594 127.976562 130.25 127.746094 130.804688 C 127.515625 131.359375 127.257812 131.90625 126.976562 132.4375 C 126.691406 132.96875 126.382812 133.484375 126.050781 133.984375 C 125.714844 134.484375 125.359375 134.96875 124.976562 135.433594 C 124.59375 135.898438 124.191406 136.34375 123.765625 136.769531 C 123.339844 137.199219 122.894531 137.601562 122.429688 137.984375 C 121.964844 138.367188 121.484375 138.722656 120.984375 139.058594 C 120.484375 139.394531 119.96875 139.703125 119.4375 139.988281 C 118.90625 140.269531 118.363281 140.527344 117.808594 140.757812 C 117.253906 140.988281 116.6875 141.191406 116.109375 141.367188 C 115.535156 141.542969 114.953125 141.6875 114.363281 141.804688 C 113.773438 141.921875 113.179688 142.011719 112.582031 142.070312 C 111.980469 142.128906 111.382812 142.15625 110.78125 142.15625 C 110.179688 142.15625 109.578125 142.128906 108.980469 142.070312 C 108.382812 142.011719 107.789062 141.921875 107.199219 141.804688 C 106.609375 141.6875 106.023438 141.542969 105.449219 141.367188 C 104.875 141.191406 104.308594 140.988281 103.753906 140.757812 C 103.195312 140.527344 102.652344 140.269531 102.125 139.988281 C 101.59375 139.703125 101.078125 139.394531 100.578125 139.058594 C 100.078125 138.722656 99.59375 138.367188 99.128906 137.984375 C 98.664062 137.601562 98.21875 137.199219 97.792969 136.769531 C 97.371094 136.34375 96.964844 135.898438 96.585938 135.433594 C 96.203125 134.96875 95.84375 134.484375 95.511719 133.984375 C 95.175781 133.484375 94.867188 132.96875 94.585938 132.4375 C 94.300781 131.90625 94.042969 131.359375 93.8125 130.804688 C 93.582031 130.25 93.382812 129.683594 93.207031 129.105469 C 93.03125 128.527344 92.886719 127.945312 92.769531 127.355469 C 92.652344 126.765625 92.5625 126.167969 92.503906 125.570312 C 92.445312 124.96875 92.417969 124.367188 92.417969 123.765625 C 92.417969 123.164062 92.445312 122.5625 92.503906 121.964844 C 92.5625 121.363281 92.652344 120.769531 92.769531 120.179688 C 92.886719 119.585938 93.03125 119.003906 93.207031 118.429688 C 93.382812 117.851562 93.582031 117.285156 93.8125 116.726562 C 94.042969 116.171875 94.300781 115.628906 94.585938 115.097656 C 94.867188 114.566406 95.175781 114.050781 95.511719 113.546875 C 95.84375 113.046875 96.203125 112.566406 96.585938 112.097656 C 96.964844 111.632812 97.371094 111.1875 97.792969 110.761719 C 98.21875 110.335938 98.664062 109.933594 99.128906 109.550781 C 99.59375 109.167969 100.078125 108.808594 100.578125 108.472656 C 101.078125 108.140625 101.59375 107.832031 102.125 107.546875 C 102.652344 107.261719 103.195312 107.003906 103.753906 106.773438 C 104.308594 106.542969 104.875 106.339844 105.449219 106.167969 C 106.023438 105.992188 106.609375 105.847656 107.199219 105.726562 C 107.789062 105.609375 108.382812 105.523438 108.980469 105.464844 C 109.578125 105.40625 110.179688 105.375 110.78125 105.375 C 111.382812 105.375 111.980469 105.40625 112.582031 105.464844 C 113.179688 105.523438 113.773438 105.609375 114.363281 105.726562 C 114.953125 105.847656 115.535156 105.992188 116.109375 106.167969 C 116.6875 106.339844 117.253906 106.542969 117.808594 106.773438 C 118.363281 107.003906 118.90625 107.261719 119.4375 107.546875 C 119.96875 107.832031 120.484375 108.140625 120.984375 108.472656 C 121.484375 108.808594 121.964844 109.167969 122.429688 109.550781 C 122.894531 109.933594 123.339844 110.335938 123.765625 110.761719 C 124.191406 111.1875 124.59375 111.632812 124.976562 112.097656 C 125.359375 112.566406 125.714844 113.046875 126.050781 113.546875 C 126.382812 114.050781 126.691406 114.566406 126.976562 115.097656 C 127.257812 115.628906 127.515625 116.171875 127.746094 116.726562 C 127.976562 117.285156 128.179688 117.851562 128.355469 118.429688 C 128.527344 119.003906 128.675781 119.585938 128.792969 120.179688 C 128.910156 120.769531 128.996094 121.363281 129.054688 121.964844 C 129.113281 122.5625 129.144531 123.164062 129.144531 123.765625 Z M 129.144531 123.765625 " fill-opacity="1" fill-rule="nonzero"/><g clip-path="url(#db519c8ba3)"><path fill="#000000" d="M 188.703125 109.726562 C 188.703125 110.328125 188.675781 110.929688 188.617188 111.527344 C 188.558594 112.125 188.46875 112.722656 188.351562 113.3125 C 188.234375 113.902344 188.089844 114.488281 187.914062 115.0625 C 187.738281 115.640625 187.535156 116.207031 187.308594 116.761719 C 187.078125 117.320312 186.820312 117.863281 186.535156 118.394531 C 186.253906 118.925781 185.945312 119.441406 185.609375 119.941406 C 185.277344 120.445312 184.917969 120.925781 184.535156 121.390625 C 184.15625 121.859375 183.75 122.304688 183.324219 122.730469 C 182.902344 123.15625 182.457031 123.558594 181.992188 123.941406 C 181.527344 124.324219 181.042969 124.683594 180.542969 125.015625 C 180.042969 125.351562 179.527344 125.660156 178.996094 125.945312 C 178.46875 126.230469 177.925781 126.484375 177.367188 126.714844 C 176.8125 126.945312 176.246094 127.148438 175.671875 127.324219 C 175.097656 127.5 174.511719 127.644531 173.921875 127.761719 C 173.332031 127.878906 172.738281 127.96875 172.140625 128.027344 C 171.542969 128.085938 170.941406 128.117188 170.339844 128.117188 C 169.738281 128.117188 169.140625 128.085938 168.539062 128.027344 C 167.941406 127.96875 167.347656 127.878906 166.757812 127.761719 C 166.167969 127.644531 165.585938 127.5 165.007812 127.324219 C 164.433594 127.148438 163.867188 126.945312 163.3125 126.714844 C 162.757812 126.484375 162.214844 126.230469 161.683594 125.945312 C 161.152344 125.660156 160.636719 125.351562 160.136719 125.015625 C 159.636719 124.683594 159.15625 124.324219 158.691406 123.941406 C 158.226562 123.558594 157.78125 123.15625 157.355469 122.730469 C 156.929688 122.304688 156.527344 121.859375 156.144531 121.390625 C 155.761719 120.925781 155.40625 120.445312 155.070312 119.941406 C 154.738281 119.441406 154.429688 118.925781 154.144531 118.394531 C 153.859375 117.863281 153.605469 117.320312 153.375 116.761719 C 153.144531 116.207031 152.941406 115.640625 152.765625 115.0625 C 152.59375 114.488281 152.445312 113.902344 152.328125 113.3125 C 152.210938 112.722656 152.125 112.125 152.066406 111.527344 C 152.003906 110.929688 151.976562 110.328125 151.976562 109.726562 C 151.976562 109.121094 152.003906 108.519531 152.066406 107.921875 C 152.125 107.324219 152.210938 106.726562 152.328125 106.136719 C 152.445312 105.546875 152.59375 104.960938 152.765625 104.386719 C 152.941406 103.808594 153.144531 103.242188 153.375 102.6875 C 153.605469 102.128906 153.859375 101.585938 154.144531 101.054688 C 154.429688 100.523438 154.738281 100.007812 155.070312 99.507812 C 155.40625 99.007812 155.761719 98.523438 156.144531 98.058594 C 156.527344 97.589844 156.929688 97.144531 157.355469 96.71875 C 157.78125 96.292969 158.226562 95.890625 158.691406 95.507812 C 159.15625 95.125 159.636719 94.765625 160.136719 94.433594 C 160.636719 94.097656 161.152344 93.789062 161.683594 93.503906 C 162.214844 93.222656 162.757812 92.964844 163.3125 92.734375 C 163.867188 92.503906 164.433594 92.300781 165.007812 92.125 C 165.585938 91.949219 166.167969 91.804688 166.757812 91.6875 C 167.347656 91.570312 167.941406 91.480469 168.539062 91.421875 C 169.140625 91.363281 169.738281 91.332031 170.339844 91.332031 C 170.941406 91.332031 171.542969 91.363281 172.140625 91.421875 C 172.738281 91.480469 173.332031 91.570312 173.921875 91.6875 C 174.511719 91.804688 175.097656 91.949219 175.671875 92.125 C 176.246094 92.300781 176.8125 92.503906 177.367188 92.734375 C 177.925781 92.964844 178.46875 93.222656 178.996094 93.503906 C 179.527344 93.789062 180.042969 94.097656 180.542969 94.433594 C 181.042969 94.765625 181.527344 95.125 181.992188 95.507812 C 182.457031 95.890625 182.902344 96.292969 183.324219 96.71875 C 183.75 97.144531 184.15625 97.589844 184.535156 98.058594 C 184.917969 98.523438 185.277344 99.007812 185.609375 99.507812 C 185.945312 100.007812 186.253906 100.523438 186.535156 101.054688 C 186.820312 101.585938 187.078125 102.128906 187.308594 102.6875 C 187.535156 103.242188 187.738281 103.808594 187.914062 104.386719 C 188.089844 104.960938 188.234375 105.546875 188.351562 106.136719 C 188.46875 106.726562 188.558594 107.324219 188.617188 107.921875 C 188.675781 108.519531 188.703125 109.121094 188.703125 109.726562 Z M 188.703125 109.726562 " fill-opacity="1" fill-rule="nonzero"/></g><g clip-path="url(#b5c8dd50b1)"><path fill="#000000" d="M 180.90625 132.058594 L 161.761719 132.058594 C 154.554688 132.058594 148.359375 136.328125 145.515625 142.46875 C 154.722656 143.242188 161.988281 150.984375 161.988281 160.40625 C 161.988281 165.890625 159.519531 170.796875 155.652344 174.105469 C 163.445312 175.945312 169.273438 182.953125 169.273438 191.316406 L 169.273438 191.527344 L 198.828125 191.527344 L 198.828125 150.007812 C 198.828125 140.097656 190.804688 132.058594 180.90625 132.058594 Z M 180.90625 132.058594 " fill-opacity="1" fill-rule="nonzero"/></g><g clip-path="url(#8499bd49e3)"><path fill="#000000" d="M 132.683594 174.390625 C 128.621094 171.082031 126.015625 166.046875 126.015625 160.40625 C 126.015625 155.890625 127.695312 151.769531 130.445312 148.605469 C 127.777344 147.027344 124.675781 146.101562 121.351562 146.101562 L 102.199219 146.101562 C 92.304688 146.101562 84.28125 154.136719 84.28125 164.050781 L 84.28125 191.527344 L 120.160156 191.527344 L 120.160156 191.3125 C 120.160156 183.347656 125.445312 176.601562 132.683594 174.390625 Z M 132.683594 174.390625 " fill-opacity="1" fill-rule="nonzero"/></g></svg>