<svg xmlns="http://www.w3.org/2000/svg" xmlns:xlink="http://www.w3.org/1999/xlink" width="378" zoomAndPan="magnify" viewBox="0 0 282.96 283.499989" height="378" preserveAspectRatio="xMidYMid meet" version="1.0"><defs><clipPath id="02133770d9"><path d="M 35.421875 14.097656 L 248 14.097656 L 248 254.421875 L 35.421875 254.421875 Z M 35.421875 14.097656 " clip-rule="nonzero"/></clipPath></defs><g clip-path="url(#02133770d9)"><path fill="#000000" d="M 134.929688 55.683594 C 148.140625 64.082031 157.347656 78.078125 158.949219 94.070312 C 164.15625 96.46875 170.160156 98.070312 176.566406 98.070312 C 199.789062 98.070312 218.605469 79.277344 218.605469 56.082031 C 218.605469 32.890625 199.789062 14.097656 176.566406 14.097656 C 153.746094 14.496094 134.929688 32.890625 134.929688 55.683594 Z M 107.300781 141.257812 C 130.523438 141.257812 149.34375 122.460938 149.34375 99.269531 C 149.34375 76.078125 130.523438 57.28125 107.300781 57.28125 C 84.082031 57.28125 65.261719 76.078125 65.261719 99.269531 C 65.261719 122.460938 84.082031 141.257812 107.300781 141.257812 Z M 124.917969 144.054688 L 89.285156 144.054688 C 59.660156 144.054688 35.636719 168.046875 35.636719 197.640625 L 35.636719 242.027344 L 38.4375 242.824219 C 66.464844 251.621094 91.289062 254.421875 111.304688 254.421875 C 150.542969 254.421875 173.363281 243.226562 174.964844 242.425781 L 177.769531 240.828125 L 178.167969 240.828125 L 178.167969 197.640625 C 178.570312 168.046875 154.546875 144.054688 124.917969 144.054688 Z M 194.183594 100.871094 L 158.949219 100.871094 C 158.550781 114.863281 152.546875 127.660156 142.9375 136.859375 C 169.359375 144.855469 188.578125 168.847656 188.578125 197.640625 L 188.578125 210.835938 C 223.410156 209.636719 243.429688 199.640625 244.632812 199.238281 L 247.433594 197.640625 L 247.832031 197.640625 L 247.832031 154.453125 C 247.832031 124.863281 223.8125 100.871094 194.183594 100.871094 Z M 194.183594 100.871094 " fill-opacity="1" fill-rule="nonzero"/></g></svg>