<svg xmlns="http://www.w3.org/2000/svg" xmlns:xlink="http://www.w3.org/1999/xlink" width="378" zoomAndPan="magnify" viewBox="0 0 282.96 283.499989" height="378" preserveAspectRatio="xMidYMid meet" version="1.0"><defs><clipPath id="ab1cf82cd9"><path d="M 99 222 L 188 222 L 188 251.402344 L 99 251.402344 Z M 99 222 " clip-rule="nonzero"/></clipPath><clipPath id="2fc0e0295f"><path d="M 160 28.296875 L 242 28.296875 L 242 111 L 160 111 Z M 160 28.296875 " clip-rule="nonzero"/></clipPath><clipPath id="9f5cc9d9f0"><path d="M 145 119 L 264.511719 119 L 264.511719 251.402344 L 145 251.402344 Z M 145 119 " clip-rule="nonzero"/></clipPath><clipPath id="983400401c"><path d="M 9.210938 150 L 118 150 L 118 251.402344 L 9.210938 251.402344 Z M 9.210938 150 " clip-rule="nonzero"/></clipPath></defs><g clip-path="url(#ab1cf82cd9)"><path fill="#000000" d="M 159.261719 222.085938 L 128.554688 222.085938 C 112.679688 222.085938 99.8125 234.945312 99.8125 250.804688 L 99.8125 251.28125 L 188 251.28125 L 188 250.804688 C 188 234.945312 175.140625 222.085938 159.261719 222.085938 Z M 159.261719 222.085938 " fill-opacity="1" fill-rule="nonzero"/></g><path fill="#000000" d="M 171.761719 182.074219 C 171.761719 183.039062 171.714844 184 171.621094 184.957031 C 171.527344 185.917969 171.382812 186.867188 171.195312 187.8125 C 171.007812 188.757812 170.773438 189.691406 170.492188 190.617188 C 170.214844 191.539062 169.890625 192.445312 169.519531 193.335938 C 169.152344 194.226562 168.738281 195.09375 168.285156 195.945312 C 167.828125 196.792969 167.335938 197.621094 166.800781 198.421875 C 166.261719 199.222656 165.6875 199.996094 165.078125 200.742188 C 164.464844 201.484375 163.820312 202.199219 163.136719 202.882812 C 162.453125 203.5625 161.742188 204.207031 160.996094 204.820312 C 160.25 205.429688 159.476562 206.003906 158.675781 206.539062 C 157.871094 207.074219 157.046875 207.570312 156.195312 208.023438 C 155.34375 208.480469 154.472656 208.890625 153.582031 209.257812 C 152.691406 209.628906 151.785156 209.953125 150.863281 210.234375 C 149.9375 210.511719 149.003906 210.746094 148.058594 210.933594 C 147.113281 211.121094 146.160156 211.261719 145.199219 211.359375 C 144.242188 211.453125 143.277344 211.5 142.3125 211.5 C 141.347656 211.5 140.386719 211.453125 139.425781 211.359375 C 138.46875 211.261719 137.515625 211.121094 136.570312 210.933594 C 135.621094 210.746094 134.6875 210.511719 133.765625 210.234375 C 132.84375 209.953125 131.933594 209.628906 131.042969 209.257812 C 130.152344 208.890625 129.28125 208.480469 128.433594 208.023438 C 127.582031 207.570312 126.753906 207.074219 125.953125 206.539062 C 125.152344 206.003906 124.378906 205.429688 123.632812 204.820312 C 122.886719 204.207031 122.171875 203.5625 121.492188 202.882812 C 120.808594 202.199219 120.160156 201.484375 119.550781 200.742188 C 118.9375 199.996094 118.363281 199.222656 117.828125 198.421875 C 117.292969 197.621094 116.796875 196.792969 116.34375 195.945312 C 115.886719 195.09375 115.476562 194.226562 115.105469 193.335938 C 114.738281 192.445312 114.414062 191.539062 114.132812 190.617188 C 113.855469 189.691406 113.621094 188.757812 113.429688 187.8125 C 113.242188 186.867188 113.101562 185.917969 113.007812 184.957031 C 112.914062 184 112.867188 183.039062 112.867188 182.074219 C 112.867188 181.109375 112.914062 180.148438 113.007812 179.1875 C 113.101562 178.230469 113.242188 177.277344 113.429688 176.332031 C 113.621094 175.386719 113.855469 174.453125 114.132812 173.53125 C 114.414062 172.609375 114.738281 171.703125 115.105469 170.8125 C 115.476562 169.921875 115.886719 169.050781 116.34375 168.203125 C 116.796875 167.351562 117.292969 166.527344 117.828125 165.726562 C 118.363281 164.925781 118.9375 164.152344 119.550781 163.40625 C 120.160156 162.660156 120.808594 161.949219 121.492188 161.265625 C 122.171875 160.585938 122.886719 159.9375 123.632812 159.328125 C 124.378906 158.714844 125.152344 158.140625 125.953125 157.605469 C 126.753906 157.070312 127.582031 156.578125 128.433594 156.121094 C 129.28125 155.667969 130.152344 155.257812 131.042969 154.886719 C 131.933594 154.519531 132.84375 154.195312 133.765625 153.914062 C 134.6875 153.636719 135.621094 153.402344 136.570312 153.214844 C 137.515625 153.023438 138.46875 152.882812 139.425781 152.789062 C 140.386719 152.695312 141.347656 152.648438 142.3125 152.648438 C 143.277344 152.648438 144.242188 152.695312 145.199219 152.789062 C 146.160156 152.882812 147.113281 153.023438 148.058594 153.214844 C 149.003906 153.402344 149.9375 153.636719 150.863281 153.914062 C 151.785156 154.195312 152.691406 154.519531 153.582031 154.886719 C 154.472656 155.257812 155.34375 155.667969 156.195312 156.121094 C 157.046875 156.578125 157.871094 157.070312 158.675781 157.605469 C 159.476562 158.140625 160.25 158.714844 160.996094 159.328125 C 161.742188 159.9375 162.453125 160.585938 163.136719 161.265625 C 163.820312 161.949219 164.464844 162.660156 165.078125 163.40625 C 165.6875 164.152344 166.261719 164.925781 166.800781 165.726562 C 167.335938 166.527344 167.828125 167.351562 168.285156 168.203125 C 168.738281 169.050781 169.152344 169.921875 169.519531 170.8125 C 169.890625 171.703125 170.214844 172.609375 170.492188 173.53125 C 170.773438 174.453125 171.007812 175.386719 171.195312 176.332031 C 171.382812 177.277344 171.527344 178.230469 171.621094 179.1875 C 171.714844 180.148438 171.761719 181.109375 171.761719 182.074219 Z M 171.761719 182.074219 " fill-opacity="1" fill-rule="nonzero"/><path fill="#000000" d="M 109.199219 100.59375 C 109.199219 101.933594 109.132812 103.269531 109.003906 104.605469 C 108.871094 105.9375 108.675781 107.261719 108.414062 108.574219 C 108.152344 109.886719 107.824219 111.1875 107.4375 112.46875 C 107.046875 113.75 106.597656 115.007812 106.082031 116.246094 C 105.570312 117.484375 105 118.691406 104.367188 119.875 C 103.734375 121.054688 103.046875 122.203125 102.300781 123.316406 C 101.558594 124.429688 100.757812 125.503906 99.910156 126.539062 C 99.058594 127.578125 98.160156 128.566406 97.210938 129.515625 C 96.261719 130.460938 95.269531 131.359375 94.234375 132.210938 C 93.199219 133.058594 92.125 133.855469 91.007812 134.601562 C 89.894531 135.34375 88.746094 136.03125 87.5625 136.664062 C 86.382812 137.296875 85.171875 137.867188 83.933594 138.378906 C 82.695312 138.894531 81.433594 139.34375 80.152344 139.734375 C 78.867188 140.121094 77.570312 140.445312 76.253906 140.707031 C 74.941406 140.96875 73.617188 141.164062 72.28125 141.296875 C 70.949219 141.429688 69.609375 141.492188 68.269531 141.492188 C 66.929688 141.492188 65.59375 141.429688 64.257812 141.296875 C 62.925781 141.164062 61.597656 140.96875 60.285156 140.707031 C 58.96875 140.445312 57.671875 140.121094 56.386719 139.734375 C 55.105469 139.34375 53.84375 138.894531 52.605469 138.378906 C 51.367188 137.867188 50.15625 137.296875 48.976562 136.664062 C 47.792969 136.03125 46.644531 135.34375 45.53125 134.601562 C 44.414062 133.855469 43.339844 133.058594 42.304688 132.210938 C 41.269531 131.359375 40.277344 130.460938 39.328125 129.515625 C 38.378906 128.566406 37.480469 127.578125 36.628906 126.539062 C 35.78125 125.503906 34.984375 124.429688 34.238281 123.316406 C 33.492188 122.203125 32.804688 121.054688 32.171875 119.875 C 31.542969 118.691406 30.96875 117.484375 30.457031 116.246094 C 29.941406 115.007812 29.492188 113.75 29.101562 112.46875 C 28.714844 111.1875 28.386719 109.886719 28.125 108.574219 C 27.863281 107.261719 27.667969 105.9375 27.539062 104.605469 C 27.40625 103.269531 27.339844 101.933594 27.339844 100.59375 C 27.339844 99.253906 27.40625 97.917969 27.539062 96.585938 C 27.667969 95.253906 27.863281 93.929688 28.125 92.617188 C 28.386719 91.300781 28.714844 90.003906 29.101562 88.722656 C 29.492188 87.441406 29.941406 86.179688 30.457031 84.945312 C 30.96875 83.707031 31.542969 82.496094 32.171875 81.316406 C 32.804688 80.132812 33.492188 78.988281 34.238281 77.871094 C 34.984375 76.757812 35.78125 75.683594 36.628906 74.648438 C 37.480469 73.613281 38.378906 72.621094 39.328125 71.675781 C 40.277344 70.726562 41.269531 69.828125 42.304688 68.980469 C 43.339844 68.128906 44.414062 67.332031 45.53125 66.589844 C 46.644531 65.84375 47.792969 65.15625 48.976562 64.527344 C 50.15625 63.894531 51.367188 63.324219 52.605469 62.808594 C 53.84375 62.296875 55.105469 61.847656 56.386719 61.457031 C 57.671875 61.070312 58.96875 60.742188 60.285156 60.480469 C 61.597656 60.222656 62.925781 60.023438 64.257812 59.894531 C 65.59375 59.761719 66.929688 59.695312 68.269531 59.695312 C 69.609375 59.695312 70.949219 59.761719 72.28125 59.894531 C 73.617188 60.023438 74.941406 60.222656 76.253906 60.480469 C 77.570312 60.742188 78.867188 61.070312 80.152344 61.457031 C 81.433594 61.847656 82.695312 62.296875 83.933594 62.808594 C 85.171875 63.324219 86.382812 63.894531 87.5625 64.527344 C 88.746094 65.15625 89.894531 65.84375 91.007812 66.589844 C 92.125 67.332031 93.199219 68.128906 94.234375 68.980469 C 95.269531 69.828125 96.261719 70.726562 97.210938 71.675781 C 98.160156 72.621094 99.058594 73.613281 99.910156 74.648438 C 100.757812 75.683594 101.558594 76.757812 102.300781 77.871094 C 103.046875 78.988281 103.734375 80.132812 104.367188 81.316406 C 105 82.496094 105.570312 83.707031 106.082031 84.945312 C 106.597656 86.179688 107.046875 87.441406 107.4375 88.722656 C 107.824219 90.003906 108.152344 91.300781 108.414062 92.617188 C 108.675781 93.929688 108.871094 95.253906 109.003906 96.585938 C 109.132812 97.917969 109.199219 99.253906 109.199219 100.59375 Z M 109.199219 100.59375 " fill-opacity="1" fill-rule="nonzero"/><g clip-path="url(#2fc0e0295f)"><path fill="#000000" d="M 241.945312 69.371094 C 241.945312 70.707031 241.878906 72.046875 241.746094 73.378906 C 241.617188 74.710938 241.417969 76.035156 241.15625 77.347656 C 240.898438 78.660156 240.570312 79.960938 240.183594 81.242188 C 239.792969 82.523438 239.34375 83.78125 238.828125 85.019531 C 238.316406 86.257812 237.742188 87.46875 237.113281 88.648438 C 236.480469 89.832031 235.792969 90.976562 235.046875 92.089844 C 234.300781 93.207031 233.503906 94.28125 232.652344 95.316406 C 231.804688 96.351562 230.90625 97.34375 229.957031 98.289062 C 229.007812 99.234375 228.015625 100.132812 226.980469 100.984375 C 225.945312 101.835938 224.867188 102.632812 223.753906 103.375 C 222.640625 104.121094 221.492188 104.808594 220.308594 105.4375 C 219.125 106.070312 217.917969 106.640625 216.679688 107.15625 C 215.441406 107.667969 214.179688 108.117188 212.894531 108.507812 C 211.613281 108.894531 210.316406 109.222656 209 109.480469 C 207.683594 109.742188 206.359375 109.941406 205.027344 110.070312 C 203.691406 110.203125 202.355469 110.269531 201.015625 110.269531 C 199.675781 110.269531 198.335938 110.203125 197.003906 110.070312 C 195.667969 109.941406 194.34375 109.742188 193.03125 109.480469 C 191.714844 109.222656 190.417969 108.894531 189.132812 108.507812 C 187.851562 108.117188 186.589844 107.667969 185.351562 107.15625 C 184.113281 106.640625 182.902344 106.070312 181.722656 105.4375 C 180.539062 104.808594 179.390625 104.121094 178.277344 103.375 C 177.160156 102.632812 176.085938 101.835938 175.050781 100.984375 C 174.011719 100.132812 173.019531 99.234375 172.074219 98.289062 C 171.125 97.34375 170.226562 96.351562 169.375 95.316406 C 168.527344 94.28125 167.726562 93.207031 166.984375 92.089844 C 166.238281 90.976562 165.550781 89.832031 164.917969 88.648438 C 164.285156 87.46875 163.714844 86.257812 163.199219 85.019531 C 162.6875 83.78125 162.238281 82.523438 161.847656 81.242188 C 161.457031 79.960938 161.132812 78.660156 160.871094 77.347656 C 160.609375 76.035156 160.414062 74.710938 160.28125 73.378906 C 160.152344 72.046875 160.085938 70.707031 160.085938 69.371094 C 160.085938 68.03125 160.152344 66.695312 160.28125 65.359375 C 160.414062 64.027344 160.609375 62.703125 160.871094 61.390625 C 161.132812 60.078125 161.457031 58.777344 161.847656 57.496094 C 162.238281 56.214844 162.6875 54.957031 163.199219 53.71875 C 163.714844 52.480469 164.285156 51.269531 164.917969 50.089844 C 165.550781 48.910156 166.238281 47.761719 166.984375 46.648438 C 167.726562 45.535156 168.527344 44.457031 169.375 43.421875 C 170.226562 42.386719 171.125 41.398438 172.074219 40.449219 C 173.019531 39.503906 174.011719 38.605469 175.050781 37.753906 C 176.085938 36.90625 177.160156 36.109375 178.277344 35.363281 C 179.390625 34.617188 180.539062 33.929688 181.722656 33.300781 C 182.902344 32.667969 184.113281 32.097656 185.351562 31.582031 C 186.589844 31.070312 187.851562 30.621094 189.132812 30.230469 C 190.417969 29.84375 191.714844 29.519531 193.03125 29.257812 C 194.34375 28.996094 195.667969 28.800781 197.003906 28.667969 C 198.335938 28.535156 199.675781 28.46875 201.015625 28.46875 C 202.355469 28.46875 203.691406 28.535156 205.027344 28.667969 C 206.359375 28.800781 207.683594 28.996094 209 29.257812 C 210.316406 29.519531 211.613281 29.84375 212.894531 30.230469 C 214.179688 30.621094 215.441406 31.070312 216.679688 31.582031 C 217.917969 32.097656 219.125 32.667969 220.308594 33.300781 C 221.492188 33.929688 222.640625 34.617188 223.753906 35.363281 C 224.867188 36.109375 225.945312 36.90625 226.980469 37.753906 C 228.015625 38.605469 229.007812 39.503906 229.957031 40.449219 C 230.90625 41.398438 231.804688 42.386719 232.652344 43.421875 C 233.503906 44.457031 234.300781 45.535156 235.046875 46.648438 C 235.792969 47.761719 236.480469 48.910156 237.113281 50.089844 C 237.742188 51.269531 238.316406 52.480469 238.828125 53.71875 C 239.34375 54.957031 239.792969 56.214844 240.183594 57.496094 C 240.570312 58.777344 240.898438 60.078125 241.15625 61.390625 C 241.417969 62.703125 241.617188 64.027344 241.746094 65.359375 C 241.878906 66.695312 241.945312 68.03125 241.945312 69.371094 Z M 241.945312 69.371094 " fill-opacity="1" fill-rule="nonzero"/></g><g clip-path="url(#9f5cc9d9f0)"><path fill="#000000" d="M 224.566406 119.039062 L 181.890625 119.039062 C 165.832031 119.039062 152.027344 128.53125 145.683594 142.183594 C 166.210938 143.902344 182.394531 161.121094 182.394531 182.074219 C 182.394531 194.265625 176.898438 205.183594 168.277344 212.539062 C 185.652344 216.625 198.640625 232.210938 198.640625 250.808594 L 198.640625 251.28125 L 264.511719 251.28125 L 264.511719 158.949219 C 264.511719 136.914062 246.628906 119.039062 224.566406 119.039062 Z M 224.566406 119.039062 " fill-opacity="1" fill-rule="nonzero"/></g><g clip-path="url(#983400401c)"><path fill="#000000" d="M 117.089844 213.167969 C 108.03125 205.816406 102.226562 194.617188 102.226562 182.074219 C 102.226562 172.03125 105.972656 162.867188 112.101562 155.828125 C 106.152344 152.316406 99.238281 150.265625 91.828125 150.265625 L 49.148438 150.265625 C 27.089844 150.261719 9.210938 168.132812 9.210938 190.175781 L 9.210938 251.28125 L 89.175781 251.28125 L 89.175781 250.804688 C 89.175781 233.089844 100.953125 218.085938 117.089844 213.167969 Z M 117.089844 213.167969 " fill-opacity="1" fill-rule="nonzero"/></g></svg>