<svg xmlns="http://www.w3.org/2000/svg" xmlns:xlink="http://www.w3.org/1999/xlink" width="378" zoomAndPan="magnify" viewBox="0 0 282.96 283.499989" height="378" preserveAspectRatio="xMidYMid meet" version="1.0"><path fill="#000000" d="M 206.921875 132.339844 L 183.296875 112.714844 L 183.296875 87.460938 L 166.839844 87.460938 L 166.839844 99.070312 L 146.640625 82.300781 C 143.742188 79.910156 139.039062 79.910156 136.160156 82.300781 L 75.871094 132.339844 C 72.988281 134.726562 73.695312 136.675781 77.4375 136.675781 L 94.382812 136.675781 L 94.382812 195.953125 C 94.382812 199.710938 97.453125 202.769531 101.195312 202.769531 L 181.601562 202.769531 C 185.34375 202.769531 188.398438 199.707031 188.398438 195.953125 L 188.398438 136.675781 L 205.355469 136.675781 C 209.097656 136.675781 209.800781 134.722656 206.921875 132.339844 Z M 159.039062 166.820312 C 148.429688 180.417969 141.394531 182.480469 141.394531 182.480469 C 141.394531 182.480469 134.359375 180.414062 123.753906 166.816406 C 110.597656 149.945312 116.335938 133.085938 128.941406 133.792969 C 139.273438 134.378906 141.394531 146.441406 141.394531 146.441406 C 141.394531 146.441406 143.511719 134.378906 153.851562 133.792969 C 166.453125 133.089844 172.191406 149.945312 159.039062 166.820312 Z M 159.039062 166.820312 " fill-opacity="1" fill-rule="nonzero"/></svg>