<svg xmlns="http://www.w3.org/2000/svg" xmlns:xlink="http://www.w3.org/1999/xlink" width="378" zoomAndPan="magnify" viewBox="0 0 282.96 283.499989" height="378" preserveAspectRatio="xMidYMid meet" version="1.0"><defs><clipPath id="5cb006dd65"><path d="M 143 91 L 207.957031 91 L 207.957031 159 L 143 159 Z M 143 91 " clip-rule="nonzero"/></clipPath></defs><path fill="#000000" d="M 103.648438 92.847656 C 106.765625 89.902344 112.257812 90.550781 117.914062 91.871094 C 121.503906 92.707031 128.6875 94.535156 131.789062 96.480469 C 133.597656 97.613281 135.390625 98.769531 137.214844 99.886719 C 139.476562 101.269531 141.921875 102.726562 144.371094 103.734375 C 144.675781 103.863281 144.988281 103.976562 145.304688 104.078125 L 143.230469 106.375 C 139.003906 111.054688 139.378906 118.34375 144.058594 122.570312 C 146.441406 124.722656 149.503906 125.679688 152.496094 125.484375 C 151.160156 129.652344 152.273438 134.414062 155.714844 137.523438 C 158.433594 139.976562 162.03125 140.878906 165.402344 140.285156 C 165.15625 143.695312 166.421875 147.183594 169.140625 149.640625 C 172.339844 152.527344 176.761719 153.265625 180.589844 151.949219 C 180.953125 154.519531 182.179688 156.980469 184.242188 158.84375 C 188.921875 163.070312 196.214844 162.695312 200.4375 158.015625 L 202.253906 156.003906 C 203.714844 158.464844 205.0625 160.957031 206.21875 163.417969 C 201.003906 173.492188 189.839844 187.828125 176.234375 196.761719 C 173.066406 195.488281 170.25 193.378906 167.203125 190.902344 C 154.558594 180.613281 140.292969 178.636719 127.558594 176.035156 C 123.46875 175.203125 110.015625 171.394531 98.222656 164.429688 C 89.863281 159.496094 81.054688 137.507812 91.503906 138.703125 C 92.011719 138.171875 81.550781 126.347656 90.335938 121.917969 C 91.636719 121.265625 93.804688 121.976562 96.589844 122.898438 C 89.632812 115.625 90.273438 107.367188 94.117188 104.679688 C 96.851562 102.769531 99.445312 103.671875 102.414062 105.726562 L 105.960938 108.183594 C 102.085938 103.769531 98.386719 97.824219 103.648438 92.847656 Z M 103.648438 92.847656 " fill-opacity="1" fill-rule="evenodd"/><g clip-path="url(#5cb006dd65)"><path fill="#000000" d="M 204.4375 136.472656 C 201.226562 133.574219 196.222656 133.828125 193.324219 137.042969 L 186.085938 145.058594 C 183.1875 148.273438 183.441406 153.273438 186.65625 156.171875 C 189.867188 159.074219 194.867188 158.816406 197.765625 155.605469 L 205.003906 147.585938 C 207.90625 144.371094 207.648438 139.371094 204.4375 136.472656 Z M 170.234375 93.574219 C 168.160156 91.703125 165.339844 91.144531 162.820312 91.851562 L 162.820312 94.472656 C 162.820312 100.746094 155.578125 104.496094 150.0625 104.707031 C 149.902344 104.710938 149.738281 104.714844 149.578125 104.714844 L 145.902344 108.789062 C 143.003906 112 143.257812 117 146.46875 119.898438 C 149.683594 122.800781 154.683594 122.542969 157.582031 119.332031 L 170.800781 104.6875 C 173.699219 101.472656 173.445312 96.472656 170.234375 93.574219 Z M 186.769531 103.121094 C 189.980469 106.019531 190.234375 111.019531 187.335938 114.234375 L 169.238281 134.28125 C 166.339844 137.496094 161.339844 137.75 158.125 134.851562 C 154.914062 131.953125 154.660156 126.953125 157.558594 123.738281 L 175.65625 103.691406 C 178.554688 100.476562 183.554688 100.222656 186.769531 103.121094 Z M 196.414062 119.421875 C 199.625 122.324219 199.882812 127.324219 196.984375 130.535156 L 182.660156 146.398438 C 179.761719 149.613281 174.761719 149.867188 171.550781 146.96875 C 168.339844 144.070312 168.082031 139.066406 170.980469 135.855469 L 185.300781 119.992188 C 188.203125 116.78125 193.203125 116.523438 196.414062 119.421875 Z M 196.414062 119.421875 " fill-opacity="1" fill-rule="evenodd"/></g><path fill="#000000" d="M 148.292969 87.953125 C 152.429688 91.226562 158.070312 94.589844 159.433594 94.472656 C 159.433594 99.070312 151.464844 102.996094 145.664062 100.601562 C 141.394531 98.839844 134.875 94.289062 131.535156 92.355469 C 129.179688 90.992188 127.761719 91.59375 129.125 88.101562 C 131.503906 82.003906 141.34375 82.449219 148.292969 87.953125 Z M 148.292969 87.953125 " fill-opacity="1" fill-rule="evenodd"/><path fill="#000000" d="M 143.875 182.839844 C 133.089844 186.175781 128.152344 188.25 114.777344 198.046875 C 110.808594 200.953125 75.519531 168.964844 85.742188 153.882812 C 86.207031 154.945312 86.691406 155.917969 87.136719 156.753906 C 89.242188 160.671875 92.503906 165.234375 96.390625 167.53125 C 102.113281 170.90625 108.3125 173.667969 114.5625 175.917969 C 118.449219 177.316406 122.78125 178.734375 126.839844 179.5625 C 131.328125 180.480469 139.667969 181.839844 143.875 182.839844 Z M 143.875 182.839844 " fill-opacity="1" fill-rule="evenodd"/></svg>