<svg xmlns="http://www.w3.org/2000/svg" xmlns:xlink="http://www.w3.org/1999/xlink" width="378" zoomAndPan="magnify" viewBox="0 0 282.96 283.499989" height="378" preserveAspectRatio="xMidYMid meet" version="1.0"><path fill="#000000" d="M 276.871094 112.433594 L 229.621094 73.1875 L 229.621094 22.671875 L 196.707031 22.671875 L 196.707031 45.894531 L 156.304688 12.351562 C 150.511719 7.574219 141.101562 7.574219 135.347656 12.351562 L 14.761719 112.433594 C 9 117.210938 10.414062 121.101562 17.898438 121.101562 L 51.792969 121.101562 L 51.792969 239.667969 C 51.792969 247.179688 57.929688 253.300781 65.410156 253.300781 L 226.230469 253.300781 C 233.710938 253.300781 239.820312 247.171875 239.820312 239.667969 L 239.820312 121.101562 L 273.738281 121.101562 C 281.21875 121.101562 282.625 117.203125 276.871094 112.433594 Z M 181.101562 181.398438 C 159.886719 208.59375 145.816406 212.722656 145.816406 212.722656 C 145.816406 212.722656 131.746094 208.585938 110.53125 181.390625 C 84.222656 147.648438 95.699219 113.929688 120.90625 115.34375 C 141.574219 116.511719 145.816406 140.640625 145.816406 140.640625 C 145.816406 140.640625 150.050781 116.511719 170.726562 115.34375 C 195.925781 113.9375 207.410156 147.648438 181.101562 181.398438 Z M 181.101562 181.398438 " fill-opacity="1" fill-rule="nonzero"/></svg>